<svg width="21" height="20" viewBox="0 0 21 20" fill="none" xmlns="http://www.w3.org/2000/svg">
<path fill-rule="evenodd" clip-rule="evenodd" d="M8.625 3.25C8.27982 3.25 8 3.52982 8 3.875V5H5.75C4.64543 5 3.75 5.89543 3.75 7V14.75C3.75 15.8546 4.64543 16.75 5.75 16.75H15.25C16.3546 16.75 17.25 15.8546 17.25 14.75V7C17.25 5.89543 16.3546 5 15.25 5H13V3.875C13 3.52982 12.7202 3.25 12.375 3.25C12.0298 3.25 11.75 3.52982 11.75 3.875V5H9.25V3.875C9.25 3.52982 8.97018 3.25 8.625 3.25ZM11.75 6.125V6H9.25V6.125C9.25 6.47018 8.97018 6.75 8.625 6.75C8.27982 6.75 8 6.47018 8 6.125V6H5.75C5.19772 6 4.75 6.44772 4.75 7V7.5H16.25V7C16.25 6.44772 15.8023 6 15.25 6H13V6.125C13 6.47018 12.7202 6.75 12.375 6.75C12.0298 6.75 11.75 6.47018 11.75 6.125ZM16.25 8.5H4.75V14.75C4.75 15.3023 5.19772 15.75 5.75 15.75H15.25C15.8023 15.75 16.25 15.3023 16.25 14.75V8.5Z" fill="#292929"/>
<path d="M7.25 10.75C7.25 10.3358 7.58579 10 8 10C8.41421 10 8.75 10.3358 8.75 10.75C8.75 11.1642 8.41421 11.5 8 11.5C7.58579 11.5 7.25 11.1642 7.25 10.75Z" fill="#292929"/>
<path d="M7.25 13C7.25 12.5858 7.58579 12.25 8 12.25C8.41421 12.25 8.75 12.5858 8.75 13C8.75 13.4142 8.41421 13.75 8 13.75C7.58579 13.75 7.25 13.4142 7.25 13Z" fill="#292929"/>
<path d="M9.75 10.75C9.75 10.3358 10.0858 10 10.5 10C10.9142 10 11.25 10.3358 11.25 10.75C11.25 11.1642 10.9142 11.5 10.5 11.5C10.0858 11.5 9.75 11.1642 9.75 10.75Z" fill="#292929"/>
<path d="M9.75 13C9.75 12.5858 10.0858 12.25 10.5 12.25C10.9142 12.25 11.25 12.5858 11.25 13C11.25 13.4142 10.9142 13.75 10.5 13.75C10.0858 13.75 9.75 13.4142 9.75 13Z" fill="#292929"/>
<path d="M12.25 10.75C12.25 10.3358 12.5858 10 13 10C13.4142 10 13.75 10.3358 13.75 10.75C13.75 11.1642 13.4142 11.5 13 11.5C12.5858 11.5 12.25 11.1642 12.25 10.75Z" fill="#292929"/>
<path d="M12.25 13C12.25 12.5858 12.5858 12.25 13 12.25C13.4142 12.25 13.75 12.5858 13.75 13C13.75 13.4142 13.4142 13.75 13 13.75C12.5858 13.75 12.25 13.4142 12.25 13Z" fill="#292929"/>
</svg>
