<svg width="30" height="30" viewBox="0 0 30 30" fill="none" xmlns="http://www.w3.org/2000/svg">
<path d="M25.2727 2H4.32727C3.04145 2 2 3.04145 2 4.32727V25.2727C2 26.5585 3.04145 27.6 4.32727 27.6H25.2727C26.5585 27.6 27.6 26.5585 27.6 25.2727V4.32727C27.6 3.04145 26.5574 2 25.2727 2ZM23.7472 13.0243C23.5959 13.0383 23.4435 13.0476 23.2899 13.0476C21.5503 13.0476 20.0212 12.1539 19.1311 10.8006C19.1311 14.3485 19.1311 18.3863 19.1311 18.4538C19.1311 21.5782 16.5978 24.1103 13.4746 24.1103C10.3514 24.1091 7.81818 21.5759 7.81818 18.4527C7.81818 15.3283 10.3514 12.7962 13.4746 12.7962C13.5933 12.7962 13.7085 12.8067 13.8237 12.8137V15.6017C13.7073 15.5878 13.5945 15.5668 13.4746 15.5668C11.8804 15.5668 10.5876 16.8596 10.5876 18.4538C10.5876 20.048 11.8793 21.3408 13.4746 21.3408C15.07 21.3408 16.478 20.0841 16.478 18.4899C16.478 18.4259 16.5059 5.49207 16.5059 5.49207H19.1695C19.4196 7.87404 21.3431 9.75447 23.7472 9.92669V13.0243Z" fill="#fff"/>
</svg>
