<svg width="21" height="20" viewBox="0 0 21 20" fill="none" xmlns="http://www.w3.org/2000/svg">
<path fill-rule="evenodd" clip-rule="evenodd" d="M6.59121 10.5638C5.14083 7.663 7.25018 4.25 10.4933 4.25C13.7365 4.25 15.8459 7.66301 14.3955 10.5638L12.3695 14.6157C11.5965 16.1617 9.39019 16.1617 8.61716 14.6157L6.59121 10.5638ZM10.4933 5.25C7.99356 5.25 6.3677 7.88069 7.48564 10.1166L9.51158 14.1684C9.91609 14.9775 11.0706 14.9775 11.4751 14.1685L13.501 10.1166C14.619 7.88069 12.9931 5.25 10.4933 5.25Z" fill="#fff"/>
<path fill-rule="evenodd" clip-rule="evenodd" d="M8.74334 8.5C8.74334 7.5335 9.52684 6.75 10.4933 6.75C11.4598 6.75 12.2433 7.5335 12.2433 8.5C12.2433 9.4665 11.4598 10.25 10.4933 10.25C9.52684 10.25 8.74334 9.4665 8.74334 8.5ZM10.4933 7.75C10.0791 7.75 9.74334 8.08579 9.74334 8.5C9.74334 8.91421 10.0791 9.25 10.4933 9.25C10.9076 9.25 11.2433 8.91421 11.2433 8.5C11.2433 8.08579 10.9076 7.75 10.4933 7.75Z" fill="#fff"/>
</svg>
