<svg width="20" height="20" viewBox="0 0 20 20" fill="none" xmlns="http://www.w3.org/2000/svg">
<path fill-rule="evenodd" clip-rule="evenodd" d="M7 2.875C7 2.46079 7.33579 2.125 7.75 2.125C8.16421 2.125 8.5 2.46079 8.5 2.875V3.375H11.375V2.875C11.375 2.46079 11.7108 2.125 12.125 2.125C12.5392 2.125 12.875 2.46079 12.875 2.875V3.375H14.5C16.5711 3.375 18.25 5.05393 18.25 7.125V14.125C18.25 16.1961 16.5711 17.875 14.5 17.875H5.5C3.42893 17.875 1.75 16.1961 1.75 14.125V7.125C1.75 5.05393 3.42893 3.375 5.5 3.375H7V2.875ZM11.375 4.875V5.375C11.375 5.78921 11.7108 6.125 12.125 6.125C12.5392 6.125 12.875 5.78921 12.875 5.375V4.875H14.5C15.7426 4.875 16.75 5.88236 16.75 7.125H3.25C3.25 5.88236 4.25736 4.875 5.5 4.875H7V5.375C7 5.78921 7.33579 6.125 7.75 6.125C8.16421 6.125 8.5 5.78921 8.5 5.375V4.875H11.375ZM3.25 8.625V14.125C3.25 15.3676 4.25736 16.375 5.5 16.375H14.5C15.7426 16.375 16.75 15.3676 16.75 14.125V8.625H3.25Z" fill="#fff"/>
<path d="M12 10.875C12 10.3227 12.4477 9.875 13 9.875C13.5523 9.875 14 10.3227 14 10.875C14 11.4273 13.5523 11.875 13 11.875C12.4477 11.875 12 11.4273 12 10.875Z" fill="#fff"/>
<path d="M12 13.875C12 13.3227 12.4477 12.875 13 12.875C13.5523 12.875 14 13.3227 14 13.875C14 14.4273 13.5523 14.875 13 14.875C12.4477 14.875 12 14.4273 12 13.875Z" fill="#fff"/>
<path d="M9 10.875C9 10.3227 9.44772 9.875 10 9.875C10.5523 9.875 11 10.3227 11 10.875C11 11.4273 10.5523 11.875 10 11.875C9.44772 11.875 9 11.4273 9 10.875Z" fill="#fff"/>
<path d="M9 13.875C9 13.3227 9.44772 12.875 10 12.875C10.5523 12.875 11 13.3227 11 13.875C11 14.4273 10.5523 14.875 10 14.875C9.44772 14.875 9 14.4273 9 13.875Z" fill="#fff"/>
<path d="M6 10.875C6 10.3227 6.44772 9.875 7 9.875C7.55228 9.875 8 10.3227 8 10.875C8 11.4273 7.55228 11.875 7 11.875C6.44772 11.875 6 11.4273 6 10.875Z" fill="#fff"/>
<path d="M6 13.875C6 13.3227 6.44772 12.875 7 12.875C7.55228 12.875 8 13.3227 8 13.875C8 14.4273 7.55228 14.875 7 14.875C6.44772 14.875 6 14.4273 6 13.875Z" fill="#fff"/>
</svg>
