<svg width="20" height="20" viewBox="0 0 20 20" fill="none" xmlns="http://www.w3.org/2000/svg">
<path fill-rule="evenodd" clip-rule="evenodd" d="M11.0464 4.361C10.4416 3.852 9.55835 3.852 8.9536 4.361L3.8286 8.67454C3.46176 8.9833 3.25 9.43831 3.25 9.91779V15.125C3.25 16.0224 3.97754 16.75 4.875 16.75H6.10294C6.4603 16.75 6.75 16.4603 6.75 16.1029V15C6.75 13.2051 8.20507 11.75 10 11.75C11.7949 11.75 13.25 13.2051 13.25 15V16.1029C13.25 16.4603 13.5397 16.75 13.8971 16.75H15.125C16.0225 16.75 16.75 16.0224 16.75 15.125V9.91779C16.75 9.43831 16.5382 8.9833 16.1714 8.67454L11.0464 4.361ZM7.98769 3.21338C9.15068 2.23454 10.8493 2.23454 12.0123 3.21338L17.1373 7.52693C17.8428 8.12069 18.25 8.99571 18.25 9.91779V15.125C18.25 16.8509 16.8509 18.25 15.125 18.25H13.8971C12.7113 18.25 11.75 17.2887 11.75 16.1029V15C11.75 14.0335 10.9665 13.25 10 13.25C9.0335 13.25 8.25 14.0335 8.25 15V16.1029C8.25 17.2887 7.28873 18.25 6.10294 18.25H4.875C3.14911 18.25 1.75 16.8509 1.75 15.125V9.91779C1.75 8.99571 2.15722 8.12069 2.86269 7.52693L7.98769 3.21338ZM8 8.24998C8 7.14541 8.89543 6.24998 10 6.24998C11.1046 6.24998 12 7.14541 12 8.24998C12 9.35455 11.1046 10.25 10 10.25C8.89543 10.25 8 9.35455 8 8.24998ZM10 7.74998C9.72386 7.74998 9.5 7.97384 9.5 8.24998C9.5 8.52613 9.72386 8.74998 10 8.74998C10.2761 8.74998 10.5 8.52613 10.5 8.24998C10.5 7.97384 10.2761 7.74998 10 7.74998Z" fill="#292929"/>
</svg>
