<svg width="25" height="25" viewBox="0 0 25 25" fill="none" xmlns="http://www.w3.org/2000/svg">
<path fill-rule="evenodd" clip-rule="evenodd" d="M12.5911 3.38379C12.9225 3.38378 13.1911 3.65241 13.1911 3.98378L13.1913 11.8692L21.0761 11.8694C21.4075 11.8694 21.6761 12.138 21.6761 12.4694C21.6761 12.8008 21.4075 13.0694 21.0761 13.0694L13.1913 13.0692L13.1915 20.954C13.1915 21.2854 12.9228 21.554 12.5915 21.554C12.2601 21.554 11.9915 21.2854 11.9915 20.954L11.9913 13.0692L4.10585 13.0691C3.77448 13.0691 3.50585 12.8004 3.50586 12.4691C3.50587 12.1377 3.7745 11.8691 4.10587 11.8691L11.9913 11.8692L11.9911 3.9838C11.9911 3.65243 12.2598 3.3838 12.5911 3.38379Z" fill="#EDF9FF"/>
</svg>
