<svg width="40" height="40" viewBox="0 0 40 40" fill="none" xmlns="http://www.w3.org/2000/svg">
<path fill-rule="evenodd" clip-rule="evenodd" d="M13.4444 21.3896C13.4444 20.8373 13.8921 20.3896 14.4444 20.3896H14.4448C14.9971 20.3896 15.4448 20.8373 15.4448 21.3896C15.4448 21.9419 14.9971 22.3896 14.4448 22.3896H14.4444C13.8921 22.3896 13.4444 21.9419 13.4444 21.3896ZM18.9996 21.3896C18.9996 20.8373 19.4473 20.3896 19.9996 20.3896H20.0004C20.5527 20.3896 21.0004 20.8373 21.0004 21.3896C21.0004 21.9419 20.5527 22.3896 20.0004 22.3896H19.9996C19.4473 22.3896 18.9996 21.9419 18.9996 21.3896ZM24.5551 21.3896C24.5551 20.8373 25.0028 20.3896 25.5551 20.3896H25.5555C26.1078 20.3896 26.5555 20.8373 26.5555 21.3896C26.5555 21.9419 26.1078 22.3896 25.5555 22.3896H25.5551C25.0028 22.3896 24.5551 21.9419 24.5551 21.3896Z" fill="#F6F6F6"/>
<path fill-rule="evenodd" clip-rule="evenodd" d="M13.4444 26.945C13.4444 26.3927 13.8921 25.945 14.4444 25.945H14.4448C14.9971 25.945 15.4448 26.3927 15.4448 26.945C15.4448 27.4973 14.9971 27.945 14.4448 27.945H14.4444C13.8921 27.945 13.4444 27.4973 13.4444 26.945ZM18.9996 26.945C18.9996 26.3927 19.4473 25.945 19.9996 25.945H20.0004C20.5527 25.945 21.0004 26.3927 21.0004 26.945C21.0004 27.4973 20.5527 27.945 20.0004 27.945H19.9996C19.4473 27.945 18.9996 27.4973 18.9996 26.945ZM24.5551 26.945C24.5551 26.3927 25.0028 25.945 25.5551 25.945H25.5555C26.1078 25.945 26.5555 26.3927 26.5555 26.945C26.5555 27.4973 26.1078 27.945 25.5555 27.945H25.5551C25.0028 27.945 24.5551 27.4973 24.5551 26.945Z" fill="#F6F6F6"/>
<path fill-rule="evenodd" clip-rule="evenodd" d="M14.4444 6.50064C14.9967 6.50064 15.4444 6.94836 15.4444 7.50064V9.27842H24.5556V7.50064C24.5556 6.94836 25.0033 6.50064 25.5556 6.50064C26.1078 6.50064 26.5556 6.94836 26.5556 7.50064V9.27842H26.9444C30.565 9.27842 33.5 12.2134 33.5 15.834V26.9451C33.5 30.5656 30.565 33.5006 26.9444 33.5006H13.0556C9.43502 33.5006 6.5 30.5656 6.5 26.9451V15.834C6.5 12.2134 9.43502 9.27842 13.0556 9.27842H13.4444V7.50064C13.4444 6.94836 13.8922 6.50064 14.4444 6.50064ZM8.6101 14.834H31.3899C30.9341 12.799 29.1169 11.2784 26.9444 11.2784H13.0556C10.8831 11.2784 9.06587 12.799 8.6101 14.834ZM31.5 16.834H8.5V26.9451C8.5 29.461 10.5396 31.5006 13.0556 31.5006H26.9444C29.4604 31.5006 31.5 29.461 31.5 26.9451V16.834Z" fill="#F6F6F6"/>
</svg>
