<svg width="24" height="25" viewBox="0 0 24 25" fill="none" xmlns="http://www.w3.org/2000/svg">
<path fill-rule="evenodd" clip-rule="evenodd" d="M5.09961 8.26885C5.09961 6.77768 6.30844 5.56885 7.79961 5.56885H19.1996C20.6908 5.56885 21.8996 6.77768 21.8996 8.26885V19.6688C21.8996 21.16 20.6908 22.3688 19.1996 22.3688H7.79961C6.30844 22.3688 5.09961 21.16 5.09961 19.6688V8.26885ZM7.79961 7.36885C7.30255 7.36885 6.89961 7.77179 6.89961 8.26885V19.6688C6.89961 20.1659 7.30255 20.5688 7.79961 20.5688H19.1996C19.6967 20.5688 20.0996 20.1659 20.0996 19.6688V8.26885C20.0996 7.77179 19.6967 7.36885 19.1996 7.36885H7.79961Z" fill="#1D1C16"/>
<path d="M6.59961 2.56885H12.5996C13.0967 2.56885 13.4996 2.97179 13.4996 3.46885C13.4996 3.9659 13.0967 4.36885 12.5996 4.36885H6.59961C5.10844 4.36885 3.89961 5.57768 3.89961 7.06885V13.0688C3.89961 13.5659 3.49667 13.9688 2.99961 13.9688C2.50255 13.9688 2.09961 13.5659 2.09961 13.0688V7.06885C2.09961 4.58357 4.11433 2.56885 6.59961 2.56885Z" fill="#1D1C16"/>
</svg>
