<svg width="36" height="36" viewBox="0 0 36 36" fill="none" xmlns="http://www.w3.org/2000/svg">
<path d="M25.35 9.1H23.25V8.05C23.25 7.77152 23.1394 7.50445 22.9425 7.30754C22.7455 7.11062 22.4785 7 22.2 7C21.9215 7 21.6545 7.11062 21.4575 7.30754C21.2606 7.50445 21.15 7.77152 21.15 8.05V9.1H14.85V8.05C14.85 7.77152 14.7394 7.50445 14.5425 7.30754C14.3455 7.11062 14.0785 7 13.8 7C13.5215 7 13.2545 7.11062 13.0575 7.30754C12.8606 7.50445 12.75 7.77152 12.75 8.05V9.1H10.65C9.81457 9.1 9.01335 9.43187 8.42261 10.0226C7.83187 10.6134 7.5 11.4146 7.5 12.25V24.85C7.5 25.6854 7.83187 26.4866 8.42261 27.0774C9.01335 27.6681 9.81457 28 10.65 28H25.35C26.1854 28 26.9866 27.6681 27.5774 27.0774C28.1681 26.4866 28.5 25.6854 28.5 24.85V12.25C28.5 11.4146 28.1681 10.6134 27.5774 10.0226C26.9866 9.43187 26.1854 9.1 25.35 9.1ZM26.4 24.85C26.4 25.1285 26.2894 25.3955 26.0925 25.5925C25.8955 25.7894 25.6285 25.9 25.35 25.9H10.65C10.3715 25.9 10.1045 25.7894 9.90754 25.5925C9.71062 25.3955 9.6 25.1285 9.6 24.85V17.5H26.4V24.85ZM26.4 15.4H9.6V12.25C9.6 11.9715 9.71062 11.7045 9.90754 11.5075C10.1045 11.3106 10.3715 11.2 10.65 11.2H12.75V12.25C12.75 12.5285 12.8606 12.7955 13.0575 12.9925C13.2545 13.1894 13.5215 13.3 13.8 13.3C14.0785 13.3 14.3455 13.1894 14.5425 12.9925C14.7394 12.7955 14.85 12.5285 14.85 12.25V11.2H21.15V12.25C21.15 12.5285 21.2606 12.7955 21.4575 12.9925C21.6545 13.1894 21.9215 13.3 22.2 13.3C22.4785 13.3 22.7455 13.1894 22.9425 12.9925C23.1394 12.7955 23.25 12.5285 23.25 12.25V11.2H25.35C25.6285 11.2 25.8955 11.3106 26.0925 11.5075C26.2894 11.7045 26.4 11.9715 26.4 12.25V15.4Z" fill="white"/>
</svg>
