<svg width="37" height="36" viewBox="0 0 37 36" fill="none" xmlns="http://www.w3.org/2000/svg">
<path d="M28.7793 9.15635C28.6915 9.07983 28.5848 9.02895 28.4706 9.00921C28.3564 8.98947 28.2389 9.00161 28.131 9.04432L9.70671 16.327C9.48262 16.4156 9.29302 16.5752 9.16639 16.7819C9.03976 16.9886 8.98294 17.2312 9.00446 17.4733C9.02597 17.7154 9.12467 17.9439 9.28573 18.1245C9.44678 18.3051 9.6615 18.428 9.89763 18.4749L14.8178 19.451V24.978C14.8179 25.2342 14.8938 25.4846 15.0358 25.6969C15.1778 25.9093 15.3793 26.0739 15.6146 26.1698C15.8499 26.2656 16.1081 26.2882 16.3562 26.2347C16.6043 26.1812 16.8309 26.0541 17.007 25.8696L19.4289 23.3325L23.209 26.6795C23.4398 26.8858 23.7373 26.9998 24.0454 27C24.18 26.9997 24.3137 26.9783 24.4418 26.9366C24.6518 26.8695 24.8407 26.748 24.9897 26.5841C25.1387 26.4203 25.2426 26.2198 25.2909 26.0028L28.9838 9.78719C29.0098 9.67319 29.0044 9.5542 28.9684 9.44303C28.9323 9.33187 28.867 9.23275 28.7793 9.15635ZM10.0949 17.3904C10.0914 17.3809 10.0914 17.3705 10.0949 17.361C10.099 17.3578 10.1036 17.3553 10.1085 17.3537L24.6282 11.6127L15.2369 18.4078L10.1085 17.3941L10.0949 17.3904ZM16.2215 25.1038C16.1964 25.13 16.1642 25.1482 16.1289 25.1559C16.0936 25.1636 16.0569 25.1605 16.0233 25.147C15.9898 25.1335 15.961 25.1102 15.9406 25.0801C15.9202 25.05 15.9091 25.0145 15.9088 24.978V20.2131L18.608 22.6006L16.2215 25.1038ZM24.2282 25.7539C24.2215 25.785 24.2066 25.8136 24.1852 25.8369C24.1638 25.8601 24.1365 25.8772 24.1063 25.8861C24.0756 25.8971 24.0424 25.8994 24.0105 25.893C23.9785 25.8865 23.9488 25.8715 23.9245 25.8494L16.2397 19.0405L27.6365 10.7909L24.2282 25.7539Z" fill="white"/>
</svg>
