<svg width="370" height="28" viewBox="0 0 370 28" fill="none" xmlns="http://www.w3.org/2000/svg">
<g clip-path="url(#clip0_10_204)">
<path d="M13.8429 11.999C18.1935 2.999 5.14169 -1.201 1.18659 6.799C-1.18648 11.599 0.197811 16.999 3.55965 20.599C9.0968 26.599 17.6003 26.599 25.115 26.199C47.2635 24.799 69.4121 21.799 91.363 18.599C102.833 16.999 114.303 15.199 125.772 13.399C137.044 11.399 153.26 5.599 162.159 15.399C162.95 16.199 164.137 14.999 163.346 14.199C155.04 4.999 141.988 8.799 131.31 10.599C115.489 13.399 99.6687 15.999 83.6505 18.199C67.4346 20.399 51.0209 22.399 34.805 23.999C26.697 24.799 16.216 26.999 8.70128 22.999C4.35067 20.599 1.18659 16.399 1.5821 11.399C1.77985 9.799 2.37312 6.999 3.7574 5.999C8.10802 2.599 15.425 5.999 12.8541 11.799C12.4586 12.199 13.4474 12.799 13.8429 11.999Z" fill="#F55E3E"/>
<path d="M12.261 15.8C13.4475 15.8 13.4475 14 12.261 14C11.0745 14 11.0745 15.8 12.261 15.8Z" fill="#F55E3E"/>
<path d="M164.136 18.1992C165.521 18.1992 165.521 16.1992 164.136 16.1992C162.95 16.1992 162.95 18.1992 164.136 18.1992Z" fill="#F55E3E"/>
<path d="M206.852 13.9983C206.061 14.7983 207.445 16.1983 208.038 15.1983C216.937 5.19832 233.153 11.1983 244.425 13.1983C255.697 15.1983 267.167 16.9983 278.637 18.5983C300.588 21.7983 322.736 24.5983 344.885 26.1983C352.4 26.7983 360.903 26.5983 366.44 20.5983C370 16.7983 371.186 11.3983 369.011 6.79832C365.452 -1.40168 352.993 2.79832 355.959 11.9983C356.157 12.7983 357.541 12.3983 357.344 11.5983C356.948 10.5983 356.75 9.39832 356.948 8.19832C357.937 2.99832 364.265 3.19832 367.231 6.39832C370.395 9.79832 367.825 16.9983 365.254 19.5983C358.926 26.3983 348.445 24.9983 339.941 24.1983C322.736 22.5983 305.729 20.5983 288.525 18.3983C272.902 16.1983 257.082 13.7983 241.261 10.9983C229.989 8.99832 215.553 4.19832 206.852 13.9983Z" fill="#F55E3E"/>
<path d="M357.739 14C356.552 14 356.552 15.8 357.739 15.8C358.926 15.8 358.926 14 357.739 14Z" fill="#F55E3E"/>
<path d="M205.863 18.1992C207.248 18.1992 207.248 16.1992 205.863 16.1992C204.479 16.1992 204.479 18.1992 205.863 18.1992Z" fill="#F55E3E"/>
<path d="M186.483 5.00007C183.122 2.00007 177.98 6.53267e-05 175.409 5.00007C174.025 7.80007 174.816 10.2001 176.398 12.8001C179.562 17.8001 182.528 22.8001 185.495 27.8001C185.692 28.2001 186.088 28.2001 186.483 28.2001C186.681 28.2001 186.879 28.2001 186.879 28.0001C190.439 23.6001 193.603 18.8001 196.964 14.4001C198.942 11.6001 202.304 7.60007 201.117 3.80007C198.744 -3.59994 190.241 1.60007 186.483 5.00007Z" fill="#F55E3E"/>
<path d="M173.629 16.3992C173.432 16.3992 173.432 16.3992 173.629 16.3992C173.432 16.9992 173.629 17.5992 174.223 17.5992C174.816 17.5992 175.211 16.9992 175.014 16.3992C174.618 15.7992 173.827 15.7992 173.629 16.3992Z" fill="#F55E3E"/>
<path d="M171.651 12.9984C172.64 12.9984 172.64 11.3984 171.651 11.3984C170.662 11.5984 170.662 12.9984 171.651 12.9984Z" fill="#F55E3E"/>
<path d="M171.849 4.60156C170.86 4.60156 170.86 6.00156 171.849 6.00156C172.838 6.00156 172.838 4.60156 171.849 4.60156Z" fill="#F55E3E"/>
<path d="M169.081 9.60156C168.092 9.60156 168.092 11.0016 169.081 11.0016C169.872 11.2016 169.872 9.60156 169.081 9.60156Z" fill="#F55E3E"/>
<path d="M166.312 8.99922C166.51 7.59922 164.532 7.59922 164.73 8.99922C164.928 9.79922 166.115 9.79922 166.312 8.99922Z" fill="#F55E3E"/>
<path d="M167.697 16.7996C168.092 17.7996 169.674 17.3996 169.279 16.3996C169.081 15.3996 167.499 15.7996 167.697 16.7996Z" fill="#F55E3E"/>
<path d="M172.047 20.6001C171.058 21.0001 171.849 22.4001 172.838 22.0001C173.036 22.0001 173.036 21.8001 173.036 21.8001C173.036 21.8001 173.036 21.8001 173.036 21.6001C173.431 21.0001 172.64 20.2001 172.047 20.6001Z" fill="#F55E3E"/>
<path d="M173.036 21.6006C173.233 21.4006 173.233 21.6006 173.036 21.6006V21.6006Z" fill="#F55E3E"/>
<path d="M178.177 20.7984C178.573 20.1984 178.375 19.3984 177.584 19.3984C176.793 19.3984 176.595 20.1984 176.991 20.7984C177.386 21.1984 177.979 21.1984 178.177 20.7984Z" fill="#F55E3E"/>
<path d="M177.387 26.6C178.375 26.6 178.375 25 177.387 25C176.398 25 176.398 26.6 177.387 26.6Z" fill="#F55E3E"/>
<path d="M168.685 21.1992C167.499 21.1992 167.499 22.9992 168.685 22.9992C169.674 22.7992 169.674 21.1992 168.685 21.1992Z" fill="#F55E3E"/>
<path d="M194.591 25.8016C194.393 25.2016 193.602 25.2016 193.207 25.8016C192.811 26.4016 193.207 27.0016 193.998 27.0016C194.789 27.0016 194.987 26.4016 194.591 25.8016Z" fill="#F55E3E"/>
<path d="M197.557 20.4008C196.173 20.2008 196.173 22.2008 197.557 22.0008C198.348 21.8008 198.348 20.6008 197.557 20.4008Z" fill="#F55E3E"/>
<path d="M200.128 24.6C199.733 26 202.304 26 201.908 24.6C201.513 23.8 200.326 23.8 200.128 24.6Z" fill="#F55E3E"/>
<path d="M197.755 23C196.766 23 196.766 24.6 197.755 24.6C198.744 24.6 198.744 23 197.755 23Z" fill="#F55E3E"/>
<path d="M200.128 16.8001C199.535 17.4001 200.524 18.4001 201.117 18.0001C202.304 17.2001 200.919 15.8001 200.128 16.8001Z" fill="#F55E3E"/>
<path d="M204.479 20C203.49 20 203.49 21.6 204.479 21.6C205.665 21.6 205.665 20 204.479 20Z" fill="#F55E3E"/>
<path d="M200.919 12.0016C200.326 12.8016 201.314 13.6016 201.908 13.2016C203.094 12.2016 201.71 10.8016 200.919 12.0016Z" fill="#F55E3E"/>
<path d="M206.259 7.60156C205.073 7.60156 205.073 9.40156 206.259 9.40156C207.248 9.20156 207.248 7.60156 206.259 7.60156Z" fill="#F55E3E"/>
<path d="M204.083 3C203.095 3 203.095 4.6 204.083 4.6C205.072 4.6 205.072 3 204.083 3Z" fill="#F55E3E"/>
<path d="M210.807 5.39873C211.598 5.19873 211.598 3.99873 210.807 3.79873C209.225 3.39873 209.225 5.59873 210.807 5.39873Z" fill="#F55E3E"/>
</g>
<defs>
<clipPath id="clip0_10_204">
<rect width="370" height="28" fill="white"/>
</clipPath>
</defs>
</svg>
