<svg width="40" height="40" viewBox="0 0 40 40" fill="none" xmlns="http://www.w3.org/2000/svg">
<path fill-rule="evenodd" clip-rule="evenodd" d="M21.3011 9.12077C20.2903 8.27045 18.8558 8.29654 17.8727 9.18713L9.45147 16.8159C8.85388 17.3573 8.5 18.1552 8.5 19.0066V28.6235C8.5 30.2561 9.75312 31.5006 11.2037 31.5006H12.1296C13.5802 31.5006 14.8333 30.2561 14.8333 28.6235V26.685C14.8333 24.035 16.8966 21.8078 19.537 21.8078H20.463C23.1034 21.8078 25.1667 24.035 25.1667 26.685V28.6235C25.1667 30.2561 26.4198 31.5006 27.8704 31.5006H28.7963C30.2469 31.5006 31.5 30.2561 31.5 28.6235V19.0927C31.5 18.2036 31.1144 17.3757 30.4725 16.8357L21.3011 9.12077ZM16.5299 7.7049C18.2524 6.14447 20.8104 6.0944 22.5886 7.59027L31.76 15.3052C32.8678 16.2371 33.5 17.6321 33.5 19.0927V28.6235C33.5 31.2735 31.4367 33.5006 28.7963 33.5006H27.8704C25.23 33.5006 23.1667 31.2735 23.1667 28.6235V26.685C23.1667 25.0523 21.9135 23.8078 20.463 23.8078H19.537C18.0865 23.8078 16.8333 25.0523 16.8333 26.685V28.6235C16.8333 31.2735 14.77 33.5006 12.1296 33.5006H11.2037C8.56329 33.5006 6.5 31.2735 6.5 28.6235V19.0066C6.5 17.6072 7.0804 16.2653 8.10871 15.3337L16.5299 7.7049Z" fill="#F6F6F6"/>
</svg>
