<svg width="40" height="40" viewBox="0 0 40 40" fill="none" xmlns="http://www.w3.org/2000/svg">
<path d="M5.85376 12.1055C5.85376 12.1055 5.10473 17.5352 6.60281 23.714C8.10053 29.8921 11.0028 34.3232 11.0028 34.3232L12.0325 27.3649L5.85376 12.1055Z" fill="#771C2B"/>
<path d="M10.5034 27.8325C10.5034 27.8325 10.6253 34.207 11.0029 34.3229C12.1263 34.6664 21.7523 32.1026 27.4789 29.5801C32.7212 27.271 34.8743 22.5899 34.2192 14.2583C29.2266 17.5037 10.5034 27.8325 10.5034 27.8325Z" fill="#8C2A25"/>
<path d="M18.617 12.2306C18.617 12.2306 17.9924 3.36829 10.0043 6.23896C0.380068 9.69804 10.5034 27.8328 10.5034 27.8328C10.5034 27.8328 31.3486 23.0897 33.7198 17.5976C36.0913 12.1054 30.8487 3.86777 18.617 12.2306Z" fill="#A93228"/>
<path d="M25.8932 22.6984C23.1047 22.0924 20.3448 21.3703 17.5932 20.6173C19.6424 20.3394 21.8321 19.5107 23.3854 18.415C24.8641 17.3719 25.2059 14.3912 22.8311 14.1057C20.1573 13.7845 17.6548 17.681 16.2349 19.4397C16.231 19.4448 16.227 19.448 16.2227 19.4527C16.0112 16.383 14.4439 10.6804 10.6281 13.1337C8.56523 14.46 10.6428 17.4924 12.8763 19.3128C10.9167 18.7696 8.95499 18.2332 6.98324 17.7358C6.73332 17.6727 6.52894 17.8535 6.50958 18.0969C6.31201 20.5276 6.20014 22.9612 6.32241 25.3987C6.34643 25.8792 7.09511 25.8817 7.07145 25.3987C6.95742 23.1201 7.04886 20.845 7.22205 18.572C9.17694 19.0704 11.1239 19.5982 13.0684 20.1354C11.6471 20.3613 10.2544 20.8912 10.2573 21.8916C10.2594 22.9013 11.2645 23.2133 12.0982 23.0562C13.3625 22.8181 14.2937 21.8109 15.4023 21.2333C15.2901 22.3915 15.4414 23.9519 16.7057 24.0294C18.2508 24.1237 17.9639 22.423 17.3734 21.3222C18.1794 21.5431 18.9844 21.764 19.7919 21.9802C20.8012 22.2491 21.8128 22.5066 22.8261 22.7575C23.8731 23.0171 25.4203 22.882 25.3202 24.2151C25.1643 26.2887 25.2535 28.3766 25.1388 30.4534C25.1126 30.936 25.8617 30.9335 25.8878 30.4534C26.0237 27.9883 25.9319 25.5171 26.1686 23.0577C26.1829 22.9013 26.0435 22.7303 25.8932 22.6984ZM23.4324 15.3431C25.6379 17.6731 19.7686 19.4491 17.0112 19.8722C17.52 19.2519 17.9804 18.4824 18.2673 18.1471C19.2329 17.0176 21.8497 13.6715 23.4324 15.3431ZM10.6209 14.3829C10.8317 13.0888 12.5094 13.3918 13.204 13.7034C14.1452 14.1258 14.6307 15.1531 14.9606 16.0535C15.4009 17.2554 15.5149 18.5878 15.5045 19.8707C14.872 19.9127 14.2112 19.2508 13.6002 18.7653C12.4639 17.8635 10.3609 15.9739 10.6209 14.3829ZM11.0451 22.0802C10.6155 21.4649 13.3617 20.945 14.8007 20.8148C13.5285 21.6478 11.6754 22.9827 11.0451 22.0802ZM16.2607 21.0766C16.5555 21.3132 16.7398 21.6241 16.913 21.9558C17.003 22.1433 17.0693 22.3395 17.1123 22.5431C17.2167 22.949 16.7692 23.6823 16.3608 23.0433C16.0341 22.5327 16.0725 21.6467 16.1801 20.9966C16.1826 20.9974 16.1855 20.9988 16.1883 20.9995C16.2077 21.026 16.2303 21.0526 16.2607 21.0766Z" fill="white"/>
</svg>
