<svg width="40" height="40" viewBox="0 0 40 40" fill="none" xmlns="http://www.w3.org/2000/svg">
<path d="M31.4274 18.343C31.4268 18.3427 31.4258 18.342 31.4258 18.342C31.1976 15.1807 23.6751 9.42552 22.6514 9.35255C21.606 9.27797 10.7259 13.311 10.2149 16.2335C10.0828 16.9686 7.98202 32.0709 8.5173 32.4703C9.05259 32.8696 29.4387 34.7044 29.912 34.1823C30.3714 33.6742 31.6764 18.7181 31.4274 18.343Z" fill="white"/>
<path d="M23.51 18.763C23.51 18.763 22.3897 14.7299 19.3649 16.1117C16.3402 17.4935 17.0866 20.5554 20.4107 24.4393C20.8959 24.0287 21.1945 24.1778 21.1945 24.1778L22.8004 25.7462L28.9252 20.8915C28.9252 20.8915 30.2695 19.6963 28.4393 17.6798C26.6097 15.6633 23.51 18.763 23.51 18.763Z" fill="#B74437"/>
<path d="M31.079 18.6266C28.3754 20.9676 25.4191 23.0003 22.7546 25.3861C22.2429 24.8295 21.737 24.2707 21.2443 23.7054C21.1572 23.6056 20.9919 23.5937 20.8821 23.6589C20.1812 24.0767 19.4774 24.498 18.7739 24.9212C15.8756 22.127 13.174 19.1345 10.4895 16.1374C10.2319 15.8498 9.81089 16.2737 10.0669 16.5597C12.7185 19.5199 15.3881 22.4753 18.2454 25.2402C14.7957 27.3262 11.5304 29.3911 8.44199 31.9455C8.14465 32.1915 8.51302 32.5389 8.89011 32.5989C14.1248 33.4332 25.8814 34.354 29.6539 34.333C30.0368 34.331 30.1311 33.9837 29.9148 33.6631C27.9147 30.6974 25.6093 28.4642 23.1598 25.8239C25.8285 23.4319 28.7923 21.3951 31.5019 19.0489C31.7931 18.7964 31.3689 18.3758 31.079 18.6266Z" fill="#DFA77B"/>
<path d="M20.6236 8.42955C19.3787 5.96846 17.0703 7.91589 16.6312 8.78049C15.4057 7.16849 13.0518 7.02676 12.4239 9.45912C11.7275 12.1536 17.1675 14.9595 17.3005 14.9356C17.4048 14.9292 21.8104 10.777 20.6236 8.42955Z" fill="#8C2A25"/>
<path d="M31.3581 8.46835C31.4572 6.55708 29.3955 6.93385 28.8331 7.30286C28.6507 5.90944 27.2824 5.01288 26.0656 6.2607C24.7164 7.64315 27.0258 11.2087 27.1136 11.2407C27.1788 11.2723 31.2635 10.2912 31.3581 8.46835Z" fill="#A93228"/>
</svg>
