<svg width="40" height="40" viewBox="0 0 40 40" fill="none" xmlns="http://www.w3.org/2000/svg">
<path d="M17.91 13.9241C17.9141 13.9124 17.9141 13.9011 17.9169 13.8897C17.9261 13.855 17.9387 13.8234 17.9387 13.7821C17.9384 11.7161 17.9397 9.64987 17.8881 7.58457C17.8828 7.36803 17.7085 7.17769 17.4846 7.18148C16.4057 7.20074 15.3301 7.27618 14.2531 7.33268C14.0289 7.34436 13.8553 7.50692 13.8492 7.73576C13.7645 10.9762 13.657 14.2192 13.6475 17.461C13.6465 17.8053 14.0925 18.0039 14.337 17.7457C15.498 16.5197 16.6594 15.2934 17.8208 14.0674C17.8265 14.0614 17.8274 14.0548 17.8325 14.0485C17.8657 14.0137 17.8919 13.973 17.91 13.9241Z" fill="#B74437"/>
<path d="M32.1931 18.9815C31.9413 18.4174 23.4422 7.11398 22.1632 7.11398C20.6147 7.11398 11.7962 18.1321 11.3771 19.211C11.113 19.8912 10.9245 32.2256 11.4884 32.5548C12.0527 32.8847 30.8217 32.986 32.3404 32.67C32.997 32.5337 32.491 19.6479 32.1931 18.9815Z" fill="#B74437"/>
<path d="M24.1702 15.0896C22.5976 13.9756 21.9708 16.0365 21.9708 16.0365C21.9708 16.0365 21.9667 16.0422 21.96 16.0523C21.9534 16.0422 21.9493 16.0365 21.9493 16.0365C21.9493 16.0365 21.3331 13.9905 19.7498 15.0896C18.2617 16.1224 20.3641 18.3174 21.9597 19.0497C23.556 18.3177 25.6583 16.1445 24.1702 15.0896Z" fill="white"/>
<path d="M32.4206 21.5402C32.3454 20.1251 32.2631 19.139 32.1926 18.9815C31.9408 18.4174 23.4418 7.11398 22.1627 7.11398C20.6142 7.11398 11.7957 18.1321 11.3766 19.211C11.3184 19.3606 11.2643 20.1987 11.2207 21.4187C15.5436 15.9926 20.5949 10.1234 22.1504 8.97064C23.5986 10.1313 28.6661 16.3247 32.309 21.4133C32.3425 21.46 32.3817 21.4998 32.4206 21.5402Z" fill="#A93228"/>
<path d="M10.332 21.2387C10.0884 21.2387 9.84331 21.1595 9.63836 20.9966C9.15603 20.614 9.0757 19.9136 9.45903 19.4319C9.48528 19.3991 12.0936 16.127 14.8481 12.8973C20.7306 6 21.5248 6 22.1631 6C22.8497 6 23.6277 6 28.8381 12.7303C31.2605 15.8597 34.1023 19.4676 34.1248 19.4994C34.4831 19.9994 34.3673 20.6954 33.8657 21.0528C33.3641 21.4104 32.6673 21.2946 32.309 20.7942C28.6661 15.7056 23.5986 9.51225 22.1504 8.3516C20.593 9.50562 15.5322 15.3865 11.2062 20.8176C10.986 21.0947 10.6606 21.2387 10.332 21.2387Z" fill="#771C2B"/>
<path d="M25.571 32.8616L25.5207 25.0224C25.5207 23.0578 23.9247 21.4651 21.9559 21.4651C19.9871 21.4651 18.3911 23.0578 18.3911 25.0224V32.8348C20.6544 32.9358 22.9984 32.9014 25.571 32.8616Z" fill="#A93228"/>
<path d="M8.61618 27.2864C8.50169 27.49 8.70474 33.9192 8.84453 33.9757C8.94195 34.0148 9.65105 34.0158 9.92621 33.9094C9.99485 33.727 9.73866 27.6788 9.7472 27.1905C9.75004 27.0377 8.71707 27.1068 8.61618 27.2864Z" fill="#292D57"/>
<path d="M12.3617 25.493C12.1517 25.3295 5.67109 25.6502 5.66667 25.8851C5.66192 26.1202 5.76092 30.9162 5.94721 31.0138C6.13413 31.1113 12.5711 30.6672 12.6922 30.4816C12.8102 30.3007 12.5473 25.6373 12.3617 25.493Z" fill="#3E4370"/>
<path d="M11.8377 25.9378C11.6625 25.8014 6.24806 26.0694 6.24427 26.2654C6.24047 26.4618 6.32302 30.4689 6.47863 30.5501C6.63456 30.6315 12.0123 30.2606 12.1135 30.1056C12.2125 29.9547 11.993 26.0584 11.8377 25.9378Z" fill="#292D57"/>
<path d="M10.3673 27.2168C9.47194 26.6417 9.17812 27.7944 9.17812 27.7944C9.17812 27.7944 9.17591 27.7976 9.17243 27.8036C9.16863 27.7979 9.1661 27.7948 9.1661 27.7948C9.1661 27.7948 8.77423 26.6815 7.9285 27.3279C7.134 27.9349 8.34915 29.0927 9.2477 29.4563C10.1102 29.0125 11.215 27.761 10.3673 27.2168Z" fill="#B74437"/>
<mask id="mask0_10_388" style="mask-type:luminance" maskUnits="userSpaceOnUse" x="18" y="21" width="8" height="12">
<path d="M25.571 32.8616L25.5207 25.0224C25.5207 23.0578 23.9247 21.4651 21.9559 21.4651C19.9871 21.4651 18.3911 23.0578 18.3911 25.0224V32.8348C20.6544 32.9358 22.9984 32.9014 25.571 32.8616Z" fill="white"/>
</mask>
<g mask="url(#mask0_10_388)">
<path d="M22.2698 20.8153H21.728V33.4366H22.2698V20.8153Z" fill="#771C2B"/>
</g>
<mask id="mask1_10_388" style="mask-type:luminance" maskUnits="userSpaceOnUse" x="18" y="21" width="8" height="12">
<path d="M25.571 32.8616L25.5207 25.0224C25.5207 23.0578 23.9247 21.4651 21.9559 21.4651C19.9871 21.4651 18.3911 23.0578 18.3911 25.0224V32.8348C20.6544 32.9358 22.9984 32.9014 25.571 32.8616Z" fill="white"/>
</mask>
<g mask="url(#mask1_10_388)">
<path d="M24.5024 20.8723H24.0093V33.4936H24.5024V20.8723Z" fill="#771C2B"/>
</g>
<mask id="mask2_10_388" style="mask-type:luminance" maskUnits="userSpaceOnUse" x="18" y="21" width="8" height="12">
<path d="M25.571 32.8616L25.5207 25.0224C25.5207 23.0578 23.9247 21.4651 21.9559 21.4651C19.9871 21.4651 18.3911 23.0578 18.3911 25.0224V32.8348C20.6544 32.9358 22.9984 32.9014 25.571 32.8616Z" fill="white"/>
</mask>
<g mask="url(#mask2_10_388)">
<path d="M19.3481 20.8465V33.4675L19.8782 33.4366V20.8153L19.3481 20.8465Z" fill="#771C2B"/>
</g>
</svg>
