<svg width="40" height="40" viewBox="0 0 40 40" fill="none" xmlns="http://www.w3.org/2000/svg">
<path d="M28.6634 8.69596C27.8261 8.26471 5.52818 13.6278 5.66715 14.4479C5.80612 15.2687 9.29821 31.895 10.0096 32.112C10.7217 32.3291 32.787 26.5657 33.0869 25.8399C33.3776 25.1336 29.4026 9.07717 28.6634 8.69596Z" fill="#3E4370"/>
<path d="M33.0609 8.15807C32.3192 7.57924 9.41309 8.71522 9.39748 9.54712C9.38186 10.379 9.73056 27.3646 10.3897 27.7098C11.0492 28.0553 33.8007 26.4826 34.2294 25.8247C34.6463 25.1847 33.7178 8.66964 33.0609 8.15807Z" fill="white"/>
<path d="M21.4646 11.156C21.7237 15.4146 21.726 19.6847 21.9676 23.945C21.9915 24.3699 22.657 24.3995 22.6331 23.9708C22.3912 19.7106 22.3883 15.4404 22.1298 11.1815C22.1043 10.7575 21.4388 10.7276 21.4646 11.156Z" fill="#3E4370"/>
<path d="M28.9869 11.8925C29.408 11.853 29.4395 11.1874 29.0127 11.2273C27.4949 11.3698 25.9681 11.3519 24.4497 11.4944C24.0293 11.5336 23.998 12.1994 24.4245 12.1596C25.9423 12.0168 27.4688 12.035 28.9869 11.8925Z" fill="#3E4370"/>
<path d="M31.4589 13.9866C31.8834 13.9621 31.9134 13.2965 31.485 13.3214C29.1965 13.454 26.9118 13.5056 24.6203 13.527C24.1923 13.5311 24.1652 14.196 24.5948 14.1922C26.8859 14.1711 29.1703 14.1192 31.4589 13.9866Z" fill="#3E4370"/>
<path d="M31.4928 15.9868C31.9187 15.9668 31.9474 15.3016 31.5187 15.3216C29.2206 15.4297 26.9225 15.5409 24.6228 15.6091C24.1963 15.6216 24.1676 16.2868 24.5966 16.2743C26.8963 16.2061 29.1944 16.0946 31.4928 15.9868Z" fill="#3E4370"/>
<path d="M31.5124 18.3329C31.9376 18.3109 31.9676 17.6454 31.5386 17.6677C29.2806 17.7844 27.0195 17.7994 24.7587 17.8351C24.331 17.8421 24.3029 18.507 24.7329 18.5003C26.9934 18.4642 29.2545 18.4493 31.5124 18.3329Z" fill="#3E4370"/>
<path d="M31.6192 19.878C29.3762 19.8509 27.1371 20.0444 24.8942 20.061C24.4664 20.0641 24.439 20.7293 24.8687 20.7262C27.111 20.7096 29.3498 20.5161 31.5937 20.5432C32.0221 20.5483 32.0485 19.8828 31.6192 19.878Z" fill="#3E4370"/>
<path d="M27.1242 21.8386C26.4412 21.9384 25.7336 21.9358 25.0445 21.9126C24.6161 21.8979 24.59 22.5631 25.0193 22.5778C25.7683 22.6033 26.5333 22.5956 27.2766 22.4869C27.7012 22.4248 27.5459 21.7768 27.1242 21.8386Z" fill="#3E4370"/>
<path d="M28.4632 21.7956C28.0338 21.779 28.008 22.4442 28.437 22.4608C28.8664 22.4777 28.8922 21.8125 28.4632 21.7956Z" fill="#3E4370"/>
<path d="M20.0592 16.5404C19.1412 14.1467 16.8221 15.7289 16.3338 16.4868C15.3537 14.8801 13.1904 14.5263 12.3789 16.7157C11.4801 19.1413 16.2446 22.2512 16.3698 22.2423C16.467 22.2458 20.9348 18.8235 20.0592 16.5404Z" fill="#B74437"/>
</svg>
