<svg width="40" height="40" viewBox="0 0 40 40" fill="none" xmlns="http://www.w3.org/2000/svg">
<path d="M13.0863 14.5348C16.7943 13.6939 20.4949 16.026 21.3365 19.734C22.1774 23.4416 19.8449 27.1419 16.1373 27.9825C12.4289 28.8243 8.72834 26.4922 7.88746 22.7849C7.04591 19.0769 9.3787 15.3753 13.0863 14.5348ZM12.6335 12.5374C7.81635 13.6298 4.7973 18.4205 5.89008 23.2377C6.98251 28.0536 11.7735 31.0729 16.5904 29.9802C21.4076 28.8877 24.426 24.097 23.3342 19.2808C22.2407 14.4637 17.4501 11.4446 12.6335 12.5374Z" fill="#3E4370"/>
<path d="M19.0518 15.9983C19.5797 16.4423 20.0422 16.9666 20.4202 17.5586C20.8576 16.9894 21.3671 16.5074 21.9283 16.115C21.5274 15.5454 21.0636 15.0299 20.5497 14.5741C20.0047 14.9793 19.5052 15.4599 19.0518 15.9983Z" fill="#292D57"/>
<path d="M21.4485 27.024C20.9012 26.5648 20.442 26.0362 20.075 25.4589C19.6534 26.0083 19.148 26.4937 18.5737 26.8982C18.9642 27.4533 19.4186 27.9722 19.9442 28.4377C20.5017 28.0242 21.0058 27.5492 21.4485 27.024Z" fill="#292D57"/>
<path d="M7.6792 15.6132C8.14878 16.0844 8.83973 16.3873 9.63901 16.4903C10.5419 15.5454 11.7196 14.8451 13.0864 14.5348C13.6338 14.4107 14.1798 14.3637 14.7182 14.3721C15.179 13.7271 15.3907 13.0134 15.28 12.3395C14.4143 12.2751 13.5248 12.3358 12.6339 12.5378C10.605 12.9976 8.89742 14.1152 7.6792 15.6132Z" fill="#292D57"/>
<path d="M29.4599 15.6958C32.5283 17.9404 33.1988 22.2629 30.9549 25.3316C28.7103 28.4003 24.3878 29.0707 21.3192 26.8268C18.2498 24.5823 17.5786 20.2595 19.8232 17.1908C22.0681 14.1221 26.3909 13.4513 29.4599 15.6958ZM30.6688 14.0426C26.6824 11.1265 21.086 11.9949 18.1696 15.9809C15.2546 19.9677 16.1223 25.5633 20.1093 28.4794C24.0967 31.3955 29.6921 30.5268 32.6078 26.5414C35.5235 22.5537 34.6555 16.9587 30.6688 14.0426Z" fill="#A93228"/>
<path d="M21.3185 26.8268C20.9579 26.5635 20.6342 26.2697 20.3414 25.9544C19.9215 26.4911 19.4204 26.9654 18.8535 27.3602C19.2309 27.7637 19.6464 28.1413 20.109 28.4794C20.227 28.5656 20.3505 28.6371 20.4702 28.7166C21.0216 28.2799 21.5154 27.7804 21.9457 27.2334C21.7324 27.1099 21.5224 26.9764 21.3185 26.8268Z" fill="#771C2B"/>
<path d="M30.669 14.0421C29.1251 12.9131 27.34 12.3577 25.5633 12.3245C25.403 12.9835 25.5523 13.7117 25.9517 14.398C27.179 14.4963 28.3127 14.9051 29.3773 15.6836C29.8979 16.064 30.2232 16.342 30.6123 16.7673C31.4143 16.7398 32.2404 16.6201 32.7452 16.1884C32.1783 15.3368 31.5441 14.6821 30.669 14.0421Z" fill="#771C2B"/>
<path d="M21.5082 26.9504C21.481 26.7327 20.6529 25.64 19.9998 25.5508C19.5745 26.0857 19.0701 26.556 18.4985 26.9477C18.7327 27.5522 19.4833 28.2344 20.0042 28.3934C20.5627 27.9704 21.0668 27.4854 21.5082 26.9504Z" fill="#3E4370"/>
<path d="M15.1924 11.4071C15.7351 12.9607 14.3757 14.8487 12.1566 15.6246C9.93719 16.4 7.69764 15.7695 7.15461 14.2158C6.61158 12.6619 7.97134 10.7738 10.1904 9.99835C12.4102 9.22288 14.6494 9.85346 15.1924 11.4071Z" fill="#DFA77B"/>
<path d="M14.3255 11.4154C14.7129 12.5239 13.5751 13.9307 11.7837 14.5562C9.99227 15.1821 8.22566 14.791 7.83826 13.6821C7.45119 12.5729 8.58925 11.1669 10.3807 10.541C12.1718 9.9151 13.9381 10.3065 14.3255 11.4154Z" fill="#CC8462"/>
<path d="M13.7772 11.606C14.0995 12.5274 13.1533 13.6963 11.6648 14.2165C10.1762 14.7367 8.70813 14.4117 8.38613 13.4903C8.06414 12.5683 9.01033 11.3997 10.4989 10.8798C11.9871 10.3596 13.4552 10.6846 13.7772 11.606Z" fill="#B74437"/>
<path d="M10.3103 11.3977C10.0383 11.1978 8.58833 12.1118 8.67353 12.8742C8.75872 13.6366 10.789 11.7496 10.3103 11.3977Z" fill="#DFA77B"/>
<path d="M12.6876 11.0744C12.3193 10.893 11.7196 10.896 11.4559 11.2317C11.1252 11.653 11.8517 12.2081 10.8227 12.8146C9.79362 13.4213 9.12448 13.0966 8.94201 13.5226C8.75955 13.9482 10.013 14.451 11.5602 13.7765C13.1078 13.1017 13.84 11.6416 12.6876 11.0744Z" fill="#A93228"/>
<path d="M9.7332 11.6084C9.57925 11.495 8.77191 12.0622 8.6733 12.6324C8.5985 13.0611 10.0049 11.8083 9.7332 11.6084Z" fill="white"/>
<path d="M13.0195 13.2345C13.3288 12.936 13.4036 12.4543 12.7706 12.9065C12.1374 13.3593 12.1612 14.062 13.0195 13.2345Z" fill="white"/>
<path d="M33.3777 15.0191C32.6637 16.5006 30.3668 16.8753 28.249 15.8543C26.1315 14.8333 24.9938 12.804 25.7079 11.3212C26.4236 9.83831 28.7199 9.46466 30.837 10.4857C32.9551 11.5067 34.0928 13.5359 33.3777 15.0191Z" fill="#DFA77B"/>
<path d="M32.7598 14.4109C32.2497 15.4685 30.4502 15.659 28.7419 14.8349C27.0323 14.0101 26.0596 12.4847 26.5698 11.4268C27.0799 10.3689 28.8788 10.1797 30.5884 11.0031C32.2973 11.8276 33.2693 13.353 32.7598 14.4109Z" fill="#CC8462"/>
<path d="M32.2365 14.1591C31.8122 15.0383 30.3169 15.1959 28.8964 14.511C27.4763 13.8261 26.6676 12.5579 27.0919 11.6791C27.5162 10.7997 29.0115 10.6417 30.4309 11.3266C31.8517 12.0118 32.6601 13.2797 32.2365 14.1591Z" fill="#3E4370"/>
<path d="M29.9323 11.56C29.881 11.2262 28.2086 10.8479 27.7307 11.4469C27.251 12.046 30.0208 12.1469 29.9323 11.56Z" fill="#DFA77B"/>
<path d="M31.8425 13.0121C31.71 12.6237 31.2837 12.2011 30.8601 12.2524C30.3284 12.3165 30.4495 13.2224 29.2927 12.9236C28.1365 12.6251 27.8927 11.9227 27.4627 12.0948C27.033 12.2669 27.5633 13.5082 29.1344 14.1257C30.7061 14.7429 32.2564 14.2283 31.8425 13.0121Z" fill="#292D57"/>
<path d="M29.3755 11.3009C29.346 11.1121 28.374 10.9424 27.9011 11.2754C27.5462 11.5256 29.4259 11.634 29.3755 11.3009Z" fill="white"/>
<path d="M30.5494 14.7744C30.9794 14.7825 31.3735 14.4954 30.6054 14.3672C29.8376 14.2391 29.3573 14.7536 30.5494 14.7744Z" fill="white"/>
</svg>
