<svg width="40" height="41" viewBox="0 0 40 41" fill="none" xmlns="http://www.w3.org/2000/svg">
<path fill-rule="evenodd" clip-rule="evenodd" d="M3.5 11.4687C3.5 7.32661 6.85786 3.96875 11 3.96875H29C33.1421 3.96875 36.5 7.32661 36.5 11.4688V29.4688C36.5 33.6109 33.1421 36.9688 29 36.9688H11C6.85786 36.9688 3.5 33.6109 3.5 29.4688V11.4687ZM11 6.96875C8.51472 6.96875 6.5 8.98347 6.5 11.4687V29.4688C6.5 31.954 8.51472 33.9688 11 33.9688H29C31.4853 33.9688 33.5 31.954 33.5 29.4688V11.4688C33.5 8.98347 31.4853 6.96875 29 6.96875H11Z" fill="#3B3B3B"/>
<path fill-rule="evenodd" clip-rule="evenodd" d="M20 14.5938C16.7553 14.5938 14.125 17.2241 14.125 20.4688C14.125 23.7134 16.7553 26.3438 20 26.3438C23.2447 26.3438 25.875 23.7134 25.875 20.4688C25.875 17.2241 23.2447 14.5938 20 14.5938ZM11.125 20.4688C11.125 15.5672 15.0985 11.5938 20 11.5938C24.9015 11.5938 28.875 15.5672 28.875 20.4688C28.875 25.3703 24.9015 29.3438 20 29.3438C15.0985 29.3438 11.125 25.3703 11.125 20.4688Z" fill="#3B3B3B"/>
<path d="M31.375 11.0938C31.375 12.1983 30.4796 13.0938 29.375 13.0938C28.2704 13.0938 27.375 12.1983 27.375 11.0938C27.375 9.98918 28.2704 9.09375 29.375 9.09375C30.4796 9.09375 31.375 9.98918 31.375 11.0938Z" fill="#3B3B3B"/>
</svg>
