<svg width="40" height="41" viewBox="0 0 40 41" fill="none" xmlns="http://www.w3.org/2000/svg">
<path fill-rule="evenodd" clip-rule="evenodd" d="M3.5 11.5C3.5 7.35786 6.85786 4 11 4H29C33.1421 4 36.5 7.35786 36.5 11.5V29.5C36.5 33.6421 33.1421 37 29 37H11C6.85786 37 3.5 33.6421 3.5 29.5V11.5ZM11 7C8.51472 7 6.5 9.01472 6.5 11.5V29.5C6.5 31.9853 8.51472 34 11 34H29C31.4853 34 33.5 31.9853 33.5 29.5V11.5C33.5 9.01472 31.4853 7 29 7H11Z" fill="#1D1C16"/>
<path fill-rule="evenodd" clip-rule="evenodd" d="M20 14.625C16.7553 14.625 14.125 17.2553 14.125 20.5C14.125 23.7447 16.7553 26.375 20 26.375C23.2447 26.375 25.875 23.7447 25.875 20.5C25.875 17.2553 23.2447 14.625 20 14.625ZM11.125 20.5C11.125 15.5985 15.0985 11.625 20 11.625C24.9015 11.625 28.875 15.5985 28.875 20.5C28.875 25.4015 24.9015 29.375 20 29.375C15.0985 29.375 11.125 25.4015 11.125 20.5Z" fill="#1D1C16"/>
<path d="M31.375 11.125C31.375 12.2296 30.4796 13.125 29.375 13.125C28.2704 13.125 27.375 12.2296 27.375 11.125C27.375 10.0204 28.2704 9.125 29.375 9.125C30.4796 9.125 31.375 10.0204 31.375 11.125Z" fill="#1D1C16"/>
</svg>
