<svg width="40" height="40" viewBox="0 0 40 40" fill="none" xmlns="http://www.w3.org/2000/svg">
<path fill-rule="evenodd" clip-rule="evenodd" d="M11.5 6.5C8.73858 6.5 6.5 8.73858 6.5 11.5V28.5C6.5 31.2614 8.73858 33.5 11.5 33.5H28.5C31.2614 33.5 33.5 31.2614 33.5 28.5V11.5C33.5 8.73858 31.2614 6.5 28.5 6.5H11.5ZM8.5 11.5C8.5 9.84315 9.84315 8.5 11.5 8.5H28.5C30.1569 8.5 31.5 9.84315 31.5 11.5V23.8992L27.879 21.1302C26.1795 19.8305 23.8083 19.8741 22.1575 21.2352C21.8223 21.5116 21.3276 21.47 21.0432 21.1415L18.6276 18.3505C16.7012 16.1249 13.2786 16.0367 11.2401 18.1601L8.5 21.0144V11.5ZM8.5 23.9023V28.5C8.5 30.1569 9.84315 31.5 11.5 31.5H28.5C30.1569 31.5 31.5 30.1569 31.5 28.5V26.417L26.6641 22.7189C25.7034 21.9843 24.363 22.0089 23.4299 22.7783C22.2568 23.7456 20.5261 23.6 19.531 22.4504L17.1153 19.6594C15.9595 18.3241 13.906 18.2711 12.6829 19.5452L8.5 23.9023Z" fill="#F6F6F6"/>
<path fill-rule="evenodd" clip-rule="evenodd" d="M25 13.5C24.1716 13.5 23.5 14.1716 23.5 15C23.5 15.8284 24.1716 16.5 25 16.5C25.8284 16.5 26.5 15.8284 26.5 15C26.5 14.1716 25.8284 13.5 25 13.5ZM21.5 15C21.5 13.067 23.067 11.5 25 11.5C26.933 11.5 28.5 13.067 28.5 15C28.5 16.933 26.933 18.5 25 18.5C23.067 18.5 21.5 16.933 21.5 15Z" fill="#F6F6F6"/>
</svg>
