<svg width="148" height="16" viewBox="0 0 148 16" fill="none" xmlns="http://www.w3.org/2000/svg">
<g clip-path="url(#clip0_135_10616)">
<path d="M147.169 3.49641C146.959 3.65756 146.754 3.82536 146.548 3.99141C146.124 4.33224 145.692 4.66678 145.284 5.02684C145.197 5.1041 145.108 5.18031 145.02 5.25651C141.56 7.86504 137.632 9.85411 133.5 11.1514C129.31 12.4668 124.893 13.0712 120.504 12.8755C115.401 12.6479 110.421 11.3859 105.518 10.0376C103.067 9.36366 100.626 8.63864 98.1488 8.06429C95.6535 7.48575 93.0835 7.09003 90.5169 7.29733C88.5187 7.45883 86.5297 8.02724 84.8003 9.05359C83.6957 9.70904 82.6829 10.5515 81.7062 11.3919C82.0904 9.9859 82.4746 8.57991 82.8584 7.17393C83.7967 7.80805 85.0663 7.96501 86.0668 7.35151C86.8299 6.88378 87.5123 6.23462 88.1971 5.66552C88.5184 5.39879 88.8141 5.12577 89.0389 4.76956C89.4556 4.10921 89.6318 3.28841 89.5063 2.5162C89.2161 0.728134 87.3693 -0.109795 85.711 0.011507C84.7559 0.0814218 83.8708 0.458962 83.0839 0.992062C82.389 1.46294 81.7464 2.02051 81.0973 2.55081C80.6184 2.94199 80.1408 3.33316 79.7018 3.76908C79.269 4.19905 78.8701 4.65944 78.4832 5.12997C78.2035 4.6958 77.8805 4.28924 77.518 3.91904C77.4911 3.89143 76.5549 4.68181 76.4773 4.74474C76.4001 4.80731 75.4552 5.5928 75.4534 5.59106C75.9481 6.09619 76.37 6.66774 76.7084 7.28719C76.6682 7.33263 76.6283 7.37843 76.5878 7.42317C76.3997 7.63047 76.2067 7.83322 76.0057 8.02829C75.9928 8.04087 75.9795 8.05276 75.9666 8.06534C75.847 8.16497 75.7278 8.2646 75.6076 8.36213C75.4024 8.52888 75.1961 8.69527 74.9944 8.86656C75.0549 8.81518 74.7578 9.05708 74.8969 8.95885C75.3713 8.62361 75.8292 8.26145 76.2802 7.8916C76.4651 7.74373 76.6552 7.58887 76.8028 7.46512C76.8297 7.51756 76.8563 7.57034 76.8818 7.62348C77.5292 8.9613 77.7833 10.4771 77.5823 11.9509C77.3785 13.4453 76.7336 14.866 75.7397 16C75.818 15.9105 75.9533 15.8374 76.048 15.7623C76.2934 15.5679 76.5371 15.3711 76.7804 15.1743C77.0237 14.9775 77.2666 14.7796 77.5079 14.58C77.597 14.5062 77.7242 14.4192 77.8043 14.328C78.3647 13.6886 78.8153 12.9601 79.1379 12.1735C79.707 10.7861 79.8647 9.24375 79.563 7.7731C79.4085 7.01837 79.14 6.2909 78.7726 5.61727C79.4372 4.86954 80.0377 4.06726 80.6781 3.2989C80.9466 2.97659 81.2235 2.66128 81.5133 2.35785C82.2002 1.97192 82.9511 1.71918 83.7436 1.67758C85.2939 1.59613 87.0096 2.34911 87.399 3.97672C87.5616 4.6563 87.4767 5.3883 87.1946 6.02558C85.7452 6.26783 84.1823 5.36908 83.7373 3.95715C83.689 3.9963 83.6408 4.03545 83.5925 4.07426C83.5205 4.12774 83.445 4.18192 83.4289 4.19451C83.1835 4.38887 82.9399 4.58568 82.6966 4.78249C82.4533 4.9793 82.2103 5.17716 81.9691 5.37677C81.9642 5.38096 81.6874 5.57463 81.6727 5.62881C80.9124 8.41142 80.1524 11.194 79.3921 13.9766C79.3942 13.9686 79.4001 13.9595 79.4088 13.9497C79.4032 13.9588 79.3977 13.9675 79.3921 13.9766C79.4651 13.9176 79.5378 13.8585 79.6109 13.7994C79.6493 13.7746 79.6829 13.7529 79.7004 13.7393C79.9458 13.5449 80.1894 13.3481 80.4327 13.1513C80.676 12.9545 80.919 12.7566 81.1602 12.557C81.2151 12.5116 81.4073 12.3864 81.4566 12.305C81.7108 11.8855 81.9953 11.487 82.3148 11.1147C82.4008 11.0143 82.4893 10.9161 82.5795 10.8196C82.7962 10.6861 83.0175 10.5606 83.2426 10.4421C84.1386 9.96982 85.094 9.6136 86.0749 9.36331C88.3649 8.77917 90.7637 8.82392 93.0887 9.16056C95.6361 9.52971 98.1219 10.2341 100.598 10.9186C103.042 11.5943 105.483 12.2871 107.946 12.8881C112.693 14.0459 117.544 14.8219 122.442 14.5066C126.826 14.2241 131.157 13.1688 135.189 11.4282C139.679 9.49021 143.626 6.64607 147.279 3.41985C147.375 3.33526 147.188 3.48173 147.169 3.49606V3.49641Z" fill="#292721"/>
<path d="M73.0035 8.86656C72.8022 8.69527 72.5956 8.52923 72.3904 8.36213C72.2705 8.2646 72.1509 8.16497 72.0314 8.06534C72.0184 8.05276 72.0052 8.04087 71.9922 8.02829C71.7912 7.83357 71.5983 7.63047 71.4102 7.42317C71.3693 7.37843 71.3298 7.33228 71.2896 7.28719C71.628 6.6674 72.0499 6.09619 72.5446 5.59106C72.5428 5.5928 71.5979 4.80731 71.5207 4.74474C71.443 4.68216 70.5069 3.89143 70.48 3.91904C70.1175 4.28924 69.7945 4.6958 69.5148 5.12997C69.1278 4.65944 68.729 4.19905 68.2962 3.76908C67.8571 3.33316 67.3796 2.94199 66.9007 2.55081C66.2515 2.02051 65.6094 1.46329 64.9141 0.992062C64.1272 0.458962 63.242 0.0810722 62.287 0.011507C60.6286 -0.109795 58.7818 0.728134 58.4917 2.5162C58.3662 3.28841 58.5424 4.10886 58.9591 4.76956C59.1838 5.12542 59.4796 5.39844 59.8008 5.66552C60.4857 6.23462 61.168 6.88378 61.9311 7.35151C62.9316 7.96501 64.2013 7.80805 65.1395 7.17393C65.5237 8.57991 65.9079 9.9859 66.2917 11.3919C65.315 10.5515 64.302 9.70904 63.1976 9.05359C61.4687 8.02724 59.4792 7.45883 57.4811 7.29733C54.9145 7.09003 52.3444 7.48575 49.8492 8.06429C47.3724 8.63829 44.9307 9.36366 42.4802 10.0376C37.5767 11.3863 32.597 12.6483 27.4939 12.8755C23.105 13.0712 18.6878 12.4668 14.4982 11.1514C10.3662 9.85411 6.43873 7.86504 2.97829 5.25651C2.88985 5.18031 2.80176 5.1041 2.71401 5.02684C2.30641 4.66678 1.87364 4.33224 1.44996 3.99141C1.24371 3.82571 1.03886 3.65756 0.829112 3.49641C0.810235 3.48208 0.622514 3.33526 0.718647 3.4202C4.37204 6.64642 8.31873 9.49055 12.809 11.4286C16.8413 13.1691 21.1719 14.2245 25.5555 14.5069C30.4538 14.8223 35.3048 14.0462 40.0517 12.8884C42.5155 12.2875 44.9558 11.5946 47.3997 10.9189C49.8761 10.2341 52.3619 9.53006 54.9092 9.16091C57.2343 8.82392 59.633 8.77952 61.9231 9.36366C62.904 9.61395 63.8594 9.97017 64.7553 10.4424C64.9805 10.5609 65.2018 10.6868 65.4185 10.82C65.5087 10.9165 65.5971 11.0147 65.6831 11.115C66.0026 11.4873 66.2872 11.8862 66.5413 12.3053C66.5906 12.3868 66.7829 12.5119 66.8378 12.5574C67.079 12.757 67.3219 12.9545 67.5652 13.1516C67.8085 13.3485 68.0522 13.5453 68.2976 13.7396C68.3151 13.7536 68.3486 13.7749 68.3871 13.7998C68.4601 13.8588 68.5328 13.9179 68.6059 13.977C68.6003 13.9679 68.5947 13.9592 68.5891 13.9501C68.5979 13.9599 68.6038 13.9693 68.6059 13.977C67.8456 11.1944 67.0856 8.41177 66.3253 5.62916C66.3106 5.57498 66.0337 5.38131 66.0288 5.37712C65.7876 5.17751 65.5447 4.98 65.3014 4.78284C65.0581 4.58603 64.8144 4.38922 64.569 4.19486C64.5529 4.18227 64.4778 4.12809 64.4054 4.0746C64.3572 4.03545 64.3089 3.99665 64.2607 3.9575C63.8153 5.36943 62.2527 6.26818 60.8034 6.02593C60.5213 5.38865 60.4364 4.65699 60.5989 3.97707C60.9883 2.34911 62.7041 1.59613 64.2544 1.67793C65.0469 1.71953 65.7981 1.97227 66.4847 2.3582C66.7741 2.66163 67.051 2.97729 67.3198 3.29925C67.9602 4.06761 68.5608 4.86954 69.2254 5.61762C68.8579 6.29125 68.5895 7.01907 68.435 7.77345C68.1336 9.2441 68.2913 10.7864 68.86 12.1739C69.1827 12.9604 69.6333 13.6889 70.1937 14.3283C70.2737 14.4199 70.401 14.5066 70.4901 14.5804C70.7313 14.78 70.9743 14.9775 71.2176 15.1746C71.4609 15.3714 71.7045 15.5686 71.9499 15.7626C72.0447 15.8374 72.18 15.9108 72.2583 16.0003C71.2644 14.866 70.6191 13.4456 70.4157 11.9512C70.2146 10.4771 70.4691 8.96165 71.1162 7.62383C71.1421 7.57069 71.1683 7.51791 71.1952 7.46547C71.3427 7.58922 71.5329 7.74408 71.7178 7.89195C72.1691 8.2618 72.6267 8.62361 73.1011 8.9592C73.2402 9.05743 72.9431 8.81553 73.0035 8.86691V8.86656Z" fill="#292721"/>
</g>
<defs>
<clipPath id="clip0_135_10616">
<rect width="146.616" height="16" fill="white" transform="translate(0.691406)"/>
</clipPath>
</defs>
</svg>
