<svg width="36" height="36" viewBox="0 0 36 36" fill="none" xmlns="http://www.w3.org/2000/svg">
<path d="M18.3635 5.43726C13.3241 5.43726 9.22693 9.53442 9.22693 14.5738C9.22693 17.192 10.8447 21.0288 12.7274 24.3396C13.6696 25.995 14.6814 27.5009 15.6254 28.6167C15.8766 28.9142 16.1233 29.182 16.3649 29.4207H9.79796C9.64651 29.4207 9.50127 29.4808 9.39418 29.5879C9.28709 29.695 9.22693 29.8403 9.22693 29.9917C9.22693 30.1432 9.28709 30.2884 9.39418 30.3955C9.50127 30.5026 9.64651 30.5627 9.79796 30.5627H26.929C27.0804 30.5627 27.2257 30.5026 27.3328 30.3955C27.4398 30.2884 27.5 30.1432 27.5 29.9917C27.5 29.8403 27.4398 29.695 27.3328 29.5879C27.2257 29.4808 27.0804 29.4207 26.929 29.4207H20.3621C20.6036 29.1826 20.8498 28.9142 21.1016 28.6167C22.0455 27.5009 23.0574 25.995 23.999 24.3396C25.8823 21.0288 27.5 17.192 27.5 14.5738C27.5 9.53442 23.4028 5.43726 18.3635 5.43726ZM18.3635 6.57932C22.7856 6.57932 26.3579 10.1517 26.3579 14.5738C26.3579 16.6866 24.835 20.5582 23.006 23.7737C22.0923 25.3818 21.1056 26.8436 20.2296 27.8795C19.7916 28.3968 19.3793 28.808 19.0384 29.0712C18.6975 29.3345 18.4263 29.4207 18.3635 29.4207C18.3007 29.4207 18.03 29.335 17.6885 29.0712C17.347 28.8074 16.9359 28.3974 16.4979 27.8795C15.6214 26.8436 14.6352 25.3818 13.7204 23.7737C11.8919 20.5582 10.369 16.6861 10.369 14.5738C10.369 10.1517 13.9414 6.57932 18.3635 6.57932Z" fill="white"/>
<path d="M18.3635 11.7188C16.7931 11.7188 15.5083 13.0036 15.5083 14.5739C15.5083 16.1443 16.7931 17.4291 18.3635 17.4291C19.9338 17.4291 21.2186 16.1443 21.2186 14.5739C21.2186 13.0036 19.9338 11.7188 18.3635 11.7188ZM18.3635 12.8608C19.3165 12.8608 20.0766 13.6209 20.0766 14.5739C20.0766 15.527 19.3165 16.287 18.3635 16.287C17.4104 16.287 16.6504 15.527 16.6504 14.5739C16.6504 13.6209 17.4104 12.8608 18.3635 12.8608Z" fill="white"/>
</svg>
