<svg width="130" height="130" viewBox="0 0 130 130" fill="none" xmlns="http://www.w3.org/2000/svg">
<path d="M105.625 65C105.625 87.4366 87.4366 105.625 65 105.625C42.5634 105.625 24.375 87.4366 24.375 65C24.375 42.5634 42.5634 24.375 65 24.375C87.4366 24.375 105.625 42.5634 105.625 65Z" fill="#F6F6F6"/>
<path d="M87.75 64.7969C87.75 77.4735 77.4735 87.75 64.7969 87.75C52.1202 87.75 41.8438 77.4735 41.8438 64.7969C41.8438 52.1202 52.1202 41.8438 64.7969 41.8438C77.4735 41.8438 87.75 52.1202 87.75 64.7969Z" fill="#C2C2AF"/>
<path d="M76.0804 63.8733C77.0859 64.2879 77.0859 65.7121 76.0804 66.1267L59.1678 73.1014C58.3655 73.4322 57.4844 72.8424 57.4844 71.9746V58.0254C57.4844 57.1576 58.3655 56.5678 59.1678 56.8986L76.0804 63.8733Z" fill="#F6F6F6"/>
<path d="M49.5968 46.7376C49.0246 46.3231 48.077 46.1838 47.4122 45.96L44.9696 45.1309L40.0826 43.4843C39.699 43.3533 38.2883 44.0796 38.2883 44.5223V50.3043C38.2883 51.543 38.3247 52.7916 38.323 54.0385C37.8958 53.8282 37.4224 53.7301 36.9471 53.7533C35.8589 53.8097 34.5458 54.5293 34.0034 55.496C33.4808 56.4279 33.7107 57.6732 34.4251 58.4376C35.1395 59.202 36.0656 59.2982 36.9984 58.9881C38.0039 58.6565 39.0358 57.9932 39.6179 57.0862C40.3473 55.9504 40.1554 54.4846 40.1571 53.1978V49.7057C41.0749 50.0739 42.0308 50.369 42.9453 50.7006C43.3505 50.8466 47.7198 52.3455 47.6851 52.4666C47.6503 52.5876 47.7611 52.6208 47.9182 52.5959C47.8741 53.7135 47.83 54.8311 47.7859 55.9487C46.3901 56.0598 45.001 56.5357 43.9508 57.4411C42.6658 58.5421 42.8494 60.4672 44.27 61.3759C45.6344 62.2497 47.3229 61.4638 48.3896 60.4573C49.6911 59.2286 49.8234 57.5057 49.6266 55.8327L49.8201 50.9742C49.8543 50.1142 49.8884 49.2542 49.9226 48.3941C49.9408 47.8453 50.1078 47.1041 49.5968 46.7376ZM35.5397 54.9489H35.5265C35.2933 54.9439 35.2966 54.9422 35.5397 54.9455V54.9489ZM37.3456 57.9651C36.6229 57.8622 36.0441 57.2272 35.7779 56.5805C35.6128 56.1958 35.5556 55.7733 35.6125 55.3584C35.6198 55.267 35.6381 55.1768 35.6671 55.0898C35.7101 55.0202 35.7183 54.9721 35.6968 54.9489C35.7453 54.9534 35.7933 54.9611 35.8407 54.9721C36.7007 55.1064 37.382 55.6652 37.8699 56.3616C37.9311 56.4462 38.0683 56.4545 38.242 56.413C38.199 57.0448 38.0551 58.0645 37.3456 57.9617V57.9651ZM47.6106 59.6232C47.523 59.8952 47.3642 60.1207 47.265 60.3827C47.0781 60.5485 47.0715 60.6115 47.2468 60.5684C47.4271 60.5551 47.399 60.5601 47.1641 60.585C46.7741 60.5635 46.3952 60.4462 46.061 60.2434C45.7082 60.0197 45.4192 59.7081 45.2224 59.339C45.0256 58.9699 44.9276 58.5559 44.9381 58.1375C44.9339 57.9336 44.9734 57.7312 45.0539 57.5439C45.1928 57.3001 45.3962 57.2786 45.7286 57.2122C46.4093 57.0813 47.1073 57.0679 47.7925 57.1725C47.9031 57.9926 47.8412 58.8269 47.6106 59.6216V59.6232Z" fill="#605A4C"/>
<path d="M64.5403 39.5165C64.3639 39.3802 63.5946 39.7926 63.4774 39.8649C63.7118 39.7204 63.2615 39.7855 63.1203 39.7642C62.9609 39.7389 62.8052 39.6992 62.6559 39.6457C62.2681 39.4962 61.9291 39.2701 61.6678 38.9867C61.1865 38.496 60.8901 37.9034 60.4793 37.3737C60.1161 36.8737 59.5874 36.4734 58.9577 36.2217C58.2914 35.9656 57.5461 35.8661 57.0281 35.392C56.7641 35.155 55.3342 35.8519 55.4387 36.1624C56.2946 38.8078 56.7583 41.5318 56.8192 44.2727C55.0604 44.1909 52.5746 45.4211 53.3722 47.1266C54.0949 48.6674 56.8262 48.6934 57.9752 47.4976C58.5554 46.8955 58.386 45.8134 58.4114 45.081C58.4453 44.0759 58.4241 43.0713 58.3479 42.067C58.2215 40.3841 57.9427 38.7117 57.5137 37.0643C57.5645 37.0845 57.6139 37.1046 57.6647 37.1271C58.6302 37.5574 59.0579 38.4083 59.5943 39.1574C60.0657 39.8175 60.7009 40.4516 61.6481 40.6033C62.5402 40.7455 63.421 40.4469 64.1324 40.0107C64.282 39.9183 64.7507 39.6789 64.5403 39.5165Z" fill="#605A4C"/>
</svg>
