<svg width="21" height="16" viewBox="0 0 21 16" fill="none" xmlns="http://www.w3.org/2000/svg">
<path fill-rule="evenodd" clip-rule="evenodd" d="M3.75 0.5C1.67893 0.5 0 2.17893 0 4.25V11.9375C0 14.0086 1.67893 15.6875 3.75 15.6875H16.5C18.5711 15.6875 20.25 14.0086 20.25 11.9375V4.25C20.25 2.17893 18.5711 0.5 16.5 0.5H3.75ZM18.75 5.11923V4.25C18.75 3.00736 17.7426 2 16.5 2H3.75C2.50736 2 1.5 3.00736 1.5 4.25V5.11924L9.44541 9.15707C9.87247 9.3741 10.3775 9.3741 10.8046 9.15707L18.75 5.11923ZM1.5 6.80183V11.9375C1.5 13.1801 2.50736 14.1875 3.75 14.1875H16.5C17.7426 14.1875 18.75 13.1801 18.75 11.9375V6.80182L11.4841 10.4943C10.63 10.9284 9.61995 10.9284 8.76584 10.4943L1.5 6.80183Z" fill="#EDF9FF"/>
</svg>
