<svg width="28" height="26" viewBox="0 0 28 26" fill="none" xmlns="http://www.w3.org/2000/svg">
<path fill-rule="evenodd" clip-rule="evenodd" d="M19.2477 3.11884C17.8527 3.6536 16.3089 4.75729 14.7071 6.35905C14.5101 6.55603 14.2399 6.66191 13.9616 6.6512C13.6832 6.64049 13.4219 6.51416 13.2407 6.30263C11.9109 4.7508 10.3864 3.65706 8.94118 3.12312C7.49761 2.58977 6.21206 2.6362 5.21781 3.21023C3.65256 4.11393 2.67894 5.94495 2.52201 8.37821C2.36562 10.8031 3.04085 13.705 4.64024 16.4752C7.13489 20.7961 10.9563 23.24 13.9974 23.2321L14 23.2321L14.0026 23.2321C17.0437 23.24 20.8651 20.7961 23.3598 16.4752C24.9592 13.705 25.6344 10.8031 25.478 8.37821C25.3211 5.94495 24.3475 4.11393 22.7822 3.21023C21.7836 2.63369 20.6179 2.59361 19.2477 3.11884ZM18.5318 1.25135C20.3147 0.567918 22.1362 0.527843 23.7822 1.47818C26.1068 2.82026 27.2893 5.38738 27.4739 8.24949C27.659 11.12 26.8611 14.4107 25.0918 17.4752C22.3852 22.1633 18.0069 25.2412 14 25.2321C9.99317 25.2412 5.61485 22.1633 2.90819 17.4752C1.13891 14.4107 0.341031 11.12 0.526158 8.24949C0.710744 5.38738 1.89326 2.82026 4.21781 1.47818C5.86819 0.52533 7.80655 0.571766 9.63432 1.24707C11.1796 1.818 12.702 2.85351 14.0454 4.22244C15.5176 2.86839 17.0309 1.8267 18.5318 1.25135Z" fill="#F6F6F6"/>
</svg>
