<svg width="28" height="27" viewBox="0 0 28 27" fill="none" xmlns="http://www.w3.org/2000/svg">
<path fill-rule="evenodd" clip-rule="evenodd" d="M5.66699 2.66666C4.01014 2.66666 2.66699 4.0098 2.66699 5.66666V23.064C2.66699 23.8489 3.52972 24.3278 4.19582 23.9128L9.50595 20.6042H22.667C24.3238 20.6042 25.667 19.261 25.667 17.6042V5.66666C25.667 4.0098 24.3238 2.66666 22.667 2.66666H5.66699ZM0.666992 5.66666C0.666992 2.90523 2.90557 0.666656 5.66699 0.666656H22.667C25.4284 0.666656 27.667 2.90523 27.667 5.66666V17.6042C27.667 20.3656 25.4284 22.6042 22.667 22.6042H10.078L5.25347 25.6102C3.25518 26.8553 0.666992 25.4185 0.666992 23.064V5.66666Z" fill="#F6F6F6"/>
<path d="M15.167 11.6667C15.167 12.2189 14.7193 12.6667 14.167 12.6667C13.6147 12.6667 13.167 12.2189 13.167 11.6667C13.167 11.1144 13.6147 10.6667 14.167 10.6667C14.7193 10.6667 15.167 11.1144 15.167 11.6667Z" fill="#F6F6F6"/>
<path d="M10.167 11.6667C10.167 12.2189 9.71928 12.6667 9.16699 12.6667C8.61471 12.6667 8.16699 12.2189 8.16699 11.6667C8.16699 11.1144 8.61471 10.6667 9.16699 10.6667C9.71928 10.6667 10.167 11.1144 10.167 11.6667Z" fill="#F6F6F6"/>
<path d="M20.167 11.6667C20.167 12.2189 19.7193 12.6667 19.167 12.6667C18.6147 12.6667 18.167 12.2189 18.167 11.6667C18.167 11.1144 18.6147 10.6667 19.167 10.6667C19.7193 10.6667 20.167 11.1144 20.167 11.6667Z" fill="#F6F6F6"/>
</svg>
