<svg width="20" height="20" viewBox="0 0 20 20" fill="none" xmlns="http://www.w3.org/2000/svg">
<path d="M9.375 9.25C9.375 9.66421 9.03921 10 8.625 10C8.21079 10 7.875 9.66421 7.875 9.25C7.875 8.83579 8.21079 8.5 8.625 8.5C9.03921 8.5 9.375 8.83579 9.375 9.25Z" fill="#292929"/>
<path d="M7.125 9.25C7.125 9.66421 6.78921 10 6.375 10C5.96079 10 5.625 9.66421 5.625 9.25C5.625 8.83579 5.96079 8.5 6.375 8.5C6.78921 8.5 7.125 8.83579 7.125 9.25Z" fill="#292929"/>
<path d="M11.625 9.25C11.625 9.66421 11.2892 10 10.875 10C10.4608 10 10.125 9.66421 10.125 9.25C10.125 8.83579 10.4608 8.5 10.875 8.5C11.2892 8.5 11.625 8.83579 11.625 9.25Z" fill="#292929"/>
<path fill-rule="evenodd" clip-rule="evenodd" d="M8.625 3C5.17322 3 2.375 5.79822 2.375 9.25C2.375 10.1194 2.55295 10.9491 2.875 11.7031V12.75C2.875 13.9926 3.88236 15 5.125 15H6.17191C6.47159 15.128 6.78323 15.2332 7.10455 15.3136C8.22191 16.3596 9.72367 17 11.375 17C12.2444 17 13.0741 16.8221 13.8281 16.5H14.875C16.1176 16.5 17.125 15.4927 17.125 14.25V13.2031C17.447 12.4491 17.625 11.6194 17.625 10.75C17.625 7.82256 15.6123 5.36518 12.8952 4.68619C11.7779 3.64032 10.2762 3 8.625 3ZM3.875 9.25C3.875 6.62665 6.00165 4.5 8.625 4.5C11.2484 4.5 13.375 6.62665 13.375 9.25C13.375 11.8734 11.2484 14 8.625 14C7.91634 14 7.24585 13.8453 6.64375 13.5685L6.49463 13.5H5.125C4.71079 13.5 4.375 13.1642 4.375 12.75V11.3804L4.30646 11.2313C4.0297 10.6291 3.875 9.95866 3.875 9.25ZM14.5311 7.20006C14.7539 7.84222 14.875 8.53197 14.875 9.25C14.875 12.1951 12.838 14.6644 10.0961 15.3259C10.503 15.4394 10.9319 15.5 11.375 15.5C12.0837 15.5 12.7541 15.3453 13.3563 15.0686L13.5054 15H14.875C15.2892 15 15.625 14.6642 15.625 14.25V12.8804L15.6935 12.7313C15.9703 12.1292 16.125 11.4587 16.125 10.75C16.125 9.33812 15.509 8.0701 14.5311 7.20006Z" fill="#292929"/>
</svg>
