<?xml version="1.0" encoding="UTF-8"?>
<svg id="Layer_1" data-name="Layer 1" xmlns="http://www.w3.org/2000/svg" viewBox="0 0 280 64">
  <defs>
    <style>
      .cls-1 {
        fill: #e38983;
      }

      .cls-2 {
        fill: #57445c;
      }
    </style>
  </defs>
  <path class="cls-1" d="M141.63,45.58c-.48.48-1.02.93-1.56,1.38-.12.09-.27.12-.54.21-.3-.24-.69-.48-1.02-.78-8.02-7.36-13.55-16.2-16.41-26.71-.84-3.03-1.2-6.13-.3-9.22.36-1.17.81-2.37,1.41-3.46.99-1.83,2.07-2.16,4.09-1.53,1.71.51,3.06,1.56,4.15,2.91,1.59,1.92,2.91,4.03,3.94,6.34,1.38,3.1,2.13,6.31,2.25,9.71.03.3,0,.63.03.93.15,1.68,1.41,2.46,2.97,1.77.36-.18.69-.63.81-1.05.15-.57.12-1.23.15-1.83.27-5.38,2.04-10.22,5.17-14.54.51-.69,1.02-1.41,1.65-1.98.75-.66,1.53-1.35,2.43-1.8,3.43-1.62,4.51-.48,5.65,1.86,1.53,3.16,1.71,6.46,1.11,9.83-.27,1.53-.69,3.04-1.17,4.51-2.91,9.07-7.9,16.89-14.81,23.47Z"/>
  <path class="cls-2" d="M81.02,24.55c-1.32,1.11-2.31,2.52-3,4.12-2.52,5.65-2.43,11.3.33,16.86.66,1.32,1.5,2.52,2.82,3.67,4.93-4.27,7.69-9.38,8.26-15.62.18-2.31-.24-4.54-1.38-6.55-.51-.93-1.2-1.83-2.01-2.52-1.65-1.47-3.31-1.38-5.02.06ZM49.53,31.34c-.87-1.08-2.01-1.17-3.03-.27-1.02.93-1.62,2.1-1.83,3.43-.51,3.46.36,6.58,2.31,9.77,2.04-2.49,3.1-5.05,3.64-7.84.15-.72.09-1.53.03-2.31-.09-1.02-.48-1.95-1.11-2.76ZM198.18,49.09c5.65-5.47,6.58-15.93,1.68-22.75-.54-.75-1.23-1.44-1.92-2.01-1.41-1.17-2.76-1.17-4.3-.21-1.08.69-1.83,1.68-2.43,2.79-1.14,2.19-1.59,4.54-1.32,7,.54,5.56,2.94,10.25,6.94,14.12.39.36.84.66,1.35,1.05ZM141.6,24.25c-.03.6,0,1.26-.15,1.83-.12.42-.45.87-.81,1.05-1.56.69-2.82-.09-2.97-1.77-.03-.3,0-.63-.03-.93-.12-3.4-.87-6.61-2.25-9.71-1.02-2.31-2.34-4.42-3.94-6.34-1.08-1.35-2.43-2.4-4.15-2.91-2.01-.63-3.1-.3-4.09,1.53-.6,1.08-1.05,2.28-1.41,3.46-.9,3.09-.54,6.19.3,9.22,2.85,10.52,8.38,19.35,16.41,26.71.33.3.72.54,1.02.78.27-.09.42-.12.54-.21.54-.45,1.08-.9,1.56-1.38,6.91-6.58,11.9-14.39,14.81-23.47.48-1.47.9-2.97,1.17-4.51.6-3.37.42-6.67-1.11-9.83-1.14-2.34-2.22-3.49-5.65-1.86-.9.45-1.68,1.14-2.43,1.8-.63.57-1.14,1.29-1.65,1.98-3.12,4.33-4.9,9.16-5.17,14.54ZM227.2,30.34c1.89-3.12,5.35-3.46,7.87-.81,1.26,1.32,2.04,2.91,2.31,4.75.42,2.67.12,5.29-.84,7.81-.57,1.53-1.29,3-1.98,4.6.33.36.66.78,1.08,1.11,6.07,4.78,12.95,7.03,20.67,6.52,2.34-.15,4.63-.78,6.73-1.83,4.84-2.43,8.86-5.77,11.69-10.46.21-.33.33-.75.6-.99.18-.18.6-.3.81-.21.24.09.48.42.54.66.15.81-.21,1.53-.6,2.22-1.14,2.13-2.58,4.09-4.33,5.77-3.09,2.91-6.52,5.32-10.64,6.61-4.42,1.41-8.89,1.32-13.4.39-5.11-1.08-9.74-3.24-13.82-6.52-.36-.27-.72-.54-1.17-.87-.72.72-1.41,1.35-2.07,2.01-3.64,3.61-8.02,5.86-13.07,6.73-3.06.51-6.07.21-9.04-.45-3.46-.75-6.73-1.95-9.77-3.85-.3.15-.6.27-.84.45-4.54,3.79-9.89,5.89-15.53,7.3-5.02,1.23-10.13,1.68-15.29,1.44-2.58-.12-5.11-.51-7.63-1.14-6.64-1.68-12.8-4.36-18.3-8.5-.42-.33-.9-.63-1.35-.93-.06-.03-.15-.03-.36-.06-8.59,6.49-18.24,10.55-29.24,10.64-10.79.12-20.85-2.31-29.63-9.19-.6.33-1.2.66-1.8.96-3.73,1.95-7.69,3.12-11.84,3.49-6.55.57-12.26-1.56-17.22-5.83-1.05-.9-2.04-1.92-3.16-2.97-.36.21-.75.42-1.11.69-5.02,4.09-10.82,6.43-17.25,7.15-6.19.69-11.9-.75-16.98-4.45-2.82-2.04-5.32-4.36-7.18-7.3-.51-.87-1.02-1.77-1.41-2.67-.15-.39-.09-.93-.03-1.38.06-.42.87-.63,1.14-.33.21.24.39.48.54.75,2.46,4.45,6.16,7.6,10.46,10.1,4.15,2.43,8.65,3.06,13.34,2.52,5.44-.63,10.4-2.58,14.78-5.89.63-.48,1.2-.99,1.86-1.56-.42-.93-.78-1.77-1.2-2.58-1.35-2.88-2.07-5.89-1.8-9.07.21-2.52,1.17-4.69,3.15-6.28,2.1-1.68,4.72-1.44,6.49.57.39.45.75.99,1.02,1.56.87,1.77,1.23,3.67.84,5.68-.54,2.94-1.62,5.68-3.28,8.17-.36.6-.78,1.17-1.26,1.83.33.42.6.87.96,1.26,3.06,3.28,6.7,5.53,11.09,6.55,2.31.54,4.66.6,6.97.24,3.34-.48,6.55-1.44,9.52-3.03.27-.15.51-.33.75-.48.21-.72-.36-1.05-.66-1.44-4.84-7-5.47-14.42-2.16-22.21.9-2.1,2.28-3.88,4.03-5.38,2.82-2.46,6.25-1.98,8.59-.18,1.29,1.02,2.28,2.31,3.03,3.79,1.68,3.37,1.89,6.91,1.26,10.52-.96,5.35-3.4,9.98-7.3,13.82l-.99.99c-.06.06-.09.12-.21.3.27.3.51.72.87.93,1.59.99,3.16,2.1,4.87,2.82,15.8,6.67,30.98,5.53,45.37-4,.66-.42,1.23-.93,1.89-1.41-.21-.84-.87-1.17-1.35-1.65-7.66-7.33-12.98-16.08-16.02-26.23-.84-2.85-1.35-5.77-1.2-8.77.12-2.52.78-4.9,1.92-7.15.36-.69.81-1.35,1.29-1.95,1.35-1.62,3.12-2.25,5.23-1.95,2.91.45,5.23,1.95,7.09,4.18,2.19,2.64,3.97,5.56,5.17,8.83.21.63.48,1.26.9,2.25.3-.78.48-1.14.63-1.56.99-3.06,2.61-5.8,4.51-8.41.99-1.38,2.19-2.61,3.64-3.58,1.26-.84,2.61-1.41,4.09-1.65,2.37-.42,4.33.3,5.77,2.22,1.65,2.25,2.52,4.84,2.82,7.6.36,2.97,0,5.89-.78,8.77-2.88,10.49-8.2,19.5-15.96,27.07-.57.54-1.17,1.02-1.83,1.62.45.48.69.84,1.05,1.11,9.34,6.52,19.59,9.74,31.07,8.62,4.84-.48,9.52-1.53,14-3.4,2.1-.87,4.09-1.92,5.95-3.25.36-.27.69-.6.96-.84-.03-.78-.6-.99-.96-1.35-4.15-4.09-6.67-8.98-7.57-14.72-.51-3.31-.18-6.52,1.29-9.59.69-1.47,1.65-2.79,2.94-3.85,2.43-1.98,5.92-2.46,8.77.03,1.68,1.44,3.03,3.15,3.91,5.2,3.4,7.81,2.85,15.29-2.07,22.36-.24.39-.51.75-.84,1.23.36.3.63.54.96.72,3.37,1.74,6.91,2.82,10.7,3.15,5.59.48,10.43-1.32,14.69-4.84,1.14-.93,2.19-1.98,3.18-3.19-.45-.66-.84-1.23-1.2-1.8-1.77-2.7-3-5.65-3.43-8.86-.27-2.1.15-4.06,1.26-5.83ZM234.62,34.79c-.18-1.26-.66-2.4-1.5-3.34-1.32-1.47-2.76-1.32-3.76.42-.69,1.17-1.02,2.46-.84,3.82.45,3.03,1.5,5.83,3.52,8.2.06.06.15.03.39.06.72-.81,1.08-1.92,1.47-2.97.72-2.01,1.02-4.06.72-6.19Z"/>
</svg>