<?xml version="1.0" encoding="UTF-8"?>
<svg id="Layer_1" data-name="Layer 1" xmlns="http://www.w3.org/2000/svg" viewBox="0 0 328 328">
  <defs>
    <style>
      .cls-1 {
        fill: #c56962;
      }

      .cls-2 {
        fill: #e38983;
      }

      .cls-3 {
        fill: #57445c;
      }
    </style>
  </defs>
  <path class="cls-3" d="M323.2,123.98c.02.29,0,.58-.03.86-.54,4.67-.97,9.35-1.69,13.99-.74,4.84-2.26,9.5-4.27,13.97-1.38,3.06-2.91,6.03-4.85,8.79-2.84,4.03-6.13,7.61-9.99,10.66-1.2.95-2.51,1.76-3.78,2.63-.4.27-.79.53-1.21.77-2.08,1.16-3.06,2.88-3.4,5.29-.53,3.78-1.41,7.53-2.19,11.28-.33,1.57-.79,3.11-1.32,5.16,3.35-3.02,6.22-5.8,9.29-8.32,3.04-2.49,6.29-4.7,9.59-7.14.03-.21.13-.58.15-.94.1-2.55,1.86-3.65,3.92-4.41,1.05-.39,2.1-.04,2.99.6,1.52,1.08,2.12,3.77,1.28,5.48-.83,1.68-2.63,2.51-4.6,2.06-.74-.17-1.46-.45-2.34-.73-1.65.74-3.06,2.07-4.6,3.18-4.21,3.02-8.26,6.26-11.9,9.93-3.16,3.18-6.06,6.58-7.8,10.9-3.45,8.57-8.16,16.48-13.75,23.83-.52.69-.99,1.4-1.49,2.11-.04.06,0,.18.01.28,4.38.59,14.06-3.59,20.48-8.31,0-.54-.08-1.21.02-1.85.31-2.08,2.17-3.4,4.4-3.21,1.78.15,3.27,1.81,3.35,3.72.07,1.81-1.27,3.37-3.12,3.47-.84.05-1.69-.17-2.79-.3-.36.22-.96.52-1.49.91-4.48,3.44-9.52,5.71-14.91,7.22-2.2.62-4.49.96-6.75,1.34-1.79.3-3.23,1.05-4.35,2.51-.82,1.05-1.84,1.95-2.75,2.94-.3.34-.53.74-.81,1.13.23.11.31.2.38.19,4.26-.79,8.57-.6,12.87-.87,3.04-.19,6.06-.85,9.06-1.44,2.53-.5,5.01-1.27,7.54-1.79,1.3-.28,2.65-.36,3.98-.37,1.07,0,1.72.93,1.53,1.99-.1.56-.29,1.13-.56,1.62-.42.75-.89,1.49-1.46,2.13-5.15,5.81-11.08,10.6-18.41,13.39-2.86,1.09-5.87,1.69-8.91,2.16-6.29.95-12.4-.19-18.53-1.26-.09-.02-.18-.07-.28-.08-1.79-.27-3.59-.71-5.39-.75-1.92-.04-3.27,1.49-4.84,2.35-3.69,2.03-7.39,4.03-11.48,5.7-.3-.73-.57-1.38-.89-2.17.58-.34,1.05-.65,1.55-.9,1.63-.81,3.27-1.59,4.91-2.4.6-.3,1.05-.66,1.27-1.42.15-.56.72-1.11,1.23-1.49,4.52-3.33,8.36-7.29,11.5-11.95,3.5-5.19,5.73-10.8,6.18-17.09.11-1.71.3-3.41.44-5.12-.52-.36-.9-.65-1.3-.9-1.5-.99-1.78-2.45-1.43-4.05.36-1.63,1.4-2.72,3.06-3.1,1.5-.34,2.64.36,3.45,1.53.88,1.27,1.19,2.75.16,4.02-1.01,1.24-1.05,2.57-1.09,4.03-.19,6.93-1.96,13.43-5.42,19.45-.91,1.57-2.06,2.99-3.09,4.5-.24.36-.42.76-.94,1.71.91-.45,1.21-.6,1.51-.76,5.56-3.01,10.04-7.33,14.32-11.89,3.75-3.98,7.17-8.24,10.27-12.75.53-.78,1.02-1.6,1.55-2.42-.96-2.42-2.22-4.55-3.59-6.63-1.96-2.96-3.76-5.98-5.07-9.32-2.21-5.66-2.8-11.52-2.39-17.5.46-6.7,1.68-13.3,2.88-19.9.28-1.51.52-3.02.86-4.52.33-1.4.97-2.08,1.73-1.96,1.04.16,1.26,1.01,1.55,1.85,2.57,7.42,5.21,14.82,7.73,22.25,1.26,3.72,2.4,7.47,2.98,11.38.5,3.35.54,6.67.08,10.02-.07.46-.01.92-.01,1.57.33-.32.62-.46.71-.69,1.11-2.65,2.46-5.24,3.21-7.99.69-2.55.91-5.28,1.04-7.94.18-3.85-.34-7.69-1.28-11.4-1.38-5.47-3.14-10.85-4.74-16.27-.08-.27-.24-.52-.41-.88-.51-.06-1.08-.11-1.63-.19-.28-.04-.57-.11-.83-.23-2.18-1.07-3.2-5.42-1.72-7.34,1.53-1.98,5.15-1.72,6.4.54.7,1.27,1.17,2.71.53,4.14-.61,1.36-.38,2.58.07,3.88.69,2,1.24,4.02,1.93,6.02,1.97,5.73,3.23,11.62,3.76,17.63.57.21.7-.17.77-.52,2.12-9.3,3.1-18.72,2.65-28.26-.15-3.35-.56-6.69-.82-10.03-.13-1.73-.86-3.04-2.22-4.16-2.49-2.06-5.44-3.19-8.35-4.41-4.36-1.81-8.49-4.01-12.09-7.1-2.93-2.51-5.46-5.37-7.14-8.9-1.16-2.42-2.32-4.84-3.45-7.26-1.38-2.98-2.12-6.16-2.78-9.35-.21-1.01-.22-2.1-.13-3.14.09-1.17,1.3-1.79,2.35-1.3.43.2.81.51,1.2.79,5.35,3.89,10.76,7.68,16.01,11.7,3.5,2.68,6.64,5.8,9.27,9.39.28.38.58.76.89,1.12.11.12.32.16.47.24-.43-3.25-5.17-13.3-9.13-19.33-8.63-13.16-19.96-25.03-29.32-30.67-.31.16-.71.4-1.12.58-1.73.79-3.19.22-4.44-1.01-1.2-1.18-1.59-2.65-.98-4.22.64-1.68,1.97-2.55,3.75-2.68,1.62-.12,3.03.85,3.49,2.41.21.73.26,1.49.41,2.42,5.19,3.62,10.13,7.71,15.14,12.63-.26-1.06-.33-1.57-.5-2.04-2.01-5.43-3.25-11.01-3.47-16.81-.05-1.21-.33-2.18-1.32-3.02-1.46-1.24-1.3-2.9-.75-4.51.55-1.63,1.91-2.4,3.6-2.2,1.63.19,3.27,1.67,3.64,3.27.2.9,0,1.7-.6,2.41-.62.73-1.23,1.48-2.2,2.64-.11,1.19.23,2.98.41,4.77.75,7.36,2.97,14.18,6.81,20.55,1.94,3.21,4.23,6.15,6.39,9.19.15.2.41.31.63.46,0,.03-.01.05-.02.08.03,0,.06.02.09.03.04.13.09.27.14.4.07-.1.14-.2.22-.3-.12-.03-.24-.06-.36-.1-.01-.03-.03-.06-.03-.09-.01,0-.03-.02-.04-.02.27-.87-.15-1.62-.47-2.39-1.04-2.47-2.04-4.96-3.14-7.4-2.44-5.44-2.32-10.99-.6-16.55.93-3.02,2.14-5.95,3.29-8.89.34-.87.61-1.96,1.74-2.1,1.31-.16,1.77.95,2.24,1.88,2.79,5.68,5.56,11.36,7.18,17.51.87,3.29,1.05,6.64.75,9.99-.41,4.4-1.42,8.7-2.71,12.91-.31,1.01-.56,2.03-.81,3.05-.6,2.43-.24,4.67.89,6.95,3.2,6.46,5.62,13.22,7.39,20.21.22.87.26,1.85,1.05,2.92.39-.87.71-1.42.9-2,1.25-3.82,2.5-7.65,3.7-11.48,1.07-3.39,1.66-6.87,1.79-10.44.05-1.24.17-2.48.28-3.88-.42-.36-.94-.77-1.4-1.23-1.53-1.54-1.85-3.66-.87-5.54,1.07-2.06,3.43-2.67,5.36-1.4,2.61,1.71,2.97,4.61.82,6.85-.39.41-.88.73-1.43,1.18-.11.95-.28,2-.34,3.04-.3,5.89-1.7,11.53-3.59,17.09-1.21,3.53-2.28,7.11-3.32,10.69-.73,2.51-.74,5.08-.43,7.69.38,3.33.52,6.69.77,10.03.05.64.08,1.28.38,1.96.2-1.01.44-2.02.58-3.04.78-5.43,3.04-10.24,6.01-14.78,2.16-3.29,4.39-6.52,7.1-9.39,1.78-1.88,3.61-3.71,5.42-5.55,2.3-2.32,4.61-4.63,5.89-7.72.07-.17.17-.34.28-.5.34-.54.83-.8,1.46-.66.65.14.92.63.97,1.25ZM314.49,152.78c2.47-5.07,4.9-13.43,4.65-17.49-.56.62-.78,1.22-1.03,1.81-1.51,3.52-3.32,6.88-5.3,10.17-3.7,6.14-8.06,11.87-11.39,18.24-.93,1.78-1.81,3.58-2.7,5.38-.06.13.03.34.13,1,7.04-5.18,11.98-11.59,15.65-19.12ZM317.48,132.86c-.42.07-.62.04-.71.13-1.59,1.51-3.25,2.97-4.74,4.59-3.96,4.32-7.32,9.06-10.11,14.25-2.17,4.04-3.47,8.26-3.88,12.8-.03.28-.28.78.49.9.28-.41.62-.85.91-1.32,2.1-3.43,4.06-6.95,6.31-10.27,3.12-4.6,6.02-9.33,8.67-14.21,1.18-2.16,1.99-4.5,3.06-6.87ZM291.35,243.49l-.2-.34c-2.04.46-4.07.99-6.13,1.37-3,.54-6.01,1.08-9.04,1.42-1.79.2-3.63.13-5.44.02-2.41-.15-4.77.22-7.12.63-4.97.88-8.91,3.57-12.59,7.19.49.09.75.2.98.17,3.88-.47,7.77-.93,11.64-1.44,3.79-.5,7.59-.91,11.35-1.61,5.6-1.05,10.7-3.43,15.47-6.52.39-.25.71-.59,1.07-.89ZM288.51,140.34c-.02-.19,0-.39-.06-.55-2.04-5.33-5.06-10.05-8.94-14.22-5.06-5.44-11.36-9.29-17.3-13.62-.13-.09-.35-.05-.92-.13,3.1,4.79,6.69,8.75,10.52,12.48,2.88,2.8,5.87,5.48,8.72,8.3,2.44,2.42,4.74,4.98,7.11,7.47.24.26.43.69.87.28ZM286.92,249.25c-.05-.11-.11-.22-.17-.33-.07.12-.15.23-.22.34-.03,0-.06,0-.09,0-.02.03-.04.06-.05.09-.59.18-1.22.31-1.77.57-5.01,2.3-10.27,3.65-15.75,4.18-4.58.44-9.15.98-13.72,1.49-.67.07-1.33.18-1.98.34-.54.13-1.06.35-1.59.52,2.68.77,5.32,1.23,7.97,1.48,3.16.29,6.29.06,9.45-.42,6.22-.95,11.7-3.49,16.72-7.15.3-.23.46-.66.67-1.01.03-.01.07-.02.1-.03.01-.02.03-.05.04-.07.13,0,.26,0,.4-.01ZM284.63,141.55c.28.13.65.05,1.31.08-.89-1.08-1.5-1.94-2.23-2.67-2.83-2.87-5.67-5.71-8.54-8.53-3.96-3.9-8.14-7.57-11.61-11.94-.66-.83-1.39-1.59-2.06-2.41-.65-.79-1.27-1.61-2.01-2.54-.4,1.54.19,2.67.68,3.76,1.4,3.15,2.92,6.24,4.34,9.38.69,1.51,1.65,2.81,2.78,4,2.51,2.65,5.19,5.12,8.52,6.73,2.92,1.42,5.87,2.79,8.83,4.15ZM283.3,101.77c1.33-4.76,1.68-9.56.71-14.42-.74-3.68-2.16-7.12-3.63-10.54-.06-.14-.31-.21-.75-.49.77,4.52,1.54,8.65,2.16,12.81.63,4.19.75,8.45,1.51,12.65ZM280.32,106.97c.93-10.4-1.05-20.45-2.68-30.54-.2-1.28-.19-2.68-1.02-3.84-.21.15-.41.22-.47.36-1.83,3.75-2.86,7.71-2.98,11.88-.09,2.81.45,5.5,1.53,8.11,1.75,4.24,3.41,8.52,5.11,12.78.17.42.35.83.52,1.25ZM279.57,208.67c.17-3.06.33-6.13-.23-9.17-1.26-6.9-3.64-13.46-6.13-19.98-.19-.5-.51-.94-.77-1.41.77,10.48,3.17,20.63,4.45,30.96.26,2.09.54,4.17.83,6.26,0,.08.09.17.16.22.06.04.15.03.41.05.21-.67.5-1.36.62-2.09.27-1.61.56-3.21.65-4.83ZM275.5,216.34c-.05-.97-.05-1.93-.15-2.87-.73-6.95-2.1-13.79-3.27-20.67-.93-5.46-1.75-10.93-2.62-16.4-.12,0-.24,0-.37-.01-.17.62-.4,1.22-.5,1.85-.57,3.78-1.12,7.55-1.39,11.38-.42,5.99.19,11.79,2.35,17.46,1.28,3.37,3.34,6.21,5.3,9.14.07.1.34.07.65.12Z"/>
  <path class="cls-2" d="M319.14,135.29c.25,4.06-2.18,12.42-4.65,17.49-3.67,7.53-8.61,13.94-15.65,19.12-.09-.66-.19-.87-.13-1,.89-1.8,1.77-3.6,2.7-5.38,3.33-6.37,7.69-12.1,11.39-18.24,1.98-3.29,3.79-6.65,5.3-10.17.26-.59.48-1.2,1.03-1.81Z"/>
  <path class="cls-1" d="M316.77,133c.09-.09.3-.07.71-.13-1.08,2.38-1.89,4.71-3.06,6.87-2.65,4.88-5.54,9.61-8.67,14.21-2.25,3.32-4.21,6.85-6.31,10.27-.29.47-.62.91-.91,1.32-.77-.12-.52-.62-.49-.9.4-4.54,1.71-8.76,3.88-12.8,2.79-5.19,6.15-9.93,10.11-14.25,1.49-1.62,3.14-3.08,4.74-4.59Z"/>
  <path class="cls-1" d="M291.15,243.15l.2.34c-.36.3-.68.65-1.07.89-4.77,3.09-9.87,5.47-15.47,6.52-3.76.7-7.56,1.11-11.35,1.61-3.88.51-7.76.97-11.64,1.44-.24.03-.49-.08-.98-.17,3.68-3.62,7.61-6.31,12.59-7.19,2.35-.42,4.7-.78,7.12-.63,1.81.11,3.66.18,5.44-.02,3.03-.35,6.04-.88,9.04-1.42,2.06-.38,4.09-.91,6.13-1.37Z"/>
  <path class="cls-2" d="M288.45,139.79c.06.16.04.36.06.55-.44.41-.63-.02-.87-.28-2.37-2.49-4.67-5.05-7.11-7.47-2.85-2.82-5.85-5.5-8.72-8.3-3.84-3.73-7.43-7.69-10.52-12.48.57.08.79.04.92.13,5.94,4.33,12.24,8.18,17.3,13.62,3.88,4.17,6.9,8.89,8.94,14.22Z"/>
  <path class="cls-3" d="M286.53,249.26s-.03.05-.04.07c-.03.01-.07.02-.1.03.01-.03.03-.07.05-.09.03,0,.06,0,.09,0Z"/>
  <path class="cls-1" d="M285.94,141.63c-.67-.03-1.03.05-1.31-.08-2.96-1.36-5.91-2.73-8.83-4.15-3.33-1.61-6.01-4.07-8.52-6.73-1.12-1.19-2.09-2.49-2.78-4-1.42-3.14-2.94-6.23-4.34-9.38-.48-1.09-1.08-2.22-.68-3.76.74.93,1.36,1.75,2.01,2.54.67.81,1.4,1.58,2.06,2.41,3.47,4.37,7.65,8.04,11.61,11.94,2.87,2.82,5.71,5.66,8.54,8.53.73.74,1.34,1.6,2.23,2.67Z"/>
  <path class="cls-2" d="M286.39,249.36c-.22.36-.37.79-.67,1.01-5.03,3.66-10.51,6.2-16.72,7.15-3.16.48-6.29.71-9.45.42-2.65-.25-5.29-.71-7.97-1.48.53-.17,1.05-.4,1.59-.52.65-.15,1.31-.26,1.98-.34,4.58-.51,9.15-1.05,13.72-1.49,5.48-.53,10.74-1.88,15.75-4.18.56-.26,1.18-.39,1.77-.57Z"/>
  <path class="cls-2" d="M284.01,87.35c.97,4.86.62,9.66-.71,14.42-.76-4.19-.87-8.45-1.51-12.65-.62-4.16-1.39-8.29-2.16-12.81.44.28.69.35.75.49,1.46,3.43,2.89,6.86,3.63,10.54Z"/>
  <path class="cls-1" d="M277.64,76.43c1.63,10.09,3.62,20.14,2.68,30.54-.17-.42-.36-.83-.52-1.25-1.7-4.26-3.35-8.54-5.11-12.78-1.08-2.61-1.61-5.3-1.53-8.11.13-4.17,1.16-8.13,2.98-11.88.06-.13.26-.2.47-.36.83,1.16.82,2.56,1.02,3.84Z"/>
  <path class="cls-2" d="M279.34,199.5c.56,3.04.4,6.11.23,9.17-.09,1.62-.38,3.23-.65,4.83-.12.73-.42,1.42-.62,2.09-.26-.03-.35-.01-.41-.05-.07-.05-.15-.13-.16-.22-.29-2.08-.58-4.17-.83-6.26-1.28-10.33-3.68-20.48-4.45-30.96.26.47.58.91.77,1.41,2.49,6.52,4.87,13.08,6.13,19.98Z"/>
  <path class="cls-3" d="M276.16,103.84s-.06-.02-.09-.03c0-.03.02-.05.02-.08.01,0,.03.01.04.02,0,.03.02.06.03.09Z"/>
  <path class="cls-1" d="M275.35,213.47c.1.94.1,1.89.15,2.87-.31-.05-.58-.02-.65-.12-1.96-2.93-4.02-5.77-5.3-9.14-2.16-5.67-2.78-11.47-2.35-17.46.27-3.82.82-7.6,1.39-11.38.1-.63.34-1.24.5-1.85.13,0,.25,0,.37.01.87,5.47,1.69,10.95,2.62,16.4,1.16,6.88,2.53,13.72,3.27,20.67Z"/>
  <path class="cls-3" d="M100.89,265.33c-.23.77-.42,1.44-.67,2.26-2.12-.58-3.88-1.54-5.67-2.38-3.29-1.55-6.59-3.1-9.8-4.78-2.59-1.34-5.19-1.59-8.06-1.08-3.95.71-7.96,1.28-11.96,1.54-9.96.65-18.94-2.16-26.87-8.24-3.21-2.46-6.11-5.25-8.6-8.45-.71-.89-1.32-1.89-1.77-2.94-.6-1.42.35-2.76,1.89-2.78.66-.01,1.34.11,1.98.28,3.81.93,7.61,1.93,11.42,2.85,3.55.86,7.14,1.4,10.81,1.37,3.08-.03,6.13.22,9.11,1.07.35.1.75.06,1.34.09-.28-.48-.41-.82-.65-1.08-.63-.72-1.37-1.35-1.96-2.11-2-2.58-4.75-3.74-7.85-4.35-2.16-.42-4.31-.91-6.42-1.53-4.74-1.38-9.01-3.73-13-6.61-.7-.5-1.38-1.02-2.09-1.55-.79.11-1.55.27-2.3.29-1.91.04-3.41-1.24-3.62-3.02-.22-1.92,1.28-3.9,3.16-4.17,2.37-.34,4.38,1.22,4.64,3.62.05.46-.06.93-.11,1.53,6.38,4.72,13.26,8.23,21.59,9.31-.35-.67-.49-1.11-.75-1.45-5.51-7.18-10.07-14.93-13.63-23.26-2.65-6.2-6.67-11.36-11.55-15.94-4.21-3.94-8.78-7.42-13.44-11.05-.77.22-1.57.5-2.39.69-2.06.45-4.08-.52-4.78-2.26-.8-1.96.03-4.48,1.81-5.55.78-.47,1.62-.66,2.48-.34,2.09.76,3.78,1.92,3.92,4.41.01.29.05.57.09.97,3.27,2.55,6.69,5.02,9.86,7.77,3.16,2.74,6.09,5.77,9.29,8.85-.05-.58-.03-.96-.12-1.3-1.44-5.09-2.43-10.26-3.1-15.49-.34-2.58-1.55-4.46-3.76-5.78-4.42-2.63-8.14-6.05-11.39-10.01-6.05-7.35-9.6-15.84-11.44-25.11-1.06-5.38-1.14-10.87-1.71-16.29-.05-.46-.04-.98.13-1.4.11-.3.52-.61.83-.67.32-.05.79.09,1.02.32.33.32.55.78.74,1.21,1.07,2.41,2.63,4.45,4.44,6.32,1.4,1.45,2.81,2.89,4.19,4.35,4.17,4.41,7.67,9.31,10.62,14.62,2.55,4.59,4.13,9.46,4.52,14.72.1,1.41.43,2.8.93,4.18.05-1.11.06-2.22.15-3.33.3-3.72.65-7.45.94-11.17.07-.94,0-1.89-.03-2.84-.02-.48-.17-.95-.15-1.42.08-3.21-.8-6.26-1.7-9.29-.65-2.21-1.28-4.42-2.03-6.59-1.9-5.58-2.85-11.33-3.06-17.2-.03-.76-.13-1.52-.19-2.22-.64-.58-1.27-1.03-1.75-1.61-2.48-3,.16-6.53,2.61-6.93,1.93-.32,3.7.7,4.28,2.56.57,1.78.23,3.42-1.03,4.81-.44.48-.99.87-1.49,1.3-.18,5.48.42,10.78,1.96,15.97,1.22,4.14,2.5,8.25,3.76,12.38.08.26.24.51.49,1.04.3-.87.58-1.51.75-2.18,1.86-7.37,4.54-14.44,7.88-21.26,1.3-2.67,1.74-5.43.98-8.36-.75-2.87-1.5-5.75-2.08-8.66-.45-2.24-.72-4.54-.93-6.83-.43-4.67.3-9.21,2.14-13.5,1.99-4.66,4.25-9.22,6.4-13.82.16-.34.36-.69.58-.99.83-1.12,2.04-1.06,2.79.15.26.4.46.85.62,1.3.95,2.61,1.97,5.2,2.78,7.86,1.28,4.17,1.89,8.44.85,12.76-.4,1.67-.98,3.31-1.64,4.89-1.32,3.19-2.77,6.32-4.15,9.48-.19.42-.3.89-.46,1.35.54.34.69-.18.84-.39,2.84-3.86,5.73-7.68,8.17-11.82,3.36-5.7,5.41-11.83,6.3-18.36.26-1.89.42-3.79.62-5.68-.75-.73-1.43-1.39-2.1-2.07-.49-.49-.77-1.08-.74-1.8.07-2.16,2.28-4.21,4.41-4.07,1.39.09,2.36.87,2.85,2.1.67,1.71.65,3.39-.77,4.79-.34.34-.71.64-.96.85-.55,3.54-.91,6.98-1.68,10.33-.75,3.32-1.92,6.54-3.02,10.19,2.49-2.18,4.67-4.17,6.95-6.04,2.29-1.89,4.67-3.67,7.16-5.61.03-.51.02-1.16.09-1.81.26-2.51,2.2-3.93,4.63-3.37.56.13,1.13.26,1.65.51,2.43,1.14,3.02,3.96,1.26,6.01-1.29,1.51-3.33,1.96-5.17,1.14-.34-.15-.67-.34-1.07-.54-.81.56-1.61,1.08-2.37,1.65-6.5,4.8-12.4,10.27-17.67,16.4-1.13,1.31-2.16,2.69-3.19,4.08-1.83,2.46-3.7,4.9-5.42,7.43-1.51,2.22-2.94,4.5-4.2,6.86-1.75,3.3-3.31,6.7-4.91,10.07-.27.56-.28,1.25-.4,1.87,0,0-.02,0-.03.01,0,.02-.01.03-.02.05-.13.13-.27.26-.39.4,0,.01.11.12.17.19.07-.19.14-.4.22-.58l.04-.04s0-.02,0-.03c.36-.25.81-.44,1.08-.76,3.72-4.45,8.08-8.17,12.85-11.44,3.96-2.71,7.9-5.43,11.85-8.14.63-.44,1.27-.87,1.96-1.2,1.08-.52,2.21.07,2.38,1.24.09.65.02,1.33-.08,1.98-.5,3.23-1.32,6.39-2.67,9.37-1.06,2.36-2.2,4.68-3.35,7-3,6.05-7.66,10.5-13.55,13.67-2.35,1.26-4.84,2.3-7.32,3.32-2.57,1.07-5.08,2.21-7.47,3.67-1.55.95-2.26,2.26-2.44,3.98-.43,4.39-1.04,8.76-1.25,13.16-.37,7.68.24,15.33,1.65,22.89.15.83.38,1.65.58,2.49.71-.07.5-.54.58-.81s.07-.57.11-.85c.75-4.75,1.9-9.39,3.45-13.94.87-2.53,1.74-5.07,2.62-7.61.38-1.09.72-2.12.09-3.29-.52-.97-.36-2.06.01-3.08.65-1.8,2.26-2.93,4.19-2.92,1.65,0,2.97,1.01,3.31,2.62.4,1.91-.19,3.63-1.28,5.14-.36.5-1.04.84-1.64,1.07-.61.23-1.3.22-2.09.34-.24.65-.54,1.34-.77,2.07-1.59,5.12-3.27,10.21-4.72,15.38-1.1,3.88-1.53,7.9-1.5,11.94.03,2.61.39,5.16,1.35,7.6.86,2.2,1.51,4.5,2.73,6.59.7-.34.46-.89.42-1.28-.44-5.95.69-11.65,2.67-17.21,1.52-4.24,3.13-8.45,4.69-12.67,1.4-3.78,2.78-7.55,4.17-11.33.13-.36.24-.73.37-1.09.29-.83.62-1.65,1.7-1.67.77-.02,1.24.5,1.5,1.79.37,1.78.73,3.57.97,5.38.72,5.22,1.42,10.44,2.06,15.68.56,4.6.39,9.2-.42,13.75-.96,5.46-3.14,10.44-6.39,14.94-1.69,2.34-3.16,4.79-4.45,7.31,2.9,7.34,17.67,23.57,26.48,29.14.34-.69-.28-1.02-.56-1.42-2.77-3.84-5.02-7.93-6.36-12.5-1.08-3.7-1.74-7.46-1.69-11.33.01-1.61.16-3.21-1.05-4.62-.7-.81-.66-1.96-.29-3.02.87-2.52,3.88-3.28,5.83-1.46,1.74,1.63,1.77,4.23.04,5.87-.41.39-.93.67-1.57,1.12-.16,6.01.65,11.93,3.25,17.51,3.01,6.46,7.51,11.73,12.88,16.36,2.82,2.42,6.07,3.98,9.35,5.53,1.2.57,2.43,1.1,3.82,1.73ZM76.61,254.85c-.24-.32-.36-.6-.58-.75-2.21-1.51-4.37-3.12-6.67-4.47-4.37-2.56-9.1-3.91-14.23-3.86-2.58.03-5.2,0-7.73-.43-4.05-.69-8.04-1.73-12.05-2.62-.43-.09-.87-.14-1.84-.29.76.65,1.08.99,1.46,1.25,3.95,2.77,8.22,4.86,12.85,6.27,4.05,1.24,8.23,1.71,12.4,2.26,5.21.7,10.49,1.04,15.54,2.69.22.07.5-.03.85-.05ZM72.05,257.22c.39-.07.74-.35,1.54-.74-1.7-.34-2.9-.64-4.12-.81-4.07-.56-8.13-1.17-12.22-1.6-6.25-.66-12.16-2.39-17.77-5.19-.37-.18-.73-.63-1.28-.35,2.2,2.49,7.12,5.49,11.53,7.12,7.29,2.7,14.75,2.86,22.31,1.57ZM67.96,117.22c.5-1.09,1.05-2.23,1.01-3.63-.32.23-.6.34-.76.55-5.23,6.67-11.52,12.3-17.78,17.97-2.34,2.12-4.56,4.39-6.81,6.61-.67.66-1.24,1.41-1.92,2.18.36.1.57.24.72.18,5-1.72,9.86-3.73,14.11-6.95,2.78-2.1,5.27-4.5,6.9-7.61,1.6-3.05,3.09-6.16,4.52-9.3ZM65.95,113.33c.3-.38.89-.74.46-1.5-.36.19-.71.33-1,.54-3.86,2.67-7.75,5.29-11.55,8.05-4.23,3.06-7.74,6.85-10.66,11.17-1.71,2.53-3.17,5.19-3.78,8.31,2.02-2.02,3.99-4.09,6.07-6.05,3.84-3.61,7.74-7.16,11.62-10.72,3.26-2.99,6.16-6.3,8.84-9.8ZM59.33,192.96c.17-5.28-.64-10.48-1.34-15.69-.07-.48-.31-.93-.63-1.89-.44,2.69-.75,4.86-1.16,7.02-1.49,7.88-3.06,15.75-4.52,23.64-.6,3.28-.97,6.6-1.44,9.9.2.05.4.09.6.14,2.3-2.9,4.31-5.98,5.78-9.42,1.87-4.38,2.57-8.99,2.72-13.69ZM55.69,85.38c.05-4.27-.69-8.4-2.52-12.29-.15-.34-.3-.71-.99-.48-2.34,11.23-4.68,22.56-4.77,34.2.18.02.37.03.56.05.65-1.69,1.22-3.41,1.94-5.07,1.32-3.08,2.71-6.13,4.09-9.19,1.03-2.3,1.67-4.7,1.69-7.22ZM54.3,178.05c.05-.15.09-.31.15-.46-.07.13-.15.27-.22.4,0,.04.02.08.03.12-.22.26-.5.49-.63.79-2.16,5.23-4.14,10.52-5.74,15.95-1.69,5.72-1.93,11.5-1.01,17.36.15.99.3,2.02.79,2.92.84-.29.7-.95.78-1.47.36-2.47.63-4.95,1.08-7.39,1.45-8.01,2.97-16.01,4.46-24.02.26-1.37.58-2.73.28-4.14.01-.02.03-.03.05-.05ZM49.34,76.49c-.08-.09-.01.03-.04.03-.24.06-.63.05-.71.19-.59,1.2-1.14,2.42-1.68,3.65-2.62,6.04-3.48,12.31-2.34,18.82.13.71.11,1.5.94,2.09.58-8.45,2.11-16.63,3.82-24.78ZM29.02,164.16c0-.38-.03-.77-.05-1.15-.36-4.46-1.71-8.61-3.76-12.57-3.52-6.77-8-12.83-13.49-18.14-.28-.27-.52-.77-1.21-.42.3.83.56,1.63.88,2.42,2.42,6.07,5.79,11.64,9.21,17.2,2.51,4.08,4.88,8.24,7.32,12.36.19.32.41.6.87,1.27.15-.6.24-.79.24-.97ZM28.64,171.19c-.31-.87-.4-1.23-.56-1.55-2.37-4.91-4.85-9.75-7.81-14.34-4.29-6.67-8.41-13.45-11.34-20.87-.08-.2-.32-.34-.56-.6.24,10.97,7.47,28.93,20.26,37.36Z"/>
  <path class="cls-1" d="M76.03,254.1c.22.15.34.44.58.75-.35.03-.63.13-.85.05-5.05-1.65-10.32-1.99-15.54-2.69-4.17-.56-8.35-1.03-12.4-2.26-4.62-1.4-8.9-3.5-12.85-6.27-.38-.26-.7-.6-1.46-1.25.97.15,1.41.19,1.84.29,4.01.89,8,1.94,12.05,2.62,2.53.43,5.15.46,7.73.43,5.13-.05,9.86,1.3,14.23,3.86,2.3,1.35,4.46,2.96,6.67,4.47Z"/>
  <path class="cls-2" d="M73.59,256.48c-.8.39-1.15.67-1.54.74-7.56,1.29-15.02,1.14-22.31-1.57-4.41-1.63-9.33-4.64-11.53-7.12.54-.28.91.17,1.28.35,5.61,2.8,11.52,4.54,17.77,5.19,4.09.43,8.15,1.03,12.22,1.6,1.22.17,2.42.46,4.12.81Z"/>
  <path class="cls-1" d="M68.98,113.59c.03,1.4-.52,2.54-1.01,3.63-1.43,3.14-2.92,6.25-4.52,9.3-1.63,3.12-4.13,5.51-6.9,7.61-4.25,3.23-9.11,5.23-14.11,6.95-.15.05-.36-.08-.72-.18.68-.77,1.26-1.53,1.92-2.18,2.25-2.22,4.47-4.49,6.81-6.61,6.26-5.67,12.55-11.3,17.78-17.97.16-.21.44-.32.76-.55Z"/>
  <path class="cls-2" d="M66.4,111.83c.44.76-.16,1.12-.46,1.5-2.69,3.5-5.58,6.81-8.84,9.8-3.88,3.56-7.78,7.11-11.62,10.72-2.08,1.96-4.05,4.02-6.07,6.05.61-3.11,2.07-5.78,3.78-8.31,2.92-4.32,6.43-8.12,10.66-11.17,3.8-2.75,7.69-5.38,11.55-8.05.3-.21.65-.35,1-.54Z"/>
  <path class="cls-1" d="M57.99,177.27c.71,5.21,1.52,10.41,1.34,15.69-.15,4.7-.85,9.31-2.72,13.69-1.46,3.44-3.47,6.52-5.78,9.42-.19-.05-.4-.09-.6-.14.48-3.3.85-6.62,1.44-9.9,1.45-7.89,3.02-15.76,4.52-23.64.41-2.15.72-4.32,1.16-7.02.32.95.56,1.4.63,1.89Z"/>
  <path class="cls-1" d="M53.17,73.09c1.83,3.89,2.57,8.02,2.52,12.29-.03,2.53-.67,4.92-1.69,7.22-1.38,3.06-2.77,6.11-4.09,9.19-.71,1.66-1.29,3.37-1.94,5.07-.19-.02-.38-.03-.56-.05.09-11.64,2.43-22.96,4.77-34.2.69-.24.83.13.99.48Z"/>
  <path class="cls-3" d="M54.45,177.58c-.05.15-.1.31-.15.46-.01.02-.03.03-.05.05,0-.04-.02-.08-.03-.12.07-.13.15-.26.22-.4Z"/>
  <path class="cls-2" d="M54.26,178.1c.3,1.4-.03,2.77-.28,4.14-1.49,8-3,16.01-4.46,24.02-.44,2.45-.71,4.93-1.08,7.39-.08.52.06,1.18-.78,1.47-.49-.91-.63-1.93-.79-2.92-.92-5.86-.68-11.64,1.01-17.36,1.6-5.43,3.58-10.72,5.74-15.95.13-.3.41-.53.63-.79Z"/>
  <path class="cls-2" d="M49.3,76.52s-.04-.11.04-.03c-1.71,8.15-3.25,16.33-3.82,24.78-.83-.59-.81-1.38-.94-2.09-1.14-6.51-.28-12.78,2.34-18.82.54-1.23,1.09-2.45,1.68-3.65.07-.15.46-.13.71-.19Z"/>
  <path class="cls-3" d="M42.78,127.33s0,.02,0,.03l-.04.04s.01-.03.02-.05c0,0,.02-.01.03-.01Z"/>
  <path class="cls-1" d="M28.96,163.01c.03.38.06.77.05,1.15,0,.18-.09.36-.24.97-.46-.67-.68-.95-.87-1.27-2.44-4.12-4.81-8.28-7.32-12.36-3.41-5.55-6.79-11.12-9.21-17.2-.32-.79-.58-1.59-.88-2.42.69-.36.93.15,1.21.42,5.49,5.31,9.97,11.36,13.49,18.14,2.05,3.96,3.4,8.12,3.76,12.57Z"/>
  <path class="cls-2" d="M28.08,169.64c.15.32.25.68.56,1.55-12.79-8.43-20.02-26.39-20.26-37.36.24.26.48.4.56.6,2.92,7.43,7.04,14.2,11.34,20.87,2.96,4.59,5.44,9.43,7.81,14.34Z"/>
</svg>