<svg width="20" height="20" viewBox="0 0 20 20" fill="none" xmlns="http://www.w3.org/2000/svg">
<path fill-rule="evenodd" clip-rule="evenodd" d="M1.75 7.5C1.75 5.42893 3.42893 3.75 5.5 3.75H14.5C16.5711 3.75 18.25 5.42893 18.25 7.5V12.5C18.25 14.5711 16.5711 16.25 14.5 16.25H5.5C3.42893 16.25 1.75 14.5711 1.75 12.5V7.5ZM5.5 5.25C4.25736 5.25 3.25 6.25736 3.25 7.5V11.2855L3.96309 10.9067C5.59156 10.0415 7.57357 10.1971 9.04715 11.3056L9.05604 11.3123L10.465 10.2399C12.1059 8.9908 14.3963 9.05724 15.9621 10.3993L16.75 11.0747V7.5C16.75 6.25736 15.7426 5.25 14.5 5.25H5.5ZM16.6938 13.0021L14.9859 11.5382C13.9569 10.6563 12.4518 10.6126 11.3735 11.4334L10.3016 12.2494L13.6256 14.75H14.5C15.57 14.75 16.4656 14.003 16.6938 13.0021ZM5.5 14.75C4.41469 14.75 3.50886 13.9816 3.29688 12.9591L4.66682 12.2313C5.78104 11.6394 7.13715 11.7458 8.14539 12.5043L11.1305 14.75H5.5Z" fill="#292929"/>
<path fill-rule="evenodd" clip-rule="evenodd" d="M8.1875 7.5C7.94588 7.5 7.75 7.69588 7.75 7.9375C7.75 8.17912 7.94588 8.375 8.1875 8.375C8.42912 8.375 8.625 8.17912 8.625 7.9375C8.625 7.69588 8.42912 7.5 8.1875 7.5ZM6.25 7.9375C6.25 6.86745 7.11745 6 8.1875 6C9.25755 6 10.125 6.86745 10.125 7.9375C10.125 9.00755 9.25755 9.875 8.1875 9.875C7.11745 9.875 6.25 9.00755 6.25 7.9375Z" fill="#292929"/>
</svg>
