<?xml version="1.0" encoding="UTF-8"?>
<svg id="Layer_1" xmlns="http://www.w3.org/2000/svg" version="1.1" viewBox="0 0 30 30">
  <!-- Generator: Adobe Illustrator 29.3.1, SVG Export Plug-In . SVG Version: 2.1.0 Build 151)  -->
  <defs>
    <style>
      .st0 {
        fill: #292929;
      }
    </style>
  </defs>
  <path class="st0" d="M21.2,2h-12.9c-3.5,0-6.4,2.8-6.4,6.4v12.9c0,3.5,2.8,6.4,6.4,6.4h12.9c3.5,0,6.4-2.8,6.4-6.4v-12.9c0-3.5-2.8-6.4-6.4-6.4ZM23.7,13h0c-1.9.2-3.6-.8-4.6-2.2v7.4c0,2.7-1.8,5.2-4.5,5.8s-6.8-2-6.8-5.5,2.7-5.8,6-5.6h0s0,2.8,0,2.8c-.1,0-.2,0-.3,0-1.9,0-3.3,1.8-2.8,3.7s.9,1.6,1.7,1.9c2,.7,4-.7,4-2.7s0-13,0-13h2.7c.3,2.4,2.2,4.3,4.6,4.4v3.1Z"/>
</svg>