<svg width="20" height="20" viewBox="0 0 20 20" fill="none" xmlns="http://www.w3.org/2000/svg">
<path fill-rule="evenodd" clip-rule="evenodd" d="M9.48076 7.14895C8.22188 5.94113 6.97636 5.71939 6.26371 6.13127C5.77496 6.41375 5.41974 7.03675 5.37881 7.99657C5.33833 8.94561 5.62047 10.1142 6.27608 11.2509C7.34044 13.0964 8.89706 14.0427 9.98023 14.0141L10 14.0136L10.0198 14.0141C11.103 14.0427 12.6596 13.0964 13.7239 11.2509C14.3795 10.1142 14.6617 8.94561 14.6212 7.99657C14.5803 7.03675 14.2251 6.41375 13.7363 6.13127C13.0236 5.71939 11.7781 5.94113 10.5192 7.14895C10.2291 7.42736 9.77094 7.42736 9.48076 7.14895ZM10 5.61406C8.63423 4.53609 6.92145 4.01862 5.51312 4.83257C4.42563 5.46109 3.93407 6.6689 3.88017 7.93266C3.82581 9.20719 4.20078 10.655 4.9767 12.0003L5.43015 11.7388L4.9767 12.0003C6.17879 14.0846 8.14971 15.5521 10 15.514C11.8503 15.5521 13.8212 14.0846 15.0233 12.0003C15.7992 10.655 16.1742 9.20719 16.1198 7.93266C16.0659 6.6689 15.5744 5.46109 14.4869 4.83257C13.0786 4.01862 11.3658 4.53609 10 5.61406Z" fill="#292929"/>
</svg>
