<svg width="24" height="24" viewBox="0 0 24 24" fill="none" xmlns="http://www.w3.org/2000/svg">
<path fill-rule="evenodd" clip-rule="evenodd" d="M12.9 7.6537C12.9 7.411 12.6268 7.26875 12.428 7.40793L8.80768 9.94215C8.33647 10.272 7.77521 10.4489 7.20002 10.4489C6.3716 10.4489 5.70002 11.1205 5.70002 11.9489C5.70002 12.7773 6.3716 13.4489 7.20002 13.4489C7.77521 13.4489 8.33647 13.6258 8.80768 13.9557L12.428 16.4899C12.6268 16.6291 12.9 16.4868 12.9 16.2441V7.6537ZM11.3958 5.93332C12.7876 4.95903 14.7 5.95475 14.7 7.6537V16.2441C14.7 17.9431 12.7876 18.9388 11.3958 17.9645L7.51632 15.2489H7.20002C5.37748 15.2489 3.90002 13.7715 3.90002 11.9489C3.90002 10.1264 5.37748 8.64891 7.20002 8.64891H7.51632L11.3958 5.93332Z" fill="#292929"/>
<path d="M15.15 13.4196C15.15 14.1464 15.8615 14.6681 16.4025 14.1828C17.0148 13.6335 17.4 12.8362 17.4 11.9489C17.4 11.0616 17.0148 10.2643 16.4025 9.71502C15.8615 9.22971 15.15 9.7514 15.15 10.4782C15.15 10.8157 15.3331 11.1223 15.4804 11.426C15.557 11.584 15.6 11.7614 15.6 11.9489C15.6 12.1364 15.557 12.3138 15.4804 12.4718C15.3331 12.7755 15.15 13.0821 15.15 13.4196Z" fill="#292929"/>
<path d="M15.15 16.3843C15.15 16.9476 15.6514 17.3867 16.1848 17.2057C18.3744 16.4625 19.95 14.3897 19.95 11.9489C19.95 9.50811 18.3744 7.43531 16.1848 6.69213C15.6514 6.5111 15.15 6.95029 15.15 7.51354C15.15 7.95597 15.4681 8.32589 15.8748 8.50003C17.2127 9.07287 18.15 10.4014 18.15 11.9489C18.15 13.4964 17.2127 14.825 15.8748 15.3978C15.4681 15.572 15.15 15.9419 15.15 16.3843Z" fill="#292929"/>
</svg>
