<svg width="265" height="48" viewBox="0 0 265 48" fill="none" xmlns="http://www.w3.org/2000/svg">
<g clip-path="url(#clip0_1_4)">
<path d="M55.644 30.7032C55.0114 30.7032 54.3974 30.648 53.8206 30.5378C53.2439 30.4275 52.7229 30.2621 52.2392 30.0599C51.7554 29.8577 51.3461 29.5636 51.0112 29.2328C50.7135 28.9387 50.4903 28.6079 50.3042 28.2219C50.1181 27.8359 49.9879 27.45 49.8949 27.0456C49.8019 26.6412 49.7646 26.2369 49.7646 25.8325C49.7646 25.4833 49.8205 25.1709 49.9321 24.8952C50.0437 24.6195 50.2112 24.3989 50.3972 24.1967C50.6019 24.0129 50.8252 23.8659 51.0856 23.7556C51.3461 23.6637 51.6252 23.6086 51.9229 23.6086C52.1833 23.6086 52.4252 23.6821 52.6299 23.8107C52.8345 23.9394 52.9834 24.16 53.095 24.4908C53.1694 24.7849 53.2439 25.079 53.3183 25.3363C53.3927 25.5936 53.4857 25.8325 53.5974 26.0531C53.7462 26.3839 53.9695 26.6045 54.2299 26.7699C54.4904 26.9353 54.8067 26.9905 55.1602 26.9905C55.5137 26.9905 55.7928 26.9537 55.9975 26.8618C56.2021 26.7699 56.3882 26.6412 56.5556 26.4574C56.7417 26.2553 56.8719 25.9979 56.9835 25.6855C57.0952 25.373 57.1696 25.0238 57.2254 24.6011C57.2812 24.1967 57.2998 23.7188 57.2998 23.2042C57.2998 22.8366 57.2998 22.469 57.2812 22.083C57.2626 21.6971 57.244 21.3111 57.2254 20.9251C57.1882 20.5575 57.1696 20.1899 57.151 19.8407C57.1324 19.4915 57.1138 19.179 57.0952 18.8849C57.0766 18.5909 57.0766 18.3519 57.0766 18.1681C57.0766 17.7638 57.1324 17.4146 57.244 17.1205C57.3556 16.8264 57.5789 16.5875 57.9138 16.422C58.2487 16.2566 58.7511 16.1831 59.4022 16.1831C59.886 16.1831 60.3139 16.275 60.686 16.4772C61.0395 16.661 61.3558 16.9367 61.5977 17.3043C61.7093 17.4881 61.8209 17.6903 61.914 17.9292C62.007 18.1681 62.0814 18.4254 62.1558 18.7195C62.2303 19.0136 62.2861 19.3261 62.3419 19.6753C62.3977 20.0245 62.4349 20.3737 62.4535 20.7781C62.4721 21.164 62.4907 21.5868 62.4907 22.0279C62.4907 22.9469 62.4349 23.7556 62.3419 24.454C62.2303 25.1525 62.1 25.7774 61.914 26.3104C61.7279 26.8434 61.5233 27.3213 61.2628 27.7257C61.0209 28.13 60.7418 28.4976 60.4441 28.8101C59.8116 29.4901 59.0859 29.9864 58.2301 30.2805C57.3929 30.5561 56.537 30.7032 55.644 30.7032Z" fill="#FD267D"/>
<path d="M68.6678 30.7032C67.3841 30.7032 66.2677 30.501 65.3003 30.115C64.3514 29.729 63.6072 29.1225 63.0676 28.3322C62.5467 27.5234 62.2676 26.5125 62.2676 25.2811C62.2676 24.2702 62.435 23.3696 62.7885 22.5976C63.142 21.8257 63.6258 21.1824 64.2398 20.6678C64.8537 20.1531 65.5607 19.7488 66.3794 19.4914C67.198 19.2341 68.0539 19.1055 68.9655 19.1055C69.5981 19.1055 70.1935 19.1606 70.7888 19.2709C71.3842 19.3812 71.9052 19.565 72.3703 19.8223C72.8354 20.0796 73.2075 20.4104 73.4866 20.8148C73.7657 21.2192 73.8959 21.7154 73.8959 22.3036C73.8959 22.8182 73.8029 23.2409 73.5983 23.5902C73.3936 23.9394 73.1331 24.2151 72.7796 24.4356C72.4261 24.6562 72.0354 24.8216 71.5889 24.9503C71.1423 25.0789 70.6772 25.1708 70.1749 25.2627C69.8772 25.3362 69.4865 25.4098 69.0399 25.4833C68.5934 25.5568 68.1469 25.6119 67.7004 25.6487C67.291 25.6855 66.9189 25.7038 66.6398 25.7038C66.4166 25.7038 66.2677 25.7222 66.1747 25.7774C66.0817 25.8325 66.0445 25.9244 66.0445 26.0898C66.0445 26.2185 66.0817 26.3839 66.1561 26.5493C66.2305 26.7147 66.3422 26.8801 66.4724 27.0456C66.7143 27.3213 67.012 27.5051 67.3468 27.6153C67.6817 27.7256 68.0911 27.7624 68.5748 27.7624C69.0772 27.7624 69.5795 27.6889 70.0818 27.5418C70.5842 27.3948 71.0493 27.2477 71.5145 27.1191C71.9796 26.972 72.4261 26.9169 72.8727 26.9169C73.3192 26.9169 73.6541 26.9904 73.9332 27.1558C74.2122 27.3213 74.3239 27.6337 74.3239 28.1116C74.3239 28.516 74.175 28.8835 73.8587 29.2144C73.561 29.5452 73.1331 29.8209 72.6122 30.0415C72.0912 30.262 71.4772 30.4458 70.8075 30.5561C70.1377 30.648 69.4307 30.7032 68.6678 30.7032ZM67.9608 24.068C68.3888 24.068 68.8167 24.0129 69.2074 23.921C69.6167 23.8291 69.933 23.6637 70.1935 23.4431C70.4539 23.2226 70.5842 22.9285 70.5842 22.5609C70.5842 22.1198 70.4167 21.7889 70.0818 21.6051C69.7469 21.403 69.3004 21.3111 68.7609 21.3111C68.426 21.3111 68.1097 21.3662 67.7934 21.4765C67.4771 21.5867 67.198 21.7522 66.9375 21.936C66.6771 22.1381 66.4724 22.3587 66.3236 22.616C66.1747 22.8733 66.1003 23.149 66.1003 23.4431C66.1003 23.6269 66.1561 23.7556 66.2863 23.8475C66.4166 23.9394 66.6212 23.9945 66.8817 24.0129C67.1794 24.0496 67.5329 24.068 67.9608 24.068Z" fill="#FD267D"/>
<path d="M74.1379 34.949C73.6169 34.949 73.1332 34.8938 72.6867 34.8019C72.2401 34.71 71.8866 34.5446 71.6076 34.3424C71.3285 34.1402 71.1982 33.8462 71.1982 33.497C71.1982 33.1294 71.3099 32.8353 71.5145 32.6331C71.7192 32.4309 71.9983 32.2839 72.296 32.192C72.5564 32.1368 72.8541 32.1001 73.2076 32.1185C73.5611 32.1185 73.9146 32.1185 74.3053 32.1185C74.7705 32.1185 75.0868 31.8428 75.2728 31.273C75.4589 30.7216 75.5519 29.9313 75.5519 28.9204C75.5519 28.6631 75.5519 28.3874 75.5333 28.0749C75.5147 27.7624 75.4961 27.4316 75.4775 27.0824C75.4589 26.7332 75.4217 26.3656 75.4031 26.0164C75.3659 25.6488 75.3472 25.2995 75.3286 24.9687C75.31 24.6379 75.2914 24.3254 75.2728 24.0497C75.2542 23.774 75.2542 23.5351 75.2542 23.3513C75.2542 22.4507 75.4589 21.8074 75.8682 21.403C76.2775 20.9987 76.8357 20.7965 77.5427 20.7965C78.0822 20.7965 78.5102 20.9068 78.8265 21.1089C79.1427 21.3111 79.366 21.6052 79.5335 21.9912C79.7009 22.3771 79.7753 22.8183 79.8311 23.3513C79.887 23.8843 79.9056 24.4541 79.9056 25.0974C79.9242 25.2628 79.9428 25.465 79.9428 25.7039C79.9614 25.9428 79.9614 26.1818 79.98 26.4575C79.98 26.678 79.98 26.9537 79.9986 27.211C79.9986 27.4867 80.0172 27.7257 80.0172 27.9646C80.0172 28.2036 80.0358 28.3874 80.0358 28.5528C80.0358 29.9864 79.8125 31.1811 79.3474 32.1185C78.8823 33.0558 78.2311 33.7727 77.3566 34.2505C76.4822 34.71 75.4031 34.949 74.1379 34.949ZM77.952 19.1974C77.6171 19.1974 77.2636 19.1791 76.9101 19.1239C76.5566 19.0688 76.2217 18.9953 75.924 18.885C75.6263 18.7747 75.3845 18.6093 75.1984 18.4071C75.0123 18.2049 74.9193 17.9476 74.9193 17.6351C74.9193 17.2308 75.031 16.9183 75.2356 16.6794C75.4403 16.4405 75.738 16.275 76.1101 16.1464C76.4822 16.0361 76.9287 15.981 77.4124 15.981C77.7287 15.981 78.0636 16.0177 78.4171 16.0729C78.752 16.1464 79.0683 16.2383 79.366 16.3853C79.6637 16.5324 79.9056 16.7162 80.073 16.9367C80.2405 17.1573 80.3521 17.433 80.3521 17.7454C80.3521 18.0763 80.2405 18.3336 80.0358 18.5541C79.8125 18.7747 79.5335 18.9217 79.1614 19.032C78.8078 19.1423 78.3985 19.1974 77.952 19.1974Z" fill="#FD267D"/>
<path d="M85.5798 31.1075C84.9472 31.1075 84.3518 31.0524 83.7565 30.9421C83.1611 30.8318 82.6401 30.648 82.175 30.3723C81.7099 30.115 81.3378 29.7658 81.0773 29.3247C80.7982 28.8836 80.668 28.3505 80.668 27.7256C80.668 27.064 80.8354 26.5126 81.1703 26.0714C81.5052 25.6303 81.9704 25.2995 82.5471 25.0422C83.1239 24.7848 83.7751 24.6194 84.5007 24.5092C85.2263 24.3989 85.9705 24.3437 86.7519 24.3437C86.9566 24.3437 87.1799 24.3437 87.3845 24.3621C87.5892 24.3805 87.7938 24.3805 87.9799 24.3989C88.1659 24.4173 88.3148 24.4173 88.4264 24.4173C88.5939 24.4173 88.7241 24.3805 88.7799 24.3254C88.8357 24.2702 88.8729 24.1599 88.8729 24.0313C88.8729 23.8475 88.8543 23.6821 88.7985 23.535C88.7427 23.388 88.6869 23.2593 88.5939 23.149C88.5008 23.0388 88.3892 22.9285 88.2776 22.855C88.0543 22.7079 87.7938 22.5976 87.4589 22.5241C87.124 22.4506 86.7705 22.4138 86.3984 22.4138C85.9333 22.4138 85.4868 22.469 85.0775 22.5609C84.6681 22.6528 84.2588 22.7631 83.8867 22.855C83.5146 22.9469 83.1425 23.002 82.7704 23.002C82.175 23.002 81.7285 22.9101 81.4122 22.7079C81.0959 22.5241 80.9284 22.2117 80.9284 21.8073C80.9284 21.4213 81.0773 21.0721 81.3564 20.7597C81.6355 20.4472 82.0262 20.2083 82.5285 19.9877C83.0309 19.7855 83.589 19.6201 84.203 19.5282C84.817 19.4363 85.4868 19.3628 86.1566 19.3628C87.5334 19.3628 88.7055 19.5098 89.6544 19.8223C90.6033 20.1347 91.3103 20.6494 91.8126 21.3662C92.3149 22.083 92.5568 23.0755 92.5568 24.3254C92.5568 24.6378 92.5382 24.9135 92.5196 25.1341C92.501 25.3546 92.4452 25.5752 92.408 25.7406C92.3708 25.906 92.3335 26.0714 92.2963 26.2001C92.2591 26.3288 92.2591 26.4574 92.2591 26.5677C92.2591 26.7699 92.3335 26.9537 92.4638 27.1375C92.594 27.3213 92.7615 27.5051 92.9289 27.7072C93.115 27.9094 93.2638 28.1116 93.3941 28.3322C93.5243 28.5527 93.5987 28.81 93.5987 29.0857C93.5987 29.5085 93.4685 29.8025 93.1894 30.0047C92.9289 30.1885 92.6126 30.2988 92.2591 30.2988C91.98 30.2988 91.7382 30.2253 91.5707 30.0782C91.4033 29.9312 91.2358 29.7842 91.1056 29.6187C90.9754 29.4533 90.8265 29.3982 90.6591 29.3982C90.5474 29.3982 90.4172 29.435 90.287 29.4901C90.1567 29.5636 89.9893 29.6555 89.7846 29.7842C89.5613 29.9312 89.2637 30.115 88.9102 30.3172C88.5567 30.5194 88.0915 30.7032 87.5706 30.8502C87.0496 30.9972 86.3426 31.1075 85.5798 31.1075ZM85.9147 28.7365C86.2496 28.7365 86.5845 28.6814 86.9008 28.5895C87.2171 28.4976 87.5148 28.3505 87.7752 28.1667C88.0357 27.9829 88.2404 27.7808 88.4078 27.5234C88.5753 27.2661 88.6497 27.0088 88.6497 26.7331C88.6497 26.5309 88.5753 26.3655 88.445 26.2736C88.3148 26.1817 88.1101 26.1082 87.831 26.0714C87.552 26.0347 87.1985 26.0163 86.7705 26.0163C86.324 26.0163 85.8775 26.0714 85.4868 26.1633C85.0961 26.2552 84.7612 26.4023 84.5007 26.6228C84.2402 26.8434 84.1286 27.1375 84.1286 27.5234C84.1286 27.7991 84.203 28.0381 84.3518 28.2035C84.5007 28.3689 84.7239 28.516 84.9844 28.6079C85.2449 28.6998 85.5612 28.7365 85.9147 28.7365Z" fill="#FD267D"/>
<path d="M95.1805 30.3356C94.734 30.3356 94.3805 30.2253 94.12 30.0232C93.8781 29.8026 93.6921 29.5085 93.599 29.1225C93.506 28.7366 93.4502 28.2771 93.4502 27.7624C93.4502 27.4316 93.4688 27.0272 93.5246 26.5677C93.5804 26.1083 93.6362 25.5936 93.6921 25.0055C93.7665 24.4357 93.8223 23.8291 93.8967 23.2042C93.9711 22.5609 94.0642 21.9544 94.1572 21.3846C94.2502 20.8149 94.3432 20.2818 94.4549 19.804C94.5479 19.3261 94.6595 18.885 94.7712 18.4806C94.8828 18.0946 94.9944 17.7638 95.1061 17.4881C95.3293 16.9551 95.5898 16.5507 95.9061 16.275C96.2224 15.9993 96.5759 15.8523 97.0038 15.8523C97.562 15.8523 97.9341 16.0361 98.1201 16.4221C98.3062 16.7897 98.3992 17.3227 98.3992 17.9844C98.3992 18.2049 98.3992 18.4439 98.3806 18.7012C98.362 18.9585 98.3434 19.2158 98.3248 19.4915C98.3062 19.7672 98.269 20.0429 98.2504 20.3186C98.2132 20.5943 98.1946 20.87 98.176 21.1273C98.1574 21.3846 98.1388 21.6419 98.1201 21.8809C98.1015 22.1198 98.1015 22.3404 98.1015 22.5242C98.1015 22.7631 98.1201 22.9653 98.1387 23.1123C98.1574 23.2778 98.2132 23.3513 98.3062 23.3513C98.3992 23.3513 98.4736 23.3145 98.5853 23.241C98.6783 23.1675 98.7899 23.0756 98.9202 22.9469C99.0132 22.8366 99.1434 22.708 99.3295 22.5426C99.4969 22.3771 99.683 22.1933 99.8877 21.9912C100.092 21.789 100.297 21.6052 100.483 21.403C100.688 21.2192 100.874 21.0354 101.041 20.8884C101.209 20.7413 101.357 20.6311 101.469 20.5575C101.692 20.4105 101.934 20.2818 102.195 20.2083C102.455 20.1348 102.716 20.0797 102.958 20.0797C103.385 20.0797 103.739 20.1899 103.999 20.4105C104.26 20.6311 104.39 20.9251 104.39 21.2927C104.39 21.55 104.316 21.8257 104.148 22.1014C103.981 22.3955 103.72 22.6528 103.367 22.9102C103.013 23.2226 102.678 23.5167 102.344 23.7556C102.009 23.9946 101.711 24.2519 101.451 24.5092C101.246 24.693 101.134 24.8217 101.134 24.9319C101.134 25.0055 101.171 25.0606 101.227 25.1157C101.283 25.1709 101.376 25.2444 101.488 25.2995C101.674 25.4098 101.897 25.5569 102.195 25.7407C102.492 25.9245 102.79 26.1266 103.125 26.3288C103.46 26.531 103.776 26.7515 104.092 26.9537C104.409 27.1559 104.669 27.3581 104.874 27.5419C105.041 27.6889 105.19 27.8543 105.283 28.0014C105.395 28.1668 105.432 28.3322 105.432 28.516C105.432 28.7733 105.358 29.0123 105.209 29.2328C105.06 29.4534 104.855 29.6372 104.613 29.7658C104.372 29.8945 104.074 29.968 103.758 29.968C103.46 29.968 103.162 29.9129 102.902 29.7842C102.641 29.6556 102.381 29.4901 102.158 29.288C101.878 29.0858 101.562 28.8285 101.227 28.5528C100.874 28.2771 100.52 27.9646 100.167 27.6522C99.7946 27.3397 99.4597 27.0272 99.1248 26.7332C98.9574 26.5677 98.7899 26.4207 98.6225 26.3104C98.455 26.2001 98.3062 26.145 98.1574 26.145C97.9899 26.145 97.8597 26.2001 97.7666 26.292C97.655 26.4942 97.5806 26.6229 97.5434 26.8067C97.3945 27.3948 97.2643 27.8727 97.1527 28.2771C97.0224 28.6814 96.9108 29.0123 96.7992 29.2696C96.6131 29.6556 96.3898 29.9313 96.148 30.0967C95.9061 30.2621 95.5712 30.3356 95.1805 30.3356Z" fill="#FD267D"/>
<path d="M113.861 30.0599C113.079 30.0599 112.521 29.8761 112.149 29.5085C111.777 29.1409 111.535 28.6079 111.386 27.9095C111.349 27.6154 111.312 27.3213 111.293 26.9905C111.275 26.6597 111.256 26.3104 111.237 25.9612C111.237 25.612 111.237 25.2628 111.237 24.9136C111.237 24.5643 111.237 24.2335 111.256 23.9027C111.275 23.1491 111.312 22.3771 111.405 21.6052C111.498 20.8332 111.628 20.0797 111.814 19.3629C112 18.646 112.242 17.9844 112.558 17.3962C112.837 16.9551 113.191 16.6243 113.619 16.4221C114.047 16.2199 114.568 16.1096 115.163 16.1096C115.684 16.1096 116.075 16.2567 116.372 16.5691C116.67 16.8632 116.819 17.2675 116.819 17.7638C116.819 17.9844 116.819 18.2417 116.8 18.5174C116.782 18.7931 116.763 19.0688 116.726 19.3629C116.689 19.6569 116.67 19.9142 116.651 20.1532C116.633 20.3921 116.614 20.6127 116.596 20.7965C116.577 20.9803 116.577 21.1089 116.596 21.2008C116.633 21.3295 116.689 21.4214 116.744 21.4949C116.819 21.5501 116.931 21.5868 117.098 21.5868C117.21 21.5868 117.358 21.5501 117.507 21.4582C117.656 21.3663 117.824 21.256 117.991 21.0722C118.363 20.7046 118.847 20.2818 119.424 19.7672C120 19.2526 120.577 18.7747 121.135 18.3336C121.694 17.8925 122.196 17.5432 122.642 17.3227C123.089 17.1021 123.535 16.9735 124.001 16.9735C124.373 16.9735 124.689 17.047 124.931 17.194C125.173 17.3411 125.34 17.5249 125.452 17.7638C125.563 18.0027 125.619 18.2417 125.619 18.5174C125.619 18.6644 125.582 18.8298 125.526 18.9953C125.452 19.1607 125.359 19.3445 125.229 19.5099C125.098 19.6937 124.949 19.8775 124.763 20.0613C124.577 20.2451 124.354 20.4473 124.112 20.6311C123.796 20.87 123.461 21.1089 123.089 21.3663C122.717 21.6236 122.326 21.8625 121.954 22.0831C121.582 22.3036 121.228 22.5058 120.912 22.6712C120.596 22.8183 120.354 22.9469 120.205 23.0572C120.056 23.1675 119.982 23.2594 119.982 23.3513C119.982 23.4432 120.019 23.5351 120.075 23.6086C120.131 23.6821 120.261 23.8108 120.428 23.9578C120.559 24.0681 120.745 24.1968 120.949 24.3806C121.173 24.5643 121.396 24.7665 121.656 24.9687C121.917 25.1893 122.159 25.3914 122.419 25.5936C122.661 25.7958 122.884 25.9796 123.089 26.145C123.294 26.3104 123.424 26.4391 123.498 26.531C123.982 26.9537 124.336 27.3213 124.54 27.6338C124.745 27.9462 124.856 28.2219 124.856 28.4425C124.856 28.8101 124.782 29.1226 124.615 29.3431C124.447 29.5637 124.224 29.7291 123.926 29.8394C123.628 29.9496 123.312 30.0048 122.94 30.0048C122.568 30.0048 122.177 29.9129 121.731 29.7107C121.284 29.5085 120.8 29.1961 120.261 28.7733C119.814 28.3874 119.442 28.0381 119.145 27.7441C118.847 27.45 118.586 27.1743 118.363 26.9537C118.14 26.7332 117.954 26.5126 117.805 26.3104C117.638 26.1266 117.489 25.9428 117.34 25.7774C117.154 25.5017 117.005 25.2995 116.893 25.1525C116.782 25.0055 116.67 24.9136 116.596 24.8584C116.521 24.8033 116.428 24.7849 116.335 24.7849C116.224 24.7849 116.149 24.84 116.112 24.9319C116.075 25.0238 116.037 25.1525 116.037 25.3179C116.037 25.3547 116.037 25.465 116.037 25.5936C116.037 25.7407 116.037 25.9061 116.037 26.0899C116.037 26.2737 116.037 26.4759 116.019 26.678C116.019 26.8802 116 27.0456 116 27.211C116 27.3765 115.982 27.5051 115.982 27.597C115.907 28.4609 115.684 29.0858 115.368 29.4718C114.996 29.8577 114.493 30.0599 113.861 30.0599Z" fill="#FD267D"/>
<path d="M131.294 30.7032C130.01 30.7032 128.894 30.501 127.926 30.115C126.977 29.729 126.233 29.1225 125.694 28.3322C125.173 27.5234 124.894 26.5125 124.894 25.2811C124.894 24.2702 125.061 23.3696 125.415 22.5976C125.768 21.8257 126.252 21.1824 126.866 20.6678C127.48 20.1531 128.187 19.7488 129.005 19.4914C129.824 19.2341 130.68 19.1055 131.591 19.1055C132.224 19.1055 132.819 19.1606 133.415 19.2709C134.01 19.3812 134.531 19.565 134.996 19.8223C135.461 20.0796 135.834 20.4104 136.113 20.8148C136.392 21.2192 136.522 21.7154 136.522 22.3036C136.522 22.8182 136.429 23.2409 136.224 23.5902C136.02 23.9394 135.759 24.2151 135.406 24.4356C135.052 24.6562 134.661 24.8216 134.215 24.9503C133.768 25.0789 133.303 25.1708 132.801 25.2627C132.503 25.3362 132.112 25.4098 131.666 25.4833C131.219 25.5568 130.773 25.6119 130.326 25.6487C129.898 25.6855 129.545 25.7038 129.247 25.7038C129.024 25.7038 128.875 25.7222 128.782 25.7774C128.689 25.8325 128.652 25.9244 128.652 26.0898C128.652 26.2185 128.689 26.3839 128.763 26.5493C128.838 26.7147 128.95 26.8801 129.08 27.0456C129.322 27.3213 129.619 27.5051 129.954 27.6153C130.289 27.7072 130.698 27.7624 131.182 27.7624C131.685 27.7624 132.187 27.6889 132.689 27.5418C133.192 27.3948 133.657 27.2477 134.122 27.1191C134.587 26.972 135.033 26.9169 135.48 26.9169C135.927 26.9169 136.261 26.9904 136.541 27.1558C136.801 27.3213 136.931 27.6337 136.931 28.1116C136.931 28.516 136.782 28.8835 136.466 29.2144C136.168 29.5452 135.741 29.8209 135.22 30.0415C134.699 30.262 134.085 30.4458 133.415 30.5561C132.745 30.648 132.038 30.7032 131.294 30.7032ZM130.568 24.068C130.996 24.068 131.424 24.0129 131.815 23.921C132.224 23.8291 132.54 23.6637 132.801 23.4431C133.061 23.2226 133.192 22.9285 133.192 22.5609C133.192 22.1198 133.024 21.7889 132.689 21.6051C132.354 21.403 131.908 21.3111 131.368 21.3111C131.033 21.3111 130.698 21.3662 130.382 21.4765C130.066 21.5867 129.787 21.7522 129.526 21.936C129.266 22.1381 129.061 22.3587 128.912 22.616C128.763 22.8733 128.689 23.149 128.689 23.4431C128.689 23.6269 128.745 23.7556 128.875 23.8475C129.005 23.9394 129.21 23.9945 129.47 24.0129C129.787 24.0496 130.14 24.068 130.568 24.068Z" fill="#FD267D"/>
<path d="M142.791 30.2253C141.415 30.2253 140.28 30.0231 139.349 29.6371C138.438 29.2328 137.731 28.6263 137.266 27.7992C136.8 26.9721 136.559 25.906 136.559 24.6194C136.559 24.0313 136.577 23.4615 136.633 22.8734C136.689 22.3036 136.745 21.7338 136.838 21.1824C136.931 20.631 137.042 20.098 137.173 19.6017C137.303 19.1055 137.452 18.646 137.6 18.2233C137.749 17.8005 137.917 17.4329 138.103 17.1205C138.382 16.7161 138.698 16.3853 139.089 16.1463C139.48 15.9074 139.889 15.7971 140.335 15.7971C140.875 15.7971 141.284 15.9258 141.563 16.2015C141.843 16.4772 141.991 16.8448 141.991 17.3226C141.991 17.4881 141.991 17.6719 141.973 17.8557C141.954 18.0395 141.936 18.2416 141.917 18.4438C141.898 18.646 141.88 18.8482 141.861 19.0504C141.843 19.2525 141.824 19.4547 141.805 19.6385C141.787 19.8223 141.805 20.0245 141.805 20.1899C141.805 20.5943 141.824 20.87 141.843 21.0538C141.861 21.2376 141.936 21.3295 142.066 21.3295C142.196 21.3295 142.363 21.2927 142.568 21.2192C142.773 21.1457 143.015 21.0538 143.257 20.9251C143.48 20.8148 143.74 20.7229 144.057 20.631C144.373 20.5391 144.764 20.5024 145.173 20.5024C146.14 20.5024 146.959 20.7045 147.647 21.0905C148.336 21.4765 148.857 22.0095 149.21 22.7079C149.564 23.4064 149.75 24.2151 149.75 25.1341C149.75 26.0347 149.564 26.8066 149.21 27.4499C148.857 28.0932 148.354 28.6263 147.703 29.0306C147.052 29.435 146.308 29.7474 145.471 29.9312C144.652 30.1334 143.759 30.2253 142.791 30.2253ZM143.219 27.8175C143.498 27.8175 143.777 27.7624 144.075 27.6705C144.373 27.5786 144.633 27.4316 144.875 27.2478C145.117 27.064 145.322 26.825 145.471 26.531C145.619 26.2369 145.694 25.906 145.694 25.5017C145.694 24.987 145.601 24.5459 145.396 24.1783C145.191 23.8107 144.912 23.5167 144.559 23.3329C144.187 23.1307 143.759 23.0388 143.257 23.0388C142.81 23.0388 142.401 23.1307 142.047 23.3145C141.694 23.4983 141.433 23.7556 141.229 24.0681C141.024 24.3989 140.931 24.7849 140.931 25.226C140.931 25.759 141.005 26.2185 141.154 26.6045C141.303 26.9904 141.545 27.3029 141.88 27.5051C142.233 27.7073 142.661 27.8175 143.219 27.8175Z" fill="#FD267D"/>
<path d="M154.848 31.1075C154.216 31.1075 153.62 31.0524 153.025 30.9421C152.43 30.8318 151.909 30.648 151.444 30.3723C150.978 30.115 150.606 29.7658 150.346 29.3247C150.067 28.8836 149.937 28.3505 149.937 27.7256C149.937 27.064 150.104 26.5126 150.439 26.0714C150.774 25.6303 151.239 25.2995 151.816 25.0422C152.392 24.7848 153.044 24.6194 153.769 24.5092C154.495 24.3989 155.239 24.3437 156.02 24.3437C156.225 24.3437 156.448 24.3437 156.653 24.3621C156.858 24.3805 157.062 24.3805 157.248 24.3989C157.434 24.4173 157.583 24.4173 157.695 24.4173C157.862 24.4173 157.993 24.3805 158.048 24.3254C158.104 24.2702 158.123 24.1783 158.123 24.0313C158.123 23.8475 158.104 23.6821 158.048 23.535C157.993 23.388 157.937 23.2593 157.844 23.149C157.751 23.0388 157.639 22.9285 157.528 22.855C157.304 22.7079 157.044 22.5976 156.709 22.5241C156.374 22.4506 156.02 22.4138 155.648 22.4138C155.183 22.4138 154.737 22.469 154.327 22.5609C153.918 22.6528 153.509 22.7631 153.137 22.855C152.765 22.9469 152.392 23.002 152.02 23.002C151.425 23.002 150.978 22.9101 150.662 22.7079C150.346 22.5241 150.178 22.2117 150.178 21.8073C150.178 21.4213 150.327 21.0721 150.606 20.7597C150.885 20.4472 151.276 20.2083 151.778 19.9877C152.281 19.7855 152.839 19.6201 153.453 19.5282C154.067 19.4363 154.737 19.3628 155.407 19.3628C156.783 19.3628 157.955 19.5098 158.904 19.8223C159.853 20.1347 160.56 20.6494 161.063 21.3662C161.565 22.083 161.807 23.0755 161.807 24.3254C161.807 24.6378 161.788 24.9135 161.77 25.1341C161.751 25.3546 161.695 25.5752 161.658 25.7406C161.621 25.906 161.583 26.0714 161.546 26.2001C161.509 26.3288 161.509 26.4574 161.509 26.5677C161.509 26.7699 161.584 26.9537 161.714 27.1375C161.844 27.3213 162.011 27.5051 162.179 27.7072C162.365 27.9094 162.514 28.1116 162.644 28.3322C162.774 28.5527 162.849 28.81 162.849 29.0857C162.849 29.5085 162.718 29.8025 162.439 30.0047C162.179 30.1885 161.863 30.2988 161.509 30.2988C161.23 30.2988 160.988 30.2253 160.821 30.0782C160.653 29.9312 160.486 29.7842 160.356 29.6187C160.225 29.4533 160.076 29.3982 159.909 29.3982C159.797 29.3982 159.667 29.435 159.537 29.4901C159.407 29.5636 159.239 29.6555 159.035 29.7842C158.811 29.9312 158.514 30.115 158.16 30.3172C157.807 30.5194 157.341 30.7032 156.821 30.8502C156.3 30.9972 155.611 31.1075 154.848 31.1075ZM155.183 28.7365C155.518 28.7365 155.853 28.6814 156.169 28.5895C156.486 28.4976 156.783 28.3505 157.044 28.1667C157.304 27.9829 157.509 27.7808 157.676 27.5234C157.844 27.2661 157.918 27.0088 157.918 26.7331C157.918 26.5309 157.844 26.3655 157.714 26.2736C157.583 26.1817 157.379 26.1082 157.1 26.0714C156.821 26.0347 156.467 26.0163 156.039 26.0163C155.593 26.0163 155.146 26.0714 154.755 26.1633C154.365 26.2552 154.03 26.4207 153.769 26.6228C153.509 26.8434 153.397 27.1375 153.397 27.5234C153.397 27.7991 153.472 28.0381 153.62 28.2035C153.769 28.3689 153.992 28.516 154.253 28.6079C154.513 28.6998 154.83 28.7365 155.183 28.7365Z" fill="#FD267D"/>
<path d="M164.3 30.3909C163.891 30.3909 163.574 30.299 163.332 30.0968C163.109 29.913 162.923 29.6189 162.793 29.2513C162.756 29.0859 162.7 28.8653 162.663 28.5713C162.644 28.2956 162.607 27.9463 162.57 27.542C162.532 27.1376 162.514 26.7149 162.495 26.237C162.477 25.7591 162.477 25.2629 162.477 24.7483C162.477 24.2336 162.495 23.719 162.532 23.186C162.57 22.6529 162.625 22.1383 162.7 21.6237C162.774 21.109 162.867 20.6128 162.998 20.1165C163.109 19.6387 163.258 19.1792 163.425 18.738C163.593 18.2969 163.779 17.8926 163.984 17.5433C164.281 17.0471 164.635 16.6611 165.026 16.4038C165.416 16.1465 165.881 16.0178 166.384 16.0178C166.905 16.0178 167.314 16.1832 167.63 16.5141C167.947 16.8449 168.095 17.3044 168.095 17.8926C168.095 18.1315 168.077 18.3888 168.04 18.6645C168.002 18.9402 167.965 19.2159 167.928 19.4916C167.891 19.7673 167.835 20.0246 167.798 20.2819C167.742 20.5393 167.705 20.7782 167.686 20.9804C167.649 21.1826 167.649 21.348 167.649 21.4583C167.649 21.6421 167.705 21.7156 167.798 21.7156C167.891 21.7156 168.021 21.6421 168.17 21.5134C168.319 21.3847 168.542 21.2193 168.802 21.0539C169.063 20.8701 169.398 20.7231 169.826 20.5944C170.235 20.4657 170.756 20.3922 171.37 20.3922C172.189 20.3922 172.877 20.5393 173.435 20.815C173.993 21.109 174.421 21.495 174.756 21.9729C175.091 22.4691 175.314 23.0022 175.463 23.6087C175.612 24.2152 175.668 24.8402 175.668 25.4834C175.668 25.7775 175.649 26.1084 175.612 26.4392C175.575 26.77 175.538 27.1193 175.463 27.4317C175.407 27.7625 175.333 28.0566 175.258 28.3507C175.184 28.6448 175.091 28.8653 174.998 29.0491C174.812 29.3984 174.533 29.6741 174.217 29.8395C173.882 30.0233 173.472 30.0968 172.97 30.0968C172.561 30.0968 172.263 30.0233 172.04 29.8579C171.816 29.6924 171.649 29.4903 171.537 29.2146C171.5 29.0675 171.482 28.8653 171.463 28.6264C171.444 28.3875 171.444 28.1301 171.444 27.8361C171.444 27.542 171.444 27.2295 171.444 26.9171C171.444 26.6046 171.426 26.2738 171.407 25.9613C171.37 25.704 171.333 25.3915 171.258 25.0975C171.202 24.8034 171.091 24.5277 170.961 24.3071C170.83 24.0682 170.644 23.8844 170.421 23.7557C170.198 23.6087 169.919 23.5536 169.565 23.5536C169.175 23.5536 168.821 23.6271 168.505 23.7557C168.226 23.866 167.965 24.0314 167.742 24.252C167.519 24.4726 167.351 24.6931 167.24 24.9504C167.109 25.1894 167.035 25.4283 166.998 25.6672C166.923 26.0716 166.867 26.4392 166.812 26.77C166.756 27.1009 166.7 27.4133 166.644 27.689C166.588 27.9647 166.514 28.222 166.458 28.461C166.402 28.6999 166.309 28.9389 166.216 29.1594C166.03 29.5638 165.788 29.8579 165.472 30.0784C165.156 30.299 164.765 30.3909 164.3 30.3909Z" fill="#FD267D"/>
<path d="M180.765 31.1075C180.133 31.1075 179.537 31.0524 178.942 30.9421C178.347 30.8318 177.826 30.648 177.361 30.3723C176.895 30.115 176.523 29.7658 176.263 29.3247C175.984 28.8836 175.854 28.3505 175.854 27.7256C175.854 27.064 176.021 26.5126 176.356 26.0714C176.691 25.6303 177.156 25.2995 177.733 25.0422C178.309 24.7848 178.961 24.6194 179.686 24.5092C180.412 24.3989 181.156 24.3437 181.937 24.3437C182.142 24.3437 182.365 24.3437 182.57 24.3621C182.775 24.3805 182.979 24.3805 183.165 24.3989C183.351 24.4173 183.5 24.4173 183.612 24.4173C183.779 24.4173 183.91 24.3805 183.965 24.3254C184.021 24.2702 184.059 24.1599 184.059 24.0313C184.059 23.8475 184.04 23.6821 183.984 23.535C183.928 23.388 183.872 23.2593 183.779 23.149C183.686 23.0388 183.575 22.9285 183.463 22.855C183.24 22.7079 182.979 22.5976 182.644 22.5241C182.31 22.4506 181.937 22.4138 181.565 22.4138C181.1 22.4138 180.654 22.469 180.244 22.5609C179.835 22.6528 179.426 22.7631 179.054 22.855C178.682 22.9469 178.309 23.002 177.937 23.002C177.342 23.002 176.895 22.9101 176.579 22.7079C176.263 22.5241 176.095 22.2117 176.095 21.8073C176.095 21.4213 176.244 21.0721 176.523 20.7597C176.802 20.4472 177.193 20.2083 177.695 19.9877C178.198 19.7855 178.756 19.6201 179.37 19.5282C179.984 19.4363 180.654 19.3628 181.324 19.3628C182.7 19.3628 183.872 19.5098 184.821 19.8223C185.77 20.1347 186.477 20.6494 186.98 21.3662C187.482 22.083 187.724 23.0755 187.724 24.3254C187.724 24.6378 187.705 24.9135 187.687 25.1341C187.668 25.3546 187.612 25.5752 187.575 25.7406C187.538 25.906 187.5 26.0714 187.463 26.2001C187.426 26.3288 187.426 26.4574 187.426 26.5677C187.426 26.7699 187.5 26.9537 187.631 27.1375C187.761 27.3213 187.928 27.5051 188.096 27.7072C188.282 27.9094 188.431 28.1116 188.561 28.3322C188.691 28.5527 188.766 28.81 188.766 29.0857C188.766 29.5085 188.635 29.8025 188.356 30.0047C188.096 30.1885 187.78 30.2988 187.426 30.2988C187.147 30.2988 186.905 30.2253 186.738 30.0782C186.57 29.9312 186.403 29.7842 186.273 29.6187C186.142 29.4533 185.993 29.3982 185.826 29.3982C185.714 29.3982 185.584 29.435 185.454 29.4901C185.324 29.5636 185.156 29.6555 184.952 29.7842C184.728 29.9312 184.431 30.115 184.077 30.3172C183.724 30.5194 183.258 30.7032 182.738 30.8502C182.217 30.9972 181.528 31.1075 180.765 31.1075ZM181.1 28.7365C181.435 28.7365 181.77 28.6814 182.086 28.5895C182.403 28.4976 182.7 28.3505 182.961 28.1667C183.24 28.0013 183.445 27.7808 183.612 27.5418C183.779 27.3029 183.854 27.0272 183.854 26.7515C183.854 26.5493 183.779 26.3839 183.649 26.292C183.519 26.2001 183.314 26.1266 183.035 26.0898C182.756 26.0531 182.403 26.0347 181.975 26.0347C181.528 26.0347 181.082 26.0898 180.691 26.1817C180.3 26.2736 179.965 26.4207 179.705 26.6412C179.444 26.8618 179.333 27.1558 179.333 27.5418C179.333 27.8175 179.407 28.0565 179.556 28.2219C179.705 28.3873 179.928 28.5343 180.189 28.6262C180.43 28.6998 180.747 28.7365 181.1 28.7365Z" fill="#FD267D"/>
<path d="M193.938 34.8202C192.878 34.8202 192.003 34.7467 191.315 34.618C190.627 34.4894 190.087 34.3056 189.696 34.085C189.306 33.8645 189.026 33.6255 188.859 33.3498C188.692 33.0741 188.617 32.8168 188.617 32.5779C188.617 32.3022 188.71 32.0816 188.896 31.8978C189.082 31.714 189.324 31.5854 189.64 31.4751C189.957 31.3832 190.31 31.328 190.682 31.328C190.943 31.328 191.24 31.3464 191.557 31.4016C191.873 31.4567 192.208 31.5118 192.561 31.567C192.915 31.6221 193.287 31.6589 193.678 31.6956C194.069 31.7324 194.478 31.7324 194.887 31.6956C195.278 31.6773 195.594 31.6037 195.873 31.4567C196.152 31.3097 196.357 31.1259 196.543 30.9053C196.729 30.6848 196.841 30.4458 196.915 30.1701C196.99 29.9128 197.027 29.6371 197.027 29.3798C197.027 29.3246 197.027 29.2695 197.008 29.2144C196.99 29.1592 196.971 29.1225 196.952 29.1041C196.934 29.0673 196.897 29.0673 196.841 29.0673C196.766 29.0673 196.636 29.1225 196.469 29.2144C196.301 29.3063 196.096 29.4165 195.836 29.5452C195.576 29.6739 195.278 29.7841 194.906 29.876C194.552 29.9679 194.143 30.0231 193.659 30.0231C192.487 30.0231 191.501 29.8393 190.701 29.4533C189.901 29.0673 189.306 28.5343 188.896 27.7991C188.487 27.0639 188.282 26.1633 188.282 25.0973C188.282 24.1783 188.468 23.388 188.859 22.7079C189.25 22.0278 189.771 21.4581 190.422 21.017C191.073 20.5758 191.817 20.245 192.654 20.0244C193.492 19.8039 194.348 19.6936 195.241 19.6936C196.208 19.6936 197.083 19.8406 197.883 20.1163C198.664 20.4104 199.352 20.8148 199.929 21.3662C200.506 21.9176 200.934 22.5976 201.25 23.388C201.566 24.1967 201.715 25.1157 201.715 26.1449C201.715 27.5786 201.548 28.8284 201.232 29.9128C200.915 30.9972 200.413 31.8978 199.78 32.633C199.129 33.3498 198.329 33.9012 197.343 34.2688C196.376 34.6364 195.241 34.8202 193.938 34.8202ZM194.85 27.4131C195.259 27.4131 195.631 27.358 195.985 27.2293C196.338 27.1191 196.636 26.9353 196.878 26.7147C197.138 26.4941 197.324 26.2368 197.473 25.9244C197.622 25.6119 197.697 25.2811 197.697 24.9135C197.697 24.454 197.604 24.0496 197.399 23.7004C197.194 23.3512 196.915 23.0755 196.543 22.8917C196.171 22.6895 195.724 22.5976 195.185 22.5976C194.85 22.5976 194.515 22.6344 194.162 22.7263C193.827 22.8182 193.51 22.9652 193.213 23.149C192.915 23.3512 192.692 23.6085 192.524 23.921C192.357 24.2518 192.264 24.6378 192.264 25.0973C192.264 25.5384 192.357 25.9244 192.58 26.2736C192.785 26.6228 193.082 26.8801 193.473 27.0823C193.864 27.3029 194.329 27.4131 194.85 27.4131Z" fill="#FD267D"/>
<path d="M204.208 30.207C203.668 30.207 203.24 30.1151 202.943 29.9129C202.645 29.7107 202.44 29.435 202.31 29.0491C202.198 28.6631 202.124 28.1852 202.124 27.6154C202.124 27.3765 202.124 27.1192 202.143 26.8067C202.161 26.4943 202.18 26.2002 202.198 25.8693C202.217 25.5385 202.236 25.2077 202.273 24.8768C202.31 24.546 202.347 24.2335 202.384 23.9211C202.422 23.6086 202.459 23.3329 202.515 23.0756C202.552 22.8183 202.608 22.5977 202.664 22.4323C202.887 21.8442 203.222 21.403 203.65 21.0906C204.096 20.7965 204.654 20.6311 205.324 20.6311C205.957 20.6311 206.44 20.8516 206.738 21.3111C207.036 21.7706 207.185 22.3956 207.185 23.2043C207.185 23.4616 207.185 23.7557 207.166 24.0865C207.147 24.4173 207.129 24.7849 207.092 25.1525C207.054 25.5201 207.017 25.9061 206.98 26.2921C206.943 26.6781 206.887 27.0457 206.831 27.3765C206.775 27.7257 206.701 28.0382 206.645 28.3139C206.571 28.5896 206.496 28.8101 206.403 28.9755C206.18 29.3983 205.882 29.7107 205.529 29.8945C205.157 30.1151 204.71 30.207 204.208 30.207ZM205.101 19.3077C204.245 19.3077 203.65 19.1607 203.296 18.885C202.943 18.6093 202.775 18.2968 202.775 17.9293C202.775 17.4698 202.943 17.0654 203.278 16.7529C203.612 16.4221 204.04 16.1832 204.543 16.0177C205.045 15.8523 205.547 15.7788 206.068 15.7788C206.44 15.7788 206.775 15.8339 207.092 15.9442C207.408 16.0545 207.65 16.2383 207.854 16.4956C208.041 16.7529 208.152 17.0654 208.152 17.4698C208.152 17.9109 208.003 18.2785 207.743 18.5358C207.464 18.8115 207.092 18.9953 206.627 19.1239C206.124 19.2526 205.622 19.3077 205.101 19.3077Z" fill="#FD267D"/>
<path d="M213.157 31.1075C212.524 31.1075 211.929 31.0524 211.334 30.9421C210.738 30.8318 210.217 30.648 209.752 30.3723C209.287 30.115 208.915 29.7658 208.654 29.3247C208.375 28.8836 208.245 28.3505 208.245 27.7256C208.245 27.064 208.413 26.5126 208.747 26.0714C209.082 25.6303 209.547 25.2995 210.124 25.0422C210.701 24.7848 211.352 24.6194 212.078 24.5092C212.803 24.3989 213.548 24.3437 214.329 24.3437C214.534 24.3437 214.757 24.3437 214.962 24.3621C215.166 24.3805 215.371 24.3805 215.557 24.3989C215.743 24.4173 215.892 24.4173 216.004 24.4173C216.171 24.4173 216.301 24.3805 216.357 24.3254C216.413 24.2702 216.45 24.1599 216.45 24.0313C216.45 23.8475 216.431 23.6821 216.376 23.535C216.32 23.388 216.264 23.2593 216.171 23.149C216.078 23.0388 215.966 22.9285 215.855 22.855C215.631 22.7079 215.371 22.5976 215.036 22.5241C214.701 22.4506 214.348 22.4138 213.976 22.4138C213.51 22.4138 213.064 22.469 212.655 22.5609C212.245 22.6528 211.836 22.7631 211.464 22.855C211.092 22.9469 210.72 23.002 210.348 23.002C209.752 23.002 209.306 22.9101 208.989 22.7079C208.673 22.5241 208.506 22.2117 208.506 21.8073C208.506 21.4213 208.654 21.0721 208.934 20.7597C209.213 20.4472 209.603 20.2083 210.106 19.9877C210.608 19.7855 211.166 19.6201 211.78 19.5282C212.394 19.4363 213.064 19.3628 213.734 19.3628C215.111 19.3628 216.283 19.5098 217.232 19.8223C218.18 20.1347 218.887 20.6494 219.39 21.3662C219.892 22.083 220.134 23.0755 220.134 24.3254C220.134 24.6378 220.115 24.9135 220.097 25.1341C220.078 25.3546 220.022 25.5752 219.985 25.7406C219.948 25.906 219.911 26.0714 219.873 26.2001C219.836 26.3288 219.836 26.4574 219.836 26.5677C219.836 26.7699 219.911 26.9537 220.041 27.1375C220.171 27.3213 220.339 27.5051 220.506 27.7072C220.692 27.9094 220.841 28.1116 220.971 28.3322C221.101 28.5527 221.176 28.81 221.176 29.0857C221.176 29.5085 221.046 29.8025 220.767 30.0047C220.506 30.1885 220.19 30.2988 219.836 30.2988C219.557 30.2988 219.315 30.2253 219.148 30.0782C218.98 29.9312 218.813 29.7842 218.683 29.6187C218.553 29.4533 218.404 29.3982 218.236 29.3982C218.125 29.3982 217.994 29.435 217.864 29.4901C217.734 29.5636 217.566 29.6555 217.362 29.7842C217.138 29.9312 216.841 30.115 216.487 30.3172C216.134 30.5194 215.669 30.7032 215.148 30.8502C214.627 30.9972 213.938 31.1075 213.157 31.1075ZM213.51 28.7365C213.845 28.7365 214.18 28.6814 214.497 28.5895C214.813 28.4976 215.11 28.3505 215.371 28.1667C215.631 27.9829 215.836 27.7808 216.004 27.5234C216.171 27.2661 216.245 27.0088 216.245 26.7331C216.245 26.5309 216.171 26.3655 216.041 26.2736C215.911 26.1817 215.706 26.1082 215.427 26.0714C215.148 26.0347 214.794 26.0163 214.366 26.0163C213.92 26.0163 213.473 26.0714 213.083 26.1633C212.692 26.2552 212.357 26.4023 212.096 26.6228C211.836 26.8434 211.724 27.1375 211.724 27.5234C211.724 27.7991 211.799 28.0381 211.948 28.2035C212.096 28.3689 212.32 28.516 212.58 28.6079C212.841 28.6998 213.157 28.7365 213.51 28.7365Z" fill="#FD267D"/>
<path d="M226.013 31.1075C225.381 31.1075 224.785 31.0524 224.19 30.9421C223.595 30.8318 223.074 30.648 222.609 30.3723C222.143 30.115 221.771 29.7658 221.511 29.3247C221.232 28.8836 221.102 28.3505 221.102 27.7256C221.102 27.064 221.269 26.5126 221.604 26.0714C221.939 25.6303 222.404 25.2995 222.981 25.0422C223.557 24.7848 224.209 24.6194 224.934 24.5092C225.66 24.3989 226.404 24.3437 227.186 24.3437C227.39 24.3437 227.613 24.3437 227.818 24.3621C228.023 24.3805 228.227 24.3805 228.413 24.3989C228.6 24.4173 228.748 24.4173 228.86 24.4173C229.027 24.4173 229.158 24.3805 229.214 24.3254C229.269 24.2702 229.307 24.1599 229.307 24.0313C229.307 23.8475 229.288 23.6821 229.232 23.535C229.176 23.388 229.12 23.2593 229.027 23.149C228.934 23.0388 228.823 22.9285 228.711 22.855C228.488 22.7079 228.227 22.5976 227.893 22.5241C227.558 22.4506 227.204 22.4138 226.832 22.4138C226.367 22.4138 225.92 22.469 225.511 22.5609C225.102 22.6528 224.692 22.7631 224.32 22.855C223.948 22.9469 223.576 23.002 223.204 23.002C222.609 23.002 222.162 22.9101 221.846 22.7079C221.529 22.5241 221.362 22.2117 221.362 21.8073C221.362 21.4213 221.511 21.0721 221.79 20.7597C222.069 20.4472 222.46 20.2083 222.962 19.9877C223.464 19.7855 224.023 19.6201 224.637 19.5282C225.251 19.4363 225.92 19.3628 226.59 19.3628C227.967 19.3628 229.139 19.5098 230.088 19.8223C231.037 20.1347 231.744 20.6494 232.246 21.3662C232.749 22.083 232.99 23.0755 232.99 24.3254C232.99 24.6378 232.972 24.9135 232.953 25.1341C232.935 25.3546 232.879 25.5752 232.842 25.7406C232.804 25.906 232.767 26.0714 232.73 26.2001C232.693 26.3288 232.693 26.4574 232.693 26.5677C232.693 26.7699 232.767 26.9537 232.897 27.1375C233.028 27.3213 233.195 27.5051 233.363 27.7072C233.549 27.9094 233.697 28.1116 233.828 28.3322C233.958 28.5527 234.032 28.81 234.032 29.0857C234.032 29.5085 233.902 29.8025 233.623 30.0047C233.363 30.1885 233.046 30.2988 232.693 30.2988C232.414 30.2988 232.172 30.2253 232.004 30.0782C231.837 29.9312 231.669 29.7842 231.539 29.6187C231.409 29.4533 231.26 29.3982 231.093 29.3982C230.981 29.3982 230.851 29.435 230.721 29.4901C230.59 29.5636 230.423 29.6555 230.218 29.7842C229.995 29.9312 229.697 30.115 229.344 30.3172C228.99 30.5194 228.525 30.7032 228.004 30.8502C227.483 30.9972 226.776 31.1075 226.013 31.1075ZM226.348 28.7365C226.683 28.7365 227.018 28.6814 227.334 28.5895C227.651 28.4976 227.948 28.3505 228.209 28.1667C228.469 27.9829 228.674 27.7808 228.841 27.5234C229.009 27.2661 229.083 27.0088 229.083 26.7331C229.083 26.5309 229.009 26.3655 228.879 26.2736C228.748 26.1817 228.544 26.1082 228.265 26.0714C227.986 26.0347 227.632 26.0163 227.204 26.0163C226.758 26.0163 226.311 26.0714 225.92 26.1633C225.53 26.2552 225.195 26.4023 224.934 26.6228C224.674 26.8434 224.562 27.1375 224.562 27.5234C224.562 27.7991 224.637 28.0381 224.785 28.2035C224.934 28.3689 225.158 28.516 225.418 28.6079C225.678 28.6998 225.995 28.7365 226.348 28.7365Z" fill="#FD267D"/>
<path d="M235.279 30.0782C234.795 30.0782 234.386 29.9863 234.07 29.7841C233.753 29.582 233.53 29.2511 233.381 28.81C233.344 28.6446 233.307 28.4424 233.288 28.2402C233.27 28.0381 233.251 27.7807 233.251 27.505C233.251 27.2293 233.251 26.9536 233.27 26.6228C233.325 25.134 233.642 23.8658 234.218 22.7998C234.795 21.7338 235.595 20.9434 236.6 20.392C237.623 19.8406 238.795 19.5649 240.154 19.5649C241.512 19.5649 242.703 19.8406 243.744 20.3737C244.786 20.9067 245.568 21.7154 246.145 22.763C246.721 23.8291 247 25.134 247 26.6963C247 26.9536 247 27.211 246.982 27.4499C246.963 27.6888 246.926 27.891 246.889 28.0932C246.852 28.2954 246.814 28.4792 246.758 28.6446C246.591 29.1225 246.331 29.4901 246.014 29.729C245.698 29.9679 245.289 30.0966 244.824 30.0966C244.303 30.0966 243.893 30.0231 243.596 29.876C243.298 29.729 243.112 29.5084 242.982 29.2144C242.851 28.9203 242.758 28.5894 242.721 28.1851C242.684 27.7256 242.665 27.3212 242.628 26.9536C242.591 26.586 242.554 26.2736 242.516 25.9795C242.479 25.6854 242.442 25.4281 242.386 25.1892C242.349 24.9502 242.293 24.7113 242.219 24.4907C242.07 23.9393 241.847 23.5166 241.549 23.2593C241.251 22.9836 240.823 22.8366 240.284 22.8366C239.763 22.8366 239.335 22.9836 239.019 23.2777C238.684 23.5717 238.423 23.9761 238.219 24.5275C238.126 24.7664 238.033 25.0238 237.977 25.2995C237.902 25.5752 237.847 25.8692 237.791 26.1817C237.735 26.4941 237.698 26.825 237.66 27.1926C237.623 27.5602 237.586 27.9278 237.53 28.3321C237.474 28.81 237.344 29.1592 237.121 29.4165C236.898 29.6739 236.637 29.8577 236.321 29.9496C236.005 30.0231 235.67 30.0782 235.279 30.0782Z" fill="#FD267D"/>
<path d="M25.2801 33.3315C24.7033 33.0007 24.1452 32.6147 23.6056 32.1736C23.0661 31.7325 22.5637 31.2546 22.1172 30.74C21.4474 29.9864 20.9078 29.1777 20.4427 28.3322C20.0148 27.4867 19.6985 26.6413 19.531 25.7958C19.3636 24.9687 19.3822 24.1784 19.5868 23.4432C19.7915 22.708 20.2008 22.0463 20.852 21.4949C21.3916 21.0354 21.9497 20.7965 22.5823 20.7781C22.7684 20.7781 22.9544 20.7781 23.1405 20.7965C23.8289 20.87 24.5173 20.5943 24.9452 20.0613L25.1685 19.804C25.9313 18.885 25.5034 17.4513 24.3498 17.1389H24.3312C23.2335 16.8448 22.173 16.808 21.1311 17.047C20.0892 17.2675 19.1031 17.7822 18.1914 18.5541C17.1123 19.4731 16.3681 20.5208 15.9588 21.6787C15.5495 22.8366 15.4192 24.0865 15.5867 25.4098C15.7541 26.7332 16.1821 28.0749 16.8705 29.4166C17.5589 30.7767 18.4705 32.1001 19.6055 33.4234C20.4055 34.3424 21.2241 35.1511 22.0986 35.8496C24.294 37.614 29.0384 35.9598 25.2801 33.3315Z" fill="#FD267D"/>
<path d="M16.0515 17.8191C16.0887 17.7455 16.1445 17.6904 16.1817 17.6169C16.2933 17.4882 16.4236 17.3596 16.5352 17.2309C16.6654 17.1022 16.7957 16.9736 16.9259 16.8633C16.9817 16.8082 17.0561 16.753 17.1306 16.6979C17.391 16.5325 17.6515 16.3303 17.9306 16.1649C18.2283 15.9994 18.526 15.8524 18.8423 15.7054C18.8795 15.687 18.9353 15.6686 18.9725 15.6502C19.1213 15.5951 19.2516 15.5583 19.4004 15.5032C19.6609 15.4113 19.94 15.3378 20.2005 15.2826C20.3307 15.2459 20.4423 15.2275 20.5726 15.2091C20.5912 15.2091 20.6656 15.1907 20.7214 15.1907C20.7586 15.1907 20.8144 15.1907 20.833 15.1724C20.9261 15.1724 21.0191 15.154 21.1121 15.1724C21.968 15.1724 22.7866 14.4188 22.7494 13.5549C22.6936 12.6727 22.0238 11.9375 21.0935 11.9375C19.7539 11.9375 18.4143 12.3786 17.205 12.9116C15.6049 13.6101 14.2095 14.7496 13.2234 16.1832C12.7397 16.8817 13.056 18.0029 13.8188 18.3888C14.6374 18.8299 15.5305 18.5726 16.0515 17.8191Z" fill="#FD267D"/>
<path d="M43.0671 14.6761C40.2763 10.7244 34.2295 9.98921 30.1549 12.3051C29.3735 12.7462 29.113 13.7755 29.5596 14.5106C30.0061 15.2642 31.0294 15.5215 31.7922 15.0988C32.0155 14.9701 32.2574 14.8599 32.4806 14.7496C32.3318 14.8231 32.4062 14.768 32.5178 14.7312C32.6295 14.6944 32.7597 14.6393 32.8899 14.6025C33.3179 14.4555 33.7644 14.3636 34.2295 14.2901C34.2667 14.2901 34.6388 14.2533 34.7133 14.2533C34.9737 14.235 35.2156 14.235 35.4761 14.235C35.6993 14.235 35.9226 14.2533 36.1459 14.2717C36.1831 14.2717 36.2017 14.2717 36.2203 14.2717C36.2203 14.2717 36.2203 14.2717 36.2389 14.2717C36.3691 14.2901 36.4808 14.3085 36.611 14.3269C37.0017 14.4187 37.4297 14.529 37.839 14.6761C37.9506 14.7128 38.0622 14.7496 38.1739 14.8047H38.1925C38.2111 14.8047 38.2111 14.8231 38.2297 14.8231C38.4157 14.915 38.6018 15.0069 38.7878 15.0988C38.9925 15.2091 39.16 15.3194 39.3646 15.448C39.439 15.4848 39.6623 15.687 39.4018 15.4664C39.4762 15.5215 39.5321 15.5767 39.6065 15.6318C39.7739 15.7605 39.9228 15.9075 40.053 16.0729C40.1088 16.1281 40.1646 16.1832 40.2205 16.2567C40.2391 16.2751 40.2391 16.2935 40.2577 16.3119C40.76 17.0287 41.6903 17.3595 42.4903 16.9C43.1973 16.4773 43.5694 15.3929 43.0671 14.6761Z" fill="#FD267D"/>
<path d="M38.62 18.5541C37.6897 17.7638 36.7222 17.2676 35.6803 17.0286C34.6384 16.8081 33.5779 16.8264 32.4988 17.1021C31.4197 17.3962 30.3406 17.9109 29.2615 18.6644C28.1823 19.3996 26.9172 20.5024 26.1358 21.5133C24.7404 23.2961 27.2149 25.3915 30.3778 22.3404C30.9546 21.7706 31.6616 21.4398 32.3127 21.1641C32.9639 20.8884 33.6151 20.7597 34.2291 20.7965C34.8431 20.8332 35.4198 21.0722 35.9594 21.5317C36.6106 22.0831 37.0385 22.7264 37.2246 23.4799C37.4292 24.2151 37.4292 25.0055 37.2618 25.8326C37.0943 26.6597 36.778 27.5051 36.3315 28.3506C35.885 29.1961 35.3082 30.0048 34.657 30.7584C34.2105 31.273 33.7082 31.7509 33.1686 32.192C32.629 32.6331 32.0709 33.0191 31.5127 33.3315C30.9546 33.644 30.3964 33.8829 29.8382 34.0484H29.8196C29.1126 34.2505 28.5545 34.8203 28.4428 35.5555C28.201 37.2832 29.9499 38.5147 31.4755 37.8162C31.6616 37.7427 31.829 37.6508 31.9965 37.5773C32.9081 37.1362 33.8012 36.5664 34.6756 35.868C35.5501 35.1695 36.3687 34.3608 37.1688 33.4418C38.3223 32.1369 39.234 30.7951 39.9224 29.4534C40.6108 28.0933 41.0387 26.7516 41.2247 25.4466C41.3922 24.1232 41.2805 22.8918 40.8712 21.7155C40.4433 20.5208 39.6991 19.4731 38.62 18.5541Z" fill="#FD267D"/>
</g>
<defs>
<clipPath id="clip0_1_4">
<rect width="234" height="27" fill="white" transform="translate(13 11)"/>
</clipPath>
</defs>
</svg>
