<svg width="16" height="16" viewBox="0 0 16 16" fill="none" xmlns="http://www.w3.org/2000/svg">
<rect width="16" height="16" rx="8" fill="#FF4949"/>
<path d="M5.40718 9.53217C5.11428 9.82506 5.11428 10.2999 5.40718 10.5928C5.70007 10.8857 6.17494 10.8857 6.46784 10.5928L8 9.06066L9.53217 10.5928C9.82506 10.8857 10.2999 10.8857 10.5928 10.5928C10.8857 10.2999 10.8857 9.82506 10.5928 9.53217L9.06066 8L10.5928 6.46783C10.8857 6.17494 10.8857 5.70006 10.5928 5.40717C10.2999 5.11428 9.82507 5.11428 9.53217 5.40717L8 6.93934L6.46783 5.40717C6.17494 5.11428 5.70006 5.11428 5.40717 5.40717C5.11428 5.70007 5.11428 6.17494 5.40717 6.46783L6.93934 8L5.40718 9.53217Z" fill="white"/>
</svg>
