<?xml version="1.0" encoding="UTF-8"?>
<svg id="Layer_1" data-name="Layer 1" xmlns="http://www.w3.org/2000/svg" viewBox="0 0 400 400">
  <defs>
    <style>
      .cls-1 {
        fill: #292929;
        fill-rule: evenodd;
        stroke: #292929;
        stroke-miterlimit: 10;
        stroke-width: 2px;
      }
    </style>
  </defs>
  <path class="cls-1" d="M227.21,73.07c3.12.69,6.06,2.07,8.79,3.7,1.42.86,2.63-1.28,1.28-2.19-2.91-1.98-5.93-3.32-9.32-4.23-2.67-.72-6.37-1.67-8.85-.21-.48.29-.46.96,0,1.25,2.3,1.46,5.46,1.08,8.1,1.67Z"/>
  <path class="cls-1" d="M215.11,79.11c1.72.69,3.74.53,5.57.78,2.22.3,4.43.69,6.63,1.09,1.59.29,2.29-2.1.68-2.45-2.19-.47-4.37-.93-6.58-1.29-2.01-.32-4.36-.82-6.3-.11-.99.37-.95,1.59,0,1.97Z"/>
  <path class="cls-1" d="M270.4,64.43c-.82-1.3-1.58-2.64-2.16-4.07-.54-1.31-.67-2.72-1.38-3.95-.32-.56-1.27-.63-1.56,0-1.37,2.89,1.43,6.92,3,9.25.87,1.29,2.95.11,2.1-1.23Z"/>
  <path class="cls-1" d="M311.09,74.08c1.78-2.17,3.61-4.28,5.59-6.26,1.21-1.22,2.49-2.34,3.88-3.34,1-.72,1.93-1.25,2.58-2.33.3-.51-.1-1.08-.65-1.12-2.5-.16-4.82,2.27-6.54,3.83-2.47,2.23-4.54,4.89-6.58,7.5-.95,1.22.71,2.96,1.72,1.73Z"/>
  <path class="cls-1" d="M320.67,79.2c3.96-2.37,7.91-4.85,11.44-7.82.64-.54-.05-1.78-.85-1.45-4.28,1.78-7.9,4.7-11.84,7.13-1.36.83-.12,2.97,1.25,2.14Z"/>
  <path class="cls-1" d="M335.58,94.99c1.81-.09,3.44-.71,5.02-1.57.4-.21.64-.67.64-1.12,0-.73-.51-1.3-1.3-1.3-.6,0-1.24.43-1.77.67-.83.38-1.68.62-2.59.67-1.7.1-1.71,2.73,0,2.65Z"/>
  <path class="cls-1" d="M229.21,316.95c.27.26.55.54.83.8.08.07.19-.04.12-.12-.27-.28-.54-.56-.8-.83-.09-.09-.24.05-.14.14Z"/>
  <path class="cls-1" d="M336.34,169.5c-11.65-7.71-25.43-12.19-39.58-14.03-.02-.16-.05-.3-.12-.43,6.44-8.17,14-15.45,20.65-23.46,2.53-3.04,5.22-6.53,7.25-10.28,1.53-1.94,2.88-4,3.57-6.18.09-.3-.06-.58-.3-.76.65-.97,1.4-1.94,1.97-2.97,1.03.01,1.97-1.35,1.04-2.34-11.22-11.98-22.97-23.09-32.67-36.42-.42-.57-1.08-.62-1.56-.38-.01-.04-.01-.09-.02-.14-.19-1.21-2.27-.93-2.14.29.91,8.87,1.65,17.84,3.73,26.5-2.49-2.52-5.06-4.99-7.31-7.51-4.43-4.96-9.02-10.34-14.63-14.04.09-.18.19-.35.28-.52.08-.15.08-.29.06-.43.17.01.34.02.51.03,3.87.16,8.41.52,12.43-.34.11.03.19.1.31.1.71-.01,1.42-.02,2.13,0l.03.03c.07.05.1.1.3.26.93.77,2.63-.25,1.81-1.39-.14-.19-.24-.42-.39-.64.21-.29.15-.65-.09-.9.18-.78-.46-1.7-1.33-1.7-.98,0-1.95-.02-2.93.01-.44.01-.97.24-1.17.67-.1.23-.14.4-.15.59-4.45.09-9.01.63-13.43.47-6.38-.24-12.73-.83-19.11-.83-.67,0-1.05.41-1.18.9-.18.06-.36.15-.53.31-5.4,5.01-9.61,11.91-14.04,17.75-2.95,3.88-5.89,7.78-8.94,11.58-.77.97-2.81,4.01-3.86,4.84-.69-.02-1.41.53-1.13,1.35.09.26.23.46.35.68-.24.21-.36.52-.23.92,3.51,10.39,13.99,19.83,21.43,27.39,5.24,5.32,11.25,11.2,17.84,15.82-7.89-1.79-17.86.88-26.82,5.42-11.88-15.48-28.24-28.23-48.72-36.53-48.33-19.57-107.06-5.84-134.59,38.59-.22-.02-.45.02-.63.21-20.65,21.15-24.76,56.09-19.9,84.14,5.72,32.97,24.28,59.58,52.83,76.9,40.63,24.65,94.03,20.04,130.27-7.62,4.74,4.26,9.94,8.12,15.69,11.37,42.71,24.06,94.13,15.95,121.87-24.85,27.94-41.08,24.37-103.87-18.81-132.43ZM293.7,148.85c-1.38,1.11-2.84,2.13-4.32,3.11,1.44-3.08,2.39-6.48,3.22-9.84,1.49-3.5,2.81-7.1,4.48-10.42.5-1-.91-1.84-1.5-.88-.04.06-.08.13-.12.19,1.74-6.41,3.63-12.71,6.05-18.9.03-.01.05-.01.07-.02.47-.11.68-.39.8-.71,2.81,5.42,5.79,10.77,8.92,16.01-1.4,1.85-2.78,3.69-4.19,5.46-3.27,4.14-6.4,8.37-9.22,12.79-1.58.7-2.9,2.14-4.21,3.19ZM286.59,150.62c-.35,1.35-.7,2.69-1.06,4.01-1.55-.06-3.09-.08-4.64-.08-.58-6.47-1.25-12.96-2.02-19.41,7.66-6.05,13.15-14.24,19.08-21.94-4.58,10.3-7.43,22.04-10.24,33.11-.45,1.17-.92,2.35-1.28,3.52-.11.34,0,.59.17.8ZM276.44,132.91c.02.32.03.64.05.96-.05.11-.1.21-.13.33-.05-.21-.15-.41-.36-.58-7.8-6.24-14.16-13.79-21.13-20.84,11.84,3.67,26.91,2.94,39.45.77-5.14,6.44-9.69,13.36-16.05,18.68-.63-.62-1.89-.44-1.83.67ZM278.07,154.59c-.92.02-1.84.02-2.76.06-5.58-6.28-10.61-12.09-14.86-19.53-3.45-6.04-6.43-12.33-9.43-18.61-.01-.14-.06-.25-.15-.32-.29-.6-.57-1.2-.86-1.8.72.05,1.44.09,2.16.17.35.04.62-.05.82-.22,6.66,7.5,13.06,15.85,21.41,21.34.78.52,1.67-.08,1.93-.82.04.18.12.35.22.5.28,6.37.25,12.98,1.51,19.23ZM308,138.61c-2.55,2.73-5.15,5.43-7.67,8.15,3.29-4.89,6.82-9.61,10.54-14.25.66-.82,1.33-1.63,2.02-2.45.13.2.24.41.36.61-1.8,2.13-3.58,4.28-5.39,6.42-.44.53-.26,1.17.14,1.53ZM322.9,117.8c-.43.77-.87,1.54-1.31,2.31-.06.11-.08.21-.1.31-1.02,1.39-2.01,2.79-3.06,4.07-1.1,1.36-2.24,2.67-3.36,4.01-.12-.21-.24-.41-.35-.62,3.48-4.11,7-8.34,9.41-13.03-.35,1.02-.8,1.97-1.23,2.94ZM324.76,113.03c-.18-.42-.7-.67-1.14-.26-3.85,3.63-7.23,7.94-10.51,12.28-2.61-4.6-5.22-9.2-7.87-13.78,6.53.93,13.22.97,19.79.96-.07.27-.19.53-.27.8ZM297.01,75.16c7.99,13.19,20.25,23.66,30.83,34.73-.05.06-.11.12-.15.18-.22-.36-.55-.63-1.1-.63-7.6,0-15.09-.24-22.62-1.07-.09-.24-.17-.47-.27-.71.69-.05,1.34-.69.84-1.4-.74-1.06-1.59-2.06-2.46-3.07-2.87-9.04-3.76-18.61-5.08-28.01ZM288.95,93.28c3.09,3.47,6.47,8.38,10.39,11.71-.03.22-.02.45.1.69.37.73.75,1.45,1.13,2.19-.03.05-.05.11-.08.15-.15.01-.28.08-.41.13-.39-.23-.89-.23-1.32.22-.54.57-1.04,1.17-1.56,1.76-14.42,2.18-30.82,3.57-44.73-.74,3.5-3.94,6.69-8.13,9.84-12.37,4.17-5.61,9.18-11.41,12.75-17.55,4.88,4.38,9.5,8.89,13.89,13.82ZM256.53,75.37c6.19.19,12.38.64,18.57.95-.07.06-.12.14-.19.2-.05-.03-.09-.06-.14-.1-.97-.56-2.07.77-1.28,1.57-3.95,4.09-7.09,9.21-10.4,13.75-4.29,5.89-8.76,11.61-13.4,17.21-.19,0-.37.04-.54.14,2.14-11.31,5.83-22.29,7.37-33.71ZM237.58,98.89c5.36-6.96,10.5-14.11,16.09-20.88-2.19,10.94-5.55,21.63-7.34,32.66,0,.03-.02.06-.02.09-.02.14-.05.28-.08.42-1.63-.01-3.25.05-4.74.03-2.97-.04-9.83.62-12.78-1.61,3.39-1.97,7.69-9.18,8.86-10.71ZM228.53,112.36c1.83.86,4.16,1.05,6.07,1.25,4,.41,8.01.4,12.01.56-2.33,5.2-4.47,11.05-4.38,16.48-5.51-5.41-10.85-11.49-13.7-18.29ZM248.86,136.94c-1.52-1.41-3.11-2.89-4.7-4.41,1.18-3.27,1.51-6.9,2.42-10.27.55-2.04,1.21-4.07,1.93-6.07.44,1.04.91,2.08,1.36,3.12-.52,5.89-1.91,12.15-.57,17.8.1.43.75.43.86,0,1.17-4.63,1.15-9.81,1.02-14.82.29.64.61,1.26.91,1.9-.27.04-.51.23-.47.54.34,2.58.32,5.18.32,7.77,0,2.49-.38,5.27.38,7.67-1.17-1.09-2.33-2.18-3.46-3.23ZM253.07,140.86c.23-.02.44-.16.53-.42.89-2.46.42-5.37.25-7.94-.14-2.18-.51-4.32-.88-6.47.7,1.49,1.45,2.95,2.18,4.42-.35.11-.65.35-.66.82-.04,1.76-.07,3.52-.11,5.28-.04,1.63-.38,3.43.49,4.87.26.42.89.42,1.15,0,.77-1.26.55-2.68.52-4.11-.04-1.43-.06-2.86-.1-4.29.55,1.06,1.13,2.09,1.69,3.15-.26.16-.46.43-.46.83-.04,1.91-.07,3.81.07,5.71.06.84.12,1.92.47,2.79-1.75-1.53-3.47-3.08-5.14-4.63ZM259.64,146.71c.22-.02.43-.12.55-.33.64-1.12.01-2.46-.15-3.67-.14-1.14-.2-2.29-.23-3.44.31.55.64,1.13.98,1.72-.35.12-.64.42-.64.91.03,2.18.46,5.49,2.2,7,.33.29.97.22,1.07-.28.19-.99-.05-1.74-.38-2.69-.25-.71-.45-1.41-.6-2.13,1.56,2.59,3.37,5.23,5.39,7.53-.51-.02-1.02.3-1.23.78-2.39-1.66-4.72-3.48-6.96-5.4ZM207.25,318.92c-.41.24-.81.51-1.23.75-.39.24-.8.45-1.19.68-26.06,14.73-58.74,18.31-88.84,10.45-.02-.2-.1-.39-.32-.5-25.51-12.93-45.38-28.71-61.49-52.65-22.26-33.06-12.08-63.84-4.46-99.33.16-.77-.86-1.02-1.15-.32-12.94,32.16-16.78,64.93.12,96.06,11.03,20.32,29.58,40.08,50.98,51.23-2.04-.85-4.07-1.75-6.06-2.72-54.46-26.45-72.69-98.93-44-150,.29,1.29,2.12,2.02,2.86.55,23.71-46.84,74.05-63.1,123.34-50.82,23.79,5.92,45,19.78,60.77,38.36-2.18,1.19-4.32,2.44-6.3,3.79-.27.08-.53.2-.8.28-.51-.75-1.21-1.41-1.87-2.07-.75-.75-1.77-.24-2.06.52-.65-.56-1.3-1.08-1.78-1.55-.98-.96-2.33.02-2.25,1.08-1.1-.95-2.19-1.91-3.33-2.8-.58-.45-1.29-.19-1.6.28-1.56-1.57-3.16-3.1-4.83-4.55-.74-.64-1.6.14-1.33.9-32.02-27.36-92.8-28.47-123.21,1.11-26.86,22.17-34.72,52.8-27.4,81.82-.56.06-1.09.5-.96,1.22,6.67,35.35,34.47,71.49,72.98,73.83.51.03.79-.27.94-.64,11.37,3.32,23.36,4.42,35.47,2.95,3.42,1.95,7.57,3.32,11.27,2.9.46-.05.72-.66.25-.92-1.93-1.09-4.14-1.48-6.28-2.01-.55-.14-1.07-.36-1.61-.53,1.97-.33,3.93-.73,5.9-1.18-.11.36-.05.78.33.98,2.99,1.57,9.61,3.65,11.74-.38.24-.46-.05-1.06-.6-1.06-1.49.02-2.82.77-4.31.93-1.98.2-3.78-.16-5.6-.84,2.05-.51,4.1-1.12,6.15-1.79.12.2.28.39.57.49,1.53.51,3.04.79,4.65.87,1.88.09,3.1-.43,4.61-1.48.36-.25.25-.84-.23-.85-2.13-.04-4.26.11-6.36-.14.92-.39,1.09-1.38.74-2.07,2.96-1.23,5.8-2.72,8.59-4.34-1.37,1.15-2.72,2.32-4.09,3.46-.78.66.24,1.95,1.08,1.4,9.56-6.18,19.67-14.65,25.28-24.84,11.51-15.65,17.89-34.44,18.97-53.52.17.37.64.57,1,.19,2.9-3.04,3.94-8.01,5.31-11.88.41-1.15-1.37-1.6-1.8-.5-1.43,3.62-3.75,7.48-4.47,11.34.38-7.82-.09-15.68-1.49-23.38.16.01.34-.08.42-.26,1.02-2.6,1.17-5.49,1.59-8.23.1-.64-.87-.92-.98-.27-.44,2.45-1.09,4.92-1.27,7.42-.74-3.75-1.67-7.46-2.83-11.11,1.02-1.84,1.04-4.55,1.02-6.39,0-.08-.03-.13-.04-.2.23-.17.46-.35.7-.52,1.9,3.96,3.61,8.02,5.24,12.14-.47-.19-1.1-.09-1.21.5-.6,3.36-2.26,7.14-1.58,10.58.08.42.71.48.9.12,1.59-2.91,1.94-6.7,2.34-10,.29.75.56,1.51.85,2.26-.4-.17-.88-.08-.96.47-.53,3.64-1.27,7.26-1.71,10.91-.06.5.76.72.96.26,1.43-3.24,1.74-6.84,2.2-10.32.55,1.46,1.12,2.89,1.64,4.38.21.61,1.25.55,1.18-.16-.76-8.2-3.6-15.81-7.45-22.92,3.36-2.21,6.94-4,10.61-5.57,11.78,26.57,8.4,58.31-.32,85.44-4.18,12.99-10.67,24.12-18.81,33.44-.31-.31-.79-.47-1.17-.22-4.16,2.7-7.26,7.3-10.8,10.77-3.38,3.31-7.13,6.18-11.11,8.7ZM218.83,176.11c-5.31,4.38-10.12,9.38-13.86,14.87,4.5-7.37,9.85-14.35,16.49-19.25-.99,1.01-1.91,2.02-2.69,3.01-.39.5-.28,1.06.05,1.38ZM90.36,289.5c4.73,4.39,9.95,8.28,15.51,11.65,2.63,1.79,5.35,3.42,8.12,4.93-10.27-4.19-19.55-9.58-28.31-18.26-8.46-8.37-14.47-18.65-18.9-29.59,5.59,11.27,13.53,21.91,23.59,31.26ZM79.52,169.73c.13.06.27.1.42.13-18.86,24.56-24.33,53.48-12.74,82.87-11.63-27.5-8.13-58.85,12.33-83ZM109.16,298.71c-10.16-6.77-19.48-15.81-27.85-26.98-30.81-41.07-17.05-85.07,17.4-117.96.4-.38.45-.81.33-1.2,34.57-22.67,90.38-15.2,117.06,14.47.96,1.07,1.82,2.2,2.69,3.33-11.96,9.1-19.82,25.21-26.13,37.58-10.95,21.47-12.02,51.06.52,72.08,2.47,6.43,5.7,12.56,9.55,18.32-.62.47-1.23.96-1.84,1.45-26.55,18.01-63.03,15.13-91.73-1.09ZM212.49,283.94c-.22.16-.39.39-.39.76-.02,1.35.02,3.31.67,4.77-.14.15-.28.29-.42.43-.15-.85-.37-1.71-.5-2.5-.38-2.24-.74-4.49-1.05-6.74.51,1.11,1.13,2.18,1.69,3.27ZM230.79,191.78c10.52,28.38,5.78,62.75-10.18,87.69-.98,1.52-2,2.96-3.05,4.37-15.29-29.43-7.31-66.68,13.24-92.06ZM250.71,180.26c32.71-13.21,75.23-1.88,93.39,29,17.02,28.95,9.58,67.87-13.58,90.97-26.4,26.34-71.87,26.71-98.83,2.26,6.38-7.03,11.86-14.99,16.14-23.86,16.29-33.7,16.3-68.99,2.87-98.37ZM357.55,292.6c-24.03,46.02-74.26,53.96-118.97,33.71-7.1-3.21-13.44-7.44-19.11-12.36.71-.56,1.38-1.17,2.08-1.76.36,1.91,1.26,3.88,3.05,4.33.47.12.86-.22.89-.68.13-1.9-1.49-3.46-1.98-5.32.33-.29.64-.6.96-.89.75,2.37,1.91,5.68,4.21,5.84.26.02.52-.2.58-.44.06-.25.06-.47.04-.69,2.13,2.54,4.38,4.89,7.18,6.93.32.23.7-.28.42-.54-2.31-2.11-4.47-4.46-6.57-6.85.45.4.88.82,1.41,1.1.38.2.8.01.95-.33.04.11.04.22.15.33,2.92,2.6,5.89,5.14,8.99,7.53,2.68,2.07,6.07,5.15,9.53,5.54.38.04.67-.48.45-.79-1.64-2.26-4.57-3.59-6.85-5.14-3.8-2.58-7.49-5.33-11.05-8.22-.45-.37-.99-.12-1.2.28-.75-2.9-3.05-5.34-4.65-7.92.17-.16.35-.31.51-.48,3.58,3.44,7.44,6.64,11.72,9.41.83.54,1.71-.66,1.04-1.35-.54-.55-1.05-1.09-1.59-1.64,5.1,3.2,10.55,5.68,16.22,7.45-.34.2-.53.64-.16.99,4.17,3.94,10.93,7.37,16.82,6.6.45-.06.8-.73.26-.98-5.34-2.45-11.19-2.24-15.83-6.31,3.85,1.15,7.81,1.93,11.81,2.43.04.03.03.08.08.11,3.99,2.4,8.73,5.22,13.48,5.56.55.04.67-.71.27-.98-2.88-1.88-6.24-2.93-9.44-4.28,4.49.31,9.03.16,13.54-.31-.04.27.06.58.38.71,4.3,1.7,9.63,2.8,14.16,1.41.35-.1.35-.6,0-.71-4.15-1.27-8.56-.51-12.76-1.57,9.57-1.21,19-4.18,27.71-8.79,4.42.73,8.63-.05,12.11-3.01.19-.16-.01-.49-.24-.41-3.18,1.1-6.31,2.12-9.61,2.15,2.26-1.29,4.46-2.71,6.61-4.22,5.23-1.36,11.08-3.33,14.75-7.27.23-.23,0-.69-.33-.57-3.34,1.16-6.51,2.75-9.71,4.27.1-.09.21-.16.32-.24,2.44-2.05,4.63-4.29,6.72-6.61,3.35-2,6.77-4.39,8.85-7.51.23-.34-.23-.79-.57-.57-1.57,1.01-3.01,2.21-4.44,3.42,18.55-24.75,19.83-61,4.21-87.55-21.3-36.2-82.29-45.06-113.25-16.86-.18,0-.36.05-.53.22-19.57,19.45-28.24,49.26-22.98,76.27-.55-1.73-1.13-3.43-1.59-5.25-6.65-26.5,3.77-51.36,21.62-70.69.71-.77-.37-1.85-1.15-1.15-26.05,23.72-30.28,61.18-16.81,91.49-.63-.33-1.7.04-1.62.9.2,2.28.32,4.57.62,6.84.21,1.55.25,3.46.97,4.94-.34.33-.65.71-1,1.04-1.26.95-2.46,2.03-3.64,2.98-.35.28-.71.55-1.07.83-3.32-4.95-6.24-10.19-8.57-15.77.07-.24.07-.53-.08-.83-.6-1.23-1.15-2.47-1.69-3.71-.12-.34-.26-.67-.38-1.01-7.87-22.55-4.16-44.93,4.34-65.93.35.06.72-.07.82-.54.3-1.39.68-2.72,1.1-4.02,1.37-3.11,2.84-6.2,4.38-9.24,12.89-13.51,26.08-26.06,43.81-33.32,6.9-2.83,14.22-4.48,21.7-5.18.06.03.12.06.17.1,0,.09.09.18.13.27-4.04.48-7.88,1.32-11.08,2.55-1.49.57-.87,2.96.66,2.41,12.47-4.45,23.93-.51,36.46.33.73.05.94-.99.36-1.33-2.15-1.28-4.69-2.21-7.38-2.91.14-.37.14-.79-.04-1.15.26-.01.52-.03.78-.04.56.05,1.12.09,1.68.16.27.81,1.5,1.32,2.27.6.12-.07.23-.16.34-.24,8.08,1.14,16.01,3.05,23.44,5.53,54.27,18.08,63.69,83.14,39.77,128.94Z"/>
  <path class="cls-1" d="M244.48,315.25c-1-.7-1.91.92-.95,1.62,5.31,3.86,11.08,9.31,17.56,10.94.31.07.53-.3.31-.52-4.68-4.86-11.42-8.18-16.92-12.04Z"/>
  <path class="cls-1" d="M285.5,324.9c-2.12-.5-4.18-1.14-6.23-1.9-.46-.17-.79.6-.33.8,3.7,1.57,8.42,4.61,12.57,3.21.32-.11.3-.51,0-.63-1.89-.76-4.03-.99-6.01-1.47Z"/>
  <path class="cls-1" d="M300.52,321.4c-.49-.1-.7.62-.21.75,3.02.84,6.39,1.55,9.28-.07.32-.18.16-.65-.18-.66-3.03-.14-5.84.58-8.89-.02Z"/>
  <path class="cls-1" d="M315.52,317.56c-1.75.18-3.52.21-5.28.26-.9.02-.9,1.37,0,1.39,3.12.07,7.26.62,10-1.19.33-.22.17-.66-.19-.7-1.51-.2-3.02.09-4.53.24Z"/>
  <path class="cls-1" d="M341.3,196.03c.22,0,.22-.33,0-.33s-.21.33,0,.33Z"/>
  <path class="cls-1" d="M346.2,204.86s.01,0,.01,0v-1.64s-.01,0-.01,0v1.64Z"/>
  <path class="cls-1" d="M345.68,200.26c4.57,7.66,7.16,15.91,9.47,24.46.26.96,1.89.79,1.77-.24-1.1-9.16-4.93-17.35-10.18-24.84-.45-.64-1.47-.07-1.06.62Z"/>
  <path class="cls-1" d="M94.64,301.01c-.73-.9-2.3.31-1.61,1.24,5.8,7.86,14.17,15.69,24.01,17.83.92.2,1.58-1.12.67-1.59-8.91-4.53-16.69-9.65-23.06-17.49Z"/>
  <path class="cls-1" d="M116.92,312.77c-.85-.79-2.08.43-1.27,1.27,4.44,4.55,9.79,9.03,16.02,10.71.6.17,1.2-.68.66-1.12-4.97-3.92-10.72-6.47-15.41-10.86Z"/>
  <path class="cls-1" d="M128.42,314.57c-1-.63-1.84.89-.91,1.57,5.11,3.67,10.48,9.27,16.77,10.74.78.18,1.5-.83.83-1.42-4.85-4.28-11.21-7.44-16.69-10.89Z"/>
  <path class="cls-1" d="M145.72,320.32c-1.12-.37-1.57,1.36-.48,1.75,2.63.93,5.1,2.17,7.88,2.58.59.09,1.02-.68.43-1.01-2.48-1.41-5.11-2.42-7.82-3.31Z"/>
  <path class="cls-1" d="M77.77,160.07c8.75-9.44,20.89-18.92,33.69-21.69.15-.03.08-.24-.06-.22-13.81,2.46-26.12,10.05-34.51,21.23-.38.52.46,1.14.88.68Z"/>
  <path class="cls-1" d="M189.03,139.11c12.58,4.25,23.87,9.19,33.91,18.02.44.39,1.19-.12.85-.66-7.19-11.39-22.11-15.6-34.29-19.06-1.1-.32-1.53,1.34-.47,1.7Z"/>
  <path class="cls-1" d="M237.14,191.3c.02,1.47-.06,2.88-.32,4.34-.03.16.18.21.23.06.58-1.44.63-2.87.66-4.41,0-.37-.58-.37-.58,0Z"/>
  <path class="cls-1" d="M238.34,195.03c-.42,2.32-.43,4.64-.7,6.96-.04.32.47.38.55.07.56-2.24.82-4.46,1.25-6.73.14-.72-.97-1.02-1.1-.31Z"/>
  <path class="cls-1" d="M242.98,210.54c-1.07,3.73-2.7,7.37-3.33,11.2-.13.79.88,1.32,1.33.57,2.08-3.43,2.71-7.48,3.55-11.35.22-1.01-1.27-1.43-1.56-.43Z"/>
  <path class="cls-1" d="M242.83,231.19c0-.16,0-.32,0-.49,0-.08-.12-.08-.12,0,0,.17,0,.33,0,.49,0,.07.1.07.11,0Z"/>
  <path class="cls-1" d="M201.96,267.19c-.07-.69-.99-.68-1.06,0-.42,3.87-2.09,9.7.65,13.01.26.32.76.11.86-.23.55-1.8.14-3.72.04-5.58-.13-2.41-.27-4.8-.49-7.21Z"/>
  <path class="cls-1" d="M204.01,285.77c.13.33.54.33.67,0,1.44-3.53.35-8.1-.12-11.77-.11-.88-1.51-.92-1.41,0,.39,3.77-.58,8.23.86,11.77Z"/>
  <path class="cls-1" d="M209.5,291.51c.02-2.28-.64-4.51-.97-6.76-.4-2.75-.59-5.56-.46-8.32.05-1.06-1.49-1-1.61,0-.59,4.83-1.13,11.16,1.6,15.47.41.65,1.44.39,1.44-.39Z"/>
  <path class="cls-1" d="M20.76,235.24c-.51,11.13,1.17,22.83,6.31,32.83.42.82,1.62.23,1.43-.6-2.44-10.78-5.87-21.12-6.74-32.22-.05-.64-.97-.65-1,0Z"/>
  <path class="cls-1" d="M19.58,267.42c-.42-1.15-2.26-.66-1.85.51,1.37,3.9,3.95,6.54,6.91,9.33.66.62,1.62-.34,1-1-2.46-2.61-4.83-5.41-6.06-8.83Z"/>
  <path class="cls-1" d="M369.5,199.35c.42.91,1.83.25,1.58-.67-3.27-12.21-12.96-21.01-21.13-30.07-.58-.64-1.47.29-.94.94,7.81,9.42,15.35,18.62,20.48,29.81Z"/>
  <path class="cls-1" d="M373.81,183.08c-.48-1.18-2.41-.7-1.95.54,5.09,13.89,7.75,27.83,9.1,42.55.11,1.21,1.83,1.24,1.9,0,.83-14.75-3.52-29.56-9.06-43.08Z"/>
  <path class="cls-1" d="M65.99,132.53c4.81-2.69,9.78-5.95,14.15-9.3.83-.64.4-2.16-.76-1.8-5.42,1.63-10.51,5.66-14.88,9.16-1.13.9.31,2.61,1.5,1.95Z"/>
  <path class="cls-1" d="M362.96,307.67c-3.15,8.26-8.78,14.74-14.2,21.55-.83,1.04.42,2.32,1.46,1.46,6.96-5.8,11.6-14.06,14.35-22.56.34-1.04-1.24-1.44-1.61-.45Z"/>
</svg>