<?xml version="1.0" encoding="UTF-8"?>
<svg id="Layer_1" data-name="Layer 1" xmlns="http://www.w3.org/2000/svg" viewBox="0 0 180 120">
  <defs>
    <style>
      .cls-1 {
        stroke-miterlimit: 10;
      }

      .cls-1, .cls-2 {
        fill: none;
        stroke: #fff;
      }

      .cls-2 {
        stroke-linecap: round;
        stroke-linejoin: round;
      }
    </style>
  </defs>
  <g>
    <g>
      <g>
        <path class="cls-1" d="M66.36,52.75c-1.39-1.26-3.04-2.2-4.74-3-2.64-1.25-5.45-2.19-8.36-2.46-1.76-.17-3.53-.09-5.3,0-1.68.07-3.38.15-4.98.67s-3.11,1.54-3.84,3.06c-.71,1.48-.59,3.27,0,4.8.59,1.54,1.62,2.86,2.69,4.11.76.88,1.58,1.78,1.9,2.89.37,1.3.02,2.7.26,4.03.41,2.23,2.43,3.81,4.46,4.82,1.39.69,2.89,1.23,4.44,1.34,2.4.16,4.76-.72,6.85-1.91,2.09-1.19,3.99-2.69,6.06-3.93,1.61-.96,3.33-1.76,5.1-2.38,1.88-.66,3.83-1.11,5.69-1.82.39-.15.87-.49.7-.88-.07-.16-.23-.26-.38-.34-2.04-1.18-4.15-2.06-5.84-3.75-1.66-1.67-2.96-3.66-4.72-5.24Z"/>
        <path class="cls-1" d="M65.4,66.35c-3.52,1.77-6.78,4.27-8.83,7.63-2.55,4.18-3.02,9.56-1.24,14.11.69,1.76,1.74,3.44,3.28,4.55,1.95,1.4,4.62,1.72,6.85.83,1.42-.57,2.7-1.61,4.23-1.72.81-.06,1.64.14,2.44-.02,1.23-.26,2.12-1.34,2.75-2.43.65-1.13,1.16-2.35,1.42-3.63.26-1.3.26-2.63.41-3.95.39-3.44,1.8-6.7,2.31-10.13.33-2.25.3-8.07-2.6-8.94-1.31-.39-3.79.9-5.03,1.31-2.04.67-4.05,1.44-5.97,2.4Z"/>
        <path class="cls-1" d="M81.68,78.53c.92.9,1.93,1.72,3.11,2.24,1.2.53,2.53.72,3.84.86,2.03.21,4.16.29,6.06-.47,1.9-.76,3.52-2.56,3.47-4.6-.02-.67-.21-1.33-.25-2-.07-.98.16-1.95.25-2.93.28-3.14-.99-6.34-3.17-8.62-2.18-2.28-5.2-3.68-8.32-4.14-12.92-1.93-11.47,13.31-4.97,19.68Z"/>
        <path class="cls-1" d="M68.41,55.82c-.94-1.28-1.78-2.72-3.13-3.55-1.47-.89-3.29-.91-4.93-1.45-2.64-.87-4.69-3.14-5.66-5.74-.97-2.6-.95-5.5-.32-8.21.36-1.55,1.05-3.21,2.5-3.85.76-.34,1.7-.38,2.26-.99.57-.61.54-1.55.73-2.36.61-2.69,3.9-4.11,6.59-3.49,2.69.62,4.79,2.73,6.38,4.99,3.94,5.62,5.55,12.79,4.57,19.58-.33,2.3-.95,4.69-.23,6.91.3.91.81,1.75,1.06,2.67,1.07,3.9-2.9,1.49-4.49.47-2.06-1.31-3.88-3-5.32-4.97Z"/>
        <path class="cls-1" d="M75.71,52.85c-.33-3.09-.09-6.21.14-9.31.12-1.6.25-3.22.76-4.75.69-2.06,2.07-3.84,3.71-5.26,1.33-1.15,2.87-2.1,4.59-2.48,1.71-.38,3.61-.14,5.04.88,1.71,1.24,2.51,3.38,3.98,4.89.74.77,1.65,1.36,2.33,2.19.7.85,1.13,1.89,1.43,2.96,1.29,4.64.01,10.1-3.73,13.13-3.25,2.63-7.75,3.17-11.22,5.52-.64.43-1.26.93-1.99,1.15-3.57,1.06-4.79-6.68-5.03-8.92Z"/>
      </g>
      <path class="cls-2" d="M75.2,62c-1.29-1.42-2.96-2.47-4.8-3.02-.47-.14-1.23.03-1.07.49.05.15.19.24.32.32,1.13.72,2.35,1.3,3.62,1.72-1.61-.39-3.03-1.29-4.52-2-1.49-.71-3.19-1.24-4.79-.8-.22.48.44.88.95,1,1.99.47,3.97.95,5.96,1.42-1.6.72-3.41,1.69-3.7,3.42,1.31-.6,2.46-1.55,3.28-2.73-2.1-.4-4.25-.53-6.38-.39-.94.06-2.09.37-2.26,1.29,2.08.43,4.28.21,6.24-.61-2.12.78-4.2,1.69-6.22,2.72-.96.49-2.02,1.17-2.1,2.24.53.34,1.2-.13,1.66-.57,1.14-1.1,2.28-2.21,3.42-3.31-2.67-.23-5.36-.06-7.98.5-.54.11-1.22.56-.94,1.03,2.4.3,4.89-.21,6.97-1.43"/>
    </g>
    <g>
      <g>
        <path class="cls-1" d="M130.79,70.8c1.21.54,2.5.97,3.82.87,1.32-.1,2.65-.84,3.14-2.06.19-.47.25-1,.53-1.42.36-.55,1.02-.81,1.54-1.22,1.28-1.01,1.59-2.89,1.15-4.45-.44-1.57-1.48-2.88-2.55-4.11-.47-.54-.97-1.1-1.17-1.79-.16-.57-.1-1.18-.18-1.77-.2-1.47-1.38-2.75-2.82-3.08-2.33-.54-4.48,1.2-6.58,2.33-3.89,2.11-8.48,2.3-12.81,3.19-.59.12-1.2.27-1.65.67-1.76,1.58,1.6,2.39,2.57,2.9,1.75.93,3.38,2.08,4.97,3.25,3.23,2.39,6.35,5.03,10.05,6.68Z"/>
        <path class="cls-1" d="M110.18,62.34c-.13,1.37-.27,2.73-.4,4.1-.31,3.2-.42,6.94,2.04,9.02.62.53,1.36.89,2.04,1.35,1.29.86,2.35,2.05,3.71,2.8,2.98,1.63,7.14.54,8.94-2.34,1.94-3.1,1.01-7.32-1.23-10.21s-5.53-4.72-8.73-6.49c-1.15-.63-2.84-2.07-4.21-1.82-1.67.3-2.03,2.21-2.16,3.59Z"/>
        <path class="cls-1" d="M107.97,50.27c-1.51-3.51-3.34-7.27-6.83-8.93-.95-.45-2.05-.72-3.06-.43-1.44.41-2.34,1.85-2.69,3.29-.35,1.43-.3,2.93-.57,4.38-.48,2.51-1.91,4.73-2.73,7.15s-.87,5.42,1.03,7.16c.83.76,1.95,1.19,2.7,2.02.89.98,1.18,2.4,2.12,3.33,1.48,1.48,3.93,1.23,6,.88,4.67-.79,7.78-3,8.66-7.81.32-1.75-.22-2.99-1.15-4.46-1.34-2.14-2.48-4.26-3.48-6.58Z"/>
        <path class="cls-1" d="M113.29,53.68c.9-2.79,3.05-4.95,4.81-7.29,1.76-2.34,3.23-5.28,2.47-8.11-.33-1.21-1.18-2.38-2.41-2.63-.47-.09-.95-.05-1.42-.12-2.11-.34-3.07-2.8-4.76-4.12-2.29-1.8-5.57-1.28-8.41-.66-1.2.26-2.41.52-3.5,1.09-3.31,1.72-4.65,6.39-2.77,9.6,1.34,2.29,3.84,3.59,5.81,5.37,2.79,2.51,4.51,5.97,6.39,9.23.43.74,1.79,3.29,2.88,2.59.74-.47.6-4.03.9-4.94Z"/>
        <path class="cls-1" d="M115.84,46.27c.56-1.9.75-3.88,1.17-5.82.42-1.93,1.1-3.88,2.45-5.32,1.35-1.44,3.5-2.27,5.37-1.62,1.23.43,2.16,1.4,3.08,2.32,2.01,2,4.19,3.89,5.67,6.32,1.48,2.42,2.15,5.55.91,8.11-1.15,2.37-3.66,3.75-6.07,4.81-2.59,1.15-5.31,2.13-8.13,2.36-1.72.14-3.44.05-5.13.39-1.65.33-2.58.65-2.64-1.4-.11-3.51,2.35-6.87,3.31-10.13Z"/>
      </g>
      <path class="cls-2" d="M114.39,56.71c-.03-1.4.11-2.8.4-4.16.12-.54.4-1.2.95-1.2.19,1.56-.08,3.18-.79,4.59,1.16-1.4,2.9-2.31,4.71-2.44.18-.01.38-.02.53.08.25.17.27.56.1.81s-.45.4-.73.51c-1.05.43-2.2.63-3.34.57.65-2.18,1.6-4.26,2.83-6.18.27-.42.77-.87,1.18-.59-.16,1.41-.76,2.76-1.7,3.82.99-1.05,2.32-1.77,3.75-2.03.33-.06.79,0,.83.33.04.28-.28.47-.55.57-.98.36-1.99.64-3.01.83,1.43-2.19,4.02-3.58,6.64-3.56-.78.66-1.88.92-2.87.68.72-1.21,1.14-2.61,1.21-4.02.01-.27-.05-.61-.32-.65-.24-.03-.41.24-.49.47-.47,1.33-.68,2.75-.62,4.16,1.1-1.56,2.68-2.77,4.47-3.43-.21,1.1-1.49,1.87-2.56,1.53,1.2-1.41,2.07-3.1,2.53-4.9.09-.34.05-.84-.3-.85-.23,0-.38.23-.48.44-.48,1.02-.92,2.06-1.32,3.12"/>
    </g>
  </g>
  <g>
    <path class="cls-2" d="M78,76.72c.15,2.3.33,4.67,1.42,6.71.54,1.01,1.28,1.89,2,2.77,2.36,2.87,4.64,5.91,5.79,9.45,1.14,3.54.97,7.69-1.29,10.64-.94,1.23-2.18,2.18-3.27,3.28-1.62,1.62-2.91,3.57-3.79,5.69-5.56-4.8-8.42-12.54-7.32-19.8.22-1.44.59-2.87,1.21-4.2.68-1.44,1.64-2.72,2.6-3.99,1.11-1.47,2.28-3,3.93-3.82,1.57,9.35-2.75,19-.9,28.31"/>
    <path class="cls-2" d="M109.59,66.32c-1.62.99-3.03,2.31-4.14,3.84-.58.81-1.09,1.69-1.84,2.34-.89.77-2.03,1.16-3.08,1.7-2.34,1.21-4.24,3.26-5.26,5.69-1.45,3.47-1.1,7.43-.3,11.11.8,3.68,2.02,7.29,2.24,11.05,2.99-3.06,5.89-6.2,8.68-9.44,1.3-1.51,2.6-3.07,3.45-4.88,1.34-2.87,1.42-6.3.21-9.23-.98-2.39-3.18-4.72-3.17-7.3-1.29.02-2.04,1.42-2.48,2.63-2.84,7.67-4.4,15.83-5.39,23.95"/>
    <g>
      <path class="cls-2" d="M127.3,70.57c2.74,3.41,7.34,4.75,10.49,7.79,2.23,2.15,3.61,5.03,5.44,7.54,1.83,2.51,4.47,4.79,7.57,4.81,1.74,0,3.39-.71,5.07-1.17,2.28-.63,4.69-.79,7.03-.48-4.41-3.4-5.38-10.08-10-13.18-2.2-1.48-4.97-1.92-7.61-1.73-2.65.18-5.52,1.32-8.06,2.08.72,2.33,3.37,3.34,5.67,4.15,5.58,1.98,11.24,4.23,16.21,7.44"/>
      <path class="cls-2" d="M129.49,72.64c.63.94,1.27,1.93,1.41,3.05.13,1.09-.23,2.17-.67,3.18-1.34,3.1-3.41,6.01-3.68,9.38-.13,1.65.19,3.34.94,4.82.51,1.03,1.22,1.95,1.82,2.92,1.23,1.99,2.06,4.2,2.84,6.41.82-2.75,1.63-5.5,2.45-8.24.55-1.84,1.1-3.71,1.18-5.63.17-4-1.69-7.77-3.51-11.34-.16-.31-.44-.67-.76-.54-.75,6.74.43,13.53,1.6,20.2"/>
    </g>
    <path class="cls-2" d="M141.25,53.51c2.59-1.11,5.7-1.15,7.85-2.97,1.47-1.25,2.23-3.14,2.74-5,.51-1.86.82-3.79,1.65-5.54-1.54,1.02-3.08,2.05-4.62,3.07-.84.56-1.69,1.12-2.43,1.8-1.85,1.69-2.99,3.99-4.23,6.17-1.24,2.18-2.72,4.36-4.94,5.52,2.04-.44,4.47-.8,6.52-1.25,2.37-.51,4.83-1.03,7.2-.5,2.46.54,4.61,2.17,7.1,2.57,1.31.21,2.67.06,3.9-.43,4.2-1.66,6.28-6.8,10.53-8.31-2.66-.91-5.4-1.6-8.17-2.08-1.48-.26-3-.45-4.49-.28-1.5.17-2.99.72-4.06,1.78-.67.67-1.14,1.51-1.68,2.28-.99,1.42-2.23,2.66-3.65,3.65,1.15.6,2.52.05,3.73-.41,5.22-1.97,11.03-2.13,16.09-4.46"/>
    <g>
      <path class="cls-2" d="M99.47,32c-1.11-3.42-3.12-6.69-6.21-8.52-2.46-1.46-5.44-1.9-7.83-3.47,1.47,2.13,2.33,4.83,4.52,6.22,1.29.82,2.86,1.04,4.36,1.35,1.5.31,3.06.78,4.08,1.92"/>
      <path class="cls-2" d="M100.8,31.57c.84-3.33,3.57-5.83,5.1-8.91,1.22-2.45,1.66-5.3,1.22-8-.44-2.71-1.74-5.27-3.67-7.21-.79-.8-1.74-1.59-1.93-2.7-.02,1.03-.23,2.06-.63,3.02-.53,1.27-1.37,2.39-2.1,3.57-2.2,3.58-3.3,8.07-1.9,12.03.87,2.47,2.62,4.53,3.71,6.91,2.28-7.3,3.2-15.69,1.53-23.15"/>
    </g>
    <path class="cls-2" d="M39.08,50.74c-2.57-1.56-3.92-1.84-6.5-3.4-2.89-1.75-5.81-3.52-8.22-5.88-2.41-2.36-4.3-5.41-4.64-8.77-.14-1.42,0-2.85.04-4.28.1-2.72-.12-5.44-.64-8.11,1.85.93,3.7,1.85,5.55,2.78,2.55,1.28,5.17,2.61,7.05,4.75,1.87,2.12,2.87,4.92,3.07,7.74.14,2.04-.11,4.09-.08,6.13.03,2.04.39,4.17,1.61,5.82-1.1.06-2.02-.77-2.76-1.58-6.1-6.63-9.68-15.14-13-23.51"/>
    <path class="cls-2" d="M40.41,49.4c-.11-7.08-1.34-14.14-3.63-20.84,1.42,1.65,2.92,3.22,4.51,4.7.98.92,2.03,1.85,2.55,3.09.51,1.22.45,2.61.17,3.91-.09.39-.19.81-.07,1.19.09.28.29.51.42.77.52,1.02-.11,2.27-.91,3.09-.8.82-1.81,1.5-2.29,2.54"/>
    <path class="cls-2" d="M42.39,60.27c-1.19-1.38-2.4-2.76-3.82-3.9-1.43-1.13-3.1-2.02-4.9-2.28-2.39-.35-4.8.41-7.01,1.39-2.21.97-4.34,2.17-6.68,2.77-2.28.59-4.67.58-7.02.44,3.17.65,5.42,3.34,7.8,5.53,3.52,3.24,8.01,5.71,12.79,5.71.88,0,1.77-.09,2.59-.41,1.68-.65,2.85-2.17,3.92-3.62.91-1.23,1.82-2.46,2.74-3.69.11-.15.23-.32.23-.51-.01-.41-.53-.56-.94-.6-6.12-.55-12.31-.06-18.42-.74-1.07-.12-2.13-.27-3.19-.43-.59-.09-1.18-.17-1.77-.26"/>
    <path class="cls-2" d="M51.16,72.43c-3.93.15-8.12.39-11.31,2.7-2.42,1.75-3.93,4.49-5.09,7.24-1.16,2.75-2.06,5.64-3.62,8.19,3.5-1.84,7.61-2.21,11.14-4,5.02-2.55,8.39-8.05,8.38-13.68-1.47.39-4.55,2.83-5.68,3.85-3.97,3.58-7.05,6.39-10.9,11.7"/>
  </g>
  <g>
    <g>
      <path class="cls-2" d="M134.89,49.36c6.14-6.04,9.82-11.56,12.28-19.82"/>
      <g>
        <path class="cls-2" d="M137.73,46.37c1.13-1.13,1-3.38.42-4.87s-1.48-2.92-1.5-4.52c0-.34.12-.76.45-.79.29-.03.49.27.62.53.82,1.74,1.2,3.69,1.09,5.61,1.3-3.16,2.16-6.49,2.56-9.88.13-1.09.05-2.45-.94-2.9-.49,1.78-.44,3.71.15,5.47"/>
        <path class="cls-2" d="M142.16,40.78c2.58-2.36,6.58-2.77,8.97-5.33.21-.23.42-.54.28-.82-.27-.22-.67-.22-.99-.1-.33.12-.6.36-.85.6-.83.77-1.58,1.62-2.24,2.53"/>
        <path class="cls-2" d="M135.37,49c1.16-.35,2.77-.56,3.98-.63.5-.03,1.01-.03,1.5-.16.49-.13.96-.4,1.2-.84.15-.27.16-.69-.12-.82-.14-.06-.29-.03-.44,0-1.11.27-2.14.82-2.99,1.58"/>
        <path class="cls-2" d="M149.29,24.79c0-.32-.11-.75-.43-.76-.2,0-.36.17-.48.33-.93,1.28-1.44,2.87-1.42,4.46.02,1.65,1.15.03,1.45-.54.56-1.07.87-2.27.88-3.49Z"/>
      </g>
    </g>
    <g>
      <path class="cls-2" d="M46.02,70.08c-5.1,2.45-10.86,3.41-16.51,3.18-5.66-.23-11.23-1.62-16.51-3.67"/>
      <path class="cls-2" d="M33.83,73.14c-.97,1.02-1.93,2.04-2.9,3.05-.75.79-1.51,1.59-2.44,2.14-.22.13-.54.23-.71.04-.08-.09-.1-.22-.1-.34,0-1.23,1.21-2.06,2.29-2.65.8-.44,1.61-.88,2.41-1.33-3.36,1.55-6.73,3.11-10.26,4.21-.39.12-.81.24-1.19.11-.38-.13-.67-.62-.44-.96,1.38-.7,3-.78,5.09-.7"/>
      <path class="cls-2" d="M26.79,73.04c-1.22-.44-2.37-1.08-3.4-1.87-1.07-.83-2.15-1.88-3.51-1.9-.17.34-.06.77.18,1.06.24.29.59.48.94.63,1.03.47,2.13.8,3.25.97"/>
      <path class="cls-2" d="M24.29,72.72c-1.89-.12-4.28.31-6.05,1.01-.91.36-1.82.83-2.8.89-.44.03-.97-.1-1.11-.51-.12-.36.13-.76.47-.93.34-.17.73-.17,1.11-.16,1.04.02,2.08.03,3.11.05"/>
      <path class="cls-2" d="M9.08,67.21c-.47-.07-1.06-.01-1.26.42-.14.3-.01.67.22.9.23.23.55.36.87.46.7.23,1.41.4,2.14.49.56.08,1.74.42,2.15-.07-.8-1.12-2.78-2.01-4.12-2.2Z"/>
    </g>
  </g>
</svg>