<?xml version="1.0" encoding="UTF-8"?>
<svg id="Layer_1" data-name="Layer 1" xmlns="http://www.w3.org/2000/svg" viewBox="0 0 400 400">
  <defs>
    <style>
      .cls-1 {
        fill: #292929;
        fill-rule: evenodd;
        stroke: #292929;
        stroke-miterlimit: 10;
        stroke-width: 2px;
      }
    </style>
  </defs>
  <path class="cls-1" d="M380.51,228.73c1.26.24,2.18-.7,1.96-1.88-1.75-9.51-8.7-19.94-18.55-23.55,1.41-1.3,2.65-2.69,3.58-3.85,4.06-5.08,6.82-10.93,6.51-17.43-.04-.9-1-1.84-2.01-1.47-1.92.7-3.73,1.77-5.42,3.06,5.33-9.75,8.15-21.72,4.39-31.82-.21-.57-.72-1.03-1.39-1.01-5.53.18-9.52,11.04-11.14,15.08-.43,1.08-.78,2.18-1.09,3.29-.58-.48-1.2-.93-1.84-1.34,1.67-4.48,0-8.28-2.97-11.23.39.02.79-.16.88-.59,1.59-7.63-1.47-15.2-9.23-18.25-7.85-3.08-33.34-5.76-25.36-18.39.14-.22.19-.43.2-.64,3.94.81,7.89,1.58,11.73,2.82,7.58,2.45,9.84,6.61,11.3,13.71.22,1.06,1.86.97,2.14,0,1-3.44.77-6.15-.29-8.36,5.89,2.85,12.52,4.39,18.12,4.13.9-.04,1.87-.93,1.48-1.86-3.32-7.96-10.17-19.11-18.93-22.99,6.15-2.9,11.78-6.61,15.87-12.1.35-.46.25-1.33-.23-1.7-4.94-3.72-10.81-2.52-16.08.76.41-3.94-.1-8.01-1.11-10.93-1.82-5.26-5.66-8.16-10.19-8.76,3.71-9.86-2.46-21.9-5.43-31.99-.39-1.31-2.13-1.14-2.59,0-4.25,10.59-7.26,22.64.21,32.61.12.16.26.28.41.36-.61.23-1.23.42-1.84.72-1.44.7-.18,2.68,1.25,2.05.97-.43,1.91-.74,2.82-.95-.71,1.29-1.5,2.6-2.43,3.96,0,.01,0,.02,0,.03-.14.04-.29.06-.43.11-.73.25-.98.88-.9,1.46-.42-.37-.87-.73-1.35-1.05.88-1.96.4-4.7-.22-6.63-.41-1.28-1.19-2.35-2.13-3.29-3.75-7.2-16.59-10.89-23.7-7.47,2.21-9.15,2.3-19.69-.24-28.26-.26-.86-1.64-1.39-2.29-.58-7.04,8.65-6.31,20.25-1.13,29.62.13.24.31.38.5.49-.03.45-.04.89-.06,1.34-.45.61-.85,1.29-1.12,2.06-.07-.02-.15-.04-.22-.06-.21-12.26-12.87-18.81-23.98-23.13-1-.39-1.98.57-2.01,1.47-.38,11.6,11.43,20.5,22.68,23.69.11.95.23,1.9.37,2.87.18,1.2,2.18,1.11,2.43,0,.13-.55.18-1.08.26-1.61,0,.43-.05.83,0,1.29.16,1.65,2.84,1.68,2.72,0-.05-.61.03-1.12.08-1.64.79-.38,1.08-1.39.47-1.96,1.63-3.94,6.74-4.74,11.56-3.73,2.9.61,5.04,1.78,6.84,3.3-1.59.18-3.17.65-4.54,1.29-2.97,1.37-5.86,4.06-6.24,7.33-.46,3.97,3.23,6.25,6.69,7.33-.07,1.32.08,2.66.28,3.85.31,1.83,3.19,1.04,2.89-.76-.62-3.75.48-7.25,5.05-5.98.41.12,1.12.39,1.87.76,0,0-.02,0-.03.02-1.85,1.52-7.53,7-2.25,8.35.79.2,1.68.2,2.57.04-.02,1.32-.06,2.61.23,3.93.42,1.89,3.43,1.09,3.02-.8-.29-1.35.04-2.88-.09-4.29,1.09-.65,2.02-1.48,2.55-2.41.9-1.54.55-3-.42-4.27.18.02.37,0,.58-.05,5.03-1.39,8.37.85,8.04,5.92-.13,2.07-1.15,4.03-2.34,5.71-1.51,2.1-4.08,2.83-5.75,4.62-.41.44-.31,1.3.39,1.43,6.59,1.15,10.93-7.92,10.92-12.93,0-5.14-3.66-7.9-8.09-7.9,1.18-1.16,2.11-2.38,2.87-3.65,4.37.51,7.63,3.76,9.07,8.89.89,3.18.68,6.63-.04,9.82-.11.48-.31.88-.47,1.32-3.54,3.06-6.52,6.82-8.37,10.23-.83.39-1.66.82-2.51,1.39-.12.08-.19.17-.27.27-2.47-1.78-5.55-2.75-8.96-3.28.11-.11.19-.26.2-.46.48-8.55-5.45-12.75-13.78-13.64-11.68-1.25-25.86,4.43-34.43-5.13.11-.02.21-.02.32-.04,13.1-1.8,22.83-4.59,34.41,3.29.8.55,1.71-.49,1.28-1.23-3.71-6.32-10.65-7.65-17.69-7.51.03-.16.09-.31.03-.47-4.02-10.55-11.09-11.47-19.12-9.47-.02-.03,0-.06-.04-.08-2.92-3.47-8.02-4.58-12.75-4.47-2.87-2.16-7.15-2.99-10.55-3.75-4.95-1.11-9.91-.89-14.73.57-.9.28-1.08,1.13-.78,1.75-1.27.38-2.52.85-3.75,1.46.09-.26.08-.54-.2-.75-4.36-3.5-12.1-3.16-17.52-1.66-15.63.4-22.2,22.4-38.47,23.48.43-.5.88-.97,1.3-1.48,3.02-3.7,5.9-7.48,9.2-10.96,5.09-5.37,10.94-7.21,17.72-9.84.88-.34.76-1.53-.23-1.6-5.52-.4-10.09,1.23-14.15,3.97.29-.6-.09-1.4-.97-1.51-7.47-.95-15.36,4.59-20.68,9.01-2.86,2.38-5.46,5.22-7.6,8.33.45-4.33.46-8.83.33-13.57-.03-1.13-1.42-1.67-2.28-.9-5.18,4.62-12.31,13.93-14.16,22.62-2.08-7.6-5.2-15.17-11.3-19.96-.8-.63-2.05-.46-2.35.59-2.95,10.19.64,20.44,7.53,28.23-.12-.04-.23-.1-.35-.14-5.47-1.86-11.27-.74-15.77,2.02,4.9-5.09,6.61-13.39,6.72-19.8.02-.75-.69-1.48-1.5-1.44-10.42.58-13.67,13.62-11.77,21.7.17.71.73.99,1.31.97-.56.93.67,1.93,1.61,1.43.1-.05.18-.13.28-.19-1.24,1.22-2.33,2.57-3.1,4.04-.11-8.78-2.59-17.97-2.9-26.52-.04-1.17-1.62-1.96-2.52-1-7.98,8.49-7.22,21.68,1.97,29.06,0,0,0,0,0,0,.1.84.22,1.68.35,2.52-5.7-7.25-12.81-13.52-23.01-13.11-1.02.04-1.83.95-1.53,1.93.13.44.35.82.51,1.25-.59.57-.82,1.5-.08,2.11.53.42,1.08.89,1.62,1.34,1.37,2.42,3.11,4.58,5.17,6.45-.9-.33-1.82-.59-2.78-.69-2.93-.32-6.43.71-8.55,2.85,2.87-13.57.3-27.07-5.39-39.76-.19-.42-.8-.71-1.27-.69-.32.02-.63.02-.95.02-.63,0-1.24.42-1.4,1.02-2.96,11.07-3.75,22.03.51,32.02-2.22-2.12-4.61-4.11-6.92-6.06-4.02-3.4-8.43-6.32-13.54-7.95-1.17-.37-1.95.75-1.8,1.72,1.41,9.27,11.62,14.37,19.93,17.21.06.02.11,0,.17.02-1.62.08-3.24.42-4.68.94-4.46,1.6-8.59,4.84-10.68,8.98-.54,1.07-.88,2.36-1,3.67-4.84-7.16-13.25-10.37-20.15-15.94-1.02-.82-2.55-.3-2.61,1.03-.5,10.99,10.44,17.14,19.76,21.17-4.42-.5-8.73,1.63-11.34,6.9-2.55,5.16-1.31,9.75,2.06,12.66-1.86,1.65-2.95,4.5-2.84,7.94.17,5.22,3.32,9.69,7.68,11.78-8.53-2.99-19.68-3.3-27.45-.39-1.25.47-1.65,2.05-.38,2.79,9.05,5.26,21.66,5.77,31.39,1.47.17,0,.34.04.51.03-9.33,8.59-15.19,20.99-14.74,33.37.05,1.34,1.69,2.01,2.72,1.08,10.52-9.48,17.84-19.86,18.96-33.18.36-.51.72-1.03,1.09-1.55,1.29,3.61,4.1,6.63,7.81,8.41,1.36.65,2.93,1,4.53,1.09-8.26,5.5-13.63,13.96-16.16,23.75-.2.79.25,1.69,1.12,1.88,11.37,2.53,19.2-7.53,23.43-17.54,0,0,0,.01,0,.02.02,1.31.22,2.64.51,3.97-.41,0-.81.16-1.02.59-4.07,8.59-5.94,17.43-5.19,26.87.13,1.63,2.68,2.15,3.12.4.92-3.68,2.36-7.56,3.55-11.47,1.17,2.78,3.11,5.3,5.53,7.41-.38.26-.62.7-.5,1.27.91,4.15,2.36,7.99,4.09,11.73-.07.09-.14.19-.18.32-3.18,9.98-1.96,19.83,1.3,29.34-.42-.06-.9.08-1.1.57-3.38,8.09-2.78,14.93.41,22.63-.25.08-.46.24-.59.52-3.57,7.87-3.39,14.85.35,22.53-3.12,8.14-2.72,15.46,1.22,23.49,0,.02.02.04.03.05-.65,8.7-3.58,19.45.03,27.69-10.57.82-21.17,1.62-31.4-.04-1.45-.23-2.08,1.74-.61,2.14,24.72,6.82,50.35-3.09,75.58,3.62,1.24.34,2.13-1.51.9-2.04-9.46-4.09-19.44-4.86-29.61-4.57.08-1.17.08-2.33-.05-3.47,2.11-5.55,2.15-11.99.63-17.95.37-1.82.33-3.62.01-5.38,1-3.98,1.19-8.14.66-12.22.21-.16.37-.37.39-.67.2-3.06-.21-5.92-.95-8.69,2.38-6.2,1.35-13.26-.27-19.87.11-.17.17-.38.12-.62-1.2-5.48-3.23-10.43-5.45-15.2.3-.01.59-.11.73-.41,3.66-8.29,2.77-15.97.13-23.45,3.35-7.41,2.2-16.78.2-24.36-.05-.2-.15-.35-.25-.48,4.95.28,9.95-.97,14.12-4.28.03.5.05,1.01.07,1.52-5.8,6.87-8.93,15.41-8.13,24.36.11,1.27,1.62,2.01,2.65,1.05,4.04-3.75,6.18-8.29,7.18-13.16,1.54,6.14,4.74,11.69,10.77,15.2.77.45,1.63.11,2.12-.54,4.57-6.08,4.01-12.9.88-18.94,3.21,1.55,6.88,2.18,10.48,1.56.84-.14,1.33-1.12,1.1-1.86-1.61-5.32-6.6-9.97-12.32-11.17,7.82-2.19,12.29-9.93,9.97-17.65-.35-1.18-2.07-.88-2.15.28-.49,7.15-1.89,13.99-10.62,15.07-1.16.14-2.3.12-3.42-.02-.22-.73-1.1-.74-1.6-.29-.75-.18-1.49-.39-2.21-.68,0,0,0,0,0,0,.64-1-.8-1.99-1.65-1.22-.1.1-.21.18-.32.28-1.93-1.08-3.63-2.52-5.06-4.19,4.64-1.37,7.37-5.51,7.92-9.81,5.52-1.48,9.43-5.51,7.79-11.85-.25-.97-.66-1.81-1.17-2.57-.12-1.44-.46-2.73-.99-3.88,1.02-.92,1.72-2.14,2.21-3.47,3.22,1.91,5.84,4.79,7.81,7.82,1.17,1.8,2.02,3.74,2.01,5.88,0,1.27-.74,2.08-1.69,2.74-.42-1.54-1-3.04-1.6-4.35-.55-1.22-2.68-.34-2.24.9.63,1.78.98,3.43,1.15,5.06-.2.13-.39.25-.56.4-.46.38-.22,1.2.37,1.32.11.02.19,0,.29.03,0,1.72-.2,3.47-.73,5.37-.14.5.49,1.09,1,.74,2.27-1.62,2.95-3.9,2.85-6.3,5.23-.69,7.5-5.86,6.79-10.6-.86-5.73-5.96-11.19-11.3-13.55-1.3-.58-2.45,1.22-1.14,1.87,4.19,2.06,7.19,5.76,8.92,9.91.81,1.95.93,3.51.6,4.87-.06-.82-.18-1.63-.45-2.37-1.77-5-6.47-9.61-11.54-11.89.18-1.21.24-2.47.05-3.78-.61-4.13-3.19-8.48-6.63-11.74.56.29,1.05.64,1.67.88,3.97,1.58,8.36.78,11.61-1.79.88-.7,1.69-1.65,2.42-2.75.29,11.49,3.42,24.91,13.92,29.88,1.11.52,2.26-.12,2.35-1.3.93-11.95,1.69-25.95-7.13-35.34,1.8.34,3.8.28,5.99-.31,3.53-.96,6.68-3.42,8.13-6.66,1.44-3.21,1.04-8.03-1.74-10.55,2.71-2.17,4.14-5.6,4.46-9.16,1.54,1.22,2.72,2.76,2.79,4.82.09,2.72-3.41,4.41-5.26,5.91-.76.62.08,1.6.88,1.45,3.8-.67,7.01-3.57,7.2-7.36.16-3.2-2.8-5.56-5.57-7.06-.05-1.16-.2-2.3-.48-3.4-1.56-6.04-6.24-10.99-12.05-13.38,6.65-2.82,12.78-6.56,18.33-11.15.98-.81.2-2.49-1.06-2.43-1.12.06-2.22.23-3.33.38,1.47-1.24,2.87-2.6,4.22-4.03.02,0,.04.01.06.02.92.11,1.8.15,2.67.15-.08.2-.11.42-.04.68,11.64,41.27,30.19,81.71,58.07,115.33,20.19,24.34,53.82,50.35,88.3,51.44.95,5.35,5.43,9.85,10.81,11.45-19.61,24.56-39.79,51.21-46.53,81.77-.29,1.31,1.61,1.8,2.08.54,10.7-28.42,25.97-51.7,43.4-75.82-6.25,15.69-12.19,32.25-15.37,48.1-.29,1.45,1.93,2.07,2.33.61,5.3-19.09,16.98-38.49,19.9-58.17.29-.4.58-.8.88-1.2.18-.25.23-.49.22-.71.89-.28,1.74-.67,2.45-1.26-1.55,3.95-2.19,7.96.14,11.96.71,1.22,1.53,2.31,2.37,3.35,2.87,7.81-2.16,15.54,1.3,23.05-5.29,8.25-12.25,17.6-4.36,26.13-1.74,2.89-2.5,5.92,1.64,7.54.38.15.72.26,1.08.38-2.26,6.66-5,19.86.93,25.49-20.54-2.19-40.8-6.91-61.72-5.78-28.99,1.57-57.52,15.66-86.24,3.99-1.56-.64-2.95,1.52-1.35,2.22,23.2,10.22,49.95,3.22,73.84-1.14,34.71-6.34,67.76,9.52,101.97,3.92,1.43-.23,1.1-2.52-.34-2.42-7.43.51-14.77.25-22.06-.39-2.38-4-4.14-6.98-4.39-11.83-.23-4.45.71-9.02,1.96-13.31,2.47.66,4.41,1.23,6.69,4.29,4.78,6.43.46,12.37-2.06,18.6-.37.91,1.04,1.65,1.69.94,5.67-6.13,7.58-13.86,3.05-21.04-1.44-2.28-3.43-4.47-6.16-5.29-4.1-1.24-7.34-1.22-6.33-4.67,2.31.88,5.41.65,7.54.58,2.22-.08,4.43-.22,6.64.09,4.02.58,3.61,4.35,3.21,7.51-.27-.91-.58-1.78-.9-2.59-.54-1.34-2.76-.82-2.29.61,1.18,3.62,1.72,7.21,1.54,11-.19,4.02-2.25,7.27-3.18,11.07-.22.88.87,1.49,1.57.87,4.84-4.28,5.34-11.5,4.08-17.8.34,0,.69-.09.87-.43,3-5.58,2.19-12.84-5.52-13.4-3.86-.28-8.54.83-12.25-.48.2-.94-1.07-1.57-1.83-.88-6.48-4.29.62-15.13,4.73-21.57.59.4,1.22.75,1.77,1.07,7.71,4.34,5.56,11.15,3.62,18.2-.32,1.16,1.33,1.79,1.98.8,3.12-4.69,5.38-12.86,1.44-17.82.07-.05.15-.04.22-.12,2.02-2.25,2.49-5.32,2.27-8.32.79-2.18.73-4.34.07-6.45,5.82-6.34,8.38-15.35,2.46-22.45-.8-.96-2.9-2.05-3.97-2.65-7.73-4.36-7.04-10.51-5.79-17.51.69-3.85.53-6.98-.51-10,6.75,6.51,6.23,13.96,8.52,22.63.29,1.07,1.92.8,1.96-.26.26-6.57-.08-11.08-1.45-14.87.28.33.56.65.84.98,2.28,11.89,7.15,24.44,17.7,31.51.71.48,1.81.14,2.21-.55,7.15-12.21-3.74-27.15-15.49-34.25,1.33-.86,2.59-2.11,3.58-2.91,2.37-1.91,4.7-3.88,6.9-5.98.95-.91.27-2.61-1.11-2.57-3.42.1-7.26.81-10.51,1.9,1.89-5.55,2.02-11.14.71-16.84,4.01,6.2,10.24,11,17.88,12.49ZM284.74,60.6c-.32-.45-.64-.9-.97-1.34-.93-1.28-3.1-.11-2.21,1.24,1.07,1.61,2.16,3.2,3.24,4.81-7.55-3.48-14.54-9.06-15.54-16.7,4.92,1.91,9.82,4.02,13.78,7.45,1.71,1.48,2.83,3.11,3.61,4.84-.5-.7-1.33-.69-1.91-.29ZM293.76,59.72c-2.62-6.71-3.11-14.46.46-20.78,1.1,6.98.23,13.84-.46,20.78ZM317.44,78.5c-2.27-.5-4.63-.06-6.33,1.5-.6.56-1.02,1.21-1.31,1.93-1.98-.89-4.51-2.39-4.15-4.62.37-2.23,2.54-3.85,4.48-4.85,1.86-.95,4.28-1.43,6.31-.67,1.07,1.38,2.08,2.87,3.14,4.44.12,1.02.14,2.09.3,3.09-.9-.38-1.76-.67-2.45-.82ZM329.04,73.48c-.56.08-1.11.2-1.68.34.11-.29.1-.62-.14-.97-5.16-7.58-5.09-18.54-1.54-27.09,1.07,4.02,2.57,7.94,3.85,11.9,1.96,6.09,1.59,10.93-.49,15.82ZM106.54,85.92c.21,4.03.68,8.05,1.17,12.07.3,2.44.48,4.91.69,7.38-4.55-5.61-5.37-13.24-1.86-19.45ZM53.55,96.78c5.92,2.8,10.24,7.54,15.02,11.68-5.95-2.51-12.4-5.96-15.02-11.68ZM34.11,113.7c3.37,2.31,7.02,4.35,10.29,6.75-.33.33-.5.8-.32,1.34.55,1.67,1.36,3.37,2.38,4.94-5.73-3.06-11.11-7.13-12.35-13.02ZM23.35,172.42c4.88-1.06,9.69-.73,14.82.2,1.71.31,3.42.81,5.14,1.26-6.59,1.47-13.85,1-19.97-1.47ZM110.41,244.07c.09-1.54.3-3.06.6-4.56.41-.06.81-.26,1.08-.64,1.03-1.46,1.87-2.97,2.58-4.53-.74,3.5-2.06,6.83-4.26,9.72ZM138.74,230.48c-3.49.07-6.82-1.35-9.57-3.42-1.54-1.17-2.62-2.48-3.41-3.94,5.56-.34,10.69,2.49,12.98,7.36ZM119.62,223.47c.1-.16.15-.33.18-.49,7.33,6.42,13.94,15.7,8.47,24.72-7.14-4.97-9.36-13.8-9.83-22.19.39-.68.77-1.36,1.19-2.04ZM129.47,74.34c2.87,2.95,4.92,6.62,6.45,10.6-.89-.4-2.17,0-2.08,1.17,0,.13.05.24.06.37h-.01s.02.05.02.08c.3,2.94,1.37,5.55,2.94,7.97.72,1.79,1.53,3.54,2.41,5.26-6.78-6.71-11.51-16.12-9.79-25.44ZM114.91,100.94c-1.16-5.73.63-15.91,7.44-17.66-.24,3.68-.99,7.22-2.53,10.66-1.19,2.67-3.11,4.77-4.91,7ZM134.49,102.4c4.38,1.82,7.92,5.38,10.31,9.27,2.34,3.81,2.02,6.65.39,9.42-2.52-.74-5.22-.96-7.62-.63-.31.04-.61.14-.92.2-.16-3.52-1.19-7.68-4.22-9.86-2.04-1.47-4.76-1.51-6.91-.23-2.15,1.28-3.33,3.77-2.89,6.16.66,3.58,4.36,5.58,7.6,6.77.13.05.24.05.35.06-.29.29-.5.67-.75,1-.09-.22-.24-.43-.5-.59-4.16-2.5-8.98-4.08-13.77-3.54-6.99-11.14,6.98-23.01,18.94-18.02ZM140.1,128.88c-1.63.41-3.11,1.68-4.19,3.22-.15.09-.3.18-.46.26-.48-.69-1.22-1.32-1.55-2.29-.3-.88-1.34-1.16-2.1-.89-.27-2.12.56-4.05,3.54-5.18,2.45-.92,5.37-1.02,8.05-.39-.42.51-.87,1.02-1.35,1.55-.71.79-.05,2.12,1.1,1.81,1.51-.41,2.72-1.13,3.66-2.06.64.36,1.25.75,1.79,1.22,1.99,1.72,2.46,4.19,2.05,6.64-.41,2.45-2.25,3.68-4.43,4.24,0-.08.07-.13.06-.22-.29-3.35-1.26-9.14-6.18-7.9ZM131.71,122.66c.12-.57-.1-1.26-.81-1.54-2.23-.9-4.83-2.31-5.53-4.71-.4-1.37.33-2.82,1.5-3.63,1.29-.88,2.91-.87,4.14.12,2.46,1.98,2.62,5.7,2.89,8.5,0,.02.01.04.02.06-.79.32-1.52.73-2.2,1.21ZM110.89,121.69c-3.34,1.48-6.05,4.03-7.65,7.17.05-3.32-1-6.83-3.31-10.17-.43-.63-.93-1.24-1.46-1.84,3.87,2.16,8.15,3.74,12.42,4.85ZM66.34,143.29c.95,7.73,10.95,15.14,18.05,8.07,6.79-6.76-4.6-14.56-11.47-14.22-.79.04-1.55.63-1.51,1.45.09,1.74.23,3.59,1.86,4.61,1.18.74,2.33-.87,1.45-1.8-.21-.22-.28-.76-.3-1.33,3.49.31,6.63,2.31,8.49,5.18,2.35,3.62-3.08,5.59-5.85,5.79-2.97.2-5.13-2.07-6.48-4.28-2.53-4.17-1.53-9.19,1.48-12.75,1.11-1.31,2.48-2.08,3.94-2.52.32.05.63.14.94.21.25.42.81.54,1.2.26,2.81.72,5.51,1.88,7.77,3.18,2.18,1.26,4.19,2.97,5.68,4.99.05.17.08.35.12.52-.31.49-.14,1.19.3,1.57.42,3.35-.53,6.8-3.23,9.29-3.86,3.55-10.43,3.18-15.21,2.15-4.72-1.02-9.69-3.35-12.68-7.09-4-5-.21-9.96,4.25-13.11,1.72-1.21,3.66-1.84,5.67-2.1-3.27,2.82-5.08,7.17-4.5,11.91ZM92.41,152.6c3.83-2.82,4.79-7.29,3.06-11.4,2.91-1.64,4.95-3.83,6.23-6.3.01.93.16,1.83.42,2.7-.24.03-.47,0-.71.09-1.78.65-1.14,2.51-.9,3.82.07.37.6.67.97.53.63-.25,1.28-.6,1.48-1.29.03-.1.02-.17.02-.26.02.05.01.06.04.11.33.76.53,1.57.73,2.37.99,3.92.42,8.23-.56,12.09-.33,1.28-.79,2.55-1.32,3.78-3.11,1.54-5.75,3.94-7.71,6.81-2.39-.41-4.64-2.61-6.15-4.4-.16-.19-.36-.28-.57-.33-.02-.2,0-.38-.02-.58,2.42-2.18,4.29-4.9,5-7.74ZM88.99,103.32c-.17-.34-.29-.72-.44-1.08,6.71.53,11.81,4.38,16.01,9.2-5.19-2.71-10.59-5.05-15.56-8.13ZM79.58,118.62c.14,0,.27-.01.41-.1,2.97-1.82,4.45-4.47,8.4-4.35,3.75.11,7.01,3.18,9.04,5.91,5.03,6.77,3.65,14.59-3.07,18.94-1.89-5.49-7-9.99-13.17-10.71-.63-.07-1.23-.04-1.83-.02.75-3.19,1.09-6.6.22-9.66ZM73.7,78.03c.51-2.22-.08.44.81,2.77,1.34,3.49,2.24,7.12,3.05,10.75,1.48,6.63,1.4,13.33.28,19.95-6.7-10.25-6.91-21.53-4.15-33.47ZM54.47,130.93c.06-.02.12-.04.18-.07.62.95,1.47,1.74,2.65,2.23.95.4,1.84-.41,1.4-1.34-1.57-3.24-3.19-5.31-1.36-8.9,1.63-3.22,4.84-5.6,8.15-7.11,2.91-1.33,6.92-1.95,9.52.29,3.19,2.74,2.86,8.22,2.25,12.46-.46.08-.93.13-1.38.25-1.86-.22-3.73-.28-5.58-.07-4.26.47-9.01,3.21-11.76,6.91-1.54-1.41-3.22-2.44-4.93-3.1.63-.28,1.04-.96.88-1.54ZM38.75,204.45c.64-9.25,4.8-18.33,11.31-25.27-3.06,5.44-6.03,10.92-8.7,16.55-.81,1.72,1.72,3.23,2.69,1.51,2.94-5.23,5.87-10.16,9-15.02-2.42,8.45-7.53,15.6-14.3,22.23ZM57.99,206.98c1.9-6.34,5.07-11.99,9.6-16.52-.63,1.21,1.29,2.73,2.7,1.68,2.57-1.92,5.02-3.97,7.49-6-2.9,9.33-9.52,21.75-19.79,20.84ZM79.87,179.77c.2-.37.43-.71.57-1.13.25-.76-.68-1.4-1.37-1.01-1.94,1.11-3.41,2.63-5.63,3.32-2.25.7-4.67.08-6.71-.88-4.19-1.97-6.78-6.32-6.66-10.72.04-1.64-2.53-1.61-2.64,0-.06.82-.02,1.62.07,2.41-.03.02-.05.04-.08.06-.04-.19-.13-.38-.24-.54,0-.34.03-.67.02-1.02-.05-.99-1.06-1.37-1.8-1.11-6.59.23-11.64-.88-13.59-7.79-1.02-3.63-.15-7.24,2.2-8.29,1.47.7,3.18,1.1,4.99,1.29.25,2.19,1.37,4.17,3.81,5.07.71.26,1.48-.53,1.24-1.19-.48-1.34-1.5-2.32-2.04-3.61-.64-1.53-.35-3.07.31-4.54.65-1.45-1.5-2.75-2.27-1.27-.32.61-.55,1.28-.75,1.96-1.84-.94-3.56-1.22-5.06-.96-7.81-5.69,1.74-22.34,12.86-11.88-.41.91-.73,1.84-.84,2.8-.69,5.6,3.69,9.86,8.31,12.57,6.32,3.71,15.82,5.16,22.57,2.3-2.17,2.74-4.46,5.13-8.7,6.22-6.79,1.74-12.63-3.35-15.78-8.47-.82-1.33-2.94-.14-2.16,1.21,3.63,6.21,9.36,10.85,17.15,10.27,2.61-.2,5.25-1.26,7.59-2.83.04,6.19-4.9,9.29-11.74,8.95-2.9-.14-5.82-1.04-8.28-2.52-2.48-1.5-2.27-3.01-2.51-5.43-.09-.96-1.16-1.43-1.94-.77-2.48,2.09-.65,5.66,1.24,7.45,2.78,2.63,7.02,3.64,10.77,4.05,7.85.86,13.64-2.99,14.58-9.34,1.49,1.68,3.26,3.14,5.29,3.78-1.58,3.13-2.44,6.61-2.32,10.07-3.38.7-6.48,2.55-8.61,5.3.09-.38.19-.78.27-1.14.2-.98-.42-1.61-1.21-1.76-.12-.45-.45-.8-.93-.89ZM102.68,181.34c2.94-1.77,6.67-2.72,9.72-2.91,4.6-.29,8.26,1.14,10.62,3.76-.61.39-1.31.75-2.07,1.07-3.53-1.02-7.53-1.09-10.63-.66-1.91.26-3.59.89-5.09,1.74-.75-1.16-1.6-2.17-2.55-3.01ZM104.9,191.94c-.98.76-1.76,1.79-2.14,3.26-.16.61-.19,1.23-.16,1.84-.76-.49-1.47-1.02-2.08-1.63.08-.36.16-.74.25-1.06.64-2.17,1.74-3.89,3.12-5.31.12.73.31,1.51.67,2.41.08.2.2.37.33.5ZM103.05,185.86c-2.05,1.75-3.58,4.02-4.57,6.52-.35-.83-.61-1.71-.7-2.7-.25-2.69.82-4.87,2.58-6.57.99.72,1.89,1.64,2.69,2.74ZM95.89,186.55c-1.31-1.75-2.09-3.69-2.51-5.7,1.76-.02,3.52.38,5.18,1.17-1.24,1.35-2.17,2.87-2.66,4.52ZM94.67,189.24c.23.26.49.36.75.39,0,1.47.24,3,.82,4.51.29.77.72,1.44,1.18,2.08-.66,3.95-.09,8.01,1.74,11.09-3.75,1.99-6.74,2.5-10.56-.87-2.28-2.01-3.85-4.71-4.95-7.54.66-1.17,1.47-2.3,2.46-3.38,1.05-1.16-.68-2.85-1.78-1.7-.62.65-1.18,1.31-1.69,1.97-.11-.41-.25-.83-.34-1.24-1.52-7.05,2.94-12.03,8.41-13.33.58,2.85,1.84,5.61,3.98,8.02ZM87.82,221.85c3.51,2.4,7.7,3.95,12,4.44-.43.23-.74.67-.64,1.26.71,4.27,1.07,8.53,1.07,12.85,0,2.34-.31,4.64-.52,6.95-3.66-8.51-9.02-16.81-11.91-25.5ZM90.59,236.13c1.33,2.62,2.72,5.23,4.17,7.87,5.49,10,6.06,18.33,4.74,29.17-5.6-11.67-11.75-22.44-8.91-37.04ZM92.69,359.95c.08-4.35-.64-8.69-.43-13.09.16-3.36.49-6.7.69-10.04,1.48,2.36,3.06,4.67,4.51,7.02,3.06,5,4.19,10.02,5.27,15.47-3.33.15-6.68.38-10.03.64ZM103.26,348.51c-1.18-2.8-2.71-5.5-4.33-8.1-6.1-9.81-10.18-17.49-7.95-28.3,2.11,3.48,4.67,6.75,6.92,10.11,1.36,2.03,2.36,4.08,3.18,6.16-.66.16-1.21.88-.83,1.67,3,6.29,3.09,12.23,3.01,18.46ZM103.72,326.16c-1.28-2.55-2.87-4.98-4.39-7.24-6.72-10-12.72-18.25-8.65-30.28,3.76,8,8.22,14.93,11.51,22.8,0,.08-.05.13-.02.21,1.51,4.97,1.75,9.69,1.55,14.51ZM102.99,288.7c.46,3.38.88,6.77,1.2,10.16.22,2.29.14,4.58.07,6.87-5.87-13.53-18.65-24.84-13.55-41.51,3.12,8.5,7.77,16.7,12.28,24.48ZM115.98,217.79c-7.46,5.83-15.86,8.06-25.16,3.09-7.43-3.97-10.54-11.17-8.77-18,1.49,2.63,3.43,5,5.72,6.78,3.98,3.1,9.64,3.25,13.13-.14,2.17,2.15,5.31,3.32,9.41,2.82,1.52,2.15,3.47,4,5.68,5.45ZM111.19,209.12c-.11-.19-.25-.37-.35-.55-.67-1.21-2.4-.35-2.2.82-.99-.02-2.03-.13-3.18-.44-1.36-.37-2.38-1.05-3.18-1.92-.09-.23-.25-.4-.46-.53-1.54-2.06-1.96-4.97-1.78-7.72,1.11.79,2.38,1.41,3.73,1.92.78,1.3,1.87,2.44,3.1,3.25,3.37,2.22,6.82,1.16,9.43-1.31.09,0,.2,0,.28,0,.3,0,.58-.06.88-.08-.67,3-2.77,5.72-6.25,6.57ZM108.86,193.35c4.15-.99,6.82.74,8.05,3.36-.61,1.2-1.52,2.4-2.59,3.34-2.74,0-5.59-.42-8.15-1.3-.97-2.21-.12-4.73,2.68-5.4ZM112.61,190.48c-1.76-.23-3.57-.18-5.17.25,0-.02,0-.03,0-.04-1.75-4.39.96-5.73,5.07-4.05,2.85,1.16,4.76,3.35,5.14,5.91-1.3-1.05-2.95-1.8-5.02-2.06ZM121.06,199.05c-.13-1.11-.42-2.16-.86-3.16.73-2.87.5-5.83-1.23-7.95-.99-1.21-2.34-2.21-3.82-2.98,2.88.12,5.76.86,8.15,2.32,1.35.83,2.19,1.84,2.67,2.9,0,.3.06.58.05.88,0,.25.14.42.33.54.42,3.05-1.86,6.24-5.29,7.44ZM125.63,172c1.61,3.82,1.17,6.7-.91,8.85-5.14-5.43-15.86-5.66-23.23-1.25-.21.12-.38.28-.57.41-2.4-1.49-5.14-2.13-7.87-2.05-.05-3.28.9-6.59,2.6-9.47.66-.07,1.32-.21,2.02-.48,3.1-1.2,5.13-4.04,6.54-7.04,2.87-1.14,6.12-1.47,9.59-.58,5.53,1.42,9.8,6.76,11.84,11.6ZM107.73,155.26c.49-.35.97-.7,1.46-1.05,1.35-.54,2.29-1.51,3.28-2.49.91-.73,1.78-1.49,2.63-2.29-.19,3.62.93,7.14,3.42,9.9-.94-.52-1.89-.99-2.86-1.32-3.56-1.21-6.96-1.29-10.05-.55.08-.24.17-.49.25-.73.15-.47.24-.96.37-1.45.43.29.98.37,1.51-.02ZM106.76,143.31c1.31.71,2.81,1.11,4.33,1.31-1.67,1.07-2.98,2.51-3.95,4.24.05-1.87-.03-3.74-.38-5.55ZM139.27,145.41c-1.2,2.25-1,5.01-1.6,7.47-.52,2.14-1.44,4.19-2.95,5.86-2.29,2.54-5.73,2.95-8.92,1.99-7.52-2.28-9.44-10.08-6.87-16.32,1.21-.22,2.39-.54,3.46-.98,2.01,2.05,4.67,3.89,7.23,4.14.64.06,1.11-.76.75-1.25-1.36-1.87-3.56-3.14-5.43-4.65.25-.63-.26-1.35-1-1.4-.15-.01-.32.02-.47.02-2.43-2.65-3.48-6.19-2.5-9.62.29-1.02-1.23-1.36-1.61-.42-1.5,3.7-1.36,7.04.79,10.39-.48-.49-1.43-.64-1.97.1-.12.17-.19.36-.31.54-1.03.26-2.06.49-3.07.57-2.28.18-4.65-.05-6.68-1.09-3.21-1.63-3.87-5.25-3.08-8.37.93-3.72,3.83-6.7,7.4-8.28.83-.37,1.7-.59,2.57-.76.37.14.79.05,1.12-.18,4.1-.4,8.42,1.08,11.91,2.93.3.16.59.18.85.13-1.3,3.64.92,7.57,3.18,10.41.5.63,1.52.82,2.2.5.24,1.77,2.27,2.62,4.54,3-.02,1.8.22,3.49.77,4.99-.13.07-.24.17-.31.29ZM138.43,134.04c.57-.89,1.48-1.86,2.51-2.28.22-.09.42-.09.6-.04.47,2.45-.16,3.88,1.63,5.64-.88,0-1.74-.04-2.53-.14-3.19-.41-4.01-.41-2.22-3.19ZM151.87,184.91c-9.29-6.35-10.94-21.87-10.72-32.39.29-1.39.43-2.78.33-4.06.38.47.86.83,1.31,1.22-.21.23-.31.56-.16.98.87,2.42,1.49,4.9,2.03,7.41.58,2.7.71,5.66,2.2,8.06.34.56,1.35.5,1.5-.19.63-2.92,0-6.35-1.02-9.61,5.62,8.09,5.25,18.92,4.53,28.58ZM160.12,117.71c1.55,2.9,2.01,6.3,1.35,9.47-.89,4.23-4.53,5.64-7.82,7.81-.78.52-.61,1.99.54,1.9,1.45-.12,2.69-.54,3.82-1.07.76,2.87,2.31,5.21.93,8.29-1.09,2.43-3.54,4.05-6.08,4.87-6.82,2.22-11.14-2.6-11.53-8.61,1.45.06,2.79.02,3.59-.05,5.43-.48,8.85-4.08,9.01-9.25.12-3.98-2.21-6.86-5.43-8.63,1.25-2.66,1.33-5.95.49-8.79-.53-1.8-1.47-3.57-2.65-5.23.22.04.45.03.71-.04.47-.13.91-.31,1.37-.47,5.12,1.44,9.19,5.08,11.71,9.81ZM146.49,101.37c-.91,1.11.08,2.56,1.15,2.57-.1.17-.24.32-.34.5-.12.21-.17.41-.17.61-1.1-.15-2.21-.22-3.34-.17-.15,0-.27.05-.39.09-.37-.36-.77-.67-1.16-1.01.23-.32.33-.71.18-1.09.23-.1.42-.26.59-.44.24.31.43.65.71.94,1.23,1.33,3.16-.59,2.01-1.93-6.46-7.57,2.25-22.03,8.93-29.27-.24,10.69-.75,20.15-8.18,29.2ZM157.89,100.26c-.23-.16-.5-.28-.87-.28-.57,0-1.18-.03-1.79-.06,2.65-1.84,5.75-3.09,9-3.72-2.06,1.45-4.15,2.82-6.33,4.06ZM152.97,96.84c.22-.43.49-.85.69-1.27.44-.1.83-.38.99-.94,1.89-6.72,5.71-12.19,10.78-17.13,5.92-5.76,12.44-7.6,20.01-10.19-11.34,8.26-18.85,24.94-32.47,29.53ZM370.78,184.5c-.38,4.48-2.39,8.51-5.14,12.25-1.13,1.54-2.45,2.71-3.85,3.75,1.89-2.04,3.55-4.37,3.46-6.73-.05-1.19-1.39-1.59-2.28-.91-.39.3-.72.64-1.08.96,2.18-3.86,5.11-7.27,8.88-9.33ZM368.54,154.2c1.06-1.28.86,3.2,1.01,4.48.45,3.76-.31,7.6-1.15,11.24-.76,3.28-2,6.38-3.39,9.44.53-3.5-.11-7.57-.71-10.37-.36-1.69-2.95-.95-2.66.7.42,2.45.53,4.9.41,7.38-.11,2.25-1.12,4.46-.99,6.68-.26-.48-.49-.96-.69-1.46,2.43-3.91,1.68-7.63-.64-10.67,1.29-6.46,5.04-12.92,8.8-17.44ZM358.71,192.68c-1.76,3.04-2.97,6.27-3.56,9.41-2.93-3.32-6.17-6.47-8.47-9.85-.18-.3-.36-.6-.55-.89-.04-.05-.08-.08-.12-.13-2.35-3.88-3.29-8.1-.92-13.28.5.41,1,.83,1.55,1.22,3.32,2.39,6.9,4.47,9.86,7.28,2.17,2.06,2.57,4.14,2.21,6.24ZM356.67,172.58c-.53,3.74-.23,7.5,1.27,10.91-6.34-5.99-17.11-9.09-15.86-18.65.63.34,1.26.68,1.92.99,3.41,1.6,6.97,2.86,10.23,4.76,1.07.63,1.84,1.29,2.44,2ZM353.23,166.5c-3.5-1.75-7.5-3.12-10.76-5.06-.19-.3-.53-.48-.89-.56-3.17-2.1-5.44-4.88-5.44-9.35,3.57,1.41,7.24,2.61,10.65,4.38,4.86,2.54,5.7,6.02,6.44,10.59ZM325.98,135.43c5.23,1.95,10.79,2.94,16.07,4.76,7.84,2.72,7.99,8.89,9.66,15.6-1.84-1.61-4.04-2.93-6.25-3.91-8.79-3.92-19.88-5.66-19.91-16.63.14.05.28.12.43.17ZM343.25,97.48c2.75-2.07,5.78-3.64,8.88-4.4,2.61-.64,5.76-.04,3.11,2.7-2.09,2.16-4.71,3.81-7.31,5.35-.71.42-1.46.78-2.19,1.17,1.74-1.36,3.45-2.77,5.08-4.3,1.21-1.13-.41-3.26-1.84-2.28-2.22,1.51-4.28,3.21-6.49,4.73-.4.28-.55.64-.57.99-.55.4-1.08.83-1.63,1.21,1.34-1.41,2.31-3.19,2.95-5.17ZM332.21,111.06c2.83-.99,5.69-2.03,8.49-3.18,8.61,1.85,15.37,12.22,19,20.12-9.97-.34-19.52-5.75-25.86-13.02,0-.07.04-.14.02-.21-.08-.26-.22-.46-.31-.71,1.27,1.49,2.65,2.85,4.37,3.91,1.78,1.09,4.57,2.32,6.61,1.42.54-.24.51-.94.18-1.31-1.24-1.37-3.7-1.59-5.35-2.46-1.91-1.01-3.4-2.54-4.75-4.15-.6-.73-1.67-.32-2.07.36-.16-.28-.38-.49-.55-.74.08-.01.15,0,.23-.03ZM329.74,113.55c.02.1.03.2.07.29.91,2.07,2.26,4,3.91,5.77-12.27-4.16-30.26-4.23-30.14-13.1,9.61.76,18.99.48,26.15,7.03ZM287.68,94.22c12.98.19,25.48-4.33,31.14,10.17.02.06.07.07.1.12-4.81-.62-10.15-.53-15.17-.83-.41-.84-1.77-1.05-2.38-.18-.51-.05-1.01-.12-1.52-.18,0,0,0-.02,0-.02-.06-1.26-1.78-1.32-2.13-.3-5.63-1-10.26-3.27-12.25-8.88.72.04,1.46.09,2.19.1ZM270.54,72.82c8.35-2.42,12.76,1.49,17.51,7.23-12.68.77-24.43,5.56-36.62.02,1.33-.42,2.66-.87,3.98-1.39,5.06-1.97,9.9-4.33,15.13-5.86ZM259.2,68.29c1.04.06,2.08.13,3.12.33,2.14.4,3.92,1.4,5.78,2.32-10.83,3.47-22.86,10.47-31.43,5.84,6.92-3.65,12.25-7.61,21.44-7.59.66,0,1.01-.41,1.09-.88ZM238.58,65.46c.78-.23.91-.94.64-1.48,3.2-.17,6.38.15,9.64.91,1.4.33,2.73.85,4.05,1.37-4.01.24-7.9,1.89-11.49,3.83-8.38,4.52-14.66,9.73-24.35,7.25,6.85-4.43,12.98-9.39,21.51-11.88ZM199.63,71.76c4.55-4.19,9.39-5.17,15.31-6.35.37-.07.56-.34.67-.64,1.29,0,2.59.04,3.9.14,2.68.21,5.29,1.28,7.98,1.18-11.63,6.35-21.72,20.58-34.71,12.64,2.25-2.35,4.44-4.76,6.85-6.98ZM333.27,264.23c-.45.56-.9,1.12-1.35,1.69-4.26-2.24-8.37-4.2-9.85-9.03.22,0,.44.02.66.02,1.23,2.07,2.89,3.9,5.03,5.1.61.43,1.29.79,2.02,1.07,1.12.42,2.4.62,3.69.67-.07.17-.14.33-.2.49ZM334.58,255.86s-.02,0-.03,0c-.03-.01-.04-.04-.07-.05-.6-.29-1.19-.55-1.78-.79-.04-.03-.06-.07-.11-.1-1.83-1.01-2.85-1.88-4.98-1.06-.11.04-.14.13-.23.18-.37,0-.74-.02-1.11-.03-.22-.06-.44-.1-.66-.16-.4-.12-.74-.04-1.04.11-86.32-3.26-125.01-98.91-149.39-164.53-.03-.08-.08-.14-.12-.21,4.01-.39,7.52-1.92,10.78-4.22.38,2.21,1.41,4.11,3.05,5.88.3.32.74-.09.58-.43-1.04-2.13-2.15-4.09-2.4-6.42.59-.46,1.2-.89,1.77-1.4,1.6,6.63,3.84,13.26,7.14,19.26.46.84,1.75.25,1.54-.62-1.71-6.9-4.61-13.55-6.92-20.3.12-.12.24-.25.36-.37.03.03.04.06.07.08,5.89,4.48,11.78,4.14,18.35,1.03,1.66-.79,3.22-1.67,4.75-2.57,1.53.67,3.02,1.16,4.49,1.48-.29.2-.51.51-.53.96-1.75,30.27,19.78,64.48,37.3,88.23.72.98,2.39.08,1.69-.95-17.77-26.05-34.19-55.78-36.39-87.29-.02-.28-.12-.49-.26-.67,3.81.47,7.55-.19,11.57-1.89.48-.2.92-.42,1.37-.64.05,6.12,1.17,13.49,5.35,18.16.51.57,1.32-.05,1.2-.66-1.1-5.57-3.24-10.65-4.02-16.24,1.1.6,2.22,1.01,3.36,1.3-.2.24-.31.56-.23.95.77,3.89,1.47,8.03,3.07,11.7.37.85,1.96.87,1.86-.24-.36-4.04-1.4-8.17-2.62-12.04,2.28.26,4.6.09,6.95-.42.04.35.23.69.65.92,6.3,3.6,12.87,4.5,19.9,3.96,3.02,5.11,8.05,7.27,13.7,8.06,1.21,7.63,7.62,10.76,15.19,11.99.26,6.63,1.6,13.17,3.99,19.4.38.99,1.77.59,1.62-.43-.9-6.26-2.53-12.35-3.18-18.62.17.02.35.04.52.06-.3,2.68.6,4.74,2.19,6.35-.21.15-.37.35-.34.66.82,6.8,1.85,14.05,5.09,20.23.29.55,1.29.31,1.24-.32-.58-6.49-2.9-12.77-4.25-19.15,2.67,1.79,6.3,2.89,9.74,3.69.67.16,1.34.29,2.01.43-5.48,7.48-.29,12.76,6.59,16.01-.94,7.94,3.28,12.8,10.23,16.09,0,.04-.03.07-.04.11-.8,5.88,2.03,9.94,6.38,12.94-1.27,4.94.13,9.06,3.34,12.56-.01.01-.02.02-.03.04-3.17,5.77-4.46,11.6.16,17.15.65.79,1.34,1.53,2.03,2.28,3.33,11.13-8.27,20.09-5.52,32.07.44,1.9,1.87,3.7,3.48,5.21,3.55,5.29,3.41,9.26,2.84,14.01-.1.16-.18.33-.21.55-.31,2.21-1.21,4.46-2.29,6.73-11.08-30.71-9.46-60.66-12.53-92.68-.1-1.04-1.72-1.09-1.73,0-.06,30.27-1.62,62.75,10.58,91.25-1.37-.7-2.66-1.49-3.99-2.23-18.6-17.9-26.77-42-35.81-65.47-11.27-29.25-18.63-59.67-26.64-89.84-.3-1.13-2.08-.65-1.81.48,8,33.5,16.69,66.33,28.91,98.68,6.21,16.44,12.74,34.89,24.25,49.12-36.07-26.17-54.32-71.2-74.46-108.49-.28-.52-1.23-.16-1,.4,11.01,26.8,23.82,52.02,41.08,75.68,10.9,14.94,25.16,35.24,44.01,42.18.94.77,1.95,1.49,2.94,2.21-.86.15-1.71.45-2.53.68ZM339.56,259.77c-.18-.22-.41-.4-.72-.5-.83-.26-1.68-.49-2.53-.73,1.1-.38,2.13-.84,2.93-1.55.15-.13.2-.29.26-.43.94-.13,1.67-1.41.8-2.14-.09-.08-.18-.16-.27-.23.1-.1.18-.21.25-.33.48,1.08.96,2.15,1.48,3.22-.52,1.04-1.04,2.07-1.51,3.12-.14-.23-.39-.35-.68-.41ZM353.14,300.48c-.16,1.01-.34,2.04-.52,3.1-.14-.12-.23-.27-.39-.38-1.16-.84-2.33-1.49-3.61-2.13-.68-.34-1.23-.74-1.69-1.19.09-.16.19-.33.27-.47.64-1.23-.68-2.31-1.72-1.97-.99-3.01.02-6.82.57-9.71.39-2.1.43-3.93.15-5.7,2.7,2.68,5.22,5.18,6.38,8.5-.29.46-.59.91-.88,1.36-.64.97.64,1.74,1.49,1.23.2,1.8.04,3.84-.63,6.25-.13.46.17.9.58,1.11ZM351.5,266.75c8.89,4.94,7.22,12.68,3.44,19.78-.9-1.41-2.04-2.78-3.33-4.11-5.52-5.61-11.65-9.08-9.56-18.15.62-2.71,1.8-5.09,2.96-7.45.04,2.04.33,4.14,1.43,5.62,1.47,1.99,2.87,3.1,5.07,4.32ZM358.97,228.15c-.14,2.84-.58,5.6-1.17,8.38-.24,1.14-.58,2.26-.87,3.39-.55.26-.82,1.06-.34,1.53-.03.18-.1.36-.12.55-2.08-3.67-5.46-6.92-10.74-11.25-10.06-8.26.46-18.99,3.36-26.97.43-1.19.58-2.36.54-3.51,1.54,1.65,3.05,3.32,4.4,5.14.14.19.25.38.38.56-.35.69.17,1.57,1.02,1.59.02,0,.03,0,.05,0,4.13,6.53,4.91,12.83,4.31,19.63-.42.13-.78.41-.81.96ZM376.56,273.64c-7.22-5.53-11.27-14.18-13.81-22.89.46.54.92,1.08,1.38,1.62,2.36,2.79,4.04,6.48,6.78,8.9.5.44,1.39.16,1.37-.54-.09-3.22-2.53-6.18-4.53-8.62-1.61-1.96-3.32-3.83-5.06-5.68,8.79,7.18,18.62,16.53,13.87,27.21ZM362.42,235.82c1.73-.24,3.44-.64,5.15-1-.9.76-1.76,1.56-2.68,2.3-1.35,1.09-3.53,2.25-4.78,3.69-.06-.06-.1-.17-.17-.21.59-1.62.96-3.39,1.16-5.18.31.29.76.48,1.32.4ZM361.12,205.52s.1-.05.15-.08c3.59,1.94,7.1,3.77,10.18,6.67,3.75,3.53,6.02,8.09,7.29,12.91-8.88-2.86-15.46-10.8-17.62-19.49Z"/>
  <path class="cls-1" d="M309.85,185.44c-4.56-20.7-12.34-40.65-15.98-61.54-.15-.88-1.76-.68-1.64.21,2.88,21.21,10.44,41.14,16.17,61.71.25.91,1.65.52,1.45-.38Z"/>
  <path class="cls-1" d="M275.6,200.74c-18.3-24.39-37.96-46.65-52.85-73.31-.39-.69-1.42-.08-1.09.61,12.8,26.7,30.65,53.04,53.05,73.36.45.41,1.27-.14.88-.65Z"/>
  <path class="cls-1" d="M239.11,171.59c-.67-1.01-2.34-.09-1.68.94,11.51,18.08,28.25,35.02,47.72,45.35.68.36,1.49-.55.86-1.07-17.26-14.14-34.54-26.51-46.9-45.22Z"/>
  <path class="cls-1" d="M323,201.01c-.73-7.49-4.23-14.51-5.49-21.93-.16-.9-1.78-.69-1.67.22.94,7.45,2.81,15.13,5.96,22.02.25.55,1.25.28,1.2-.31Z"/>
  <path class="cls-1" d="M326.79,335.08c2.23-12.3,4.5-24.78,5.11-37.26.07-1.31-1.93-1.24-2.08,0-1.49,12.31-4.49,24.66-4.36,37.09,0,.71,1.2.91,1.33.17Z"/>
  <path class="cls-1" d="M309.54,307.47c-3.46,4.72-5.55,9.85-5.63,15.68,0,.56.79.61.97.12,1.85-5.06,3.34-10.34,5.72-15.21.33-.69-.6-1.21-1.06-.59Z"/>
  <path class="cls-1" d="M308.5,316.65c-1.08,3.74-2.12,8.04-1.72,11.93.04.4.64.65.87.22,1.94-3.62,1.34-7.92,2.12-11.82.16-.79-1.04-1.13-1.27-.34Z"/>
  <path class="cls-1" d="M194.23,84.46c2.25,9.38,5.63,18.82,10.32,27.36.41.74,1.63.23,1.39-.56-2.74-9.23-6.92-18.15-10.54-27.1-.28-.69-1.34-.43-1.16.31Z"/>
  <path class="cls-1" d="M320.07,152.16c.02-2.45-1.42-4.74-1.49-7.24-.03-1.16-1.92-1.17-1.89,0,.07,2.57.77,5.55,2.45,7.61.31.38.93.05.93-.37Z"/>
  <path class="cls-1" d="M110.41,169.03c-2.87-.15-5.16,1.27-7.14,3.13-1.11,1.04.56,2.61,1.69,1.62,1.64-1.42,3.43-2.54,5.73-2.18,1.7.27,2.97,1.55,4.55,2.11.74.27,1.16-.59.91-1.14-.92-1.99-3.47-3.43-5.73-3.55Z"/>
</svg>