<?xml version="1.0" encoding="UTF-8"?>
<svg id="Layer_1" data-name="Layer 1" xmlns="http://www.w3.org/2000/svg" viewBox="0 0 260 56">
  <defs>
    <style>
      .cls-1 {
        fill: #58445d;
      }

      .cls-2 {
        fill: #b8cdbf;
      }
    </style>
  </defs>
  <path class="cls-1" d="M250.41,14.56c8.67-1.63-1.44,9.36-11.41,13.2-7.86,3.02-23.12,3.14-18.62,4.11,8.39,1.81,9.08,4.39,12.34,3.44,7.21-2.09,8.29-.68,10.08-2.28,2.69-2.35,5.55.88,4.28,3.09-1.02,1.74-3.23,1.09-3.55.67-1.47-1.84-3.27-1.07-8.76-.12-.84.14-1.12.53-.12,1.26,6.83,4.95,6.95,5.34,8.55,4.91,3.93-1.02,4.53,4.91.6,5.55-3.7.58-2.14-3.05-4.48-4.83-15.87-12.13-28.79-11.46-26.19-9.92,7.2,4.3,9.87,9.74,13.08,9.88,3.35.18,2.44,5.34-.93,5.28-1.49-.02-2.83-1.12-2.55-2.55.37-1.77-.49-2.69-1.6-3.67-3.35-2.91-7.2-7.97-16.41-9.08-20.4-2.48-26.01-3.37-24.14-1.83,15.89,13.01,12.13-2.32,33.04,13.2,5.06,3.76-8.62,6.76-18.31-.53-6.06-4.55-3.51-3.55-6.16-4.93-11.71-6.2-11.13-8.83-13.53-8.95-12.13-.6-26.52,2.18-23.63,3.37,5.83,2.42,6.11,2.56,6.9,2.6,10.13.37,16.43,7.13,21.5,14.97,3.26,5.04-9.18,4.27-16.57-4.72-4.81-5.86-3.37-7.14-7.04-8.83-3.69-1.7-8.29-3.93-11.9-2.19-2.3,1.11-7.93,3.72-6.37,1.05.16-.28,22.07-9.92,22.36-15.18.46-8.32,10.01-15.57,17.36-19.47,2.58-1.37,3.44,1.49,1.9,4.95-6.07,13.57-15.08,14.29-17.13,16.22-12.18,11.34-11.36,5.46,7.62,5.3,4.58-.05,6.9-5.58,18.22-10.43,1.95-.82,1.32-4.2,4.25-3.58,3.77.81,2.53,7.5-1.21,5.53-3.05-1.6-15.36,7.34-15.31,8.27.04.58,9.71.97,10.25.98,4.34.19,19.15-9.81,21.12-12.31,13.66-17.31,48.61-.88-.98,4.81-3.02.33-3.65,1.11-13.34,7.32-2.04,1.3,5.6,1.16,10.88,1.21,31.98.75,18.69-10.67,45.92-15.8ZM250.71,17.21c1.51-3.04-19.85,5.62-20.82,9.41,2.16.44,11.41-5.27,13.18-5.86.79-.28,1.61.81.88,1.39-1.3,1.02-2.51,1.51-6.21,3.53-3.55,1.93,10.13-2.63,12.97-8.46ZM216.74,18.53c9.95-1.9,19.62-6,8.92-7.3-7.83-.93-13.52,3.42-13.11,4.13.33.58,5.6-2.39,9.72-2.91,2.47-.16,2.23,1.51.58,1.79-3.41.58-23.17,7.58-6.11,4.3ZM211.77,46.3c.3-.98-6.49-5.23-11.94-6.78-2.44-.68-8.21-.68-3.83.81,4.13,1.4,15.01,4.42,10.78,5.37-1,.23-12.81-4.41-9.46-2.21,6.78,4.46,14.24,3.49,14.45,2.81ZM178.81,4.96c.7-3.34-10.43,5.7-13.55,10.15-1.53,2.16-4.06,7.44-.19,3.44,5.04-5.2,11.01-14.59,10.76-10.39-.63,2-8.11,9.64-7.62,10.16.67.68,9.3-7.14,10.6-13.36ZM162.8,41.85c3.84,9.04,17.64,12.78,15.45,9.71-3.34-4.69-5.09-7.69-10.64-10.74-11.39-6.28,4.77,5.23,5.14,6.34,1.58,4.76-7.62-5.28-9.95-5.3Z"/>
  <path class="cls-2" d="M229.89,26.62c.97-3.79,22.33-12.45,20.82-9.41-2.84,5.83-16.52,10.39-12.97,8.46,3.7-2.02,4.91-2.51,6.21-3.53.74-.58-.09-1.67-.88-1.39-1.77.6-11.02,6.3-13.18,5.86Z"/>
  <path class="cls-2" d="M225.66,11.22c10.71,1.3,1.04,5.41-8.92,7.3-17.06,3.28,2.7-3.72,6.11-4.3,1.65-.28,1.9-1.95-.58-1.79-4.13.53-9.39,3.49-9.72,2.91-.4-.7,5.28-5.06,13.11-4.13Z"/>
  <path class="cls-2" d="M199.84,39.52c5.44,1.54,12.24,5.79,11.94,6.78-.21.68-7.67,1.65-14.45-2.81-3.35-2.19,8.46,2.44,9.46,2.21,4.23-.95-6.65-3.97-10.78-5.37-4.39-1.49,1.39-1.49,3.83-.81Z"/>
  <path class="cls-2" d="M165.26,15.1c3.12-4.44,14.25-13.48,13.55-10.15-1.3,6.21-9.94,14.04-10.6,13.36-.49-.53,6.99-8.16,7.62-10.16.25-4.2-5.72,5.2-10.76,10.39-3.86,4-1.33-1.28.19-3.44Z"/>
  <path class="cls-2" d="M178.25,51.56c2.19,3.07-11.6-.67-15.45-9.71,2.33.02,11.53,10.06,9.95,5.3-.37-1.11-16.54-12.62-5.14-6.34,5.55,3.05,7.3,6.06,10.64,10.74Z"/>
  <path class="cls-1" d="M133.52,38.43c.03,3.67-6.28,4.44-6.44.26-.12-4,6.39-3.98,6.44-.26Z"/>
  <path class="cls-1" d="M122.09,36.73c1.56,2.67-4.07.05-6.37-1.05-3.62-1.74-8.21.49-11.92,2.19-3.67,1.69-2.21,2.97-7.02,8.83-7.39,8.99-19.84,9.76-16.57,4.72,5.07-7.85,11.37-14.6,21.5-14.97.79-.04,1.07-.18,6.9-2.6,2.9-1.19-11.5-3.97-23.63-3.37-2.4.12-1.83,2.76-13.55,8.95-2.63,1.39-.09.39-6.14,4.93-9.69,7.28-23.36,4.28-18.33.53,20.92-15.52,17.17-.19,33.04-13.2,1.9-1.54-3.72-.65-24.12,1.83-9.22,1.11-13.06,6.16-16.41,9.08-1.12.98-1.97,1.9-1.61,3.67.3,1.42-1.04,2.53-2.53,2.55-3.37.05-4.28-5.11-.93-5.28,3.21-.14,5.88-5.58,13.08-9.88,2.6-1.54-10.32-2.21-26.19,9.92-2.33,1.77-.77,5.41-4.48,4.83-3.93-.63-3.34-6.57.58-5.55,1.61.42,1.74.04,8.57-4.91,1-.74.72-1.12-.12-1.26-5.49-.95-7.3-1.72-8.76.12-.32.42-2.53,1.07-3.55-.67-1.26-2.21,1.6-5.44,4.27-3.09,1.81,1.6,2.88.19,10.09,2.28,3.27.95,3.95-1.63,12.34-3.44,4.49-.97-10.76-1.09-18.62-4.11C11.63,23.91,1.51,12.93,10.19,14.56c27.23,5.13,13.94,16.55,45.92,15.8,5.28-.05,12.92.09,10.88-1.21-9.69-6.21-10.32-6.99-13.34-7.32-49.59-5.69-14.64-22.12-.98-4.81,1.97,2.49,16.78,12.5,21.12,12.31.54-.02,10.22-.4,10.25-.98.05-.93-12.25-9.87-15.31-8.27-3.74,1.97-4.99-4.72-1.21-5.53,2.91-.61,2.3,2.76,4.25,3.58,11.32,4.84,13.64,10.37,18.22,10.43,18.98.16,19.8,6.04,7.62-5.3-2.05-1.93-11.06-2.65-17.13-16.22-1.54-3.46-.68-6.32,1.9-4.95,7.35,3.9,16.9,11.15,17.36,19.47.3,5.27,22.21,14.9,22.36,15.18ZM95.53,18.54c3.86,4,1.33-1.28-.19-3.44-3.12-4.44-14.25-13.48-13.55-10.15,1.3,6.21,9.94,14.04,10.6,13.36.49-.53-6.99-8.16-7.62-10.16-.25-4.2,5.72,5.2,10.76,10.39ZM87.84,47.16c.37-1.11,16.54-12.62,5.14-6.34-5.55,3.05-7.3,6.06-10.64,10.74-2.19,3.07,11.59-.67,15.45-9.71-2.33.02-11.53,10.06-9.95,5.3ZM64.59,40.33c4.39-1.49-1.39-1.49-3.83-.81-5.44,1.54-12.23,5.79-11.94,6.78.21.68,7.67,1.65,14.45-2.81,3.35-2.19-8.48,2.44-9.46,2.21-4.23-.95,6.65-3.97,10.78-5.37ZM43.85,18.53c17.06,3.28-2.7-3.72-6.11-4.3-1.65-.28-1.9-1.95.58-1.79,4.11.53,9.39,3.49,9.72,2.91.4-.7-5.28-5.06-13.11-4.13-10.71,1.3-1.04,5.41,8.92,7.3ZM17.52,20.75c1.77.6,11.02,6.3,13.18,5.86-.97-3.79-22.33-12.45-20.84-9.41,2.86,5.83,16.54,10.39,12.99,8.46-3.72-2.02-4.91-2.51-6.21-3.53-.74-.58.09-1.67.88-1.39Z"/>
  <path class="cls-2" d="M95.34,15.1c1.53,2.16,4.06,7.44.19,3.44-5.04-5.2-11.01-14.59-10.76-10.39.63,2,8.11,9.64,7.62,10.16-.67.68-9.3-7.14-10.6-13.36-.7-3.34,10.43,5.7,13.55,10.15Z"/>
  <path class="cls-2" d="M92.99,40.82c11.39-6.28-4.77,5.23-5.14,6.34-1.58,4.76,7.62-5.28,9.95-5.3-3.86,9.04-17.64,12.78-15.45,9.71,3.34-4.69,5.09-7.69,10.64-10.74Z"/>
  <path class="cls-2" d="M60.76,39.52c2.44-.68,8.21-.68,3.83.81-4.13,1.4-15.01,4.42-10.78,5.37.98.23,12.81-4.41,9.46-2.21-6.78,4.46-14.24,3.49-14.45,2.81-.3-.98,6.49-5.23,11.94-6.78Z"/>
  <path class="cls-2" d="M37.75,14.22c3.41.58,23.17,7.58,6.11,4.3-9.95-1.9-19.62-6-8.92-7.3,7.83-.93,13.52,3.42,13.11,4.13-.33.58-5.62-2.39-9.72-2.91-2.47-.16-2.23,1.51-.58,1.79Z"/>
  <path class="cls-2" d="M30.71,26.62c-2.16.44-11.41-5.27-13.18-5.86-.79-.28-1.61.81-.88,1.39,1.3,1.02,2.49,1.51,6.21,3.53,3.55,1.93-10.13-2.63-12.99-8.46-1.49-3.04,19.87,5.62,20.84,9.41Z"/>
</svg>