<?xml version="1.0" encoding="UTF-8"?>
<svg xmlns="http://www.w3.org/2000/svg" viewBox="0 0 640 640">
  <defs>
    <style>
      .cls-1 {
        fill: #e65f61;
      }

      .cls-2 {
        fill: #2d4059;
      }

      .cls-3 {
        fill: #e56161;
      }

      .cls-4 {
        opacity: .3;
      }

      .cls-4, .cls-5, .cls-6 {
        mix-blend-mode: multiply;
      }

      .cls-5 {
        opacity: .5;
      }

      .cls-6 {
        opacity: .4;
      }

      .cls-7 {
        fill: #eb777d;
      }

      .cls-8 {
        fill: #6a5b72;
      }

      .cls-9 {
        fill: #f9b5b4;
      }

      .cls-10 {
        fill: #604f68;
      }

      .cls-11 {
        isolation: isolate;
      }

      .cls-12 {
        fill: #846e8e;
      }

      .cls-13 {
        fill: #f69893;
      }

      .cls-14 {
        fill: #f59792;
      }

      .cls-15 {
        fill: #fff;
      }

      .cls-16 {
        fill: #354960;
      }
    </style>
  </defs>
  <g class="cls-11">
    <g id="Layer_1" data-name="Layer 1">
      <g>
        <g>
          <path class="cls-2" d="M139.35,449.02s-.04,0-.06,0c-.73-.04-1.3-.66-1.26-1.39.09-1.87,8.63-187.4-19.97-228.78-.42-.6-.27-1.43.34-1.85.6-.42,1.43-.27,1.85.34,29.11,42.12,20.81,222.75,20.44,230.42-.03.71-.62,1.26-1.32,1.26Z"/>
          <path class="cls-2" d="M100.52,320.65c-.46,0-.91-.24-1.16-.67-.36-.64-.14-1.45.5-1.81,35.25-20.02,27.59-76.31,27.5-76.88-.1-.73.4-1.4,1.13-1.5.74-.1,1.4.4,1.5,1.12.08.58,7.98,58.66-28.82,79.56-.21.12-.43.17-.65.17Z"/>
          <path class="cls-2" d="M211.9,364.54c-.11,0-.21-.01-.32-.04-51.85-12.86-76.67-81.24-76.91-81.93-.25-.69.12-1.45.81-1.69.69-.24,1.45.12,1.7.81.24.68,24.59,67.73,75.05,80.24.71.18,1.15.9.97,1.61-.15.61-.69,1.01-1.29,1.01Z"/>
          <g>
            <path class="cls-2" d="M110.83,438.89c0-46.48,28.52-84.16,28.52-84.16,0,0,28.52,37.68,28.52,84.16s-28.52,84.16-28.52,84.16c0,0-28.52-37.68-28.52-84.16Z"/>
            <g class="cls-5">
              <path class="cls-2" d="M133.43,381.75c4.97,1.86,0,100.93,5.92,100.62,5.92-.31-1.57-107.76,3.09-107.76s21.34,33.73,21.73,34.52c-7.71-31.79-24.82-54.4-24.82-54.4,0,0-25.56,33.8-28.27,76.85,1.84-16.32,17.73-51.57,22.36-49.83Z"/>
            </g>
            <path class="cls-16" d="M164.17,443.86c1.2-16.74-11.17-43.79-14.9-47.82-3.73-4.04-.93,26.4,0,38.2.93,11.8-2.76,53.73-9.92,53.42-7.16-.31-11.02-35.4-9.86-50.62,1.15-15.22,2.88-43.79,0-43.79s-16.51,32.65-12.2,64.9c4.31,32.25,21.43,54.97,25.78,45.03,4.35-9.94,18.61-24.53,21.11-59.32Z"/>
          </g>
          <g>
            <path class="cls-2" d="M57.88,330.09c24.82-22.25,58.59-25.06,58.59-25.06,0,0-6.46,33.27-31.28,55.52-24.81,22.25-58.58,25.06-58.58,25.06,0,0,6.46-33.26,31.27-55.51Z"/>
            <g class="cls-5">
              <path class="cls-2" d="M99.21,314.8c1.38,3.54-53.88,48.32-50.89,51.33,3,3.01,56.78-52.43,59.01-49.94,2.2,2.46-7.8,27.54-8.03,28.12,13.28-19.33,17.16-39.29,17.16-39.29,0,0-30.28,2.53-54.57,21.69,9.59-6.83,36.02-15.22,37.31-11.92Z"/>
            </g>
            <path class="cls-16" d="M80.76,360.95c9.51-7.37,18.03-26.93,18.4-30.85.37-3.92-14.54,12.14-20.4,18.29-5.85,6.15-30,24.25-33.26,20.28-3.26-3.97,13.62-22.83,22.3-29.5,8.68-6.67,24.76-19.42,23.37-20.96-1.38-1.54-25.33,6.82-40.49,24.56-15.16,17.74-19.09,37.75-11.7,35.32,7.38-2.44,22.01-1.81,41.77-17.13Z"/>
          </g>
          <g>
            <path class="cls-2" d="M183.07,366.02c-25.61-21.33-33.29-54.33-33.29-54.33,0,0,33.85,1.58,59.46,22.9,25.61,21.33,33.29,54.34,33.29,54.34,0,0-33.85-1.57-59.46-22.9Z"/>
            <g class="cls-5">
              <path class="cls-2" d="M161.95,327.34c3.31-1.88,55.61,46.31,58.15,42.91,2.55-3.4-60.1-48.59-57.96-51.15,2.11-2.54,28.38,3.73,28.99,3.87-21.05-10.34-41.36-11.29-41.36-11.29,0,0,6.89,29.59,29.37,50.84-8.15-8.5-20.28-33.43-17.2-35.18Z"/>
            </g>
            <path class="cls-16" d="M210.28,338.91c-8.67-8.34-29.25-13.94-33.18-13.74-3.94.2,14.12,12.62,21.04,17.53,6.93,4.9,28.34,26.17,24.88,29.98-3.45,3.8-24.57-10.17-32.42-17.79-7.86-7.62-22.81-21.69-24.13-20.09-1.32,1.59,10.41,24.08,30.17,36.51,19.75,12.42,40.12,13.42,36.64,6.46-3.48-6.96-4.98-21.51-23-38.85Z"/>
          </g>
        </g>
        <g>
          <path class="cls-2" d="M107.88,202.46c-.42,0-.84-.2-1.09-.57-.42-.6-.27-1.43.34-1.85,42.12-29.11,222.75-20.8,230.42-20.44.73.04,1.3.66,1.26,1.39-.03.73-.57,1.29-1.39,1.26-1.87-.09-187.4-8.64-228.78,19.97-.23.16-.49.24-.75.24Z"/>
          <path class="cls-2" d="M209.12,221.09c-.46,0-.91-.24-1.15-.67-20.01-35.22-76.31-27.59-76.88-27.5-.75.1-1.4-.4-1.5-1.13-.1-.73.4-1.4,1.12-1.5.59-.08,58.66-7.98,79.56,28.82.36.64.14,1.45-.5,1.81-.21.12-.43.17-.65.17Z"/>
          <path class="cls-2" d="M171.92,185.69c-.55,0-1.06-.34-1.25-.88-.24-.69.12-1.45.81-1.69.68-.24,67.73-24.59,80.24-75.05.18-.71.91-1.14,1.61-.97.71.18,1.15.9.97,1.61-12.86,51.85-81.24,76.66-81.93,76.91-.15.05-.3.08-.44.08Z"/>
          <g>
            <path class="cls-2" d="M328.68,209.45c-46.47,0-84.16-28.52-84.16-28.52,0,0,37.68-28.52,84.16-28.52s84.16,28.52,84.16,28.52c0,0-37.68,28.52-84.16,28.52Z"/>
            <g class="cls-5">
              <path class="cls-2" d="M271.54,186.85c1.87-4.97,100.93,0,100.62-5.92-.31-5.92-107.76,1.57-107.76-3.09s33.73-21.34,34.52-21.73c-31.79,7.72-54.4,24.82-54.4,24.82,0,0,33.8,25.56,76.85,28.27-16.32-1.84-51.57-17.73-49.83-22.36Z"/>
            </g>
            <path class="cls-16" d="M333.65,156.11c-16.74-1.2-43.78,11.17-47.82,14.9-4.04,3.73,26.4.93,38.2,0,11.8-.93,53.72,2.76,53.41,9.92-.31,7.16-35.4,11.02-50.62,9.86-15.22-1.15-43.79-2.88-43.79,0s32.65,16.51,64.9,12.2c32.25-4.31,54.97-21.43,45.03-25.78-9.94-4.35-24.53-18.61-59.32-21.11Z"/>
          </g>
          <g>
            <path class="cls-2" d="M219.88,262.4c-22.25-24.81-25.06-58.59-25.06-58.59,0,0,33.27,6.46,55.52,31.28,22.25,24.81,25.06,58.58,25.06,58.58,0,0-33.27-6.46-55.51-31.27Z"/>
            <g class="cls-5">
              <path class="cls-2" d="M204.59,221.07c3.54-1.38,48.32,53.88,51.33,50.89,3.01-3-52.42-56.78-49.94-59.01,2.46-2.21,27.54,7.8,28.12,8.03-19.33-13.28-39.29-17.16-39.29-17.16,0,0,2.53,30.28,21.69,54.56-6.83-9.59-15.22-36.02-11.91-37.31Z"/>
            </g>
            <path class="cls-16" d="M250.73,239.52c-7.37-9.51-26.92-18.03-30.84-18.4-3.92-.37,12.14,14.54,18.28,20.39,6.14,5.85,24.25,30,20.27,33.26-3.97,3.26-22.83-13.63-29.5-22.3-6.67-8.67-19.42-24.76-20.96-23.38-1.54,1.38,6.81,25.34,24.56,40.49,17.74,15.16,37.75,19.09,35.31,11.7-2.44-7.38-1.81-22.01-17.13-41.77Z"/>
          </g>
          <g>
            <path class="cls-2" d="M255.8,137.21c-21.32,25.61-54.33,33.29-54.33,33.29,0,0,1.58-33.85,22.9-59.46,21.33-25.61,54.33-33.29,54.33-33.29,0,0-1.57,33.85-22.9,59.46Z"/>
            <g class="cls-5">
              <path class="cls-2" d="M217.13,158.33c-1.88-3.31,46.31-55.62,42.91-58.16-3.4-2.55-48.59,60.1-51.15,57.96-2.54-2.11,3.73-28.38,3.87-28.99-10.34,21.05-11.29,41.36-11.29,41.36,0,0,29.59-6.89,50.84-29.37-8.5,8.15-33.43,20.28-35.18,17.2Z"/>
            </g>
            <path class="cls-16" d="M228.7,110c-8.34,8.67-13.94,29.25-13.74,33.19.2,3.94,12.63-14.12,17.53-21.05,4.9-6.93,26.17-28.34,29.98-24.88,3.8,3.46-10.17,24.57-17.79,32.42-7.62,7.86-21.69,22.81-20.09,24.13,1.59,1.32,24.08-10.41,36.51-30.17,12.42-19.75,13.42-40.12,6.46-36.64-6.95,3.48-21.51,4.98-38.85,23Z"/>
          </g>
        </g>
        <g>
          <path class="cls-2" d="M156.53,74.94c-.42,0-.84-.2-1.09-.57-.42-.6-.27-1.43.34-1.84,42.12-29.11,222.74-20.8,230.41-20.44.73.03,1.3.66,1.26,1.39-.03.73-.58,1.3-1.39,1.26-1.87-.09-187.39-8.64-228.78,19.97-.23.16-.49.24-.75.24Z"/>
          <path class="cls-2" d="M257.76,93.57c-.46,0-.91-.24-1.15-.67-20.01-35.22-76.31-27.59-76.88-27.5-.75.1-1.4-.4-1.5-1.12-.1-.73.4-1.4,1.12-1.5.59-.08,58.66-7.98,79.57,28.82.36.64.14,1.45-.5,1.81-.21.12-.43.17-.65.17Z"/>
          <path class="cls-2" d="M220.56,58.17c-.55,0-1.06-.34-1.25-.88-.25-.69.12-1.45.81-1.69.68-.24,67.73-24.59,80.24-75.05.18-.71.89-1.14,1.61-.97.71.18,1.15.9.97,1.61-12.86,51.85-81.24,76.66-81.93,76.91-.15.05-.3.08-.44.08Z"/>
          <g>
            <path class="cls-2" d="M377.32,81.93c-46.48,0-84.15-28.52-84.15-28.52,0,0,37.68-28.52,84.15-28.52s84.16,28.52,84.16,28.52c0,0-37.68,28.52-84.16,28.52Z"/>
            <g class="cls-5">
              <path class="cls-2" d="M320.19,59.33c1.86-4.97,100.93,0,100.62-5.92-.31-5.92-107.76,1.57-107.76-3.09s33.73-21.34,34.52-21.73c-31.79,7.72-54.39,24.82-54.39,24.82,0,0,33.8,25.56,76.84,28.27-16.32-1.84-51.57-17.73-49.83-22.36Z"/>
            </g>
            <path class="cls-16" d="M382.29,28.59c-16.74-1.2-43.79,11.17-47.82,14.9s26.4.93,38.2,0c11.8-.93,53.72,2.76,53.41,9.92-.31,7.16-35.4,11.02-50.62,9.86-15.22-1.15-43.79-2.88-43.79,0s32.65,16.51,64.9,12.2c32.25-4.31,54.97-21.43,45.03-25.78-9.94-4.35-24.53-18.61-59.31-21.11Z"/>
          </g>
          <g>
            <path class="cls-2" d="M268.52,134.88c-22.25-24.81-25.06-58.58-25.06-58.58,0,0,33.27,6.46,55.51,31.28,22.25,24.81,25.06,58.58,25.06,58.58,0,0-33.26-6.46-55.51-31.27Z"/>
            <g class="cls-5">
              <path class="cls-2" d="M253.24,93.55c3.54-1.38,48.31,53.88,51.33,50.89,3.01-3-52.43-56.78-49.94-59.01,2.45-2.21,27.54,7.8,28.12,8.03-19.34-13.28-39.29-17.16-39.29-17.16,0,0,2.53,30.28,21.69,54.56-6.83-9.59-15.22-36.02-11.92-37.31Z"/>
            </g>
            <path class="cls-16" d="M299.38,112c-7.37-9.51-26.93-18.03-30.85-18.4-3.93-.37,12.14,14.54,18.28,20.39,6.15,5.86,24.24,30,20.28,33.26-3.97,3.26-22.83-13.63-29.5-22.3-6.67-8.68-19.42-24.76-20.96-23.38-1.54,1.38,6.82,25.34,24.56,40.49,17.74,15.16,37.75,19.09,35.32,11.7-2.44-7.38-1.81-22.01-17.12-41.77Z"/>
          </g>
          <g>
            <path class="cls-2" d="M304.45,9.69c-21.33,25.61-54.34,33.29-54.34,33.29,0,0,1.58-33.85,22.9-59.46,21.33-25.61,54.34-33.29,54.34-33.29,0,0-1.58,33.85-22.9,59.46Z"/>
            <g class="cls-5">
              <path class="cls-2" d="M265.77,30.81c-1.88-3.31,46.31-55.62,42.91-58.16-3.4-2.55-48.59,60.1-51.15,57.96-2.54-2.11,3.72-28.38,3.87-28.99-10.34,21.05-11.29,41.36-11.29,41.36,0,0,29.6-6.89,50.84-29.37-8.5,8.15-33.43,20.28-35.18,17.2Z"/>
            </g>
            <path class="cls-16" d="M277.34-17.52c-8.34,8.67-13.94,29.25-13.74,33.19.2,3.94,12.63-14.12,17.53-21.05,4.9-6.93,26.17-28.34,29.98-24.88,3.8,3.46-10.17,24.57-17.79,32.42-7.62,7.86-21.69,22.81-20.09,24.13,1.59,1.32,24.08-10.41,36.51-30.17,12.42-19.75,13.42-40.12,6.46-36.64-6.96,3.48-21.51,4.98-38.85,23Z"/>
          </g>
        </g>
        <g>
          <g>
            <path class="cls-10" d="M110.36,126.15s10.72,14.02,33.02,10.71c15.02,4.02,37.71-8.41,43.77-14.61,15.82,1.48,35.2-36.1,48.6-28.53-11.42-23.19-47.13-27.96-58.88-23.47-15.84-8.88-38.52,8.21-38.52,8.21-12.57.44-29.01,26.74-28,47.68Z"/>
            <g class="cls-4">
              <path class="cls-10" d="M118.52,125.12c5.77-3.5,23.24,7.91,23.24,7.91,0,0-.89-9.03-5.37-12.38-4.47-3.33,6.96-3.21,22.22-8.01,15.26-4.81,24.49,2.73,27.28,4.75.14-7.04-6.14-6.97-2.34-13.09,3.8-6.12,34.48-13.11,46.41-13.04-22.45-14.38-56.19,6.3-56.19,6.3,0,0,11.2-16.88,3.2-22.89-1.52,17.05-27.54,30.65-27.54,30.65,0,0,4.67-14.8-9.86-25.19,7.03,12.57-8.19,31.53-15.94,31.15-7.69-.38-2.71-19.08-2.63-19.37-6.46,9.57-11.19,22.71-10.64,34.23,0,0,6.42,8.38,19.64,10.65-.2-.09-17.21-8.2-11.47-11.68Z"/>
            </g>
            <path class="cls-12" d="M188.09,123.19c-.22.22-.51.36-.84.38-.73.05-1.37-.5-1.42-1.23-.89-12.28-18.82-16.04-19-16.07-.72-.15-1.18-.85-1.04-1.56.14-.72.84-1.18,1.56-1.04.82.16,20.08,4.19,21.12,18.48.03.4-.12.77-.39,1.04Z"/>
            <path class="cls-12" d="M144.32,137.8c-.12.12-.26.21-.42.28-.67.28-1.45-.03-1.74-.7-.07-.15-6.63-15.23-20.85-14.93-.73.02-1.34-.57-1.35-1.3-.01-.73.57-1.34,1.3-1.35,16.03-.33,23.06,15.86,23.35,16.55.22.51.09,1.09-.28,1.46Z"/>
            <path class="cls-12" d="M165.81,102.68c-2.91,2.9-6.49,5.66-10.89,8.11-.64.36-1.45.13-1.8-.51-.36-.64-.13-1.45.51-1.8,24.79-13.81,21.98-37.81,21.94-38.05-.09-.73.42-1.39,1.14-1.49.73-.09,1.39.42,1.49,1.14.03.22,2.13,18.14-12.39,32.6Z"/>
            <path class="cls-12" d="M138.56,114.25c-1.04,1.04-2.19,2.05-3.44,3.02-.58.45-1.41.35-1.86-.23-.45-.58-.37-1.42.23-1.86,5.99-4.66,9.38-10.12,10.06-16.21,1.17-10.55-6.13-19.57-6.21-19.66-.47-.56-.41-1.41.18-1.87.57-.47,1.4-.38,1.87.18.33.4,8.09,9.99,6.8,21.64-.62,5.53-3.18,10.56-7.62,14.99Z"/>
            <path class="cls-12" d="M236.69,94.66c-.42.42-1.09.52-1.63.19-.19-.12-19.41-11.47-47.4,2.8-.65.33-1.45.07-1.79-.58-.33-.65-.06-1.45.58-1.79,29.38-14.98,49.17-3.21,49.99-2.7.62.38.82,1.2.44,1.82-.06.09-.12.17-.2.25Z"/>
            <path class="cls-8" d="M212.56,97.38c-7.26,1.56-27.04,4.55-25.52,10.55,1.52,6,4.74,10.04,8.19,7.03,3.45-3,24.81-19.18,17.34-17.58Z"/>
            <path class="cls-8" d="M210.56,77.24c-4.63-2.04-20.25-6.08-23.8-.94-3.55,5.15-2.66,12.25.01,10.91,2.68-1.35,29.59-7.41,23.79-9.97Z"/>
            <path class="cls-8" d="M176.76,117.21c-4.3-2.27-11.01-1.75-18.26-.94-7.26.82-18.21,2.07-15.15,4.34,3.07,2.26,1.6,10.98,6.03,12.3,4.43,1.32,37.46-13.32,26.93-15.29"/>
            <path class="cls-8" d="M168.76,73.18c-5.37.41-24.41,2.37-21.46,7.29,2.96,4.91,8.15,15.19,10.51,13.26,2.36-1.92,20.48-21.28,10.95-20.55Z"/>
            <path class="cls-8" d="M134.67,86.14c-12.71,4.38-12.64,19.41-9.25,20.25,3.38.84,22.8-24.92,9.25-20.25Z"/>
          </g>
          <path class="cls-12" d="M199.69,91.28c-.1.1-.2.18-.31.26-26.93,19.68-118.23,45.02-122.1,46.08-1.41.39-2.87-.44-3.26-1.85-.39-1.41.44-2.87,1.85-3.26.94-.26,94.24-26.14,120.38-45.25,1.18-.87,2.84-.61,3.71.58.78,1.07.65,2.53-.27,3.44Z"/>
        </g>
        <g>
          <g>
            <path class="cls-10" d="M75.15,230.73s-15.51,8.43-15.68,30.98c-6.29,14.22,2.48,38.56,7.67,45.51-3.91,15.4,30.23,40.35,20.69,52.43,24.67-7.7,34.9-42.24,32.28-54.55,11.23-14.28-2.16-39.32-2.16-39.32,1.5-12.49-21.94-32.79-42.79-35.04Z"/>
            <g class="cls-4">
              <path class="cls-10" d="M74.9,238.95c2.57,6.24-11.4,21.74-11.4,21.74,0,0,9.06.51,13.06-3.39,3.98-3.9,2.1,7.37,4.49,23.19,2.39,15.82-6.48,23.77-8.91,26.22,6.94,1.22,7.84-4.99,13.3-.29,5.46,4.7,7.63,36.09,5.72,47.86,17.67-19.96,2.46-56.49,2.46-56.49,0,0,14.95,13.67,22.11,6.69-16.6-4.14-26.03-31.94-26.03-31.94,0,0,13.9,6.9,26.41-5.85-13.5,5.01-29.89-12.97-28.31-20.56,1.56-7.54,19.27.27,19.54.39-8.46-7.86-20.7-14.57-32.17-15.8,0,0-9.27,5.05-13.56,17.76.13-.18,10.76-15.74,13.31-9.54Z"/>
            </g>
            <path class="cls-12" d="M68.34,308.59c-.43,0-.87-.02-1.31-.05-.73-.06-1.27-.7-1.21-1.43.06-.73.68-1.26,1.43-1.21,12.27,1.02,18.75-16.11,18.82-16.28.25-.69,1.02-1.04,1.7-.79.69.25,1.04,1.02.79,1.7-.28.76-6.82,18.07-20.22,18.07Z"/>
            <path class="cls-12" d="M59.46,263.03c-.59,0-1.13-.4-1.29-1-.18-.71.25-1.43.96-1.61.16-.04,16.07-4.2,17.97-18.29.1-.73.77-1.24,1.49-1.14.73.1,1.24.77,1.14,1.49-2.15,15.89-19.23,20.33-19.96,20.51-.11.03-.22.04-.32.04Z"/>
            <path class="cls-12" d="M120.1,306.42h-.04c-.26,0-26.2-1-36.63-29.29-.25-.69.1-1.45.79-1.7.69-.26,1.45.1,1.7.79,9.81,26.62,33.96,27.55,34.21,27.55.73.02,1.31.63,1.29,1.36-.02.72-.61,1.29-1.32,1.29Z"/>
            <path class="cls-12" d="M102.76,271.14c-2.12,0-4.34-.25-6.58-.86-6.63-1.81-12.04-6.42-16.08-13.72-.36-.64-.12-1.45.52-1.8.64-.35,1.45-.13,1.8.52,3.68,6.64,8.55,10.83,14.46,12.44,10.24,2.79,20.28-3.04,20.38-3.1.63-.37,1.44-.16,1.82.47.37.63.16,1.44-.47,1.82-.36.21-7.29,4.23-15.85,4.23Z"/>
            <path class="cls-12" d="M87.82,360.96c-.31,0-.61-.1-.86-.32-.56-.47-.62-1.31-.15-1.87.14-.17,14.33-17.41,4.55-47.26-.23-.7.15-1.45.85-1.68.7-.23,1.45.15,1.67.85,10.27,31.35-4.42,49.07-5.05,49.81-.26.31-.63.47-1.01.47Z"/>
            <path class="cls-8" d="M87.79,336.15c-.42-7.41-.33-27.42-6.48-26.85-6.16.57-10.64,3.13-8.21,7,2.44,3.87,15.12,27.47,14.69,19.85Z"/>
            <path class="cls-8" d="M108,337.28c2.73-4.26,9.13-19.07,4.6-23.38-4.54-4.3-11.69-4.52-10.78-1.67.92,2.86,2.75,30.38,6.18,25.05Z"/>
            <path class="cls-8" d="M73.72,297.72c2.91-3.9,3.43-10.61,3.75-17.9.31-7.3.76-18.32-1.95-15.63-2.71,2.69-11.09-.12-13.09,4.06-1.99,4.17,7.37,39.07,10.96,28.97"/>
            <path class="cls-8" d="M118.46,296.61c.42-5.36,1.43-24.48-3.88-22.33-5.31,2.17-16.27,5.7-14.73,8.33,1.54,2.63,17.87,23.53,18.61,14Z"/>
            <path class="cls-8" d="M110.92,260.93c-2.37-13.23-17.22-15.48-18.58-12.27-1.35,3.21,21.1,26.38,18.58,12.27Z"/>
          </g>
          <path class="cls-12" d="M97.95,325.47c-.96,0-1.89-.52-2.36-1.44-15.29-29.64-26.22-123.76-26.67-127.75-.17-1.46.88-2.77,2.33-2.94,1.46-.15,2.77.88,2.94,2.33.11.97,11.27,97.14,26.12,125.93.67,1.3.16,2.9-1.14,3.57-.39.2-.81.3-1.21.3Z"/>
        </g>
        <g>
          <g>
            <path class="cls-10" d="M162.21,194.19s3.98,17.19,25.66,23.38c12.02,9.86,37.82,7.9,45.9,4.75,13.8,7.88,46.96-18.36,56.05-5.94-.83-25.83-31.39-44.91-43.95-45.67-10.76-14.63-38.47-8.42-38.47-8.42-11.63-4.78-37.46,12.39-45.19,31.88Z"/>
            <g class="cls-4">
              <path class="cls-10" d="M170.07,196.62c6.7-.81,17.91,16.79,17.91,16.79,0,0,2.91-8.6.21-13.49-2.7-4.88,7.67-.05,23.55,1.86,15.88,1.92,21.18,12.59,22.89,15.59,3.03-6.36-2.72-8.89,3.27-12.9,5.99-4.01,36.82,2.29,47.65,7.27-14.51-22.36-53.78-17.45-53.78-17.45,0,0,17.17-10.75,12.35-19.53-8.42,14.9-37.73,16.56-37.73,16.56,0,0,10.36-11.56,1.41-27.01,1.22,14.35-20.48,25.34-27.37,21.8-6.85-3.52,5.41-18.5,5.59-18.73-9.83,6.05-19.57,16.07-23.82,26.79,0,0,2.39,10.28,13.5,17.81-.14-.17-12.3-14.57-5.64-15.37Z"/>
            </g>
            <path class="cls-12" d="M233.86,223.65c-.18.01-.37-.01-.55-.08-.69-.25-1.04-1.02-.79-1.7,4.26-11.55-10.52-22.37-10.67-22.48-.59-.43-.73-1.26-.3-1.85.43-.59,1.26-.73,1.85-.3.68.49,16.56,12.11,11.61,25.55-.19.51-.65.83-1.15.86Z"/>
            <path class="cls-12" d="M187.97,218.89s-.09,0-.13,0c-.73-.02-1.31-.63-1.29-1.36,0-.17.24-16.61-12.83-22.21-.67-.29-.99-1.07-.7-1.74.29-.67,1.07-.99,1.74-.7,14.75,6.32,14.46,23.97,14.44,24.71-.02.69-.56,1.24-1.23,1.29Z"/>
            <path class="cls-12" d="M209.12,198.58c-.72.05-1.36-.49-1.42-1.21-.06-.73.48-1.37,1.21-1.43,28.27-2.35,35.61-25.38,35.68-25.61.21-.7.96-1.09,1.65-.88.7.21,1.1.96.88,1.66-.08.25-7.96,24.98-38,27.48h-.02Z"/>
            <path class="cls-12" d="M188.21,196.35c-.64.04-1.23-.37-1.38-1.01-.17-.71.27-1.43.98-1.6,7.39-1.77,12.72-5.35,15.85-10.62,5.42-9.12,2.49-20.36,2.46-20.47-.19-.71.23-1.44.94-1.63.7-.2,1.44.23,1.62.94.14.5,3.25,12.44-2.74,22.52-3.51,5.91-9.4,9.89-17.51,11.84-.07.02-.15.03-.22.03Z"/>
            <path class="cls-12" d="M289.91,217.71c-.46.03-.92-.17-1.19-.58-.13-.18-12.95-18.45-44.33-17-.73.03-1.35-.53-1.39-1.27-.03-.73.42-1.38,1.26-1.39,32.95-1.52,46.11,17.36,46.65,18.16.41.61.25,1.43-.35,1.84-.2.14-.43.21-.65.22Z"/>
            <path class="cls-8" d="M267.17,210.15c-7.25-1.57-26.51-7.01-27.6-.92-1.09,6.08.17,11.09,4.55,9.78,4.38-1.31,30.51-7.24,23.05-8.86Z"/>
            <path class="cls-8" d="M273.66,190.97c-3.38-3.77-15.94-13.89-21.3-10.67-5.36,3.23-7.48,10.06-4.49,9.94,3-.13,30.01,5.46,25.79.73Z"/>
            <path class="cls-8" d="M226.38,213.44c-2.98-3.85-9.31-6.14-16.25-8.39-6.95-2.25-17.45-5.63-15.59-2.3,1.86,3.33-3.07,10.66.42,13.69,3.49,3.03,39.62,3.33,30.84-2.82"/>
            <path class="cls-8" d="M237.26,170.03c-5.05-1.84-23.22-7.91-22.55-2.22.67,5.69,1.15,17.2,4.1,16.42,2.95-.78,27.44-10.94,18.46-14.2Z"/>
            <path class="cls-8" d="M200.86,167.77c-13.38-1.25-19.52,12.46-16.78,14.63,2.73,2.16,31.06-13.3,16.78-14.63Z"/>
          </g>
          <path class="cls-12" d="M246.61,200.79c-38.85,2.74-115.67-9.24-119.26-9.81-1.45-.23-2.44-1.59-2.21-3.03.23-1.45,1.58-2.43,3.03-2.21.96.15,96.59,15.07,128.33,8.45,1.43-.32,2.84.62,3.14,2.05.3,1.44-.62,2.84-2.06,3.14-3.14.66-6.84,1.11-10.97,1.4Z"/>
        </g>
        <g>
          <g>
            <path class="cls-10" d="M195.1,250.37s-.52,17.64,18.88,29.14c9.12,12.59,34.57,17.25,43.19,16.26,11.34,11.13,50.08-5.83,55.71,8.51,5.76-25.2-18.94-51.42-30.89-55.34-6.7-16.88-35.07-17.92-35.07-17.92-10.03-7.58-39.38,2.46-51.8,19.35Z"/>
            <g class="cls-4">
              <path class="cls-10" d="M202.09,254.73c6.68.92,13.05,20.79,13.05,20.79,0,0,5-7.58,3.64-12.99-1.37-5.41,7.43,1.9,22.3,7.79,14.87,5.89,17.28,17.56,18.17,20.9,4.55-5.38-.37-9.29,6.44-11.64,6.81-2.35,35.03,11.57,44.24,19.14-8.35-25.32-47.58-30.55-47.58-30.55,0,0,19.34-6.04,16.92-15.74-11.93,12.27-40.71,6.42-40.71,6.42,0,0,12.95-8.54,8.23-25.77-2.47,14.19-26.25,19.3-32.02,14.12-5.73-5.14,9.93-16.51,10.17-16.69-11.05,3.35-23,10.57-29.84,19.86,0,0-.3,10.55,8.52,20.65-.1-.2-8.19-17.21-1.54-16.3Z"/>
            </g>
            <path class="cls-12" d="M257.16,297.1c-.26,0-.53-.08-.76-.24-.6-.42-.75-1.25-.33-1.85,7.04-10.09-4.49-24.31-4.61-24.45-.47-.57-.39-1.4.18-1.87.56-.46,1.4-.39,1.87.18.53.64,12.94,15.92,4.74,27.66-.26.37-.67.57-1.09.57Z"/>
            <path class="cls-12" d="M213.98,280.84c-.12,0-.25-.02-.37-.05-.7-.2-1.11-.94-.91-1.64.05-.16,4.46-16-6.77-24.74-.58-.45-.68-1.28-.23-1.86.45-.58,1.28-.68,1.86-.23,12.66,9.86,7.9,26.85,7.68,27.57-.17.58-.7.96-1.27.96Z"/>
            <path class="cls-12" d="M248.31,267.36c-2.81,0-5.78-.25-8.94-.8-.72-.13-1.2-.81-1.08-1.54.13-.72.82-1.2,1.54-1.08,27.94,4.92,40.9-15.49,41.03-15.7.38-.63,1.2-.82,1.82-.43.62.39.82,1.2.43,1.83-.12.2-11.25,17.72-34.8,17.72Z"/>
            <path class="cls-12" d="M220.79,259.1c-.29,0-.58,0-.88,0-.73-.02-1.31-.62-1.3-1.36.02-.72.61-1.3,1.33-1.3h.03c7.59.19,13.66-1.94,18.03-6.24,7.56-7.44,7.58-19.05,7.58-19.17,0-.73.59-1.33,1.32-1.34h0c.73,0,1.32.59,1.33,1.32,0,.52-.02,12.86-8.37,21.08-4.73,4.65-11.14,7.01-19.07,7.01Z"/>
            <path class="cls-12" d="M312.87,305.61c-.55,0-1.06-.34-1.25-.88-.07-.21-7.83-21.14-38.55-27.71-.72-.15-1.17-.86-1.02-1.57.15-.72.86-1.18,1.57-1.02,32.25,6.9,40.18,28.51,40.5,29.43.24.69-.12,1.45-.81,1.69-.15.05-.3.08-.44.08Z"/>
            <path class="cls-8" d="M292.56,292.5c-6.61-3.37-23.86-13.52-26.46-7.91-2.6,5.61-2.65,10.78,1.92,10.62,4.57-.16,31.35.75,24.54-2.71Z"/>
            <path class="cls-8" d="M303.71,275.6c-2.31-4.51-11.88-17.49-17.88-15.74-6,1.75-9.79,7.83-6.87,8.47,2.93.64,27.64,12.9,24.76,7.27Z"/>
            <path class="cls-8" d="M252.28,285.31c-1.91-4.48-7.44-8.3-13.59-12.25-6.15-3.94-15.44-9.88-14.49-6.18.96,3.69-5.68,9.53-3.08,13.35,2.61,3.82,37.48,13.29,30.55,5.11"/>
            <path class="cls-8" d="M273.83,246.09c-4.42-3.06-20.44-13.55-21.25-7.87-.8,5.68-3.26,16.93-.21,16.92,3.04,0,29.32-3.6,21.46-9.04Z"/>
            <path class="cls-8" d="M239.2,234.65c-12.62-4.61-22.05,7.09-19.95,9.88,2.09,2.78,33.41-4.97,19.95-9.88Z"/>
          </g>
          <g>
            <path class="cls-10" d="M206.81,298.29s-26.01,29.24-13.82,48c-6.95,18.39,6.01,28.16,16.46,33.2,3.78,13.72,36.56,18.98,47.61,37.91,7.38-17.62,23.03-60.02,13.2-73.85,3.51-17.9-21.14-27.1-21.14-27.1-5.17-17.26-35.95-19.28-42.31-18.15Z"/>
            <g class="cls-4">
              <path class="cls-10" d="M209.32,322.31c5.04,7.34-5.95,21.35-13.03,23.73.17.24,13.55,1.26,21.38-5.25,8.01,6.29-1.73,30.04-5.27,36.46,5.08-1.17,10.11-5.5,12.82-10.19,2.7-4.69,7.24,4.32,14.4,10.09,7.16,5.77.81,21.51.81,21.51,0,0,7.91-3.5,8.28-9.34.35-5.84,6.04-.76,11.16-3.02-14.95-6.6-29.17-26.99-29.12-34.32.03-7.33,16-3.48,31.41-6.72-31.25,1-41.76-26.85-36.63-26.24,5.14.61,8.92,2.16,19.25-1.62-2.33.44-20.71-4.16-24-7.37-3.29-3.21,4.09-7.44,18.11-5.32-11.22-6.44-27.63-7.21-32.09-6.41,0,0-15.98,17.97-17.01,34.78,1.04-6.35,14.77-17.68,19.53-10.76Z"/>
            </g>
            <path class="cls-12" d="M238.57,319.21c-14.85,0-26.12-7.88-26.7-8.3-.6-.42-.73-1.25-.31-1.85.43-.59,1.26-.73,1.85-.31.17.12,16.68,11.65,35.35,6.41.7-.2,1.44.21,1.63.92.2.7-.21,1.44-.92,1.64-3.77,1.06-7.44,1.49-10.91,1.49Z"/>
            <path class="cls-12" d="M254.01,347.04c-18.87,0-31.25-8.62-31.91-9.08-.6-.43-.74-1.25-.31-1.85.43-.6,1.25-.74,1.85-.31.19.13,19.61,13.58,46.27,6.47.7-.19,1.44.23,1.62.94.19.71-.23,1.43-.94,1.62-5.93,1.58-11.49,2.21-16.58,2.21Z"/>
            <path class="cls-12" d="M192.99,347.62c-.66,0-1.23-.49-1.31-1.17-.09-.73.43-1.39,1.15-1.48,8.93-1.1,15.38-4.31,19.19-9.52,5.16-7.06,3.66-15.45,3.64-15.54-.14-.72.34-1.41,1.06-1.55.73-.13,1.41.34,1.55,1.06.07.39,1.72,9.61-4.11,17.59-4.26,5.83-11.33,9.39-21.01,10.58-.06,0-.11.01-.16.01Z"/>
            <path class="cls-12" d="M209.45,380.81c-.42,0-.83-.2-1.09-.57-.42-.6-.27-1.43.33-1.85,19.98-13.93,14.69-34.01,14.63-34.21-.2-.71.22-1.44.92-1.63.7-.19,1.44.22,1.64.92.06.22,5.84,22.11-15.67,37.1-.23.16-.5.24-.76.24Z"/>
            <path class="cls-12" d="M264.34,388.08c-21.5,0-39.68-30.55-40.49-31.93-.37-.63-.16-1.44.47-1.82.63-.37,1.44-.16,1.82.47.2.34,20.37,34.22,41.74,30.3.73-.13,1.41.35,1.54,1.07.13.72-.35,1.41-1.07,1.54-1.35.25-2.69.36-4.01.36Z"/>
            <path class="cls-12" d="M237.68,401.76c-.48,0-.95-.26-1.18-.72-.33-.65-.08-1.45.57-1.79,10.86-5.58,7.33-19.49,7.3-19.63-.19-.71.24-1.43.94-1.62.7-.19,1.43.24,1.62.94.04.16,4.08,16.12-8.65,22.67-.19.1-.4.15-.61.15Z"/>
            <path class="cls-8" d="M268.68,371.4c1.22-7.09.85-20.41-6.06-20.28-6.91.13-21.74.34-14.02,5.4,7.72,5.06,8.51,20.5,3.56,19.64-4.94-.86,14.14,9.05,16.52-4.76Z"/>
            <path class="cls-8" d="M265.24,337.69c1.24-4.95-8.11-15.24-13.83-15.6-5.72-.37-22.17.1-16.35,4.32,5.82,4.23,28.19,19.21,30.17,11.28Z"/>
            <path class="cls-8" d="M210.29,368.79c1.66-6.04,3.54-19.81-1.49-19.19-5.04.62-17.14,1.91-13.61,10.71,3.53,8.81,13.03,16.01,15.1,8.48Z"/>
            <path class="cls-8" d="M200.93,337.31c4.12-4.74.76-9.75-3.98-9.36-4.74.39-2.36,16.66,3.98,9.36Z"/>
            <path class="cls-8" d="M236.78,388.97c-1.56-4.69-4.68-14.92-9.41-15.37-4.73-.44-14,5.97-7.45,11.77,6.56,5.8,19.46,11.35,16.86,3.6Z"/>
            <path class="cls-8" d="M257.92,405.6c6.52-3.59.14-15.27-3.7-15.58-3.85-.31-6.64,21.27,3.7,15.58Z"/>
          </g>
          <path class="cls-12" d="M225.33,351.43c-1.88,0-3.55-1.34-3.91-3.26-13.46-72.68-105.12-155.97-106.04-156.8-1.63-1.47-1.76-3.99-.29-5.62,1.47-1.63,3.99-1.76,5.62-.29,3.86,3.47,94.58,85.92,108.54,161.27.4,2.16-1.03,4.24-3.19,4.64-.25.05-.49.07-.73.07Z"/>
          <path class="cls-12" d="M286.16,279.66s-.09,0-.14,0c-33.31-1.7-120.14-39.62-123.82-41.23-1.34-.59-1.95-2.15-1.37-3.5.59-1.34,2.16-1.95,3.5-1.36.89.39,89.62,39.14,121.96,40.79,1.46.07,2.59,1.32,2.51,2.79-.07,1.42-1.24,2.52-2.65,2.52Z"/>
          <g>
            <path class="cls-10" d="M184.92,263.41s-28.73,13.8-23.49,22.84c-15.44,11.61-11.39,25.08-11.39,25.08,0,0-22.66,25.57-10.9,45.82,11.77,20.25,5.69,44.25,5.69,44.25,0,0,10.28,3.01,17.62-8.64,7.34-11.66,30.78-26.54,28.09-39.19,14.99-5.53,9.52-24.54,9.52-24.54,0,0,9.93-12.48,4.99-18.43,5.77-12.4-5.96-35.51-20.14-47.18Z"/>
            <g class="cls-4">
              <path class="cls-10" d="M142.67,354.33s13.97-3.1,14.71,3.76c.74,6.86-5.49,15.69-8.34,18.36,4.93,3.29,11.91-3.82,11.91-3.82,0,0,.09,3.69,2.83,4.82-1.31-7.55,7.77-34.97,7.77-34.97,0,0,4.36,13.35,10.49,9.47-9.14-11.85-4.12-26.49-3.36-24.83.76,1.66,5.09,6.89,15.49,2.67-17.52-6.01-9.66-29.41-8.67-27.36.99,2.06,4.06,7.92,13.62,6.8-7.05-3.57-9.65-15.65-9.97-20.81-.32-5.16,4.63-11.81,12.03-4.33-4.02-7.87-9.89-15.44-16.28-20.7,0,0-10.15,4.87-17.29,10.73,12.92-2.59,4.54,11.51-2.4,12.29,4.19,1.07,10.82,5.73,9.43,11.13-1.39,5.4-10.01,12.78-19.99,14.86,5.94,2.87,13.3,6.61,11.13,15.71-2.17,9.11-10.78,21.96-23.13,26.21Z"/>
            </g>
            <path class="cls-12" d="M164.14,354.87c-.32,0-.65-.06-.96-.18-1.37-.53-2.04-2.07-1.51-3.43.26-.67,26.04-67.25,20.6-86.96-.39-1.41.44-2.87,1.85-3.26,1.41-.4,2.87.44,3.26,1.85,5.9,21.4-19.68,87.49-20.77,90.3-.41,1.05-1.41,1.69-2.47,1.69Z"/>
            <path class="cls-12" d="M205.06,311.91c-.05,0-.1,0-.16,0-23.17-2.73-21.95-27.1-21.93-27.35.05-.73.68-1.28,1.4-1.24.73.04,1.29.67,1.25,1.4-.05.9-1.07,22.12,19.59,24.55.73.09,1.25.75,1.16,1.47-.08.68-.65,1.17-1.32,1.17Z"/>
            <path class="cls-12" d="M193.87,331.14c-3.25,0-7.19-.64-10.56-3.03-4.31-3.06-6.69-8.27-7.07-15.47-.04-.73.52-1.36,1.25-1.39.76-.06,1.35.52,1.4,1.26.33,6.35,2.33,10.87,5.95,13.44,6.04,4.3,14.77,1.84,14.85,1.81.7-.21,1.44.2,1.65.9.2.7-.2,1.44-.9,1.64-.21.06-2.97.85-6.56.85Z"/>
            <path class="cls-12" d="M164.51,287.69c-1.8,0-3.01-.1-3.2-.12-.73-.07-1.26-.72-1.2-1.44.07-.73.71-1.27,1.44-1.2.19.02,18.64,1.61,22.57-8.82.26-.69,1.02-1.03,1.71-.77.69.26,1.03,1.02.77,1.71-3.57,9.48-16.11,10.65-22.1,10.65Z"/>
            <path class="cls-12" d="M160.77,314.28c-6.07,0-10.77-1.57-11.16-1.7-.69-.24-1.06-.99-.82-1.68.24-.69.99-1.06,1.68-.83.18.06,17.64,5.86,28.2-5.79.49-.55,1.33-.58,1.87-.09.54.49.58,1.33.09,1.87-5.95,6.56-13.63,8.21-19.87,8.21Z"/>
            <path class="cls-12" d="M138.08,356.43c-.68,0-1.26-.52-1.32-1.2-.07-.73.47-1.38,1.2-1.44.23-.02,23.1-2.35,31-18.66.32-.66,1.11-.93,1.77-.62.66.32.94,1.11.62,1.77-8.56,17.68-32.14,20.06-33.14,20.15-.04,0-.08,0-.12,0Z"/>
            <path class="cls-12" d="M189.42,354.91c-4.8,0-8.79-1.54-11.87-4.59-7.21-7.14-6.78-19.95-6.75-20.5.03-.73.64-1.27,1.38-1.27.73.03,1.3.65,1.27,1.38,0,.12-.4,12.2,5.98,18.51,2.77,2.74,6.5,4.02,11.04,3.78.74-.03,1.36.53,1.39,1.26.04.73-.53,1.36-1.26,1.39-.4.02-.79.03-1.18.03Z"/>
            <path class="cls-12" d="M165.88,389.56c-.58,0-1.11-.38-1.28-.97-.32-1.16-7.81-28.52,1.31-44.84.36-.64,1.16-.87,1.81-.51.64.36.87,1.16.51,1.8-8.59,15.38-1.15,42.56-1.07,42.84.2.7-.22,1.44-.92,1.63-.12.03-.24.05-.36.05Z"/>
            <path class="cls-12" d="M147.12,378.1c-.49,0-1-.02-1.52-.07-.73-.06-1.27-.71-1.21-1.44.06-.73.7-1.27,1.44-1.2,11.27.99,15.63-11.42,15.68-11.54.24-.69.99-1.06,1.69-.82.69.24,1.06.99.82,1.69-.05.14-4.75,13.39-16.9,13.39Z"/>
            <path class="cls-8" d="M203.52,303.31c1.17-3.59-6.22-16.73-9.75-16.15-3.53.58,7.49,23.07,9.75,16.15Z"/>
            <path class="cls-8" d="M200.68,322.78c2.89-3.14-1.21-9.06-5.66-9.17-4.45-.11-8.52-3.15-8.59.67-.08,3.82,8.69,14.54,14.25,8.5Z"/>
            <path class="cls-8" d="M193.78,347.73c4.25-5.24,2.44-13.62-3.02-12.73-5.46.88-12.38-2.39-11.2,3.31,1.19,5.7,10.26,14.3,14.22,9.42Z"/>
            <path class="cls-8" d="M153.74,340.62c2.62-4,10.12-15.56,2.96-19.37-7.16-3.8-15.86,8.01-16.31,15.98-.45,7.97,8.94,10.12,13.34,3.38Z"/>
            <path class="cls-8" d="M165.23,303.42c3.25-3.44,3.24-9.41-.85-10.92-4.09-1.51-11.19,7.13-10.83,11.83.37,4.7,7.17,3.87,11.68-.91Z"/>
            <path class="cls-8" d="M168.25,282.04c3.44-1,1.97-5.41-.38-4.92-2.35.49-4.4,6.31.38,4.92Z"/>
            <path class="cls-8" d="M177.38,370.67c3.54-6.63,4.03-10.31.29-13.26-3.74-2.95-8.88,3.86-9.82,11.26-.94,7.4,5.79,9.01,9.53,2.01Z"/>
            <path class="cls-8" d="M149.3,365.33c3.24-1.48,2.84-8.55-.66-8.51-3.51.04-7.25,12.13.66,8.51Z"/>
            <path class="cls-8" d="M156.52,394.57c3.26-2.75,4.87-15.67,2.71-17.3-2.16-1.63-9.91,9.92-9.79,13.43.12,3.5,1.69,8.41,7.08,3.87Z"/>
          </g>
        </g>
        <g>
          <g>
            <path class="cls-10" d="M35.29,111.77s14.11,10.6,34.69,1.4c15.55-.19,34.03-18.28,38.2-25.9,15.63-2.85,24.13-44.27,39.09-40.6-17.26-19.24-52.93-14.19-63.03-6.69-17.66-4.27-34.87,18.31-34.87,18.31-11.98,3.82-20.71,33.58-14.08,53.48Z"/>
            <g class="cls-4">
              <path class="cls-10" d="M42.88,108.58c4.6-4.93,24.51,1.33,24.51,1.33,0,0-3.3-8.46-8.51-10.46-5.21-2,5.84-4.97,19.22-13.72,13.39-8.75,24.31-3.99,27.55-2.79-1.77-6.82-7.8-5.06-5.79-11.97,2.01-6.92,29.66-21.94,41.16-25.09-25.5-7.78-52.4,21.24-52.4,21.24,0,0,6.22-19.28-3.1-22.9,3.14,16.83-18.24,36.96-18.24,36.96,0,0,.5-15.51-16.3-21.59,10.17,10.2.63,32.57-6.93,34.3-7.5,1.71-7.76-17.64-7.77-17.94-3.63,10.96-4.64,24.89-.99,35.83,0,0,8.44,6.34,21.78,4.95-.22-.04-18.79-3.24-14.2-8.14Z"/>
            </g>
            <path class="cls-12" d="M108.18,88.6c-.54,0-1.05-.34-1.25-.88-4.17-11.58-22.44-10.36-22.63-10.34-.72.06-1.37-.49-1.42-1.22-.05-.73.49-1.37,1.22-1.42.84-.07,20.47-1.39,25.33,12.09.25.69-.11,1.45-.8,1.7-.15.05-.3.08-.45.08Z"/>
            <path class="cls-12" d="M69.98,114.49c-.39,0-.78-.17-1.04-.5-.1-.13-10.5-12.87-24.11-8.75-.71.21-1.44-.19-1.65-.88-.21-.7.18-1.44.88-1.65,15.36-4.65,26.49,9.05,26.95,9.63.46.57.36,1.41-.21,1.86-.24.19-.54.29-.83.29Z"/>
            <path class="cls-12" d="M73.11,85.34c-.34,0-.68-.13-.94-.39-.52-.52-.51-1.36,0-1.88,20.13-19.99,10.94-42.34,10.84-42.57-.29-.67.03-1.45.7-1.74.67-.29,1.45.03,1.74.7.1.24,9.98,24.24-11.42,45.49-.26.26-.6.39-.93.39Z"/>
            <path class="cls-12" d="M55.66,97.08c-.27,0-.55-.09-.79-.26-.59-.44-.71-1.27-.28-1.86,4.51-6.11,6.3-12.28,5.31-18.33-1.72-10.47-11.19-17.19-11.29-17.25-.6-.42-.75-1.25-.33-1.85.42-.6,1.24-.75,1.85-.33.43.3,10.49,7.43,12.39,19,1.11,6.78-.83,13.62-5.79,20.33-.26.35-.66.54-1.07.54Z"/>
            <path class="cls-12" d="M101.13,63.81c-.36,0-.71-.14-.98-.43-.5-.54-.46-1.38.08-1.87,24.24-22.36,46.47-16.37,47.4-16.11.7.2,1.11.93.91,1.64-.2.71-.93,1.12-1.64.92-.21-.06-21.79-5.8-44.88,15.5-.26.23-.58.35-.9.35Z"/>
            <path class="cls-8" d="M125.92,56.46c-6.57,3.46-24.81,11.69-21.73,17.05,3.08,5.36,7.27,8.38,9.78,4.56,2.51-3.82,18.7-25.17,11.94-21.61Z"/>
            <path class="cls-8" d="M118.55,37.61c-5.01-.72-21.14-.39-23.17,5.53-2.03,5.92.74,12.52,2.95,10.5,2.22-2.03,26.49-15.13,20.22-16.03Z"/>
            <path class="cls-8" d="M96.81,85.23c-4.76-1.03-11.07,1.29-17.84,4.03-6.77,2.75-16.98,6.92-13.41,8.27,3.57,1.35,4.5,10.14,9.13,10.21,4.62.08,32.47-22.94,21.8-22"/>
            <path class="cls-8" d="M77.22,45c-5.05,1.84-22.86,8.88-18.69,12.81,4.17,3.93,11.95,12.43,13.7,9.93,1.75-2.49,13.97-26.03,4.99-22.75Z"/>
            <path class="cls-8" d="M47.89,66.68c-11.05,7.65-6.92,22.1-3.44,22,3.48-.11,15.22-30.16,3.44-22Z"/>
          </g>
          <g>
            <path class="cls-10" d="M81.19,129.86s8.88,38.11,31.24,38.97c11.01,16.29,26.46,11.33,36.61,5.7,13.39,4.83,36.59-18.92,58.42-17.02-10.13-16.2-35.73-53.44-52.71-53.38-12.6-13.2-34.33,1.63-34.33,1.63-17.08-5.73-36.49,18.24-39.24,24.09Z"/>
            <g class="cls-4">
              <path class="cls-10" d="M102.26,141.66c8.9.11,14,17.18,11.86,24.33.29,0,8.84-10.34,8.05-20.5,9.77-2.92,23.54,18.74,26.74,25.33,1.97-4.83,1.34-11.44-.93-16.35-2.27-4.91,7.71-3.42,16.55-5.94,8.84-2.52,18.04,11.75,18.04,11.75,0,0,1.71-8.48-2.86-12.15-4.56-3.66,2.86-5.37,3.97-10.86-14.01,8.4-38.87,8.25-44.83,3.99-5.96-4.26,6.38-15.08,12.63-29.54-17.21,26.1-46.02,18.62-42.56,14.78,3.46-3.84,6.91-6.03,9.78-16.66-.99,2.16-15.35,14.52-19.86,15.36-4.51.83-3.72-7.63,6.11-17.86-11.73,5.45-21.82,18.41-23.75,22.51,0,0,5.47,23.43,18.6,33.96-4.58-4.51-5.92-22.26,2.47-22.16Z"/>
            </g>
            <path class="cls-12" d="M93.98,133.07c-.55,0-1.06-.34-1.25-.89-.24-.69.12-1.45.81-1.69.19-.07,19.13-6.91,25.63-25.17.24-.69,1.01-1.05,1.69-.81.69.25,1.05,1,.81,1.69-6.93,19.49-26.43,26.5-27.25,26.79-.14.05-.29.07-.44.07Z"/>
            <path class="cls-12" d="M121.97,140.32c-.55,0-1.06-.34-1.25-.89-.24-.69.12-1.45.81-1.69.22-.08,22.42-8.18,31.97-34.06.25-.68,1.02-1.03,1.71-.78.69.25,1.04,1.02.78,1.7-10,27.09-32.62,35.31-33.58,35.64-.14.05-.29.08-.44.08Z"/>
            <path class="cls-12" d="M112.43,170.16c-.21,0-.43-.05-.63-.16-.65-.35-.89-1.15-.54-1.8,4.25-7.93,5.36-15.05,3.3-21.17-2.79-8.29-10.51-11.91-10.59-11.94-.67-.31-.96-1.09-.65-1.76.3-.66,1.09-.96,1.76-.65.36.16,8.85,4.14,12,13.51,2.3,6.84,1.13,14.67-3.47,23.27-.24.45-.7.7-1.17.7Z"/>
            <path class="cls-12" d="M149.04,175.86h0c-.73,0-1.32-.6-1.32-1.33.15-24.36-19.31-31.62-19.51-31.69-.69-.25-1.05-1.01-.8-1.7.25-.69,1-1.05,1.7-.8.21.08,21.42,7.98,21.26,34.2,0,.73-.6,1.32-1.33,1.32Z"/>
            <path class="cls-12" d="M145.06,149.55c-3.81,0-6.38-.2-6.78-.24-.73-.06-1.27-.7-1.21-1.43.06-.73.72-1.27,1.43-1.21.4.03,39.68,3.11,48.83-16.62.31-.66,1.1-.95,1.76-.65.66.31.95,1.1.65,1.76-7.56,16.31-32.49,18.38-44.68,18.38Z"/>
            <path class="cls-12" d="M182.43,164.89c-.06,0-.12,0-.19-.01-.73-.1-1.23-.77-1.13-1.5,1.7-12.06-11.27-17.08-11.82-17.29-.69-.26-1.03-1.02-.78-1.71.26-.69,1.02-1.04,1.7-.78.15.06,15.52,5.96,13.52,20.14-.09.66-.66,1.14-1.31,1.14Z"/>
            <path class="cls-8" d="M176.59,121.49c-5.08-5.08-16.18-12.47-20.06-6.76-3.88,5.72-12.27,17.95-3.68,14.57,8.58-3.39,21.65,4.87,18.1,8.42-3.55,3.54,15.54-6.32,5.64-16.24Z"/>
            <path class="cls-8" d="M147.08,104.86c-3.33-3.87-17.12-2.17-20.72,2.29-3.6,4.46-12.71,18.16-5.9,15.84,6.81-2.32,31.95-11.95,26.62-18.14Z"/>
            <path class="cls-8" d="M140.78,167.68c-3.98-4.84-14.13-14.32-16.54-9.85-2.4,4.47-8.33,15.1.9,17.3,9.23,2.19,20.6-1.41,15.64-7.45Z"/>
            <path class="cls-8" d="M109.67,157.17c-1.49-6.1-7.52-6.24-9.94-2.15-2.42,4.1,12.24,11.54,9.94,2.15Z"/>
            <path class="cls-8" d="M172.55,157.68c-4.74-1.42-14.89-4.78-17.98-1.17-3.1,3.61-3.2,14.88,5.31,12.87,8.52-2.01,20.5-9.35,12.67-11.7Z"/>
            <path class="cls-8" d="M198.32,150.02c.83-7.39-12.39-8.92-14.86-5.97-2.47,2.96,13.54,17.69,14.86,5.97Z"/>
          </g>
          <path class="cls-12" d="M132.03,147.06c-.56,0-1.12-.12-1.66-.37-67.17-30.94-188.04-4.11-189.26-3.84-2.14.48-4.27-.86-4.76-3-.49-2.14.86-4.27,3-4.76,5.06-1.14,124.74-27.69,194.34,4.37,2,.92,2.87,3.28,1.95,5.28-.67,1.46-2.11,2.32-3.62,2.32Z"/>
          <path class="cls-12" d="M5.18,132.14c-.9,0-1.78-.46-2.27-1.28-.76-1.26-.35-2.89.9-3.64.83-.5,83.67-50.62,103.68-76.09.91-1.15,2.57-1.35,3.73-.45,1.15.9,1.35,2.57.45,3.73C91.06,80.62,9.99,129.68,6.55,131.76c-.43.26-.9.38-1.37.38Z"/>
          <g>
            <path class="cls-10" d="M40.06,127.61s-5.31,31.43,5.11,32.36c.58,19.31,13.91,23.78,13.91,23.78,0,0,7.82,33.27,31.14,35.34,23.33,2.07,39.43,20.88,39.43,20.88,0,0,8.39-6.66,3.1-19.38-5.29-12.72-3.92-40.45-15.81-45.55,4.14-15.44-14.55-21.93-14.55-21.93,0,0-4.47-15.31-12.18-14.71-6.8-11.86-32.44-15.62-50.16-10.77Z"/>
            <g class="cls-4">
              <path class="cls-10" d="M89.96,214.58s5.53-13.2,11.56-9.84c6.03,3.35,9.64,13.53,10.19,17.4,5.53-2.13,3.75-11.93,3.75-11.93,0,0,3.06,2.06,5.57.47-6.92-3.29-24.08-26.52-24.08-26.52,0,0,13.43,4.14,13.79-3.11-14.95.63-24.01-11.91-22.22-11.58,1.79.34,8.56-.19,11.12-11.11-15.01,10.84-29.6-9.08-27.34-8.7,2.25.38,8.81,1.26,13.41-7.2-6.98,3.7-18.35-1.15-22.75-3.87-4.4-2.72-6.97-10.6,3.41-12.32-8.74-1.26-18.32-.83-26.3,1.36,0,0-1.88,11.11-1.21,20.31,5.34-12.05,12.02,2.93,8.65,9.05,3.29-2.81,10.92-5.53,14.53-1.28,3.61,4.25,4.67,15.55.61,24.9,5.78-3.2,13.07-7.05,19.26-.03,6.19,7.03,11.72,21.47,8.06,34.01Z"/>
            </g>
            <path class="cls-12" d="M100.62,198.47c-.86,0-1.7-.42-2.21-1.19-.4-.6-39.91-60.06-59.15-66.99-1.38-.5-2.09-2.02-1.6-3.4.5-1.38,2.02-2.09,3.4-1.6,20.88,7.52,60.12,66.55,61.78,69.06.81,1.22.47,2.87-.75,3.68-.45.3-.96.44-1.46.44Z"/>
            <path class="cls-12" d="M73.79,147.61c-9.67,0-17.46-6.11-17.58-6.21-.57-.46-.66-1.29-.2-1.86.46-.57,1.29-.66,1.86-.21.71.56,17.45,13.63,31.36-1.84.49-.55,1.33-.59,1.87-.1.54.49.59,1.33.1,1.87-5.69,6.33-11.86,8.34-17.41,8.34Z"/>
            <path class="cls-12" d="M87.13,167.07c-3.69,0-7.66-1.33-11.86-3.97-.62-.39-.81-1.21-.41-1.83.39-.62,1.22-.81,1.83-.41,5.38,3.39,10.23,4.37,14.42,2.89,7.01-2.47,10.01-10.99,10.03-11.08.24-.69.99-1.06,1.69-.82.69.24,1.06.99.83,1.69-.14.4-3.46,9.83-11.66,12.72-1.56.55-3.18.82-4.86.82Z"/>
            <path class="cls-12" d="M45.17,161.29c-.31,0-.61-.1-.86-.32-.56-.48-.62-1.31-.14-1.87.12-.14,12.07-14.29,5.82-23.52-.41-.61-.25-1.43.35-1.84.6-.41,1.43-.25,1.84.35,7.39,10.9-5.45,26.09-6,26.74-.26.3-.63.46-1.01.46Z"/>
            <path class="cls-12" d="M59.08,185.07c-.41,0-.82-.19-1.08-.55-.43-.59-.29-1.42.3-1.85.15-.11,14.96-11.03,11.54-26.37-.16-.72.29-1.42,1.01-1.58.71-.16,1.42.29,1.58,1.01,3.8,17.07-11.91,28.62-12.58,29.1-.23.17-.51.25-.78.25Z"/>
            <path class="cls-12" d="M87.94,220.09c-.22,0-.45-.06-.66-.18-.63-.36-.85-1.17-.49-1.81.12-.2,11.41-20.22,2.64-36.08-.35-.64-.12-1.45.52-1.8.64-.36,1.45-.12,1.8.52,9.5,17.19-2.16,37.82-2.66,38.69-.24.43-.69.66-1.15.66Z"/>
            <path class="cls-12" d="M103.75,184.03c-8.92,0-17.19-6.27-17.58-6.57-.58-.45-.69-1.28-.24-1.86.45-.58,1.28-.69,1.86-.24.1.07,9.75,7.38,18.57,5.79,3.84-.68,7.02-2.98,9.46-6.83.39-.62,1.21-.8,1.83-.41.62.39.8,1.21.41,1.83-2.85,4.51-6.64,7.21-11.25,8.03-1.02.18-2.05.26-3.07.26Z"/>
            <path class="cls-12" d="M131.04,216.5c-.15,0-.3-.02-.45-.08-1.13-.4-27.8-10.08-35.87-26.94-.32-.66-.04-1.45.62-1.77.66-.32,1.45-.04,1.77.63,7.61,15.88,34.1,25.49,34.37,25.58.69.25,1.05,1,.8,1.7-.19.54-.7.88-1.25.88Z"/>
            <path class="cls-12" d="M110,226.33c-.3,0-.61-.1-.86-.31-.56-.47-.63-1.31-.16-1.87,7.29-8.61-.31-19.35-.39-19.46-.43-.59-.3-1.42.3-1.85.6-.43,1.43-.29,1.85.3.09.12,8.87,12.55.26,22.73-.26.31-.64.47-1.01.47Z"/>
            <path class="cls-8" d="M83.39,135.44c-2.26-3.03-17.26-4.57-18.82-1.36-1.56,3.22,23.17,7.19,18.82,1.36Z"/>
            <path class="cls-8" d="M97.66,148.99c-.89-4.17-8.1-4.24-10.76-.67-2.66,3.57-7.49,5.15-4.41,7.41,3.08,2.26,16.89,1.29,15.17-6.74Z"/>
            <path class="cls-8" d="M114.05,169.01c-1.83-6.49-9.72-9.84-12.14-4.87-2.43,4.97-9.1,8.74-3.76,11.06,5.35,2.32,17.6-.13,15.9-6.18Z"/>
            <path class="cls-8" d="M85.15,197.62c-1.76-4.45-6.87-17.24-14.11-13.59-7.23,3.66-2.6,17.58,3.65,22.54,6.25,4.96,13.43-1.47,10.46-8.95Z"/>
            <path class="cls-8" d="M61.39,166.78c-.94-4.63-5.82-8.07-9.41-5.6-3.59,2.47-.64,13.25,3.42,15.67,4.05,2.41,7.29-3.63,5.99-10.07Z"/>
            <path class="cls-8" d="M45.67,151.98c1.17-3.39-3.28-4.73-4.24-2.53-.96,2.21,2.62,7.23,4.24,2.53Z"/>
            <path class="cls-8" d="M123.34,195.65c-3.37-6.71-6.1-9.24-10.67-7.89-4.57,1.35-1.97,9.48,3.53,14.51,5.5,5.03,10.7.47,7.14-6.63Z"/>
            <path class="cls-8" d="M102.77,215.51c.66-3.5-5.34-7.26-7.34-4.37-1.99,2.89,5.73,12.91,7.34,4.37Z"/>
            <path class="cls-8" d="M130.82,226.47c-.37-4.25-9.99-13.02-12.57-12.19-2.58.83,2.39,13.82,5.32,15.74,2.93,1.92,7.85,3.47,7.25-3.55Z"/>
          </g>
        </g>
      </g>
      <g>
        <g>
          <path class="cls-3" d="M108.74,346.76l-2.37-1.23c8.54-16.52-5.22-35.85-5.36-36.04l2.16-1.57c.61.84,14.88,20.84,5.57,38.83Z"/>
          <path class="cls-3" d="M127.5,341.18c-.25-.34-24.85-34.29-39.47-42.24l1.27-2.34c15.15,8.24,39.34,41.61,40.36,43.02l-2.16,1.56Z"/>
          <g>
            <path class="cls-14" d="M91.35,368.97s-9,10.98-8.07,26.23c.93,15.24,7.74,21.14,14.42,17.46,13.26,7.38,27.77-12.55,16.1-44.24-8-6.9-22.45.55-22.45.55Z"/>
            <g class="cls-5">
              <path class="cls-13" d="M117.55,396.97c1.22-7.58.39-17.33-3.75-28.55-8-6.9-22.45.55-22.45.55,0,0-9,10.98-8.07,26.23.1,1.6.26,3.09.49,4.48-.14-8.76,7.48-24.73,11.71-23.12,4.23,1.61-.17,14.95,2.6,15.52,2.76.56.16-13.52,4.26-12.39,4.1,1.12.39,21.87,3.57,19.99,3.19-1.87-.15-22.35,3.2-23.1,3.34-.75,7,5.68,8.45,20.4Z"/>
            </g>
            <path class="cls-3" d="M109.21,323.28s-7.36,8.07-7.66,17.7c-.31,9.63-10.21,27.99-10.21,27.99,0,0,12.33,7.13,22.45-.55-1.6-13.04,6.81-38.25-4.58-45.14Z"/>
            <g class="cls-6">
              <path class="cls-1" d="M115.23,342.27c.34-8.29-.6-15.72-6.02-18.99,0,0-7.36,8.07-7.66,17.7-.13,3.8-1.74,8.96-3.65,13.82,3.42-3.45,5.74-22.58,8.44-21.06,2.7,1.52-7.39,24.61-3.82,25.22,3.56.61,6.76-23.52,7.92-26.98,1.17-3.45,3.06-.3,4.8,10.29Z"/>
            </g>
            <path class="cls-9" d="M111.29,407.83c2.12-5.46,3.5-19.01,1.2-20.03-2.3-1.02-3.19,16.1-7.56,14.72-4.36-1.38-.72-12.88-3.23-12.28-2.51.61-2.18,7.71-6.59,6.42-4.41-1.3,1.42-12.98-1.91-14.39-3.33-1.42-8.3,19.23-4.66,24.01,3.64,4.78,7.53.7,9.78,1.8,2.25,1.11,10.83,5.22,12.96-.24Z"/>
          </g>
          <g>
            <path class="cls-14" d="M131.25,356.35s.98,8.82,8.2,15.05c7.22,6.24,12.83,5.76,14.09,1.18,9.09-2.7,6.51-17.89-12.74-26.5-6.58.56-9.55,10.27-9.55,10.27Z"/>
            <g class="cls-5">
              <path class="cls-13" d="M155.2,356.86c-2.86-3.85-7.57-7.74-14.4-10.79-6.58.56-9.55,10.27-9.55,10.27,0,0,.98,8.82,8.2,15.05.76.65,1.49,1.23,2.21,1.74-3.97-3.76-7.79-14.14-5.22-15.33,2.57-1.19,6.6,6.6,8.07,5.61,1.46-.99-5.97-5.97-3.68-7.31,2.29-1.34,9.94,9.37,10.49,7.13.56-2.24-10.06-9.69-8.93-11.52,1.13-1.82,5.59-.65,12.81,5.13Z"/>
            </g>
            <path class="cls-3" d="M118.63,328.42s.4,6.8,4.57,11.15c4.17,4.34,8.05,16.78,8.05,16.78,0,0,8.57-2.4,9.55-10.27-6.53-4.98-14.12-19.74-22.17-17.65Z"/>
            <g class="cls-6">
              <path class="cls-1" d="M129.75,334.02c-3.56-3.77-7.29-6.59-11.12-5.6,0,0,.4,6.8,4.57,11.15,1.64,1.72,3.25,4.69,4.58,7.67-.05-3.04-7.59-12.42-5.73-12.96,1.86-.54,7.78,14.04,9.61,12.71,1.83-1.32-7.56-13.29-8.6-15.31-1.03-2.03,1.2-1.5,6.69,2.34Z"/>
            </g>
            <path class="cls-9" d="M157.33,364.4c-1.51-3.33-6.97-9.86-8.43-9.28-1.45.59,5.8,8.46,3.29,9.8-2.52,1.35-6.08-5.3-6.9-3.92-.82,1.39,2.5,4.35,0,5.74-2.5,1.4-5.18-6.3-7.27-5.42-2.08.86,4.98,12.1,8.7,12.56,3.72.46,3.6-3.06,5.08-3.59,1.48-.52,7.05-2.57,5.55-5.9Z"/>
          </g>
        </g>
        <g>
          <path class="cls-3" d="M237.68,75.89c-10.82,5.56-23.07,4.82-23.8,4.77l.18-2.66c.24.02,23.93,1.42,33.39-14.59l2.3,1.36c-3.08,5.22-7.44,8.75-12.06,11.12Z"/>
          <path class="cls-3" d="M254.8,86.29c-1.74-.11-42.85-2.89-57.88-11.36l1.31-2.32c14.5,8.17,56.33,11,56.75,11.02l-.18,2.66Z"/>
          <g>
            <path class="cls-14" d="M259.33,38.23s4.52-13.46,17.94-20.76c13.42-7.3,22.03-4.66,22.45,2.95,13.3,7.32,4.1,30.2-28.94,37.13-10.09-3.12-11.45-19.32-11.45-19.32Z"/>
            <g class="cls-5">
              <path class="cls-13" d="M296.97,45.57c-5.78,5.06-14.48,9.53-26.19,11.98-10.09-3.12-11.45-19.32-11.45-19.32,0,0,4.52-13.46,17.94-20.76,1.41-.77,2.76-1.42,4.06-1.97-7.5,4.53-16.99,19.47-13.38,22.2,3.61,2.73,12.58-8.09,14.53-6.04,1.95,2.04-11.37,7.31-8.24,10.18,3.13,2.88,18.74-11.28,18.84-7.59.11,3.69-19.02,11.74-17.88,14.97,1.14,3.23,8.53,2.92,21.78-3.67Z"/>
            </g>
            <path class="cls-3" d="M230.1,77.63s2.93-10.51,10.93-15.88c7.99-5.38,18.3-23.51,18.3-23.51,0,0,12.59,6.66,11.45,19.32-11.9,5.56-28.8,26.08-40.68,20.08Z"/>
            <g class="cls-6">
              <path class="cls-1" d="M249.39,72.65c-6.85,4.69-13.63,7.84-19.29,4.98,0,0,2.93-10.51,10.93-15.88,3.16-2.13,6.67-6.24,9.77-10.44-1.1,4.73-16.09,16.85-13.36,18.33,2.72,1.48,16.93-19.32,19.34-16.62,2.41,2.7-16.35,18.21-18.66,21.03-2.31,2.82,1.37,2.75,11.27-1.39Z"/>
            </g>
            <path class="cls-9" d="M302.85,34.5c-3.5,4.7-14.25,13.06-16.34,11.65-2.08-1.41,11.94-11.25,8.46-14.21-3.48-2.96-11.3,6.22-12.12,3.78-.82-2.45,5.38-5.94,1.94-8.98-3.44-3.04-10.24,8.1-13.21,6.02-2.98-2.07,11.89-17.24,17.87-16.69,5.98.55,4.59,6.02,6.72,7.33,2.13,1.32,10.17,6.41,6.67,11.11Z"/>
          </g>
          <g>
            <path class="cls-14" d="M269.83,78.75s7.99-3.85,17.11-1.04c9.12,2.81,11.69,7.81,8.48,11.32,2.54,9.14-11.7,15.02-29.22,3.28-3.02-5.88,3.64-13.55,3.64-13.55Z"/>
            <g class="cls-5">
              <path class="cls-13" d="M282.97,98.78c-4.78-.37-10.58-2.31-16.79-6.47-3.02-5.88,3.64-13.55,3.64-13.55,0,0,7.99-3.85,17.11-1.04.96.29,1.84.61,2.65.95-5.29-1.37-16.12.91-15.76,3.71.35,2.81,9.1,2.1,9.04,3.86-.07,1.76-8.23-1.89-8.15.76.08,2.65,13.22,3.45,11.62,5.11-1.61,1.66-13.55-3.38-14.5-1.46-.95,1.92,2.42,5.08,11.15,8.13Z"/>
            </g>
            <path class="cls-3" d="M239.46,82.88s5.98-3.28,11.87-2.05c5.89,1.23,18.5-2.08,18.5-2.08,0,0,2.52,8.54-3.64,13.55-7.68-2.89-24.23-1.49-26.73-9.42Z"/>
            <g class="cls-6">
              <path class="cls-1" d="M250.1,89.33c-5.08-1.01-9.46-2.68-10.64-6.45,0,0,5.98-3.28,11.87-2.05,2.33.49,5.7.26,8.93-.19-2.6,1.57-14.56.16-14.03,2.03.53,1.86,16.02-.86,15.87,1.39-.15,2.26-15.28.65-17.54.84-2.27.2-.63,1.82,5.54,4.43Z"/>
            </g>
            <path class="cls-9" d="M290.49,96.58c-3.63.49-12.06-.67-12.34-2.22-.27-1.55,10.25.43,10.05-2.43-.2-2.85-7.72-2.33-6.99-3.77.75-1.44,5.01-.19,4.87-3.05-.14-2.87-8.09-1.05-8.46-3.28-.38-2.23,12.9-2.21,15.26.7,2.36,2.91-.68,4.68-.35,6.21.34,1.53,1.57,7.34-2.05,7.83Z"/>
          </g>
        </g>
        <g>
          <path class="cls-1" d="M91.5,259.53s14.39,37.23,14.97,45.52c.58,8.3-7.08,13.76-20.37,12.33-13.3-1.44-41.05,11.93-45.88-11.16,12.15-29.42,41.74-46.08,51.29-46.68Z"/>
          <g class="cls-6">
            <path class="cls-1" d="M103.64,293.62l-17.1-32.93c-12.34,4.26-35.71,20.06-46.23,45.32,18.25-8.44,18.43-16.65,23.95-16.82,5.53-.17-3.45,14.72,3.65,14.33,7.1-.39,9.47-25.37,11.28-25,1.82.37-.72,24.68,4.83,24.48,5.56-.21-1.91-24.41,2.48-19.49,4.39,4.91,17.12,10.1,17.13,10.11h0Z"/>
          </g>
          <path class="cls-15" d="M97.92,298.68c.38,1.97-.92,3.88-2.88,4.26h0c-1.98.38-3.88-.91-4.27-2.88l-1.26-6.53c-.38-1.97.92-3.88,2.89-4.26h0c1.97-.38,3.88.91,4.26,2.88l1.26,6.53Z"/>
          <path class="cls-15" d="M80.55,300.71c-.46,1.96-2.42,3.17-4.37,2.71h0c-1.97-.46-3.18-2.41-2.72-4.37l1.52-6.48c.46-1.96,2.41-3.17,4.37-2.71h0c1.95.46,3.17,2.42,2.71,4.37l-1.52,6.48Z"/>
          <path class="cls-15" d="M73.96,284.97c-.93,1.78-3.12,2.47-4.9,1.54h0c-1.78-.93-2.48-3.12-1.55-4.91l3.08-5.9c.93-1.78,3.13-2.48,4.91-1.55h0c1.78.93,2.47,3.13,1.54,4.91l-3.08,5.9Z"/>
          <path class="cls-13" d="M86.1,224.15s9.14,17.8,24.83,28.73c15.69,10.94,50.78,29.07,42.88,39.72-7.91,10.65-35.82,12.09-47.62,2.88-11.8-9.21-43.34-21.48-20.09-71.33Z"/>
          <g class="cls-5">
            <path class="cls-13" d="M103.64,293.62c-24.71-21.6-17.18-44.21-15-44.2,2.17,0,13.62,31.27,17.07,29.11,3.46-2.16-5.18-14.15-13.62-32.9,5.46,10.95,37.6,38.52,38.75,33.93,1.15-4.58-32.42-24.2-22.25-18.87,10.15,5.32,23.35,5.77,23.38,5.77-7.6-4.99-15.52-9.73-21.04-13.57-15.69-10.93-24.83-28.73-24.83-28.73-21.73,46.58,4.4,60.35,17.54,69.47Z"/>
          </g>
          <path class="cls-13" d="M85.58,227.63s2.53,27.01-11.29,43.7c-13.82,16.69-40.87,49.79-55.26,36.55-14.39-13.24,11.8-43.17,28.78-49.22,16.98-6.04,37.77-31.03,37.77-31.03Z"/>
          <g class="cls-5">
            <path class="cls-13" d="M48.62,267.7c2.02.58-6.19,9.05-4.94,10.21,1.24,1.15,17.46-17.84,19.51-15.54,2.06,2.3-25.51,24.18-18.31,27.4,7.19,3.22,30.5-41.79,33.09-39.77,2.59,2.01-4.09,21.83-4.09,21.84.14-.17.28-.34.41-.5,13.81-16.69,11.29-43.7,11.29-43.7,0,0-20.79,24.99-37.77,31.03-11.13,3.96-26.22,18.19-31.24,31.26,8.91-16.08,30.03-22.81,32.05-22.23Z"/>
          </g>
          <path class="cls-1" d="M85.14,226.53s20.38,48.71,60.96,38.71c32.71-20.67-57.73-34.04-60.96-38.71Z"/>
          <path class="cls-1" d="M86.1,227.63s-20.38,48.71-60.96,38.71c-32.71-20.67,57.73-34.04,60.96-38.71Z"/>
          <path class="cls-15" d="M95.24,299.43c-.58,0-1.11-.38-1.28-.97-3.78-13.38-6.04-26.2-7.37-37.17-2.55,18.95-7.49,33.29-7.57,33.51-.24.69-1,1.06-1.7.82-.69-.24-1.06-1-.82-1.7.09-.27,7.52-21.81,8.74-46.87-.8-11.82-.48-19.32-.48-19.47.03-.7.6-1.25,1.29-1.27.67-.03,1.29.5,1.37,1.19.7,6.54.79,13.14.49,19.52.88,12.99,3.12,31.26,8.62,50.73.2.71-.21,1.44-.92,1.64-.12.03-.24.05-.36.05Z"/>
          <path class="cls-15" d="M72.27,279.86c-.28,0-.57-.09-.81-.28-.58-.45-.69-1.29-.24-1.87,10.34-13.34,13.52-49.82,13.55-50.19.06-.73.72-1.27,1.44-1.22.73.06,1.28.71,1.22,1.44-.13,1.53-3.28,37.63-14.1,51.6-.26.34-.66.52-1.05.52Z"/>
          <g class="cls-6">
            <path class="cls-1" d="M135.36,242.19c-19.56-7.76-48.42-13.06-50.22-15.67,0,0,4.99,11.92,14.94,22.76-3.89-10.5,18.86,11.45,20.4,7.5,1.54-3.96-14.2-8.9-11.89-13.31,2.3-4.41,28.2,17.84,29.55,12.47,1.35-5.38-17.07-9.02-22.84-13.74-5.75-4.73,4.6-3.53,20.06,0Z"/>
          </g>
          <g class="cls-6">
            <path class="cls-1" d="M51.06,238.14c7.52.82-12.5,8.4-10.62,10.31,1.87,1.92,11.36-6.72,13.28-4.6,1.92,2.11-16.89,12.66-12.66,15.68,4.22,3.02,24.75-16.26,27.82-14.34,3.07,1.92-15.05,18.41-15.06,18.42,21.51-10.2,32.29-35.98,32.29-35.98-1.37,1.97-18.37,5.52-35.04,10.51h0Z"/>
          </g>
          <path class="cls-13" d="M86.1,227.63s10.62,16.65,16.79,14.34c6.17-2.3,3.58-8.63,8.04-12.66,4.46-4.03-10.79-17.84-20.57-18.42-9.79-.58-28.78,5.76-29.65,19.28-.86,13.53,14.23,12.18,25.39-2.54Z"/>
          <g class="cls-5">
            <path class="cls-13" d="M60.71,230.18c-.86,13.53,14.23,12.18,25.39-2.54,0,0,10.62,16.65,16.79,14.34,5.63-2.1,3.98-7.55,7.04-11.55h0s-5.37,7.47-8.44,5.55c-3.07-1.92,1.15-11.13-2.5-13.24-3.64-2.11-1.71,8.3-5.26,7.03-3.55-1.27-3.97-14.51-7.22-15.08-3.25-.58-1.02,12.85-4.34,14.01-3.31,1.15-4.08-5.95-6.19-5.95s1.5,9.98-2.61,10.94c-4.11.96-13.61-3.73-9.54-11.64-1.76,2.34-2.91,5.05-3.11,8.14Z"/>
          </g>
          <path class="cls-9" d="M136.79,274.74c5.08,5.02,12.09,12.2,9.21,17.9-2.87,5.7-32.81,5.8-43.74-5.85-10.94-11.66-9.02-16.36,0-8.26,9.02,8.11,12.67,12.07,14.1,10.67,1.44-1.41-9.88-16.76-7.39-17.52,2.49-.77,17.46,15.73,21.1,13.24,3.65-2.5.15-16.66,6.71-10.17Z"/>
          <path class="cls-9" d="M65.03,278.53c-3.38,5.38-26.48,28.45-34.39,29.46-7.92,1.01-14.15-7.77-12.61-13.53,1.53-5.76,16.78-20.58,20.81-18.28,4.03,2.3-11.65,12.79-7.77,15.82,3.88,3.03,6.54-5.31,7.77-4.31,2.75,2.24-7.77,10.08-6.48,13.1,1.3,3.03,36.99-29.12,32.67-22.26Z"/>
          <path class="cls-7" d="M102.44,303.52c1.27,6.42-6.22,13.6-12.99,11.6-6.77-2.01-22.19.46-28.78,1.72-6.58,1.26-14.71-4.12-10.35-10.83,4.35-6.71,7.42-6.95,9.53-6.26,2.11.7.53,13.17,5.54,12.02,5.01-1.15,3.83-7.55,7.97-6.94,4.14.61,9.32,9.3,14.3,6.1,4.99-3.19,13-16.38,14.77-7.41Z"/>
          <path class="cls-7" d="M40.21,243.66c-9.12,2.31-20.52,10.17-18.5,15.23,2.01,5.06,5.03,7.08,12.66,6.93,7.63-.15,20.72-4.02,23.89-8.55,3.17-4.54-2.16-.86-11.08,2.27-8.92,3.12-14.24,3.64-12.66,0,1.59-3.64,11.48-8.17,10.22-9.83-1.26-1.66-9.79,4.74-10.65,3.38-.86-1.36,11.82-10.86,6.12-9.42Z"/>
          <path class="cls-7" d="M128.92,242.2c4.73.84,20.29,7.79,21.01,12.47.72,4.68-3.61,10-11.73,9.57-8.13-.43-17.91-.56-25.54-6.97-7.62-6.41,6.77,3.75,13.1,2.27,6.33-1.49-6.47-7.59-6.58-9.97-.11-2.38,17.8,11.68,19.82,9.22,2.02-2.46-1.01-8.32-10.36-12.22-9.35-3.91-10.81-6.35.29-4.36Z"/>
          <path class="cls-9" d="M107.53,227.63c1.57-3.06-5.58-10.88-12.29-12.97-6.71-2.09-3.26,6.26-2.2,8.36,1.06,2.11,2.39-5.66,6.33-3.26,3.94,2.4,6.33,11.41,8.16,7.87Z"/>
          <path class="cls-9" d="M81.72,221.39c-.1-3.35-.15-7.28-3.96-6.22-3.81,1.05-15.13,8.14-11.97,12.47,3.16,4.32,5.66,2.19,4.89-1.11-.77-3.3,4.61-10.4,7.48-6.27,2.88,4.12,3.62,3.42,3.55,1.14Z"/>
        </g>
        <g>
          <path class="cls-13" d="M73.76,215.61s-23.16-2.74-28.64-17.48c-5.47-14.74-25.27-21.9-25.69-37.07-.42-15.16,18.95-46.33,47.17-53.49,28.22-7.16,41.7,13.48,41.7,13.48,0,0,0,95.61-34.54,94.56Z"/>
          <g class="cls-5">
            <path class="cls-13" d="M25.87,140.84c5.91-7.61,30.94-26.67,34.67-23.69,4.21,3.37-5.33,19.94-1.8,22.45,3.52,2.51,12.2-9.53,15.57-5.57,3.37,3.96-19.66,20.75-15.57,26.81,4.09,6.06,22.02-25.43,27.08-21.24,5.06,4.2-28.64,46.91-20.5,49.83,8.15,2.92,32.01-59.36,36.22-55.4,4.21,3.96-16.56,49.67-7.24,66.15,0-.01,0-.02.01-.03l4.93-12.04c9.05-27.92,9.05-67.07,9.05-67.07,0,0-13.48-20.64-41.7-13.48-18.28,4.64-32.85,19.36-40.73,33.27Z"/>
          </g>
          <path class="cls-13" d="M128.94,107.57s37.07-39.59,54.34-51.81c17.27-12.22,5.48-43.38-15.16-45.91-20.64-2.53-59.63,23.17-71.73,42.12-12.1,18.95,32.55,55.6,32.55,55.6Z"/>
          <g class="cls-5">
            <path class="cls-13" d="M128.94,107.57s37.07-39.59,54.34-51.81c2.65-1.87,4.6-4.2,5.96-6.79-.2.16-22.23,17.81-28.44,19.88-6.24,2.08,17.5-19.1,14.22-22.47-3.27-3.37-31.35,31.38-34.73,28.74-3.37-2.63,12.11-28.74,7.6-30.71-4.51-1.97-12.94,12.92-18.27,9.27-5.33-3.65-6.03-24.11,6.11-34.66-16.28,8.71-32.33,21.95-39.34,32.94-12.1,18.95,32.55,55.6,32.55,55.6Z"/>
          </g>
          <path class="cls-1" d="M108.3,121.05s0,21.48-5.48,38.33c-5.48,16.85-17.69,44.65,2.74,70.76,20.43,26.11,64.66,10.95,68.87-17.27,4.21-28.22-23.59-83.82-66.13-91.82Z"/>
          <g class="cls-6">
            <path class="cls-1" d="M112.07,158.23c8.77.46,10.53,57.48,20.22,57.39,9.69-.1-22.32-79.94-1.68-51.11,20.55,28.71,43.94,39.07,44.13,39.16-.68-11.17-4.83-24.61-11.8-37.43l-18.29-24.71c-10.15-10.15-22.45-17.86-36.34-20.47,0,0,0,21.48-5.48,38.33-3.46,10.62-9.58,25.61-8.52,41.78,5.32-7.05,9-43.38,17.76-42.92Z"/>
          </g>
          <path class="cls-1" d="M108.3,121.05s33.28,21.9,66.55,18.11c33.28-3.79,78.77-8.85,71.61-36.64-7.16-27.8-29.48-42.97-52.65-38.75-23.17,4.21-66.13,25.7-85.5,57.29Z"/>
          <g class="cls-6">
            <path class="cls-1" d="M233.88,126.35h0s-25.97-18.81-47.42-18.78c-21.45.03-41.64,1.76-38.56-4.44,3.07-6.2,65.41-7.04,62.88-12.94-2.53-5.9-51.1,3.65-53.07-1.69-1.88-5.1,20.24-20.37,29.25-23.15-24.01,6.65-61.06,27-78.65,55.69,0,0,25.32,16.66,53.87,18.4l71.7-13.1Z"/>
          </g>
          <path class="cls-1" d="M108.3,121.05s34.54-22.32,23.59-52.23c-10.95-29.91-45.07-31.59-52.65-22.32-7.58,9.27-22.75,19.79-20.22,46.33,2.53,26.54,9.69,31.17,16.43,36.64,6.74,5.48,27.92-4.11,32.86-8.42Z"/>
          <path class="cls-13" d="M108.3,121.05s40.85,77.08,74.55,85.93c33.7,8.84,60.23,14.74,60.23-2.11,0-16.85,27.8-24.22,20.22-36.54-7.58-12.32-8.43-76.77-155-47.28Z"/>
          <g class="cls-5">
            <path class="cls-13" d="M128.1,134.03c4.93-6.7,91.39,70.45,96.72,52.76,5.33-17.69-71.05-48.02-69.41-52.76,1.63-4.74,67.17,22.43,63.79,3.05-3.37-19.37-93.87-12.43-71.31-17.97,22.26-5.47,60.6-2.31,61.62-2.23-22.06-5.08-54.1-5.31-101.21,4.16,0,0,14.79,27.89,33.9,52.04-.14-.23-19.02-32.38-14.11-39.06Z"/>
          </g>
          <path class="cls-15" d="M161.93,151.72c-.44,0-.87-.22-1.12-.62-11.08-17.36-31.26-24.38-43.15-27.1-5.82-.93-9.49-1.62-9.61-1.64-.7-.13-1.17-.79-1.07-1.49.1-.7.73-1.21,1.43-1.15.5.04,4.7.41,10.71,1.81,14.24,2.24,39.94,5.63,58.55,4.49.79-.03,1.37.51,1.41,1.25.04.74-.51,1.37-1.25,1.41-13.29.82-30.12-.65-43.92-2.37,10.35,4.37,21.61,11.56,29.14,23.35.39.62.21,1.44-.41,1.84-.22.14-.47.21-.72.21Z"/>
          <path class="cls-15" d="M108.3,122.38c-.66,0-1.23-.48-1.32-1.15-.1-.73.41-1.4,1.14-1.5,28.26-3.89,38.38-44.51,38.48-44.92.17-.72.9-1.16,1.61-.98.72.17,1.16.89.98,1.61-.42,1.74-10.67,42.79-40.7,46.93-.06,0-.12.01-.18.01Z"/>
          <path class="cls-15" d="M156.15,151.2c-1.5-2.53-.66-5.8,1.86-7.29h0c2.53-1.5,5.8-.67,7.3,1.86l4.97,8.38c1.5,2.53.66,5.8-1.87,7.3h0c-2.53,1.5-5.8.67-7.3-1.86l-4.97-8.38Z"/>
          <path class="cls-15" d="M174.73,134.01c-2.93.28-5.53-1.87-5.81-4.79h0c-.28-2.93,1.87-5.53,4.79-5.81l9.7-.93c2.93-.28,5.53,1.87,5.81,4.8h0c.28,2.92-1.87,5.53-4.8,5.81l-9.69.92Z"/>
          <path class="cls-15" d="M152.68,77.86c-.77,2.84-3.69,4.52-6.53,3.75h0c-2.84-.77-4.52-3.69-3.75-6.53l2.54-9.4c.77-2.84,3.69-4.52,6.53-3.75h0c2.84.76,4.52,3.69,3.75,6.53l-2.54,9.4Z"/>
          <g class="cls-6">
            <path class="cls-1" d="M64.06,65.38c-3.73,6.8-6.18,15.5-5.05,27.45,2.53,26.54,9.69,31.17,16.43,36.64,6.74,5.48,27.92-4.11,32.86-8.42,0,0,34.54-22.32,23.59-52.23-4.9-13.38-14.44-21.1-24.16-24.73l-3.92-1.25s-.02,0-.03-.01c.17.1,29.15,17.38,24.33,40.9-4.84,23.59-17.96-.73-20.43,2.58-2.47,3.31,5.42,16.79.64,22.4-4.79,5.62-15.18-3.37-16.3-17.69-1.12-14.32-4.5-34.45-6.74-32.25-2.24,2.2-4.49,37.4,5.9,54.62,10.39,17.21-18.82-6.53-18.82-27.09s-7.3,10.33,0,28.58c-7.58-5.33-17.1-28.59-8.28-49.53Z"/>
          </g>
          <path class="cls-9" d="M235.49,194.09c6.43-4.61-4.21,15.16-16.85,14.32-12.63-.84-53.79-10.42-72.17-42.4,7.3,8.98,74.13,38.75,89.01,28.08Z"/>
          <path class="cls-7" d="M122.6,221.05s-8.42-45.21-10.67-44.65c-2.25.56-11.03,28.57-5.05,44.65,5.97,16.08,38.65,19.94,48.53,10.67,9.88-9.27-21-57.29-23.25-57.29s20.5,51.39-9.55,46.61Z"/>
          <path class="cls-7" d="M237.42,113.4c5.65-7.34-5.96-37.99-20-39.11-14.04-1.13-48.39,3.33-46.33,7.51,2.06,4.18,41.09-.03,43.9,7.27,2.81,7.3-21.9,8.87-21.34,13.34.57,4.47,39.51,16.53,43.77,11Z"/>
          <path class="cls-7" d="M122.6,78.68s-8.71-22.07-16.56-29.49c-7.85-7.42-14.88-5.89-17.69-1.96-2.81,3.93,9.27,39.87,11.79,42.96,2.53,3.09-2.81-23.45.28-26.89,3.09-3.44,17.24,23.21,22.18,15.38Z"/>
          <path class="cls-7" d="M79.92,56.21c2.68,3.67,1.41,38.61,0,38.26-1.4-.35-4.49-22.02-8.7-22.7-4.21-.68-3.93,18.64-5.9,18.67-1.97.03,5.48-46.73,14.6-34.23Z"/>
          <path class="cls-9" d="M251.21,174.43c.96-5.61-17.69-40.02-27.52-43.32-9.82-3.3,5.31,14.46,1.39,22.01-3.91,7.55-28.07-8.46-31.16-4.24-3.09,4.21,55.32,37.06,57.29,25.55Z"/>
          <path class="cls-9" d="M174.74,15.22c-8.33-5.89-35,10.39-34.16,16.85.84,6.46,11.97-2.53,14.83,1.69,2.86,4.21-6.69,16.01-2.76,18.81,3.93,2.8,20.55-17.98,26.42-13.2,5.87,4.78-4.29,12.36-1.32,12.36s14.86-23.87-3.02-36.5Z"/>
          <path class="cls-9" d="M78.52,206.73c-7.89,2.1-19.09-.57-21.62-8.71-2.53-8.14-17.97-12.08-21.06-23.59-3.09-11.51-3.09-29.98,6.74-38.72,9.83-8.74,10.95,2.22,7.3,16.96-3.65,14.74.03,25.26,8.87,17.05,8.83-8.21,11-7.37,6.26,3.3-4.74,10.67-6.49,19.94,0,22.46,6.5,2.52,16.61-24.43,20.26-23.87,3.65.56,1.68,32.86-6.74,35.1Z"/>
        </g>
      </g>
    </g>
  </g>
</svg>