<?xml version="1.0" encoding="UTF-8"?>
<svg id="Layer_1" data-name="Layer 1" xmlns="http://www.w3.org/2000/svg" width="1.76cm" height="1.76cm" viewBox="0 0 50 50">
  <defs>
    <style>
      .cls-1 {
        fill: #fff;
      }
    </style>
  </defs>
  <path class="cls-1" d="M9,4c-2.75,0-5,2.25-5,5v32c0,2.75,2.25,5,5,5h16.83c.11.02.22.02.33,0h5.67c.11.02.22.02.33,0h8.84c2.75,0,5-2.25,5-5V9c0-2.75-2.25-5-5-5H9ZM9,6h32c1.67,0,3,1.33,3,3v32c0,1.67-1.33,3-3,3h-8v-14h3.82l1.4-7h-5.22v-2c0-.56.05-.6.24-.72s.77-.28,1.76-.28h3v-5.63l-.57-.27s-2.3-1.1-5.43-1.1c-2.25,0-4.1.9-5.28,2.38-1.18,1.48-1.72,3.46-1.72,5.62v2h-3v7h3v14H9c-1.67,0-3-1.33-3-3V9c0-1.67,1.33-3,3-3ZM32,15c2.08,0,3.39.46,4,.7v2.3h-1c-1.15,0-2.07.1-2.85.6-.78.5-1.15,1.46-1.15,2.4v4h4.78l-.6,3h-4.18v16h-4v-16h-3v-3h3v-4c0-1.83.46-3.35,1.28-4.38.82-1.02,1.97-1.62,3.72-1.62Z"/>
</svg>