<?xml version="1.0" encoding="UTF-8"?>
<svg id="Layer_1" data-name="Layer 1" xmlns="http://www.w3.org/2000/svg" width="1.76cm" height="1.76cm" viewBox="0 0 50 50">
  <defs>
    <style>
      .cls-1 {
        fill: #fff;
      }
    </style>
  </defs>
  <path class="cls-1" d="M9,4c-2.75,0-5,2.25-5,5v32c0,2.75,2.25,5,5,5h32c2.75,0,5-2.25,5-5V9c0-2.75-2.25-5-5-5H9ZM9,6h32c1.67,0,3,1.33,3,3v32c0,1.67-1.33,3-3,3H9c-1.67,0-3-1.33-3-3V9c0-1.67,1.33-3,3-3ZM26.04,10c-.55,0-1,.45-1,1,0,0-.01,4.88-.02,9.76,0,2.44-.01,4.89-.02,6.73,0,1.84,0,3.01,0,3.1,0,1.82-1.65,3.3-3.53,3.3s-3.35-1.49-3.35-3.35,1.49-3.35,3.35-3.35c.06,0,.19.02.41.05.55.07,1.05-.33,1.11-.87,0-.04,0-.08,0-.12v-4.2c0-.53-.41-.96-.94-1-.16,0-.35-.03-.59-.03-5.25,0-9.53,4.28-9.53,9.53,0,5.25,4.28,9.53,9.53,9.53,5.25,0,9.53-4.28,9.53-9.53v-9.05c1.45,1.16,3.27,1.9,5.27,1.9.27,0,.53-.02.78-.04.51-.05.91-.48.91-1v-4.67c0-.52-.4-.96-.93-1-3.14-.23-5.65-2.68-5.98-5.79-.05-.51-.48-.9-.99-.9h-4.02ZM27.04,12h2.28c.73,3.3,3.3,5.81,6.64,6.45v2.87c-2.14-.11-4.02-1.18-5.12-2.86-.3-.46-.92-.59-1.38-.29-.28.19-.45.5-.45.84v11.54c0,4.17-3.36,7.53-7.53,7.53s-7.53-3.36-7.53-7.53,3.12-7.18,7.05-7.43v2.18c-2.71.25-4.88,2.48-4.88,5.26,0,2.94,2.41,5.35,5.35,5.35s5.53-2.31,5.53-5.3c0,.05,0-1.26,0-3.1,0-1.84.01-4.29.02-6.73,0-4.39.02-7.91.02-8.76Z"/>
</svg>