<?xml version="1.0" encoding="UTF-8"?>
<svg id="Layer_1" data-name="Layer 1" xmlns="http://www.w3.org/2000/svg" width="1.76cm" height="1.76cm" viewBox="0 0 50 50">
  <defs>
    <style>
      .cls-1 {
        fill: #fff;
      }
    </style>
  </defs>
  <path class="cls-1" d="M16,3c-7.17,0-13,5.83-13,13v18c0,7.17,5.83,13,13,13h18c7.17,0,13-5.83,13-13V16c0-7.17-5.83-13-13-13h-18ZM16,5h18c6.09,0,11,4.91,11,11v18c0,6.09-4.91,11-11,11h-18c-6.09,0-11-4.91-11-11V16c0-6.09,4.91-11,11-11ZM37,11c-1.1,0-2,.9-2,2s.9,2,2,2,2-.9,2-2-.9-2-2-2ZM25,14c-6.06,0-11,4.94-11,11s4.94,11,11,11,11-4.94,11-11-4.94-11-11-11ZM25,16c4.98,0,9,4.02,9,9s-4.02,9-9,9-9-4.02-9-9,4.02-9,9-9Z"/>
</svg>