<?xml version="1.0" encoding="UTF-8"?>
<svg id="Layer_2" data-name="Layer 2" xmlns="http://www.w3.org/2000/svg" viewBox="0 0 313.15 50.48">
  <defs>
    <style>
      .cls-1 {
        fill: #ff227c;
      }

      .cls-2 {
        fill: #292929;
      }
    </style>
  </defs>
  <path class="cls-1" d="M50.74,8.4h-.92s0,0,0,0c-7.9,0-14.04,4.78-15.91,11.4-2.27-6.62-8.54-11.4-15.92-11.4h-3.26v.61h0c1.29,0,2.34,1.05,2.34,2.34v13.47c0,9.12,7.08,16.9,16.19,17.24,9.58.36,17.49-7.33,17.49-16.83v-13.88c0-1.29,1.05-2.34,2.34-2.34v-.61h-2.34ZM47.25,10.29c-.48,7.5-4.89,13.5-12.39,13.99,0-6.99,5.33-13.99,12.39-13.99ZM47.3,25.24c0,8.27-5.13,16.41-13.4,16.41s-13.64-8.14-13.64-16.41v-14.96c7.54.46,12.53,7,12.67,14.04h-2.41c-2.37,0-4.29,1.92-4.29,4.29s1.92,4.29,4.29,4.29,4.29-1.92,4.29-4.29v-3.37c6.16-.33,9.83-3.1,12.48-8.32v8.32ZM32.98,25.24v3.37c0,1.35-.48,3.81-2.45,3.81-1.8,0-2.46-2.46-2.46-3.81s.42-3.37,2.46-3.37h2.45Z"/>
  <g>
    <path class="cls-2" d="M69.58,17.06c.34,0,.62.28.62.62v15.69c0,1.31-1.1,2.35-2.41,2.28v.26h0c2.61.14,4.8-1.93,4.8-4.55v-13.69c0-.34.28-.62.62-.62h0v-.23h-3.64v.23Z"/>
    <path class="cls-2" d="M88.86,17.07c.34,0,.62.28.62.62v15.69c0,1.31-1.1,2.35-2.41,2.28v.26h0c2.61.14,4.8-1.93,4.8-4.55v-13.69c0-.34.28-.62.62-.62h0v-.23h-3.64v.23Z"/>
    <path class="cls-2" d="M74.41,16.83v.23c.34,0,.62.28.62.62v15.11c0,.34-.28.62-.62.62v.23h11.45v-2.31h-.3c0,1.13-.92,2.05-2.05,2.05h-6.09v-8h0s6.09-.01,6.09-.01c1.13,0,2.05.92,2.05,2.05h.3v-2.05h0v-.26h0v-2.05h-.3c0,1.13-.92,2.05-2.05,2.05h-6.09v-8.02h6.09c1.13,0,2.05.92,2.05,2.05h.3v-2.31h-11.45Z"/>
    <path class="cls-2" d="M148.86,16.83v.23c.34,0,.62.28.62.62v15.11c0,.34-.28.62-.62.62v.23h11.45v-2.31h-.3c0,1.13-.92,2.05-2.05,2.05h-6.09v-8h0s2.02-.01,2.02-.01c1.13,0,2.05.92,2.05,2.05h.3v-2.05h0v-.26h0v-2.05h-.3c0,1.13-.92,2.05-2.05,2.05h-2.02v-8.02h6.09c1.13,0,2.05.92,2.05,2.05h.3v-2.31h-11.45Z"/>
    <path class="cls-2" d="M109.77,32.77h0l-6.83-15.94h0s0,0,0,0h-.54l-6.48,15.1c-.38.89-1.25,1.46-2.21,1.46v.26h3.62v-.26c-.54,0-.98-.44-.98-.98,0-.14.03-.27.08-.38h0s1.94-4.52,1.94-4.52h6.87l2.31,5.39c.2.46.65.76,1.15.76h2.04v-.26c-.43,0-.79-.26-.95-.62ZM98.47,27.25l3.32-7.75,3.32,7.75h-6.65Z"/>
    <path class="cls-2" d="M192.21,32.77h0l-6.83-15.94h0s0,0,0,0h-.54l-6.48,15.1c-.38.89-1.25,1.46-2.21,1.46v.26h3.62v-.26c-.54,0-.98-.44-.98-.98,0-.14.03-.27.08-.38h0s1.94-4.52,1.94-4.52h6.87l2.31,5.39c.2.46.65.76,1.15.76h2.04v-.26c-.43,0-.79-.26-.95-.62ZM180.91,27.25l3.32-7.75,3.32,7.75h-6.65Z"/>
    <path class="cls-2" d="M262.16,32.77h0l-6.83-15.94h0s0,0,0,0h-.54l-6.48,15.1c-.38.89-1.25,1.46-2.21,1.46v.26h3.62v-.26c-.54,0-.98-.44-.98-.98,0-.14.03-.27.08-.38h0s1.94-4.52,1.94-4.52h6.87l2.31,5.39c.2.46.65.76,1.15.76h2.04v-.26c-.43,0-.79-.26-.95-.62ZM250.86,27.25l3.32-7.75,3.32,7.75h-6.65Z"/>
    <path class="cls-2" d="M280.39,32.77h0l-6.83-15.94h0s0,0,0,0h-.54l-6.48,15.1c-.38.89-1.25,1.46-2.21,1.46v.26h3.62v-.26c-.54,0-.98-.44-.98-.98,0-.14.03-.27.08-.38h0s1.94-4.52,1.94-4.52h6.87l2.31,5.39c.2.46.65.76,1.15.76h2.04v-.26c-.43,0-.79-.26-.95-.62ZM269.09,27.25l3.32-7.75,3.32,7.75h-6.65Z"/>
    <path class="cls-2" d="M223.74,32.77h0l-6.83-15.94h0s0,0,0,0h-.54l-6.48,15.1c-.38.89-1.25,1.46-2.21,1.46v.26h3.62v-.26c-.54,0-.98-.44-.98-.98,0-.14.03-.27.08-.38h0s1.94-4.52,1.94-4.52h6.87l2.31,5.39c.2.46.65.76,1.15.76h2.04v-.26c-.43,0-.79-.26-.95-.62ZM212.44,27.25l3.32-7.75,3.32,7.75h-6.65Z"/>
    <path class="cls-2" d="M171.33,24.94c1.73-.5,3.01-2.07,3.01-3.97,0-2.29-1.85-4.14-4.14-4.14h-8.41v.23c.34,0,.62.28.62.62v15.11c0,.34-.28.62-.62.62v.23h8.76c2.43,0,4.4-1.97,4.4-4.4,0-2.16-1.56-3.95-3.61-4.32ZM164.8,20.15v-3.01h3.34c2.12,0,3.84,1.72,3.84,3.84s-1.72,3.84-3.84,3.84h-3.34v-4.67ZM168.59,33.39h-3.79v-8h0v-.26h3.79c2.28,0,4.13,1.85,4.13,4.13s-1.85,4.13-4.13,4.13Z"/>
    <path class="cls-2" d="M202.83,17.07c.34,0,.62.28.62.62v7.43h-6.07v-7.43c0-.34.28-.62.62-.62h0v-.23h-3.64v.23c.34,0,.62.28.62.62v15.11c0,.34-.28.62-.62.62v.23h3.64v-.23h0c-.34,0-.62-.28-.62-.62v-7.41h6.07v7.41c0,.34-.28.62-.62.62v.23h3.64v-.23h0c-.34,0-.62-.28-.62-.62v-15.11c0-.34.28-.62.62-.62h0v-.23h-3.64v.23Z"/>
    <path class="cls-2" d="M241.25,17.07c.34,0,.62.28.62.62v15.11c0,.34-.28.62-.62.62v.23h3.64v-.23h0c-.34,0-.62-.28-.62-.62v-15.11c0-.34.28-.62.62-.62h0v-.23h-3.64v.23Z"/>
    <path class="cls-2" d="M239.34,25.13h-5.36v.26h3.05v6.41c-.92.97-2.05,1.56-3.28,1.56-3.09,0-5.59-3.63-5.59-8.11s2.5-8.11,5.59-8.11c2.16,0,4.03,1.77,4.96,4.37h.63v-2.13c-1.42-1.56-3.39-2.54-5.59-2.54-4.33,0-7.85,3.77-7.85,8.41s3.51,8.41,7.85,8.41c2.19,0,4.17-.96,5.59-2.51l.08-.11v-5.05c0-.34.28-.62.62-.62h0v-.23h-.71Z"/>
    <path class="cls-2" d="M296.88,16.83h-2.08v.23c.86,0,1.56.7,1.56,1.56v10.86l-8.47-12.06c-.26-.37-.69-.6-1.15-.6h-3.09v.23c.86,0,1.56.7,1.56,1.56v13.24c0,.86-.7,1.56-1.56,1.56v.23h3.64v-.23c-.86,0-1.56-.7-1.56-1.56v-13.33l10.62,15.12h.53v-15.03c0-.86.7-1.56,1.56-1.56v-.23h-1.56Z"/>
    <path class="cls-2" d="M111.93,17.07c.34,0,.62.28.62.62v15.11c0,.34-.28.62-.62.62v.23h3.64v-.23h0c-.34,0-.62-.28-.62-.62v-15.11c0-.34.28-.62.62-.62h0v-.23h-3.64v.23Z"/>
    <path class="cls-2" d="M126.64,17.12v-.3h-3.62v.3h0s0,0,0,0c.32,0,.58.26.58.58,0,.14-.06.27-.14.37h0s-5.31,5.32-5.31,5.32l-1.98,1.98,2.2,3.09,3.16,4.43c.35.49.91.78,1.51.78h3.6v-.26c-.85,0-1.64-.41-2.13-1.1l-6.06-8.5,5.6-5.6c.69-.69,1.62-1.07,2.59-1.07Z"/>
    <path class="cls-2" d="M132.94,17.07c.34,0,.62.28.62.62v15.11c0,.34-.28.62-.62.62v.23h3.64v-.23h0c-.34,0-.62-.28-.62-.62v-15.11c0-.34.28-.62.62-.62h0v-.23h-3.64v.23Z"/>
    <path class="cls-2" d="M147.65,17.12v-.29h-3.62v.29h0s0,0,0,0c.32,0,.58.26.58.58,0,.14-.06.27-.14.37h0s-5.31,5.32-5.31,5.32l-1.98,1.98,2.2,3.09,3.16,4.43c.35.49.91.78,1.51.78h3.6v-.26c-.85,0-1.64-.41-2.13-1.1l-6.06-8.5,5.6-5.6c.69-.69,1.62-1.07,2.59-1.07Z"/>
  </g>
</svg>