<svg width="21" height="20" viewBox="0 0 21 20" fill="none" xmlns="http://www.w3.org/2000/svg">
<path fill-rule="evenodd" clip-rule="evenodd" d="M10.5 4.25C7.32436 4.25 4.75 6.82436 4.75 10C4.75 13.1756 7.32436 15.75 10.5 15.75C13.6756 15.75 16.25 13.1756 16.25 10C16.25 6.82436 13.6756 4.25 10.5 4.25ZM3.75 10C3.75 6.27208 6.77208 3.25 10.5 3.25C14.2279 3.25 17.25 6.27208 17.25 10C17.25 13.7279 14.2279 16.75 10.5 16.75C6.77208 16.75 3.75 13.7279 3.75 10Z" fill="#292929"/>
<path fill-rule="evenodd" clip-rule="evenodd" d="M10.5 5.75C10.7761 5.75 11 5.97386 11 6.25V9.98039L12.5098 11.4902C12.7051 11.6855 12.7051 12.002 12.5098 12.1973C12.3145 12.3926 11.998 12.3926 11.8027 12.1973L10.1464 10.5411C10.0527 10.4473 10 10.3201 10 10.1875V6.25C10 5.97386 10.2239 5.75 10.5 5.75Z" fill="#292929"/>
</svg>
