<svg width="20" height="20" viewBox="0 0 20 20" fill="none" xmlns="http://www.w3.org/2000/svg">
<path fill-rule="evenodd" clip-rule="evenodd" d="M4.25 7.625C4.25 6.24429 5.36929 5.125 6.75 5.125H11.25C12.6307 5.125 13.75 6.24429 13.75 7.625V14.625C13.75 16.0057 12.6307 17.125 11.25 17.125H6.75C5.36929 17.125 4.25 16.0057 4.25 14.625V7.625ZM6.75 6.125C5.92157 6.125 5.25 6.79657 5.25 7.625V14.625C5.25 15.4534 5.92157 16.125 6.75 16.125H11.25C12.0784 16.125 12.75 15.4534 12.75 14.625V7.625C12.75 6.79657 12.0784 6.125 11.25 6.125H6.75Z" fill="#292929"/>
<path fill-rule="evenodd" clip-rule="evenodd" d="M7.42171 3.95626C7.08915 4.26214 7.34927 4.75 7.8011 4.75C7.95287 4.75 8.09672 4.68816 8.2142 4.59207C8.66664 4.22201 9.24489 4 9.875 4H12.125C13.5747 4 14.75 5.17525 14.75 6.625V11.375C14.75 11.8798 14.6075 12.3514 14.3605 12.7516C14.2928 12.8614 14.25 12.9859 14.25 13.1149C14.25 13.6138 14.7999 13.8717 15.0877 13.4643C15.5049 12.8738 15.75 12.153 15.75 11.375V6.625C15.75 4.62297 14.127 3 12.125 3H9.875C8.92879 3 8.06725 3.36253 7.42171 3.95626Z" fill="#292929"/>
</svg>
