<?xml version="1.0" encoding="UTF-8"?>
<svg id="Layer_1" xmlns="http://www.w3.org/2000/svg" version="1.1" viewBox="0 0 32 32">
  <!-- Generator: Adobe Illustrator 29.3.1, SVG Export Plug-In . SVG Version: 2.1.0 Build 151)  -->
  <defs>
    <style>
      .st0 {
        fill: #292929;
      }
    </style>
  </defs>
  <path class="st0" d="M10.7,3.2c-4.1,0-7.5,3.4-7.5,7.5v10.7c0,4.1,3.4,7.5,7.5,7.5h10.7c4.1,0,7.5-3.4,7.5-7.5v-10.7c0-4.1-3.4-7.5-7.5-7.5h-10.7ZM23.5,7.5c.6,0,1.1.5,1.1,1.1s-.5,1.1-1.1,1.1-1.1-.5-1.1-1.1.5-1.1,1.1-1.1ZM16,9.6c3.5,0,6.4,2.9,6.4,6.4s-2.9,6.4-6.4,6.4-6.4-2.9-6.4-6.4,2.9-6.4,6.4-6.4ZM16,11.7c-1.1,0-2.2.4-3,1.2-.8.8-1.2,1.9-1.2,3s.4,2.2,1.2,3c.8.8,1.9,1.2,3,1.2s2.2-.4,3-1.2c.8-.8,1.2-1.9,1.2-3s-.4-2.2-1.2-3c-.8-.8-1.9-1.2-3-1.2Z"/>
</svg>