<?xml version="1.0" encoding="UTF-8"?>
<svg id="Layer_1" xmlns="http://www.w3.org/2000/svg" version="1.1" viewBox="0 0 32 32">
  <!-- Generator: Adobe Illustrator 29.3.1, SVG Export Plug-In . SVG Version: 2.1.0 Build 151)  -->
  <defs>
    <style>
      .st0 {
        fill: #292929;
      }
    </style>
  </defs>
  <path class="st0" d="M25.6,3H6c-1.7,0-3,1.4-3,3v19.5c0,1.7,1.4,3,3,3h19.5c1.7,0,3-1.4,3-3V6c0-1.7-1.4-3-3-3ZM23.1,12.1h-1.2c-1.3,0-1.8.3-1.8,1.2v1.8h3l-.6,3h-2.4v9.1h-3v-9.1h-2.4v-3h2.4v-1.8c0-2.4,1.2-4.3,3.7-4.3s2.4.6,2.4.6v2.4Z"/>
</svg>