<svg width="24" height="25" viewBox="0 0 24 25" fill="none" xmlns="http://www.w3.org/2000/svg">
<path d="M12 6.35138C14.0026 6.35138 14.2398 6.359 15.0306 6.39508C15.7619 6.42846 16.159 6.55064 16.4233 6.65332C16.7733 6.78937 17.0232 6.95193 17.2856 7.21436C17.5481 7.47679 17.7106 7.72666 17.8467 8.07671C17.9494 8.34102 18.0715 8.73814 18.1049 9.46936C18.141 10.2602 18.1486 10.4974 18.1486 12.5C18.1486 14.5026 18.141 14.7398 18.1049 15.5306C18.0715 16.2619 17.9494 16.659 17.8467 16.9233C17.7106 17.2734 17.5481 17.5232 17.2856 17.7857C17.0232 18.0481 16.7733 18.2107 16.4233 18.3467C16.159 18.4494 15.7619 18.5716 15.0306 18.6049C14.2399 18.641 14.0027 18.6487 12 18.6487C9.99727 18.6487 9.76008 18.641 8.96936 18.6049C8.23811 18.5716 7.84099 18.4494 7.57671 18.3467C7.22663 18.2107 6.97676 18.0481 6.71433 17.7857C6.4519 17.5232 6.28934 17.2734 6.15332 16.9233C6.05061 16.659 5.92843 16.2619 5.89505 15.5307C5.85897 14.7398 5.85135 14.5026 5.85135 12.5C5.85135 10.4974 5.85897 10.2602 5.89505 9.46939C5.92843 8.73814 6.05061 8.34102 6.15332 8.07671C6.28934 7.72666 6.4519 7.47679 6.71433 7.21436C6.97676 6.95193 7.22663 6.78937 7.57671 6.65332C7.84099 6.55064 8.23811 6.42846 8.96933 6.39508C9.7602 6.359 9.99739 6.35138 12 6.35138ZM12 5C9.96309 5 9.70771 5.00863 8.90776 5.04513C8.10944 5.08157 7.56427 5.20834 7.08719 5.39376C6.59399 5.58542 6.17574 5.84187 5.75879 6.25882C5.34184 6.67577 5.08539 7.09402 4.89373 7.58721C4.70831 8.0643 4.58154 8.60947 4.5451 9.40779C4.5086 10.2077 4.5 10.4631 4.5 12.5C4.5 14.5369 4.5086 14.7923 4.5451 15.5922C4.58154 16.3906 4.70831 16.9357 4.89373 17.4128C5.08539 17.906 5.34184 18.3243 5.75879 18.7412C6.17574 19.1582 6.59399 19.4146 7.08719 19.6063C7.56427 19.7917 8.10944 19.9185 8.90776 19.9549C9.70771 19.9914 9.96309 20 12 20C14.0369 20 14.2923 19.9914 15.0922 19.9549C15.8905 19.9185 16.4357 19.7917 16.9128 19.6063C17.406 19.4146 17.8242 19.1582 18.2412 18.7412C18.6581 18.3243 18.9146 17.906 19.1062 17.4128C19.2917 16.9357 19.4184 16.3906 19.4549 15.5922C19.4914 14.7923 19.5 14.5369 19.5 12.5C19.5 10.4631 19.4914 10.2077 19.4549 9.40779C19.4184 8.60947 19.2917 8.0643 19.1062 7.58721C18.9146 7.09402 18.6581 6.67577 18.2412 6.25882C17.8242 5.84187 17.406 5.58542 16.9128 5.39376C16.4357 5.20834 15.8905 5.08157 15.0922 5.04513C14.2923 5.00863 14.0369 5 12 5ZM12 8.64865C9.87295 8.64865 8.14862 10.373 8.14862 12.5C8.14862 14.6271 9.87295 16.3514 12 16.3514C14.127 16.3514 15.8513 14.6271 15.8513 12.5C15.8513 10.373 14.127 8.64865 12 8.64865ZM12 15C10.6193 15 9.49997 13.8807 9.49997 12.5C9.49997 11.1193 10.6193 10 12 10C13.3807 10 14.5 11.1193 14.5 12.5C14.5 13.8807 13.3807 15 12 15ZM16.9035 8.49649C16.9035 8.99355 16.5006 9.39651 16.0035 9.39651C15.5064 9.39651 15.1035 8.99355 15.1035 8.49649C15.1035 7.99943 15.5064 7.5965 16.0035 7.5965C16.5006 7.5965 16.9035 7.99943 16.9035 8.49649Z" fill="#292929"/>
</svg>
