<svg width="64" height="64" viewBox="0 0 64 64" fill="none" xmlns="http://www.w3.org/2000/svg">
<path d="M28.1077 43.9712C27.2985 43.507 26.5153 42.9655 25.7583 42.3465C25.0012 41.7276 24.2964 41.0571 23.6699 40.335C22.7301 39.2777 21.973 38.143 21.3204 36.9567C20.72 35.7704 20.2762 34.5841 20.0412 33.3978C19.8063 32.2373 19.8324 31.1284 20.1195 30.0969C20.4067 29.0653 20.981 28.1369 21.8947 27.3633C22.6518 26.7186 23.4349 26.3833 24.3225 26.3575C24.5835 26.3575 24.8446 26.3575 25.1056 26.3833C26.0715 26.4865 27.0374 26.0996 27.6378 25.3518L27.9511 24.9907C29.0214 23.7013 28.421 21.6898 26.8025 21.2513H26.7764C25.2362 20.8387 23.7482 20.7872 22.2863 21.1224C20.8244 21.4319 19.4408 22.154 18.1617 23.2371C16.6476 24.5265 15.6034 25.9965 15.029 27.6212C14.4547 29.2459 14.272 30.9995 14.5069 32.8563C14.7419 34.7131 15.3423 36.5956 16.3082 38.4782C17.2741 40.3866 18.5532 42.2434 20.1457 44.1002C21.2682 45.3896 22.4168 46.5243 23.6438 47.5043C26.7242 49.98 33.381 47.659 28.1077 43.9712Z" fill="#FD267D"/>
<path d="M15.1592 22.2058C15.2115 22.1026 15.2898 22.0252 15.342 21.9221C15.4986 21.7416 15.6814 21.561 15.838 21.3805C16.0207 21.2 16.2035 21.0195 16.3862 20.8648C16.4645 20.7874 16.5689 20.71 16.6733 20.6327C17.0388 20.4006 17.4043 20.1169 17.7959 19.8848C18.2136 19.6527 18.6312 19.4464 19.075 19.2401C19.1272 19.2143 19.2056 19.1885 19.2578 19.1627C19.4666 19.0853 19.6493 19.0338 19.8582 18.9564C20.2237 18.8274 20.6152 18.7243 20.9807 18.6469C21.1634 18.5953 21.3201 18.5696 21.5028 18.5438C21.5289 18.5438 21.6333 18.518 21.7117 18.518C21.7639 18.518 21.8422 18.518 21.8683 18.4922C21.9988 18.4922 22.1293 18.4664 22.2599 18.4922C23.4607 18.4922 24.6093 17.4348 24.5571 16.2228C24.4788 14.9849 23.539 13.9534 22.2338 13.9534C20.3542 13.9534 18.4746 14.5723 16.7778 15.3202C14.5327 16.3001 12.5748 17.899 11.1913 19.9106C10.5125 20.8905 10.9563 22.4637 12.0266 23.0052C13.1753 23.6241 14.4283 23.2631 15.1592 22.2058Z" fill="#FD267D"/>
<path d="M53.0646 17.7959C49.1488 12.2513 40.6646 11.2198 34.9476 14.4691C33.8511 15.0881 33.4857 16.5322 34.1122 17.5638C34.7387 18.6211 36.1745 18.9822 37.2448 18.389C37.5581 18.2085 37.8974 18.0538 38.2107 17.899C38.0019 18.0022 38.1063 17.9248 38.2629 17.8733C38.4196 17.8217 38.6023 17.7443 38.785 17.6927C39.3854 17.4864 40.012 17.3575 40.6646 17.2543C40.7168 17.2543 41.2389 17.2027 41.3433 17.2027C41.7088 17.177 42.0482 17.177 42.4136 17.177C42.7269 17.177 43.0402 17.2027 43.3534 17.2285C43.4056 17.2285 43.4317 17.2285 43.4579 17.2285C43.4579 17.2285 43.4579 17.2285 43.484 17.2285C43.6667 17.2543 43.8233 17.2801 44.0061 17.3059C44.5543 17.4348 45.1547 17.5896 45.729 17.7959C45.8856 17.8475 46.0423 17.899 46.1989 17.9764H46.225C46.2511 17.9764 46.2511 18.0022 46.2772 18.0022C46.5383 18.1311 46.7993 18.2601 47.0604 18.389C47.3475 18.5438 47.5825 18.6985 47.8696 18.879C47.9741 18.9306 48.2873 19.2143 47.9218 18.9048C48.0263 18.9822 48.1046 19.0595 48.209 19.1369C48.4439 19.3174 48.6528 19.5237 48.8355 19.7558C48.9138 19.8332 48.9922 19.9106 49.0705 20.0137C49.0966 20.0395 49.0966 20.0653 49.1227 20.0911C49.8275 21.0968 51.1328 21.561 52.2553 20.9163C53.2473 20.3232 53.7694 18.8016 53.0646 17.7959Z" fill="#FD267D"/>
<path d="M46.8247 23.2372C45.5194 22.1283 44.1619 21.432 42.7001 21.0968C41.2382 20.7873 39.7502 20.8131 38.2361 21.1999C36.722 21.6126 35.2079 22.3346 33.6938 23.392C32.1797 24.4235 30.4045 25.9709 29.3081 27.3892C27.3502 29.8907 30.8222 32.8307 35.2601 28.5497C36.0693 27.7503 37.0613 27.2861 37.975 26.8992C38.8887 26.5124 39.8024 26.3319 40.6638 26.3835C41.5253 26.4351 42.3346 26.7703 43.0916 27.415C44.0053 28.1887 44.6057 29.0913 44.8668 30.1486C45.1539 31.1802 45.1539 32.2891 44.919 33.4496C44.684 34.6101 44.2403 35.7964 43.6137 36.9826C42.9872 38.1689 42.178 39.3036 41.2643 40.361C40.6377 41.0831 39.9329 41.7536 39.1759 42.3725C38.4188 42.9914 37.6356 43.533 36.8525 43.9714C36.0693 44.4098 35.2862 44.7451 34.503 44.9772H34.4769C33.4849 45.2608 32.7018 46.0603 32.5451 47.0918C32.2058 49.516 34.6597 51.2438 36.8003 50.2638C37.0613 50.1607 37.2963 50.0317 37.5312 49.9286C38.8104 49.3097 40.0634 48.5102 41.2904 47.5302C42.5173 46.5503 43.6659 45.4156 44.7885 44.1261C46.407 42.2951 47.6861 40.4125 48.652 38.53C49.6179 36.6216 50.2183 34.739 50.4794 32.908C50.7143 31.0512 50.5577 29.3234 49.9834 27.6729C49.383 25.9966 48.3388 24.5267 46.8247 23.2372Z" fill="#FD267D"/>
</svg>
