<svg width="32" height="32" viewBox="0 0 32 32" fill="none" xmlns="http://www.w3.org/2000/svg">
<path d="M14.0534 21.9856C13.6488 21.7535 13.2572 21.4827 12.8786 21.1733C12.5001 20.8638 12.1477 20.5285 11.8344 20.1675C11.3645 19.6388 10.986 19.0715 10.6597 18.4783C10.3595 17.8852 10.1376 17.2921 10.0201 16.6989C9.90266 16.1187 9.91571 15.5642 10.0593 15.0484C10.2029 14.5327 10.49 14.0685 10.9469 13.6816C11.3254 13.3593 11.717 13.1917 12.1608 13.1788C12.2913 13.1788 12.4218 13.1788 12.5523 13.1917C13.0353 13.2432 13.5182 13.0498 13.8184 12.6759L13.9751 12.4954C14.5102 11.8506 14.21 10.8449 13.4008 10.6257H13.3877C12.6176 10.4194 11.8736 10.3936 11.1427 10.5612C10.4117 10.7159 9.71992 11.077 9.08034 11.6185C8.32329 12.2633 7.80119 12.9982 7.51403 13.8106C7.22687 14.6229 7.1355 15.4997 7.25298 16.4281C7.37045 17.3565 7.67066 18.2978 8.15361 19.2391C8.63655 20.1933 9.27613 21.1217 10.0723 22.0501C10.6336 22.6948 11.2079 23.2622 11.8214 23.7521C13.3616 24.99 16.69 23.8295 14.0534 21.9856Z" fill="#FD267D"/>
<path d="M7.57914 11.103C7.60524 11.0514 7.6444 11.0127 7.6705 10.9612C7.74882 10.8709 7.84019 10.7806 7.9185 10.6904C8.00987 10.6001 8.10124 10.5099 8.19261 10.4325C8.23177 10.3938 8.28398 10.3551 8.33619 10.3164C8.51892 10.2004 8.70166 10.0586 8.89745 9.94251C9.10629 9.82646 9.31513 9.72331 9.53703 9.62015C9.56313 9.60726 9.60229 9.59436 9.62839 9.58147C9.73281 9.54279 9.82418 9.517 9.9286 9.47831C10.1113 9.41384 10.3071 9.36226 10.4899 9.32358C10.5812 9.29779 10.6595 9.2849 10.7509 9.272C10.764 9.272 10.8162 9.25911 10.8553 9.25911C10.8814 9.25911 10.9206 9.25911 10.9337 9.24622C10.9989 9.24622 11.0642 9.23332 11.1294 9.24622C11.7299 9.24622 12.3042 8.71755 12.2781 8.11151C12.2389 7.49258 11.769 6.97681 11.1164 6.97681C10.1766 6.97681 9.23682 7.28627 8.3884 7.66021C7.26587 8.15019 6.28693 8.94964 5.59514 9.95541C5.25577 10.4454 5.47767 11.2319 6.01282 11.5027C6.58714 11.8122 7.21366 11.6317 7.57914 11.103Z" fill="#FD267D"/>
<path d="M26.5323 8.89794C24.5744 6.12565 20.3323 5.60988 17.4738 7.23457C16.9256 7.54403 16.7428 8.26612 17.0561 8.78189C17.3694 9.31056 18.0873 9.49108 18.6224 9.19451C18.779 9.10425 18.9487 9.02689 19.1054 8.94952C19.0009 9.0011 19.0531 8.96241 19.1315 8.93663C19.2098 8.91084 19.3011 8.87215 19.3925 8.84637C19.6927 8.74321 20.006 8.67874 20.3323 8.62716C20.3584 8.62716 20.6195 8.60137 20.6717 8.60137C20.8544 8.58848 21.0241 8.58848 21.2068 8.58848C21.3635 8.58848 21.5201 8.60137 21.6767 8.61427C21.7028 8.61427 21.7159 8.61427 21.7289 8.61427C21.7289 8.61427 21.7289 8.61427 21.742 8.61427C21.8333 8.62716 21.9117 8.64006 22.003 8.65295C22.2771 8.71742 22.5773 8.79479 22.8645 8.89794C22.9428 8.92373 23.0211 8.94952 23.0994 8.9882H23.1125C23.1256 8.9882 23.1256 9.0011 23.1386 9.0011C23.2691 9.06557 23.3997 9.13004 23.5302 9.19451C23.6738 9.27188 23.7912 9.34925 23.9348 9.43951C23.987 9.4653 24.1437 9.60713 23.9609 9.4524C24.0131 9.49108 24.0523 9.52977 24.1045 9.56845C24.222 9.65871 24.3264 9.76187 24.4178 9.87791C24.4569 9.9166 24.4961 9.95528 24.5352 10.0069C24.5483 10.0198 24.5483 10.0326 24.5613 10.0455C24.9138 10.5484 25.5664 10.7805 26.1277 10.4582C26.6237 10.1616 26.8847 9.40082 26.5323 8.89794Z" fill="#FD267D"/>
<path d="M23.4118 11.6185C22.7592 11.064 22.0805 10.7159 21.3495 10.5483C20.6186 10.3935 19.8746 10.4064 19.1175 10.5998C18.3605 10.8062 17.6034 11.1672 16.8464 11.6959C16.0893 12.2116 15.2018 12.9853 14.6536 13.6945C13.6746 14.9452 15.4106 16.4152 17.6295 14.2747C18.0342 13.875 18.5302 13.6429 18.987 13.4495C19.4439 13.2561 19.9007 13.1658 20.3314 13.1916C20.7622 13.2174 21.1668 13.385 21.5453 13.7074C22.0022 14.0942 22.3024 14.5455 22.4329 15.0742C22.5765 15.59 22.5765 16.1444 22.459 16.7247C22.3415 17.3049 22.1196 17.8981 21.8064 18.4912C21.4931 19.0843 21.0885 19.6517 20.6316 20.1804C20.3184 20.5414 19.966 20.8767 19.5874 21.1861C19.2089 21.4956 18.8173 21.7664 18.4258 21.9856C18.0342 22.2048 17.6426 22.3724 17.251 22.4885H17.238C16.742 22.6303 16.3504 23.03 16.2721 23.5458C16.1024 24.7579 17.3293 25.6218 18.3997 25.1318C18.5302 25.0802 18.6477 25.0158 18.7651 24.9642C19.4047 24.6547 20.0312 24.255 20.6447 23.765C21.2582 23.275 21.8325 22.7077 22.3937 22.0629C23.203 21.1474 23.8426 20.2062 24.3255 19.2649C24.8085 18.3107 25.1087 17.3694 25.2392 16.4539C25.3567 15.5255 25.2784 14.6616 24.9912 13.8363C24.691 12.9982 24.1689 12.2632 23.4118 11.6185Z" fill="#FD267D"/>
</svg>
