<svg width="16" height="16" viewBox="0 0 16 16" fill="none" xmlns="http://www.w3.org/2000/svg">
<path d="M7.02669 10.9928C6.82438 10.8768 6.62859 10.7414 6.43932 10.5866C6.25006 10.4319 6.07385 10.2643 5.91722 10.0838C5.68227 9.81942 5.49301 9.53574 5.32985 9.23917C5.17975 8.9426 5.0688 8.64603 5.01006 8.34946C4.95133 8.05934 4.95785 7.78211 5.02964 7.52422C5.10143 7.26633 5.24501 7.03424 5.47343 6.84082C5.66269 6.67964 5.85848 6.59583 6.08038 6.58938C6.14564 6.58938 6.2109 6.58938 6.27617 6.59583C6.51764 6.62162 6.75911 6.52491 6.90922 6.33794L6.98753 6.24768C7.25511 5.92532 7.10501 5.42244 6.70038 5.31284H6.69385C6.3088 5.20968 5.9368 5.19679 5.57133 5.2806C5.20585 5.35797 4.85996 5.53849 4.54017 5.80927C4.16165 6.13163 3.90059 6.49912 3.75702 6.90529C3.61344 7.31146 3.56775 7.74987 3.62649 8.21407C3.68523 8.67827 3.83533 9.14891 4.0768 9.61956C4.31828 10.0966 4.63807 10.5608 5.03617 11.025C5.3168 11.3474 5.60396 11.6311 5.91069 11.8761C6.6808 12.495 8.345 11.9148 7.02669 10.9928Z" fill="#FD267D"/>
<path d="M3.78957 5.55138C3.80262 5.52559 3.8222 5.50625 3.83525 5.48046C3.87441 5.43533 3.92009 5.3902 3.95925 5.34507C4.00494 5.29994 4.05062 5.25481 4.0963 5.21613C4.11588 5.19679 4.14199 5.17744 4.16809 5.1581C4.25946 5.10008 4.35083 5.02916 4.44872 4.97113C4.55314 4.91311 4.65757 4.86153 4.76851 4.80995C4.78157 4.80351 4.80114 4.79706 4.8142 4.79061C4.86641 4.77127 4.91209 4.75838 4.9643 4.73903C5.05567 4.7068 5.15356 4.68101 5.24493 4.66167C5.29062 4.64877 5.32977 4.64233 5.37546 4.63588C5.38198 4.63588 5.40809 4.62943 5.42767 4.62943C5.44072 4.62943 5.4603 4.62943 5.46683 4.62299C5.49946 4.62299 5.53209 4.61654 5.56472 4.62299C5.86493 4.62299 6.15209 4.35865 6.13903 4.05563C6.11946 3.74617 5.88451 3.48828 5.55819 3.48828C5.0883 3.48828 4.61841 3.64301 4.1942 3.82998C3.63294 4.07497 3.14346 4.4747 2.79757 4.97758C2.62789 5.22257 2.73883 5.61585 3.00641 5.75124C3.29357 5.90598 3.60683 5.81571 3.78957 5.55138Z" fill="#FD267D"/>
<path d="M13.2657 4.44897C12.2867 3.06283 10.1657 2.80494 8.7364 3.61728C8.4623 3.77202 8.37093 4.13306 8.52756 4.39095C8.68419 4.65528 9.04314 4.74554 9.31072 4.59726C9.38903 4.55213 9.47387 4.51344 9.55219 4.47476C9.49998 4.50055 9.52608 4.48121 9.56524 4.46831C9.6044 4.45542 9.65008 4.43608 9.69577 4.42318C9.84587 4.37161 10.0025 4.33937 10.1657 4.31358C10.1787 4.31358 10.3092 4.30069 10.3353 4.30069C10.4267 4.29424 10.5116 4.29424 10.6029 4.29424C10.6812 4.29424 10.7596 4.30069 10.8379 4.30713C10.8509 4.30713 10.8574 4.30713 10.864 4.30713C10.864 4.30713 10.864 4.30713 10.8705 4.30713C10.9162 4.31358 10.9553 4.32003 11.001 4.32647C11.1381 4.35871 11.2882 4.39739 11.4318 4.44897C11.4709 4.46187 11.5101 4.47476 11.5492 4.4941H11.5558C11.5623 4.4941 11.5623 4.50055 11.5688 4.50055C11.6341 4.53278 11.6993 4.56502 11.7646 4.59726C11.8364 4.63594 11.8951 4.67462 11.9669 4.71975C11.993 4.73265 12.0713 4.80357 11.98 4.7262C12.0061 4.74554 12.0257 4.76488 12.0518 4.78422C12.1105 4.82936 12.1627 4.88093 12.2084 4.93896C12.228 4.9583 12.2476 4.97764 12.2671 5.00343C12.2737 5.00988 12.2737 5.01632 12.2802 5.02277C12.4564 5.27421 12.7827 5.39026 13.0633 5.22908C13.3113 5.0808 13.4419 4.70041 13.2657 4.44897Z" fill="#FD267D"/>
<path d="M11.7064 5.80925C11.3801 5.53202 11.0407 5.35795 10.6753 5.27414C10.3098 5.19677 9.93779 5.20322 9.55926 5.29992C9.18074 5.40308 8.80221 5.5836 8.42368 5.84793C8.04516 6.10582 7.60137 6.49265 7.32727 6.84725C6.83779 7.47262 7.70579 8.2076 8.81526 7.13737C9.01758 6.93751 9.26558 6.82146 9.494 6.72475C9.72242 6.62804 9.95084 6.58291 10.1662 6.59581C10.3816 6.6087 10.5839 6.69252 10.7732 6.8537C11.0016 7.04711 11.1517 7.27276 11.2169 7.5371C11.2887 7.79498 11.2887 8.07221 11.23 8.36234C11.1713 8.65246 11.0603 8.94903 10.9037 9.2456C10.747 9.54217 10.5447 9.82585 10.3163 10.0902C10.1597 10.2707 9.98347 10.4383 9.79421 10.5931C9.60495 10.7478 9.40916 10.8832 9.21337 10.9928C9.01758 11.1024 8.82179 11.1862 8.626 11.2442H8.61947C8.37147 11.3151 8.17569 11.515 8.13653 11.7729C8.05169 12.3789 8.66516 12.8109 9.20031 12.5659C9.26558 12.5401 9.32431 12.5079 9.38305 12.4821C9.70284 12.3274 10.0161 12.1275 10.3228 11.8825C10.6296 11.6375 10.9167 11.3538 11.1974 11.0315C11.602 10.5737 11.9218 10.1031 12.1633 9.63243C12.4047 9.15534 12.5548 8.6847 12.6201 8.22695C12.6788 7.76275 12.6397 7.33079 12.4961 6.91817C12.346 6.4991 12.0849 6.13161 11.7064 5.80925Z" fill="#FD267D"/>
</svg>
