<svg width="29" height="32" viewBox="0 0 29 32" fill="none" xmlns="http://www.w3.org/2000/svg">
<g clip-path="url(#clip0_786_181)">
<path fill-rule="evenodd" clip-rule="evenodd" d="M19.368 23.9485C19.1817 25.4851 18.2504 26.7162 16.8086 27.3322C16.0056 27.6753 14.9264 27.8607 14.0727 27.8027C12.7412 27.7521 11.4897 27.4278 10.3362 26.8363C9.92448 26.6247 9.31016 26.2024 8.83799 25.8062C8.71872 25.7065 8.70402 25.642 8.78326 25.5301C8.82574 25.4655 8.90498 25.3495 9.07816 25.0947C9.33059 24.7254 9.36163 24.6789 9.39022 24.6356C9.4711 24.5114 9.6018 24.5008 9.73169 24.6029C9.74095 24.61 9.74884 24.6162 9.75538 24.6217C9.76192 24.6271 9.78561 24.6456 9.82645 24.6772C9.8771 24.7164 9.90733 24.7401 9.91958 24.7491C11.1637 25.7229 12.6121 26.2849 14.0744 26.3413C16.1093 26.3135 17.5724 25.3986 17.8346 23.9943C18.123 22.4479 16.9091 21.113 14.5351 20.3688C13.7925 20.136 11.9153 19.3845 11.5697 19.1819C9.94409 18.2285 9.18436 16.9795 9.29301 15.4363C9.45884 13.2977 11.4439 11.7031 13.9527 11.6924C15.0743 11.69 16.1943 11.9236 17.2693 12.3762C17.65 12.5363 18.3297 12.9064 18.5649 13.082C18.6997 13.1817 18.7267 13.2968 18.6491 13.4218C18.6058 13.4945 18.5339 13.6089 18.3836 13.8483L18.382 13.8507C18.1834 14.166 18.1769 14.1758 18.132 14.2494C18.0536 14.3694 17.9604 14.3801 17.8191 14.2902C16.6681 13.5174 15.3929 13.1286 13.9894 13.1C12.2429 13.1343 10.9334 14.1742 10.8476 15.5899C10.8247 16.8692 11.7838 17.8029 13.8563 18.5144C18.0625 19.8664 19.6719 21.4504 19.3696 23.9494M14.1732 1.86827C16.9115 1.86827 19.1441 4.46686 19.2487 7.7198H9.09858C9.20315 4.46686 11.4349 1.86827 14.1732 1.86827ZM28.3458 8.33167C28.3458 7.99346 28.0738 7.7198 27.738 7.7198H21.1594C20.9977 3.4253 17.9318 0 14.1732 0C10.4146 0 7.34876 3.4253 7.18702 7.72062H0.598635C0.268604 7.72634 0.00229108 7.99837 0.00229108 8.33248C0.00229108 8.34882 0.00229108 8.36434 0.0039249 8.37986H-0.000976562L0.93847 29.0828C0.93847 29.1408 0.940921 29.1988 0.945005 29.2568C0.945822 29.2699 0.946639 29.283 0.948273 29.296L0.949907 29.3393L0.952357 29.3418C1.09532 30.782 2.14096 31.9428 3.56238 31.9959L3.56565 31.9992H24.4647C24.4745 31.9992 24.4843 31.9992 24.4941 31.9992C24.5039 31.9992 24.5137 31.9992 24.5235 31.9992H24.5692C26.016 31.9592 27.1874 30.782 27.3108 29.3238L27.3116 29.3034C27.3124 29.2879 27.314 29.2732 27.3149 29.2576C27.3173 29.2209 27.3189 29.1841 27.3189 29.1482L28.3434 8.36352C28.3434 8.3529 28.3434 8.34229 28.3434 8.33167" fill="#EE4D30"/>
</g>
<defs>
<clipPath id="clip0_786_181">
<rect width="28.346" height="32" fill="white"/>
</clipPath>
</defs>
</svg>
