<svg width="29" height="32" viewBox="0 0 29 32" fill="none" xmlns="http://www.w3.org/2000/svg">
<g clip-path="url(#clip0_785_165)">
<path fill-rule="evenodd" clip-rule="evenodd" d="M21.1028 6.11726H28.3007V22.8601C28.3007 25.3749 27.273 27.6605 25.6163 29.3164C23.9605 30.9723 21.6749 32.0008 19.16 32.0008H0V6.11726H7.19798C7.39853 4.53856 8.12431 3.12334 9.19443 2.05321C10.4628 0.784807 12.2148 0 14.15 0C16.0851 0 17.8371 0.784807 19.1056 2.05246C20.1757 3.12258 20.9015 4.53781 21.102 6.1165L21.1028 6.11726ZM8.97798 6.17402C9.79987 6.2444 10.5854 6.37911 11.3316 6.56907C12.348 6.8279 13.2918 7.19192 14.1507 7.63844C15.009 7.19192 15.9527 6.8279 16.9698 6.56907C17.7161 6.37911 18.5016 6.2444 19.3235 6.17402C19.1457 5.06151 18.6174 4.06556 17.8553 3.30421C16.907 2.35594 15.5978 1.77017 14.1507 1.77017C12.7037 1.77017 11.3945 2.35669 10.4462 3.30421C9.68408 4.06632 9.15583 5.06151 8.97798 6.17402Z" fill="#414141"/>
<path fill-rule="evenodd" clip-rule="evenodd" d="M20.669 7.11255H27.2116C27.263 7.11255 27.3054 7.15493 27.3054 7.20639V22.8594C27.3054 27.3389 23.6402 31.0041 19.1607 31.0041H14.1514V8.77147C15.9132 7.74827 18.1299 7.11255 20.6697 7.11255H20.669Z" fill="#4F9D4E"/>
<path fill-rule="evenodd" clip-rule="evenodd" d="M7.63252 7.11255H1.08994C1.03847 7.11255 0.996094 7.15493 0.996094 7.20639V31.0041H14.1509V8.77147C12.389 7.74827 10.1724 7.11255 7.63252 7.11255Z" fill="#60BB55"/>
<path fill-rule="evenodd" clip-rule="evenodd" d="M24.3605 29.1157C22.9475 30.2933 21.1327 31.0047 19.1597 31.0047H14.1504V22.387C18.6746 22.4082 22.5706 25.1576 24.3605 29.1157Z" fill="#60BB55"/>
<path fill-rule="evenodd" clip-rule="evenodd" d="M3.16992 31.0047H14.1504V22.387C14.133 22.387 14.1156 22.387 14.0982 22.387C8.8611 22.387 4.45649 26.0431 3.16992 31.0047Z" fill="#84C567"/>
<path fill-rule="evenodd" clip-rule="evenodd" d="M8.01201 10.2849C9.84953 10.2849 11.5137 11.0296 12.7186 12.2344C13.3248 12.8406 13.8144 13.5626 14.1512 14.3649C14.488 13.5626 14.9776 12.8406 15.5838 12.2344C16.7887 11.0296 18.4521 10.2849 20.2904 10.2849C22.1287 10.2849 23.7922 11.0296 24.997 12.2344C26.2018 13.4393 26.9465 15.1027 26.9465 16.941C26.9465 18.7793 26.2018 20.4428 24.997 21.6476C23.7922 22.8524 22.1287 23.5971 20.2904 23.5971C19.3331 23.5971 18.4226 23.3951 17.6 23.0303L17.2753 23.3549L14.6469 25.9833L14.0998 26.5305L13.5526 25.9833L10.9242 23.3549L10.6313 23.0621C9.82759 23.4064 8.94288 23.5971 8.01352 23.5971C6.176 23.5971 4.51179 22.8524 3.30695 21.6476C2.10212 20.4428 1.35742 18.7793 1.35742 16.941C1.35742 15.1027 2.10212 13.4393 3.30695 12.2344C4.51179 11.0296 6.17524 10.2849 8.01352 10.2849H8.01201ZM14.9307 20.8893C14.6189 20.467 14.3563 20.0068 14.1505 19.5172C13.9484 19.9985 13.6911 20.4503 13.3876 20.8658C13.6199 20.8249 13.8568 20.803 14.0982 20.803C14.382 20.803 14.6605 20.8325 14.9307 20.8885V20.8893Z" fill="#414141"/>
<path d="M20.29 22.6011C23.416 22.6011 25.9502 20.0669 25.9502 16.9409C25.9502 13.8149 23.416 11.2808 20.29 11.2808C17.164 11.2808 14.6299 13.8149 14.6299 16.9409C14.6299 20.0669 17.164 22.6011 20.29 22.6011Z" fill="white"/>
<path d="M8.01171 22.6011C11.1377 22.6011 13.6719 20.0669 13.6719 16.9409C13.6719 13.8149 11.1377 11.2808 8.01171 11.2808C4.8857 11.2808 2.35156 13.8149 2.35156 16.9409C2.35156 20.0669 4.8857 22.6011 8.01171 22.6011Z" fill="white"/>
<path fill-rule="evenodd" clip-rule="evenodd" d="M8.63406 13.3635C10.6101 13.3635 12.2115 14.9649 12.2115 16.9409C12.2115 18.917 10.6101 20.5184 8.63406 20.5184C6.65804 20.5184 5.05664 18.917 5.05664 16.9409C5.05664 16.2924 5.22919 15.6839 5.53116 15.1587C5.76501 15.8519 6.4204 16.3506 7.19159 16.3506C8.15954 16.3506 8.94359 15.5658 8.94359 14.5986C8.94359 14.1196 8.75136 13.6852 8.43956 13.3688C8.50389 13.365 8.56822 13.3635 8.6333 13.3635H8.63406Z" fill="#414141"/>
<path fill-rule="evenodd" clip-rule="evenodd" d="M19.5423 13.3635C21.5183 13.3635 23.1197 14.9649 23.1197 16.9409C23.1197 18.917 21.5183 20.5184 19.5423 20.5184C17.5662 20.5184 15.9648 18.917 15.9648 16.9409C15.9648 16.2924 16.1374 15.6839 16.4394 15.1587C16.6732 15.8519 17.3286 16.3506 18.0998 16.3506C19.0677 16.3506 19.8518 15.5658 19.8518 14.5986C19.8518 14.1196 19.6596 13.6852 19.3478 13.3688C19.4121 13.365 19.4764 13.3635 19.5415 13.3635H19.5423Z" fill="#414141"/>
<path fill-rule="evenodd" clip-rule="evenodd" d="M14.0986 21.5779C15.1332 21.5779 16.0663 22.0501 16.727 22.8077L14.0986 25.4361V21.5779Z" fill="#FFC868"/>
<path fill-rule="evenodd" clip-rule="evenodd" d="M14.0981 25.4361L11.4697 22.8077C12.1312 22.0501 13.0643 21.5779 14.0981 21.5779V25.4361Z" fill="#FCF5AE"/>
</g>
<defs>
<clipPath id="clip0_785_165">
<rect width="28.3007" height="32" fill="white"/>
</clipPath>
</defs>
</svg>
