<svg width="20" height="20" viewBox="0 0 20 20" fill="none" xmlns="http://www.w3.org/2000/svg">
<path fill-rule="evenodd" clip-rule="evenodd" d="M7.5 1.75C6.39543 1.75 5.5 2.64543 5.5 3.75V4.60737C3.31035 5.41977 1.75 7.52767 1.75 10C1.75 13.1756 4.32436 15.75 7.5 15.75C7.58451 15.75 7.66859 15.7482 7.7522 15.7446C8.78803 17.2574 10.5281 18.25 12.5 18.25C15.6756 18.25 18.25 15.6756 18.25 12.5C18.25 9.32436 15.6756 6.75 12.5 6.75C12.4155 6.75 12.3314 6.75182 12.2478 6.75543C11.5814 5.78218 10.6235 5.02423 9.5 4.60737V3.75C9.5 2.64543 8.60457 1.75 7.5 1.75ZM8 4.25V3.75C8 3.47386 7.77614 3.25 7.5 3.25C7.22386 3.25 7 3.47386 7 3.75V4.25H8ZM7.5 5.75C5.15279 5.75 3.25 7.65279 3.25 10C3.25 12.1823 4.89483 13.9805 7.0124 14.2223C6.8419 13.6786 6.75 13.1 6.75 12.5C6.75 9.99583 8.35079 7.86555 10.5849 7.07664C9.81036 6.25958 8.71469 5.75 7.5 5.75ZM16.75 12.5C16.75 10.3177 15.1052 8.51954 12.9876 8.27767C13.1581 8.82144 13.25 9.39999 13.25 10C13.25 12.5042 11.6492 14.6344 9.41511 15.4234C10.1896 16.2404 11.2853 16.75 12.5 16.75C14.8472 16.75 16.75 14.8472 16.75 12.5ZM11.75 10C11.75 9.42835 11.6371 8.88305 11.4325 8.38519C9.60197 8.85873 8.25 10.5215 8.25 12.5C8.25 13.0717 8.36286 13.6169 8.56752 14.1148C10.398 13.6413 11.75 11.9785 11.75 10Z" fill="#292929"/>
</svg>
