<svg width="24" height="24" viewBox="0 0 24 24" fill="none" xmlns="http://www.w3.org/2000/svg">
<path fill-rule="evenodd" clip-rule="evenodd" d="M4.32208 4.15517C4.67816 3.80836 5.24796 3.81588 5.59476 4.17196L8.96638 7.63373L11.3958 5.93317C12.7876 4.95889 14.7 5.9546 14.7 7.65356V13.5207L16.3118 15.1755C17.4124 14.5221 18.15 13.3216 18.15 11.9488C18.15 10.4013 17.2127 9.07272 15.8748 8.49989C15.4681 8.32575 15.15 7.95583 15.15 7.5134C15.15 6.95014 15.6514 6.51096 16.1848 6.69199C18.3744 7.43516 19.95 9.50797 19.95 11.9488C19.95 13.8259 19.0181 15.4853 17.5918 16.4897L19.6198 18.572C19.9666 18.928 19.959 19.4978 19.603 19.8446C19.2469 20.1914 18.6771 20.1839 18.3303 19.8278L15.8039 17.234C15.4951 17.1745 15.245 16.9166 15.1718 16.5849L4.30529 5.42785C3.95848 5.07177 3.966 4.50197 4.32208 4.15517ZM12.9 11.6725V7.65356C12.9 7.41085 12.6268 7.2686 12.428 7.40779L10.2388 8.9402L12.9 11.6725Z" fill="#292929"/>
<path d="M16.4025 14.1826C15.8615 14.6679 15.15 14.1462 15.15 13.4195C15.15 13.1318 15.2831 12.8665 15.4136 12.6064C15.4362 12.5614 15.4587 12.5165 15.4804 12.4717C15.557 12.3136 15.6 12.1362 15.6 11.9487C15.6 11.7613 15.557 11.5839 15.4804 11.4258C15.4587 11.381 15.4362 11.3362 15.4136 11.2911C15.2831 11.031 15.15 10.7657 15.15 10.478C15.15 9.75126 15.8615 9.22957 16.4025 9.71487C17.0148 10.2641 17.4 11.0615 17.4 11.9487C17.4 12.836 17.0148 13.6334 16.4025 14.1826Z" fill="#292929"/>
<path d="M5.42657 9.16532C5.59227 9.05952 5.80681 9.09759 5.94398 9.23843L6.42909 9.73651C6.69942 10.0141 6.50928 10.5618 6.21678 10.8159C5.9002 11.091 5.70002 11.4965 5.70002 11.9488C5.70002 12.7772 6.3716 13.4488 7.20002 13.4488C7.77521 13.4488 8.33647 13.6257 8.80768 13.9555L12.428 16.4898C12.4506 16.5056 12.4742 16.5178 12.4983 16.5266C12.578 16.5559 12.6798 16.5629 12.7831 16.57C12.9429 16.5811 13.1065 16.5924 13.1982 16.6866L13.9516 17.4601C14.063 17.5745 14.0665 17.758 13.9433 17.8595C13.2589 18.4236 12.2331 18.5505 11.3958 17.9644L7.51632 15.2488H7.20002C5.37748 15.2488 3.90002 13.7713 3.90002 11.9488C3.90002 10.779 4.50868 9.75137 5.42657 9.16532Z" fill="#292929"/>
</svg>
